  0
SECTION
  2
HEADER
  9
$ACADVER
  1
AC1015
  9
$ACADMAINTVER
 70
     6
  9
$DWGCODEPAGE
  3
ANSI_1252
  9
$INSBASE
 10
0.0
 20
0.0
 30
0.0
  9
$EXTMIN
 10
0.0
 20
0.0
 30
0.0
  9
$EXTMAX
 10
1117.6
 20
863.6
 30
0.0
  9
$LIMMIN
 10
0.0
 20
0.0
  9
$LIMMAX
 10
1117.6
 20
863.6
  9
$ORTHOMODE
 70
     0
  9
$REGENMODE
 70
     1
  9
$FILLMODE
 70
     1
  9
$QTEXTMODE
 70
     0
  9
$MIRRTEXT
 70
     1
  9
$LTSCALE
 40
1.0
  9
$ATTMODE
 70
     1
  9
$TEXTSIZE
 40
3.175
  9
$TRACEWID
 40
1.0
  9
$TEXTSTYLE
  7
Standard
  9
$CLAYER
  8
0
  9
$CELTYPE
  6
ByLayer
  9
$CECOLOR
 62
   256
  9
$CELTSCALE
 40
1.0
  9
$DISPSILH
 70
     0
  9
$DIMSCALE
 40
1.0
  9
$DIMASZ
 40
3.302
  9
$DIMEXO
 40
1.27
  9
$DIMDLI
 40
3.75
  9
$DIMRND
 40
0.0
  9
$DIMDLE
 40
0.0
  9
$DIMEXE
 40
3.175
  9
$DIMTP
 40
0.0
  9
$DIMTM
 40
0.0
  9
$DIMTXT
 40
3.175
  9
$DIMCEN
 40
2.5
  9
$DIMTSZ
 40
0.0
  9
$DIMTOL
 70
     0
  9
$DIMLIM
 70
     0
  9
$DIMTIH
 70
     1
  9
$DIMTOH
 70
     1
  9
$DIMSE1
 70
     0
  9
$DIMSE2
 70
     0
  9
$DIMTAD
 70
     0
  9
$DIMZIN
 70
     1
  9
$DIMBLK
  1

  9
$DIMASO
 70
     1
  9
$DIMSHO
 70
     1
  9
$DIMPOST
  1

  9
$DIMAPOST
  1

  9
$DIMALT
 70
     0
  9
$DIMALTD
 70
     3
  9
$DIMALTF
 40
0.0393700787
  9
$DIMLFAC
 40
1.0
  9
$DIMTOFL
 70
     1
  9
$DIMTVP
 40
0.0
  9
$DIMTIX
 70
     0
  9
$DIMSOXD
 70
     0
  9
$DIMSAH
 70
     0
  9
$DIMBLK1
  1

  9
$DIMBLK2
  1

  9
$DIMSTYLE
  2
ISO-25
  9
$DIMCLRD
 70
     0
  9
$DIMCLRE
 70
     0
  9
$DIMCLRT
 70
     0
  9
$DIMTFAC
 40
1.0
  9
$DIMGAP
 40
1.524
  9
$DIMJUST
 70
     0
  9
$DIMSD1
 70
     0
  9
$DIMSD2
 70
     0
  9
$DIMTOLJ
 70
     0
  9
$DIMTZIN
 70
     1
  9
$DIMALTZ
 70
     0
  9
$DIMALTTZ
 70
     0
  9
$DIMUPT
 70
     0
  9
$DIMDEC
 70
     4
  9
$DIMTDEC
 70
     4
  9
$DIMALTU
 70
     2
  9
$DIMALTTD
 70
     3
  9
$DIMTXSTY
  7
Standard
  9
$DIMAUNIT
 70
     0
  9
$DIMADEC
 70
     0
  9
$DIMALTRND
 40
0.0
  9
$DIMAZIN
 70
     0
  9
$DIMDSEP
 70
    44
  9
$DIMATFIT
 70
     3
  9
$DIMFRAC
 70
     0
  9
$DIMLDRBLK
  1

  9
$DIMLUNIT
 70
     2
  9
$DIMLWD
 70
    -2
  9
$DIMLWE
 70
    -2
  9
$DIMTMOVE
 70
     0
  9
$LUNITS
 70
     2
  9
$LUPREC
 70
     4
  9
$SKETCHINC
 40
1.0
  9
$FILLETRAD
 40
10.0
  9
$AUNITS
 70
     0
  9
$AUPREC
 70
     0
  9
$MENU
  1
.
  9
$ELEVATION
 40
0.0
  9
$PELEVATION
 40
0.0
  9
$THICKNESS
 40
0.0
  9
$LIMCHECK
 70
     0
  9
$CHAMFERA
 40
0.0
  9
$CHAMFERB
 40
0.0
  9
$CHAMFERC
 40
0.0
  9
$CHAMFERD
 40
0.0
  9
$SKPOLY
 70
     0
  9
$TDCREATE
 40
2458045.660833356
  9
$TDUCREATE
 40
2458045.827500023
  9
$TDUPDATE
 40
2458045.660833542
  9
$TDUUPDATE
 40
2458045.827500208
  9
$TDINDWG
 40
0.0000000116
  9
$TDUSRTIMER
 40
0.0000000116
  9
$USRTIMER
 70
     1
  9
$ANGBASE
 50
0.0
  9
$ANGDIR
 70
     0
  9
$PDMODE
 70
     0
  9
$PDSIZE
 40
-1.0
  9
$PLINEWID
 40
0.0
  9
$SPLFRAME
 70
     0
  9
$SPLINETYPE
 70
     6
  9
$SPLINESEGS
 70
     8
  9
$HANDSEED
  5
384
  9
$SURFTAB1
 70
     6
  9
$SURFTAB2
 70
     6
  9
$SURFTYPE
 70
     6
  9
$SURFU
 70
     6
  9
$SURFV
 70
     6
  9
$UCSBASE
  2

  9
$UCSNAME
  2

  9
$UCSORG
 10
0.0
 20
0.0
 30
0.0
  9
$UCSXDIR
 10
1.0
 20
0.0
 30
0.0
  9
$UCSYDIR
 10
0.0
 20
1.0
 30
0.0
  9
$UCSORTHOREF
  2

  9
$UCSORTHOVIEW
 70
     0
  9
$UCSORGTOP
 10
0.0
 20
0.0
 30
0.0
  9
$UCSORGBOTTOM
 10
0.0
 20
0.0
 30
0.0
  9
$UCSORGLEFT
 10
0.0
 20
0.0
 30
0.0
  9
$UCSORGRIGHT
 10
0.0
 20
0.0
 30
0.0
  9
$UCSORGFRONT
 10
0.0
 20
0.0
 30
0.0
  9
$UCSORGBACK
 10
0.0
 20
0.0
 30
0.0
  9
$PUCSBASE
  2

  9
$PUCSNAME
  2

  9
$PUCSORG
 10
0.0
 20
0.0
 30
0.0
  9
$PUCSXDIR
 10
1.0
 20
0.0
 30
0.0
  9
$PUCSYDIR
 10
0.0
 20
1.0
 30
0.0
  9
$PUCSORTHOREF
  2

  9
$PUCSORTHOVIEW
 70
     0
  9
$PUCSORGTOP
 10
0.0
 20
0.0
 30
0.0
  9
$PUCSORGBOTTOM
 10
0.0
 20
0.0
 30
0.0
  9
$PUCSORGLEFT
 10
0.0
 20
0.0
 30
0.0
  9
$PUCSORGRIGHT
 10
0.0
 20
0.0
 30
0.0
  9
$PUCSORGFRONT
 10
0.0
 20
0.0
 30
0.0
  9
$PUCSORGBACK
 10
0.0
 20
0.0
 30
0.0
  9
$USERI1
 70
     0
  9
$USERI2
 70
     0
  9
$USERI3
 70
     0
  9
$USERI4
 70
     0
  9
$USERI5
 70
     0
  9
$USERR1
 40
0.0
  9
$USERR2
 40
0.0
  9
$USERR3
 40
0.0
  9
$USERR4
 40
0.0
  9
$USERR5
 40
0.0
  9
$WORLDVIEW
 70
     1
  9
$SHADEDGE
 70
     3
  9
$SHADEDIF
 70
    70
  9
$TILEMODE
 70
     1
  9
$MAXACTVP
 70
    64
  9
$PINSBASE
 10
0.0
 20
0.0
 30
0.0
  9
$PLIMCHECK
 70
     0
  9
$PEXTMIN
 10
1.0000000000E+20
 20
1.0000000000E+20
 30
1.0000000000E+20
  9
$PEXTMAX
 10
-1.0000000000E+20
 20
-1.0000000000E+20
 30
-1.0000000000E+20
  9
$PLIMMIN
 10
0.0
 20
0.0
  9
$PLIMMAX
 10
420.0
 20
297.0
  9
$UNITMODE
 70
     0
  9
$VISRETAIN
 70
     1
  9
$PLINEGEN
 70
     0
  9
$PSLTSCALE
 70
     1
  9
$TREEDEPTH
 70
  3020
  9
$CMLSTYLE
  2
Standard
  9
$CMLJUST
 70
     0
  9
$CMLSCALE
 40
20.0
  9
$PROXYGRAPHICS
 70
     1
  9
$MEASUREMENT
 70
     1
  9
$CELWEIGHT
370
    -1
  9
$ENDCAPS
280
     0
  9
$JOINSTYLE
280
     0
  9
$LWDISPLAY
290
     1
  9
$INSUNITS
 70
     4
  9
$HYPERLINKBASE
  1

  9
$STYLESHEET
  1

  9
$XEDIT
290
     1
  9
$CEPSNTYPE
380
     0
  9
$PSTYLEMODE
290
     1
  9
$FINGERPRINTGUID
  2
{B65FF373-2923-4672-9011-5578EEB59029}
  9
$VERSIONGUID
  2
{FAEB1C32-E019-11D5-929B-00C0DF256EC4}
  9
$EXTNAMES
290
     1
  9
$PSVPSCALE
 40
0.0
  9
$OLESTARTUP
290
     0
  0
ENDSEC
  0
SECTION
  2
CLASSES
  0
CLASS
  1
ACDBDICTIONARYWDFLT
  2
AcDbDictionaryWithDefault
  3
ObjectDBX Classes
 90
        0
280
     0
281
     0
  0
CLASS
  1
VISUALSTYLE
  2
AcDbVisualStyle
  3
ObjectDBX Classes
 90
     4095
280
     0
281
     0
  0
CLASS
  1
MATERIAL
  2
AcDbMaterial
  3
ObjectDBX Classes
 90
     1153
280
     0
281
     0
  0
CLASS
  1
SCALE
  2
AcDbScale
  3
ObjectDBX Classes
 90
     1153
280
     0
281
     0
  0
CLASS
  1
TABLESTYLE
  2
AcDbTableStyle
  3
ObjectDBX Classes
 90
     4095
280
     0
281
     0
  0
CLASS
  1
MLEADERSTYLE
  2
AcDbMLeaderStyle
  3
ACDB_MLEADERSTYLE_CLASS
 90
     4095
280
     0
281
     0
  0
CLASS
  1
SUN
  2
AcDbSun
  3
SCENEOE
 90
     1153
280
     0
281
     0
  0
CLASS
  1
ACDBPLACEHOLDER
  2
AcDbPlaceHolder
  3
ObjectDBX Classes
 90
        0
280
     0
281
     0
  0
CLASS
  1
LAYOUT
  2
AcDbLayout
  3
ObjectDBX Classes
 90
        0
280
     0
281
     0
  0
ENDSEC
  0
SECTION
  2
TABLES
  0
TABLE
  2
VPORT
  5
8
330
0
100
AcDbSymbolTable
 70
     1
  0
VPORT
  5
29
330
8
100
AcDbSymbolTableRecord
100
AcDbViewportTableRecord
  2
*Active
 70
     0
 10
0.0
 20
0.0
 11
1.0
 21
1.0
 12
558.8
 22
431.8
 13
0.0
 23
0.0
 14
10.0
 24
10.0
 15
10.0
 25
10.0
 16
0.0
 26
0.0
 36
1.0
 17
0.0
 27
0.0
 37
0.0
 40
863.6
 41
1.2941176471
 42
50.0
 43
0.0
 44
0.0
 50
0.0
 51
0.0
 71
     0
 72
  2000
 73
     1
 74
     3
 75
     0
 76
     0
 77
     0
 78
     0
281
     0
 65
     1
110
0.0
120
0.0
130
0.0
111
1.0
121
0.0
131
0.0
112
0.0
122
1.0
132
0.0
 79
     0
146
0.0
  0
ENDTAB
  0
TABLE
  2
LTYPE
  5
5
330
0
100
AcDbSymbolTable
 70
     6
  0
LTYPE
  5
14
330
5
100
AcDbSymbolTableRecord
100
AcDbLinetypeTableRecord
  2
ByBlock
 70
     0
  3

 72
    65
 73
     0
 40
0.0
  0
LTYPE
  5
15
330
5
100
AcDbSymbolTableRecord
100
AcDbLinetypeTableRecord
  2
ByLayer
 70
     0
  3

 72
    65
 73
     0
 40
0.0
  0
LTYPE
  5
16
330
5
100
AcDbSymbolTableRecord
100
AcDbLinetypeTableRecord
  2
Continuous
 70
     0
  3
Solid line
 72
    65
 73
     0
 40
0.0
  0
LTYPE
  5
6E
330
5
100
AcDbSymbolTableRecord
100
AcDbLinetypeTableRecord
  2
HIDDEN
 70
     0
  3
Hidden __ __ __ __ __ __ __ __ __ __ __ __ __ __
 72
    65
 73
     2
 40
1.905
 49
1.27
 74
     0
 49
-0.635
 74
     0
  0
LTYPE
  5
6F
330
5
100
AcDbSymbolTableRecord
100
AcDbLinetypeTableRecord
  2
PHANTOM
 70
     0
  3
Phantom ______  __  __  ______  __  __  ______
 72
    65
 73
     6
 40
12.7
 49
6.35
 74
     0
 49
-1.27
 74
     0
 49
1.27
 74
     0
 49
-1.27
 74
     0
 49
1.27
 74
     0
 49
-1.27
 74
     0
  0
LTYPE
  5
70
330
5
100
AcDbSymbolTableRecord
100
AcDbLinetypeTableRecord
  2
CENTER
 70
     0
  3
Center ____ _ ____ _ ____ _ ____ _ ____ _ ____
 72
    65
 73
     4
 40
10.16
 49
6.35
 74
     0
 49
-1.27
 74
     0
 49
1.27
 74
     0
 49
-1.27
 74
     0
  0
LTYPE
  5
71
330
5
100
AcDbSymbolTableRecord
100
AcDbLinetypeTableRecord
  2
CENTERX2
 70
     0
  3
Center (2x) ________  __  ________  __  _____
 72
    65
 73
     4
 40
20.32
 49
12.7
 74
     0
 49
-2.54
 74
     0
 49
2.54
 74
     0
 49
-2.54
 74
     0
  0
LTYPE
  5
72
330
5
100
AcDbSymbolTableRecord
100
AcDbLinetypeTableRecord
  2
DOT2
 70
     0
  3
Dot (.5x) ........................................
 72
    65
 73
     2
 40
0.635
 49
0.0
 74
     0
 49
-0.635
 74
     0
  0
ENDTAB
  0
TABLE
  2
LAYER
  5
2
330
0
100
AcDbSymbolTable
 70
     2
  0
LAYER
  5
10
330
2
100
AcDbSymbolTableRecord
100
AcDbLayerTableRecord
  2
0
 70
     0
 62
     7
  6
Continuous
370
    -3
390
F
  0
LAYER
  5
73
330
2
100
AcDbSymbolTableRecord
100
AcDbLayerTableRecord
  2
SLD-0
 70
     0
 62
   179
  6
Continuous
370
    -3
390
F
  0
ENDTAB
  0
TABLE
  2
STYLE
  5
3
330
0
100
AcDbSymbolTable
 70
     1
  0
STYLE
  5
11
330
3
100
AcDbSymbolTableRecord
100
AcDbTextStyleTableRecord
  2
Standard
 70
     0
 40
0.0
 41
1.0
 50
0.0
 71
     0
 42
3.175
  3
txt
  4

  0
ENDTAB
  0
TABLE
  2
VIEW
  5
6
330
0
100
AcDbSymbolTable
 70
     0
  0
ENDTAB
  0
TABLE
  2
UCS
  5
7
330
0
100
AcDbSymbolTable
 70
     0
  0
ENDTAB
  0
TABLE
  2
APPID
  5
9
330
0
100
AcDbSymbolTable
 70
     1
  0
APPID
  5
12
330
9
100
AcDbSymbolTableRecord
100
AcDbRegAppTableRecord
  2
ACAD
 70
     0
  0
ENDTAB
  0
TABLE
  2
DIMSTYLE
  5
A
330
0
100
AcDbSymbolTable
 70
     1
100
AcDbDimStyleTable
  0
DIMSTYLE
105
27
330
A
100
AcDbSymbolTableRecord
100
AcDbDimStyleTableRecord
  2
ISO-25
 70
     0
 41
2.5
 42
0.625
 43
3.75
 44
1.25
 73
     0
 74
     0
 77
     1
 78
     8
140
2.5
141
2.5
143
0.0393700787
147
0.625
171
     3
172
     1
178
     0
271
     2
272
     2
274
     3
278
    44
283
     0
284
     8
340
11
  0
ENDTAB
  0
TABLE
  2
BLOCK_RECORD
  5
1
330
0
100
AcDbSymbolTable
 70
     1
  0
BLOCK_RECORD
  5
1F
330
1
100
AcDbSymbolTableRecord
100
AcDbBlockTableRecord
  2
*Model_Space
340
22
  0
BLOCK_RECORD
  5
1B
330
1
100
AcDbSymbolTableRecord
100
AcDbBlockTableRecord
  2
*Paper_Space
340
1E
  0
BLOCK_RECORD
  5
23
330
1
100
AcDbSymbolTableRecord
100
AcDbBlockTableRecord
  2
*Paper_Space0
340
26
  0
ENDTAB
  0
ENDSEC
  0
SECTION
  2
BLOCKS
  0
BLOCK
  5
20
330
1F
100
AcDbEntity
  8
0
100
AcDbBlockBegin
  2
*Model_Space
 70
     0
 10
0.0
 20
0.0
 30
0.0
  3
*Model_Space
  1

  0
ENDBLK
  5
21
330
1F
100
AcDbEntity
  8
0
100
AcDbBlockEnd
  0
BLOCK
  5
1C
330
1B
100
AcDbEntity
 67
     1
  8
0
100
AcDbBlockBegin
  2
*Paper_Space
 70
     0
 10
0.0
 20
0.0
 30
0.0
  3
*Paper_Space
  1

  0
ENDBLK
  5
1D
330
1B
100
AcDbEntity
 67
     1
  8
0
100
AcDbBlockEnd
  0
BLOCK
  5
24
330
23
100
AcDbEntity
  8
0
100
AcDbBlockBegin
  2
*Paper_Space0
 70
     0
 10
0.0
 20
0.0
 30
0.0
  3
*Paper_Space0
  1

  0
ENDBLK
  5
25
330
23
100
AcDbEntity
  8
0
100
AcDbBlockEnd
  0
ENDSEC
  0
SECTION
  2
ENTITIES
  0
LINE
  5
74
330
1F
100
AcDbEntity
  8
SLD-0
100
AcDbLine
 10
79.375
 20
-306.384325
 30
0.0
 11
79.375
 21
-277.784325
 31
0.0
  0
LINE
  5
75
330
1F
100
AcDbEntity
  8
SLD-0
100
AcDbLine
 10
79.375
 20
-277.784325
 30
0.0
 11
82.55
 21
-277.784325
 31
0.0
  0
LINE
  5
76
330
1F
100
AcDbEntity
  8
SLD-0
100
AcDbLine
 10
82.55
 20
-277.784325
 30
0.0
 11
82.55
 21
-273.262725
 31
0.0
  0
LINE
  5
77
330
1F
100
AcDbEntity
  8
SLD-0
100
AcDbLine
 10
82.55
 20
-273.262725
 30
0.0
 11
79.375
 21
-273.262725
 31
0.0
  0
LINE
  5
78
330
1F
100
AcDbEntity
  8
SLD-0
100
AcDbLine
 10
79.375
 20
-273.262725
 30
0.0
 11
79.375
 21
-269.706725
 31
0.0
  0
LINE
  5
79
330
1F
100
AcDbEntity
  8
SLD-0
100
AcDbLine
 10
79.375
 20
-269.706725
 30
0.0
 11
82.55
 21
-269.706725
 31
0.0
  0
LINE
  5
7A
330
1F
100
AcDbEntity
  8
SLD-0
100
AcDbLine
 10
82.55
 20
-269.706725
 30
0.0
 11
82.55
 21
-265.109325
 31
0.0
  0
LINE
  5
7B
330
1F
100
AcDbEntity
  8
SLD-0
100
AcDbLine
 10
82.55
 20
-265.109325
 30
0.0
 11
79.375
 21
-265.109325
 31
0.0
  0
LINE
  5
7C
330
1F
100
AcDbEntity
  8
SLD-0
100
AcDbLine
 10
79.375
 20
-265.109325
 30
0.0
 11
79.375
 21
-252.409325
 31
0.0
  0
LINE
  5
7D
330
1F
100
AcDbEntity
  8
SLD-0
100
AcDbLine
 10
79.375
 20
-252.409325
 30
0.0
 11
82.55
 21
-252.409325
 31
0.0
  0
LINE
  5
7E
330
1F
100
AcDbEntity
  8
SLD-0
100
AcDbLine
 10
82.55
 20
-252.409325
 30
0.0
 11
82.55
 21
-247.862725
 31
0.0
  0
LINE
  5
7F
330
1F
100
AcDbEntity
  8
SLD-0
100
AcDbLine
 10
82.55
 20
-247.862725
 30
0.0
 11
79.375
 21
-247.862725
 31
0.0
  0
LINE
  5
80
330
1F
100
AcDbEntity
  8
SLD-0
100
AcDbLine
 10
79.375
 20
-247.862725
 30
0.0
 11
79.375
 21
-244.306725
 31
0.0
  0
LINE
  5
81
330
1F
100
AcDbEntity
  8
SLD-0
100
AcDbLine
 10
79.375
 20
-244.306725
 30
0.0
 11
82.55
 21
-244.306725
 31
0.0
  0
LINE
  5
82
330
1F
100
AcDbEntity
  8
SLD-0
100
AcDbLine
 10
82.55
 20
-244.306725
 30
0.0
 11
82.55
 21
-239.709325
 31
0.0
  0
LINE
  5
83
330
1F
100
AcDbEntity
  8
SLD-0
100
AcDbLine
 10
82.55
 20
-239.709325
 30
0.0
 11
79.375
 21
-239.709325
 31
0.0
  0
LINE
  5
84
330
1F
100
AcDbEntity
  8
SLD-0
100
AcDbLine
 10
79.375
 20
-239.709325
 30
0.0
 11
79.375
 21
-227.009325
 31
0.0
  0
LINE
  5
85
330
1F
100
AcDbEntity
  8
SLD-0
100
AcDbLine
 10
79.375
 20
-227.009325
 30
0.0
 11
82.55
 21
-227.009325
 31
0.0
  0
LINE
  5
86
330
1F
100
AcDbEntity
  8
SLD-0
100
AcDbLine
 10
82.55
 20
-227.009325
 30
0.0
 11
82.55
 21
-222.462725
 31
0.0
  0
LINE
  5
87
330
1F
100
AcDbEntity
  8
SLD-0
100
AcDbLine
 10
82.55
 20
-222.462725
 30
0.0
 11
79.375
 21
-222.462725
 31
0.0
  0
LINE
  5
88
330
1F
100
AcDbEntity
  8
SLD-0
100
AcDbLine
 10
79.375
 20
-222.462725
 30
0.0
 11
79.375
 21
-218.906725
 31
0.0
  0
LINE
  5
89
330
1F
100
AcDbEntity
  8
SLD-0
100
AcDbLine
 10
79.375
 20
-218.906725
 30
0.0
 11
82.55
 21
-218.906725
 31
0.0
  0
LINE
  5
8A
330
1F
100
AcDbEntity
  8
SLD-0
100
AcDbLine
 10
82.55
 20
-218.906725
 30
0.0
 11
82.55
 21
-214.309325
 31
0.0
  0
LINE
  5
8B
330
1F
100
AcDbEntity
  8
SLD-0
100
AcDbLine
 10
82.55
 20
-214.309325
 30
0.0
 11
79.375
 21
-214.309325
 31
0.0
  0
LINE
  5
8C
330
1F
100
AcDbEntity
  8
SLD-0
100
AcDbLine
 10
79.375
 20
-214.309325
 30
0.0
 11
79.375
 21
-201.609325
 31
0.0
  0
LINE
  5
8D
330
1F
100
AcDbEntity
  8
SLD-0
100
AcDbLine
 10
79.375
 20
-201.609325
 30
0.0
 11
82.55
 21
-201.609325
 31
0.0
  0
LINE
  5
8E
330
1F
100
AcDbEntity
  8
SLD-0
100
AcDbLine
 10
82.55
 20
-201.609325
 30
0.0
 11
82.55
 21
-197.062725
 31
0.0
  0
LINE
  5
8F
330
1F
100
AcDbEntity
  8
SLD-0
100
AcDbLine
 10
82.55
 20
-197.062725
 30
0.0
 11
79.375
 21
-197.062725
 31
0.0
  0
LINE
  5
90
330
1F
100
AcDbEntity
  8
SLD-0
100
AcDbLine
 10
79.375
 20
-197.062725
 30
0.0
 11
79.375
 21
-193.506725
 31
0.0
  0
LINE
  5
91
330
1F
100
AcDbEntity
  8
SLD-0
100
AcDbLine
 10
79.375
 20
-193.506725
 30
0.0
 11
82.55
 21
-193.506725
 31
0.0
  0
LINE
  5
92
330
1F
100
AcDbEntity
  8
SLD-0
100
AcDbLine
 10
82.55
 20
-193.506725
 30
0.0
 11
82.55
 21
-188.909325
 31
0.0
  0
LINE
  5
93
330
1F
100
AcDbEntity
  8
SLD-0
100
AcDbLine
 10
82.55
 20
-188.909325
 30
0.0
 11
79.375
 21
-188.909325
 31
0.0
  0
LINE
  5
94
330
1F
100
AcDbEntity
  8
SLD-0
100
AcDbLine
 10
79.375
 20
-188.909325
 30
0.0
 11
79.375
 21
-176.209325
 31
0.0
  0
LINE
  5
95
330
1F
100
AcDbEntity
  8
SLD-0
100
AcDbLine
 10
79.375
 20
-176.209325
 30
0.0
 11
82.55
 21
-176.209325
 31
0.0
  0
LINE
  5
96
330
1F
100
AcDbEntity
  8
SLD-0
100
AcDbLine
 10
82.55
 20
-176.209325
 30
0.0
 11
82.55
 21
-171.662725
 31
0.0
  0
LINE
  5
97
330
1F
100
AcDbEntity
  8
SLD-0
100
AcDbLine
 10
82.55
 20
-171.662725
 30
0.0
 11
79.375
 21
-171.662725
 31
0.0
  0
LINE
  5
98
330
1F
100
AcDbEntity
  8
SLD-0
100
AcDbLine
 10
79.375
 20
-171.662725
 30
0.0
 11
79.375
 21
-168.106725
 31
0.0
  0
LINE
  5
99
330
1F
100
AcDbEntity
  8
SLD-0
100
AcDbLine
 10
79.375
 20
-168.106725
 30
0.0
 11
82.55
 21
-168.106725
 31
0.0
  0
LINE
  5
9A
330
1F
100
AcDbEntity
  8
SLD-0
100
AcDbLine
 10
82.55
 20
-168.106725
 30
0.0
 11
82.55
 21
-163.509325
 31
0.0
  0
LINE
  5
9B
330
1F
100
AcDbEntity
  8
SLD-0
100
AcDbLine
 10
82.55
 20
-163.509325
 30
0.0
 11
79.375
 21
-163.509325
 31
0.0
  0
LINE
  5
9C
330
1F
100
AcDbEntity
  8
SLD-0
100
AcDbLine
 10
79.375
 20
-163.509325
 30
0.0
 11
79.375
 21
-150.809325
 31
0.0
  0
LINE
  5
9D
330
1F
100
AcDbEntity
  8
SLD-0
100
AcDbLine
 10
79.375
 20
-150.809325
 30
0.0
 11
82.55
 21
-150.809325
 31
0.0
  0
LINE
  5
9E
330
1F
100
AcDbEntity
  8
SLD-0
100
AcDbLine
 10
82.55
 20
-150.809325
 30
0.0
 11
82.55
 21
-146.262725
 31
0.0
  0
LINE
  5
9F
330
1F
100
AcDbEntity
  8
SLD-0
100
AcDbLine
 10
82.55
 20
-146.262725
 30
0.0
 11
79.375
 21
-146.262725
 31
0.0
  0
LINE
  5
A0
330
1F
100
AcDbEntity
  8
SLD-0
100
AcDbLine
 10
79.375
 20
-146.262725
 30
0.0
 11
79.375
 21
-142.706725
 31
0.0
  0
LINE
  5
A1
330
1F
100
AcDbEntity
  8
SLD-0
100
AcDbLine
 10
79.375
 20
-142.706725
 30
0.0
 11
82.55
 21
-142.706725
 31
0.0
  0
LINE
  5
A2
330
1F
100
AcDbEntity
  8
SLD-0
100
AcDbLine
 10
82.55
 20
-142.706725
 30
0.0
 11
82.55
 21
-138.109325
 31
0.0
  0
LINE
  5
A3
330
1F
100
AcDbEntity
  8
SLD-0
100
AcDbLine
 10
82.55
 20
-138.109325
 30
0.0
 11
79.375
 21
-138.109325
 31
0.0
  0
LINE
  5
A4
330
1F
100
AcDbEntity
  8
SLD-0
100
AcDbLine
 10
79.375
 20
-138.109325
 30
0.0
 11
79.375
 21
-125.409325
 31
0.0
  0
LINE
  5
A5
330
1F
100
AcDbEntity
  8
SLD-0
100
AcDbLine
 10
79.375
 20
-125.409325
 30
0.0
 11
82.55
 21
-125.409325
 31
0.0
  0
LINE
  5
A6
330
1F
100
AcDbEntity
  8
SLD-0
100
AcDbLine
 10
82.55
 20
-125.409325
 30
0.0
 11
82.55
 21
-120.862725
 31
0.0
  0
LINE
  5
A7
330
1F
100
AcDbEntity
  8
SLD-0
100
AcDbLine
 10
82.55
 20
-120.862725
 30
0.0
 11
79.375
 21
-120.862725
 31
0.0
  0
LINE
  5
A8
330
1F
100
AcDbEntity
  8
SLD-0
100
AcDbLine
 10
79.375
 20
-120.862725
 30
0.0
 11
79.375
 21
-117.306725
 31
0.0
  0
LINE
  5
A9
330
1F
100
AcDbEntity
  8
SLD-0
100
AcDbLine
 10
79.375
 20
-117.306725
 30
0.0
 11
82.55
 21
-117.306725
 31
0.0
  0
LINE
  5
AA
330
1F
100
AcDbEntity
  8
SLD-0
100
AcDbLine
 10
82.55
 20
-117.306725
 30
0.0
 11
82.55
 21
-112.709325
 31
0.0
  0
LINE
  5
AB
330
1F
100
AcDbEntity
  8
SLD-0
100
AcDbLine
 10
82.55
 20
-112.709325
 30
0.0
 11
79.375
 21
-112.709325
 31
0.0
  0
LINE
  5
AC
330
1F
100
AcDbEntity
  8
SLD-0
100
AcDbLine
 10
79.375
 20
-112.709325
 30
0.0
 11
79.375
 21
-100.009325
 31
0.0
  0
LINE
  5
AD
330
1F
100
AcDbEntity
  8
SLD-0
100
AcDbLine
 10
79.375
 20
-100.009325
 30
0.0
 11
82.55
 21
-100.009325
 31
0.0
  0
LINE
  5
AE
330
1F
100
AcDbEntity
  8
SLD-0
100
AcDbLine
 10
82.55
 20
-100.009325
 30
0.0
 11
82.55
 21
-95.462725
 31
0.0
  0
LINE
  5
AF
330
1F
100
AcDbEntity
  8
SLD-0
100
AcDbLine
 10
82.55
 20
-95.462725
 30
0.0
 11
79.375
 21
-95.462725
 31
0.0
  0
LINE
  5
B0
330
1F
100
AcDbEntity
  8
SLD-0
100
AcDbLine
 10
79.375
 20
-95.462725
 30
0.0
 11
79.375
 21
-91.906725
 31
0.0
  0
LINE
  5
B1
330
1F
100
AcDbEntity
  8
SLD-0
100
AcDbLine
 10
79.375
 20
-91.906725
 30
0.0
 11
82.55
 21
-91.906725
 31
0.0
  0
LINE
  5
B2
330
1F
100
AcDbEntity
  8
SLD-0
100
AcDbLine
 10
82.55
 20
-91.906725
 30
0.0
 11
82.55
 21
-87.309325
 31
0.0
  0
LINE
  5
B3
330
1F
100
AcDbEntity
  8
SLD-0
100
AcDbLine
 10
82.55
 20
-87.309325
 30
0.0
 11
79.375
 21
-87.309325
 31
0.0
  0
LINE
  5
B4
330
1F
100
AcDbEntity
  8
SLD-0
100
AcDbLine
 10
79.375
 20
-87.309325
 30
0.0
 11
79.375
 21
-74.609325
 31
0.0
  0
LINE
  5
B5
330
1F
100
AcDbEntity
  8
SLD-0
100
AcDbLine
 10
79.375
 20
-74.609325
 30
0.0
 11
82.55
 21
-74.609325
 31
0.0
  0
LINE
  5
B6
330
1F
100
AcDbEntity
  8
SLD-0
100
AcDbLine
 10
82.55
 20
-74.609325
 30
0.0
 11
82.55
 21
-70.062725
 31
0.0
  0
LINE
  5
B7
330
1F
100
AcDbEntity
  8
SLD-0
100
AcDbLine
 10
82.55
 20
-70.062725
 30
0.0
 11
79.375
 21
-70.062725
 31
0.0
  0
LINE
  5
B8
330
1F
100
AcDbEntity
  8
SLD-0
100
AcDbLine
 10
79.375
 20
-70.062725
 30
0.0
 11
79.375
 21
-66.506725
 31
0.0
  0
LINE
  5
B9
330
1F
100
AcDbEntity
  8
SLD-0
100
AcDbLine
 10
79.375
 20
-66.506725
 30
0.0
 11
82.55
 21
-66.506725
 31
0.0
  0
LINE
  5
BA
330
1F
100
AcDbEntity
  8
SLD-0
100
AcDbLine
 10
82.55
 20
-66.506725
 30
0.0
 11
82.55
 21
-61.909325
 31
0.0
  0
LINE
  5
BB
330
1F
100
AcDbEntity
  8
SLD-0
100
AcDbLine
 10
82.55
 20
-61.909325
 30
0.0
 11
79.375
 21
-61.909325
 31
0.0
  0
LINE
  5
BC
330
1F
100
AcDbEntity
  8
SLD-0
100
AcDbLine
 10
79.375
 20
-61.909325
 30
0.0
 11
79.375
 21
-49.209325
 31
0.0
  0
LINE
  5
BD
330
1F
100
AcDbEntity
  8
SLD-0
100
AcDbLine
 10
79.375
 20
-49.209325
 30
0.0
 11
82.55
 21
-49.209325
 31
0.0
  0
LINE
  5
BE
330
1F
100
AcDbEntity
  8
SLD-0
100
AcDbLine
 10
82.55
 20
-49.209325
 30
0.0
 11
82.55
 21
-44.662725
 31
0.0
  0
LINE
  5
BF
330
1F
100
AcDbEntity
  8
SLD-0
100
AcDbLine
 10
82.55
 20
-44.662725
 30
0.0
 11
79.375
 21
-44.662725
 31
0.0
  0
LINE
  5
C0
330
1F
100
AcDbEntity
  8
SLD-0
100
AcDbLine
 10
79.375
 20
-44.662725
 30
0.0
 11
79.375
 21
-41.106725
 31
0.0
  0
LINE
  5
C1
330
1F
100
AcDbEntity
  8
SLD-0
100
AcDbLine
 10
79.375
 20
-41.106725
 30
0.0
 11
82.55
 21
-41.106725
 31
0.0
  0
LINE
  5
C2
330
1F
100
AcDbEntity
  8
SLD-0
100
AcDbLine
 10
82.55
 20
-41.106725
 30
0.0
 11
82.55
 21
-36.509325
 31
0.0
  0
LINE
  5
C3
330
1F
100
AcDbEntity
  8
SLD-0
100
AcDbLine
 10
82.55
 20
-36.509325
 30
0.0
 11
79.375
 21
-36.509325
 31
0.0
  0
LINE
  5
C4
330
1F
100
AcDbEntity
  8
SLD-0
100
AcDbLine
 10
79.375
 20
-36.509325
 30
0.0
 11
79.375
 21
-23.809325
 31
0.0
  0
LINE
  5
C5
330
1F
100
AcDbEntity
  8
SLD-0
100
AcDbLine
 10
79.375
 20
-23.809325
 30
0.0
 11
82.55
 21
-23.809325
 31
0.0
  0
LINE
  5
C6
330
1F
100
AcDbEntity
  8
SLD-0
100
AcDbLine
 10
82.55
 20
-23.809325
 30
0.0
 11
82.55
 21
-19.262725
 31
0.0
  0
LINE
  5
C7
330
1F
100
AcDbEntity
  8
SLD-0
100
AcDbLine
 10
82.55
 20
-19.262725
 30
0.0
 11
79.375
 21
-19.262725
 31
0.0
  0
LINE
  5
C8
330
1F
100
AcDbEntity
  8
SLD-0
100
AcDbLine
 10
79.375
 20
-19.262725
 30
0.0
 11
79.375
 21
-15.706725
 31
0.0
  0
LINE
  5
C9
330
1F
100
AcDbEntity
  8
SLD-0
100
AcDbLine
 10
79.375
 20
-15.706725
 30
0.0
 11
82.55
 21
-15.706725
 31
0.0
  0
LINE
  5
CA
330
1F
100
AcDbEntity
  8
SLD-0
100
AcDbLine
 10
82.55
 20
-15.706725
 30
0.0
 11
82.55
 21
-11.109325
 31
0.0
  0
LINE
  5
CB
330
1F
100
AcDbEntity
  8
SLD-0
100
AcDbLine
 10
82.55
 20
-11.109325
 30
0.0
 11
79.375
 21
-11.109325
 31
0.0
  0
LINE
  5
CC
330
1F
100
AcDbEntity
  8
SLD-0
100
AcDbLine
 10
79.375
 20
-11.109325
 30
0.0
 11
79.375
 21
1.590675
 31
0.0
  0
LINE
  5
CD
330
1F
100
AcDbEntity
  8
SLD-0
100
AcDbLine
 10
79.375
 20
1.590675
 30
0.0
 11
82.55
 21
1.590675
 31
0.0
  0
LINE
  5
CE
330
1F
100
AcDbEntity
  8
SLD-0
100
AcDbLine
 10
82.55
 20
1.590675
 30
0.0
 11
82.55
 21
6.137275
 31
0.0
  0
LINE
  5
CF
330
1F
100
AcDbEntity
  8
SLD-0
100
AcDbLine
 10
82.55
 20
6.137275
 30
0.0
 11
79.375
 21
6.137275
 31
0.0
  0
LINE
  5
D0
330
1F
100
AcDbEntity
  8
SLD-0
100
AcDbLine
 10
79.375
 20
6.137275
 30
0.0
 11
79.375
 21
9.693275
 31
0.0
  0
LINE
  5
D1
330
1F
100
AcDbEntity
  8
SLD-0
100
AcDbLine
 10
79.375
 20
9.693275
 30
0.0
 11
82.55
 21
9.693275
 31
0.0
  0
LINE
  5
D2
330
1F
100
AcDbEntity
  8
SLD-0
100
AcDbLine
 10
82.55
 20
9.693275
 30
0.0
 11
82.55
 21
14.290675
 31
0.0
  0
LINE
  5
D3
330
1F
100
AcDbEntity
  8
SLD-0
100
AcDbLine
 10
82.55
 20
14.290675
 30
0.0
 11
79.375
 21
14.290675
 31
0.0
  0
LINE
  5
D4
330
1F
100
AcDbEntity
  8
SLD-0
100
AcDbLine
 10
79.375
 20
14.290675
 30
0.0
 11
79.375
 21
26.990675
 31
0.0
  0
LINE
  5
D5
330
1F
100
AcDbEntity
  8
SLD-0
100
AcDbLine
 10
79.375
 20
26.990675
 30
0.0
 11
82.55
 21
26.990675
 31
0.0
  0
LINE
  5
D6
330
1F
100
AcDbEntity
  8
SLD-0
100
AcDbLine
 10
82.55
 20
26.990675
 30
0.0
 11
82.55
 21
31.537275
 31
0.0
  0
LINE
  5
D7
330
1F
100
AcDbEntity
  8
SLD-0
100
AcDbLine
 10
82.55
 20
31.537275
 30
0.0
 11
79.375
 21
31.537275
 31
0.0
  0
LINE
  5
D8
330
1F
100
AcDbEntity
  8
SLD-0
100
AcDbLine
 10
79.375
 20
31.537275
 30
0.0
 11
79.375
 21
35.093275
 31
0.0
  0
LINE
  5
D9
330
1F
100
AcDbEntity
  8
SLD-0
100
AcDbLine
 10
79.375
 20
35.093275
 30
0.0
 11
82.55
 21
35.093275
 31
0.0
  0
LINE
  5
DA
330
1F
100
AcDbEntity
  8
SLD-0
100
AcDbLine
 10
82.55
 20
35.093275
 30
0.0
 11
82.55
 21
39.690675
 31
0.0
  0
LINE
  5
DB
330
1F
100
AcDbEntity
  8
SLD-0
100
AcDbLine
 10
82.55
 20
39.690675
 30
0.0
 11
79.375
 21
39.690675
 31
0.0
  0
LINE
  5
DC
330
1F
100
AcDbEntity
  8
SLD-0
100
AcDbLine
 10
79.375
 20
39.690675
 30
0.0
 11
79.375
 21
52.390675
 31
0.0
  0
LINE
  5
DD
330
1F
100
AcDbEntity
  8
SLD-0
100
AcDbLine
 10
79.375
 20
52.390675
 30
0.0
 11
82.55
 21
52.390675
 31
0.0
  0
LINE
  5
DE
330
1F
100
AcDbEntity
  8
SLD-0
100
AcDbLine
 10
82.55
 20
52.390675
 30
0.0
 11
82.55
 21
56.937275
 31
0.0
  0
LINE
  5
DF
330
1F
100
AcDbEntity
  8
SLD-0
100
AcDbLine
 10
82.55
 20
56.937275
 30
0.0
 11
79.375
 21
56.937275
 31
0.0
  0
LINE
  5
E0
330
1F
100
AcDbEntity
  8
SLD-0
100
AcDbLine
 10
79.375
 20
56.937275
 30
0.0
 11
79.375
 21
60.493275
 31
0.0
  0
LINE
  5
E1
330
1F
100
AcDbEntity
  8
SLD-0
100
AcDbLine
 10
79.375
 20
60.493275
 30
0.0
 11
82.55
 21
60.493275
 31
0.0
  0
LINE
  5
E2
330
1F
100
AcDbEntity
  8
SLD-0
100
AcDbLine
 10
82.55
 20
60.493275
 30
0.0
 11
82.55
 21
65.090675
 31
0.0
  0
LINE
  5
E3
330
1F
100
AcDbEntity
  8
SLD-0
100
AcDbLine
 10
82.55
 20
65.090675
 30
0.0
 11
79.375
 21
65.090675
 31
0.0
  0
LINE
  5
E4
330
1F
100
AcDbEntity
  8
SLD-0
100
AcDbLine
 10
79.375
 20
65.090675
 30
0.0
 11
79.375
 21
77.790675
 31
0.0
  0
LINE
  5
E5
330
1F
100
AcDbEntity
  8
SLD-0
100
AcDbLine
 10
79.375
 20
77.790675
 30
0.0
 11
82.55
 21
77.790675
 31
0.0
  0
LINE
  5
E6
330
1F
100
AcDbEntity
  8
SLD-0
100
AcDbLine
 10
82.55
 20
77.790675
 30
0.0
 11
82.55
 21
82.337275
 31
0.0
  0
LINE
  5
E7
330
1F
100
AcDbEntity
  8
SLD-0
100
AcDbLine
 10
82.55
 20
82.337275
 30
0.0
 11
79.375
 21
82.337275
 31
0.0
  0
LINE
  5
E8
330
1F
100
AcDbEntity
  8
SLD-0
100
AcDbLine
 10
79.375
 20
82.337275
 30
0.0
 11
79.375
 21
85.893275
 31
0.0
  0
LINE
  5
E9
330
1F
100
AcDbEntity
  8
SLD-0
100
AcDbLine
 10
79.375
 20
85.893275
 30
0.0
 11
82.55
 21
85.893275
 31
0.0
  0
LINE
  5
EA
330
1F
100
AcDbEntity
  8
SLD-0
100
AcDbLine
 10
82.55
 20
85.893275
 30
0.0
 11
82.55
 21
90.490675
 31
0.0
  0
LINE
  5
EB
330
1F
100
AcDbEntity
  8
SLD-0
100
AcDbLine
 10
82.55
 20
90.490675
 30
0.0
 11
79.375
 21
90.490675
 31
0.0
  0
LINE
  5
EC
330
1F
100
AcDbEntity
  8
SLD-0
100
AcDbLine
 10
79.375
 20
90.490675
 30
0.0
 11
79.375
 21
103.190675
 31
0.0
  0
LINE
  5
ED
330
1F
100
AcDbEntity
  8
SLD-0
100
AcDbLine
 10
79.375
 20
103.190675
 30
0.0
 11
82.55
 21
103.190675
 31
0.0
  0
LINE
  5
EE
330
1F
100
AcDbEntity
  8
SLD-0
100
AcDbLine
 10
82.55
 20
103.190675
 30
0.0
 11
82.55
 21
107.737275
 31
0.0
  0
LINE
  5
EF
330
1F
100
AcDbEntity
  8
SLD-0
100
AcDbLine
 10
82.55
 20
107.737275
 30
0.0
 11
79.375
 21
107.737275
 31
0.0
  0
LINE
  5
F0
330
1F
100
AcDbEntity
  8
SLD-0
100
AcDbLine
 10
79.375
 20
107.737275
 30
0.0
 11
79.375
 21
111.293275
 31
0.0
  0
LINE
  5
F1
330
1F
100
AcDbEntity
  8
SLD-0
100
AcDbLine
 10
79.375
 20
111.293275
 30
0.0
 11
82.55
 21
111.293275
 31
0.0
  0
LINE
  5
F2
330
1F
100
AcDbEntity
  8
SLD-0
100
AcDbLine
 10
82.55
 20
111.293275
 30
0.0
 11
82.55
 21
115.890675
 31
0.0
  0
LINE
  5
F3
330
1F
100
AcDbEntity
  8
SLD-0
100
AcDbLine
 10
82.55
 20
115.890675
 30
0.0
 11
79.375
 21
115.890675
 31
0.0
  0
LINE
  5
F4
330
1F
100
AcDbEntity
  8
SLD-0
100
AcDbLine
 10
79.375
 20
115.890675
 30
0.0
 11
79.375
 21
128.590675
 31
0.0
  0
LINE
  5
F5
330
1F
100
AcDbEntity
  8
SLD-0
100
AcDbLine
 10
79.375
 20
128.590675
 30
0.0
 11
82.55
 21
128.590675
 31
0.0
  0
LINE
  5
F6
330
1F
100
AcDbEntity
  8
SLD-0
100
AcDbLine
 10
82.55
 20
128.590675
 30
0.0
 11
82.55
 21
133.137275
 31
0.0
  0
LINE
  5
F7
330
1F
100
AcDbEntity
  8
SLD-0
100
AcDbLine
 10
82.55
 20
133.137275
 30
0.0
 11
79.375
 21
133.137275
 31
0.0
  0
LINE
  5
F8
330
1F
100
AcDbEntity
  8
SLD-0
100
AcDbLine
 10
79.375
 20
133.137275
 30
0.0
 11
79.375
 21
136.693275
 31
0.0
  0
LINE
  5
F9
330
1F
100
AcDbEntity
  8
SLD-0
100
AcDbLine
 10
79.375
 20
136.693275
 30
0.0
 11
82.55
 21
136.693275
 31
0.0
  0
LINE
  5
FA
330
1F
100
AcDbEntity
  8
SLD-0
100
AcDbLine
 10
82.55
 20
136.693275
 30
0.0
 11
82.55
 21
141.290675
 31
0.0
  0
LINE
  5
FB
330
1F
100
AcDbEntity
  8
SLD-0
100
AcDbLine
 10
82.55
 20
141.290675
 30
0.0
 11
79.375
 21
141.290675
 31
0.0
  0
LINE
  5
FC
330
1F
100
AcDbEntity
  8
SLD-0
100
AcDbLine
 10
79.375
 20
141.290675
 30
0.0
 11
79.375
 21
153.990675
 31
0.0
  0
LINE
  5
FD
330
1F
100
AcDbEntity
  8
SLD-0
100
AcDbLine
 10
79.375
 20
153.990675
 30
0.0
 11
82.55
 21
153.990675
 31
0.0
  0
LINE
  5
FE
330
1F
100
AcDbEntity
  8
SLD-0
100
AcDbLine
 10
82.55
 20
153.990675
 30
0.0
 11
82.55
 21
158.537275
 31
0.0
  0
LINE
  5
FF
330
1F
100
AcDbEntity
  8
SLD-0
100
AcDbLine
 10
82.55
 20
158.537275
 30
0.0
 11
79.375
 21
158.537275
 31
0.0
  0
LINE
  5
100
330
1F
100
AcDbEntity
  8
SLD-0
100
AcDbLine
 10
79.375
 20
158.537275
 30
0.0
 11
79.375
 21
162.093275
 31
0.0
  0
LINE
  5
101
330
1F
100
AcDbEntity
  8
SLD-0
100
AcDbLine
 10
79.375
 20
162.093275
 30
0.0
 11
82.55
 21
162.093275
 31
0.0
  0
LINE
  5
102
330
1F
100
AcDbEntity
  8
SLD-0
100
AcDbLine
 10
82.55
 20
162.093275
 30
0.0
 11
82.55
 21
166.690675
 31
0.0
  0
LINE
  5
103
330
1F
100
AcDbEntity
  8
SLD-0
100
AcDbLine
 10
82.55
 20
166.690675
 30
0.0
 11
79.375
 21
166.690675
 31
0.0
  0
LINE
  5
104
330
1F
100
AcDbEntity
  8
SLD-0
100
AcDbLine
 10
79.375
 20
166.690675
 30
0.0
 11
79.375
 21
179.390675
 31
0.0
  0
LINE
  5
105
330
1F
100
AcDbEntity
  8
SLD-0
100
AcDbLine
 10
79.375
 20
179.390675
 30
0.0
 11
82.55
 21
179.390675
 31
0.0
  0
LINE
  5
106
330
1F
100
AcDbEntity
  8
SLD-0
100
AcDbLine
 10
82.55
 20
179.390675
 30
0.0
 11
82.55
 21
183.937275
 31
0.0
  0
LINE
  5
107
330
1F
100
AcDbEntity
  8
SLD-0
100
AcDbLine
 10
82.55
 20
183.937275
 30
0.0
 11
79.375
 21
183.937275
 31
0.0
  0
LINE
  5
108
330
1F
100
AcDbEntity
  8
SLD-0
100
AcDbLine
 10
79.375
 20
183.937275
 30
0.0
 11
79.375
 21
187.493275
 31
0.0
  0
LINE
  5
109
330
1F
100
AcDbEntity
  8
SLD-0
100
AcDbLine
 10
79.375
 20
187.493275
 30
0.0
 11
82.55
 21
187.493275
 31
0.0
  0
LINE
  5
10A
330
1F
100
AcDbEntity
  8
SLD-0
100
AcDbLine
 10
82.55
 20
187.493275
 30
0.0
 11
82.55
 21
192.090675
 31
0.0
  0
LINE
  5
10B
330
1F
100
AcDbEntity
  8
SLD-0
100
AcDbLine
 10
82.55
 20
192.090675
 30
0.0
 11
79.375
 21
192.090675
 31
0.0
  0
LINE
  5
10C
330
1F
100
AcDbEntity
  8
SLD-0
100
AcDbLine
 10
79.375
 20
192.090675
 30
0.0
 11
79.375
 21
204.790675
 31
0.0
  0
LINE
  5
10D
330
1F
100
AcDbEntity
  8
SLD-0
100
AcDbLine
 10
79.375
 20
204.790675
 30
0.0
 11
82.55
 21
204.790675
 31
0.0
  0
LINE
  5
10E
330
1F
100
AcDbEntity
  8
SLD-0
100
AcDbLine
 10
82.55
 20
204.790675
 30
0.0
 11
82.55
 21
209.337275
 31
0.0
  0
LINE
  5
10F
330
1F
100
AcDbEntity
  8
SLD-0
100
AcDbLine
 10
82.55
 20
209.337275
 30
0.0
 11
79.375
 21
209.337275
 31
0.0
  0
LINE
  5
110
330
1F
100
AcDbEntity
  8
SLD-0
100
AcDbLine
 10
79.375
 20
209.337275
 30
0.0
 11
79.375
 21
212.893275
 31
0.0
  0
LINE
  5
111
330
1F
100
AcDbEntity
  8
SLD-0
100
AcDbLine
 10
79.375
 20
212.893275
 30
0.0
 11
82.55
 21
212.893275
 31
0.0
  0
LINE
  5
112
330
1F
100
AcDbEntity
  8
SLD-0
100
AcDbLine
 10
82.55
 20
212.893275
 30
0.0
 11
82.55
 21
217.490675
 31
0.0
  0
LINE
  5
113
330
1F
100
AcDbEntity
  8
SLD-0
100
AcDbLine
 10
82.55
 20
217.490675
 30
0.0
 11
79.375
 21
217.490675
 31
0.0
  0
LINE
  5
114
330
1F
100
AcDbEntity
  8
SLD-0
100
AcDbLine
 10
79.375
 20
217.490675
 30
0.0
 11
79.375
 21
230.190675
 31
0.0
  0
LINE
  5
115
330
1F
100
AcDbEntity
  8
SLD-0
100
AcDbLine
 10
79.375
 20
230.190675
 30
0.0
 11
82.55
 21
230.190675
 31
0.0
  0
LINE
  5
116
330
1F
100
AcDbEntity
  8
SLD-0
100
AcDbLine
 10
82.55
 20
230.190675
 30
0.0
 11
82.55
 21
234.737275
 31
0.0
  0
LINE
  5
117
330
1F
100
AcDbEntity
  8
SLD-0
100
AcDbLine
 10
82.55
 20
234.737275
 30
0.0
 11
79.375
 21
234.737275
 31
0.0
  0
LINE
  5
118
330
1F
100
AcDbEntity
  8
SLD-0
100
AcDbLine
 10
79.375
 20
234.737275
 30
0.0
 11
79.375
 21
238.293275
 31
0.0
  0
LINE
  5
119
330
1F
100
AcDbEntity
  8
SLD-0
100
AcDbLine
 10
79.375
 20
238.293275
 30
0.0
 11
82.55
 21
238.293275
 31
0.0
  0
LINE
  5
11A
330
1F
100
AcDbEntity
  8
SLD-0
100
AcDbLine
 10
82.55
 20
238.293275
 30
0.0
 11
82.55
 21
242.890675
 31
0.0
  0
LINE
  5
11B
330
1F
100
AcDbEntity
  8
SLD-0
100
AcDbLine
 10
82.55
 20
242.890675
 30
0.0
 11
79.375
 21
242.890675
 31
0.0
  0
LINE
  5
11C
330
1F
100
AcDbEntity
  8
SLD-0
100
AcDbLine
 10
79.375
 20
242.890675
 30
0.0
 11
79.375
 21
255.590675
 31
0.0
  0
LINE
  5
11D
330
1F
100
AcDbEntity
  8
SLD-0
100
AcDbLine
 10
79.375
 20
255.590675
 30
0.0
 11
82.55
 21
255.590675
 31
0.0
  0
LINE
  5
11E
330
1F
100
AcDbEntity
  8
SLD-0
100
AcDbLine
 10
82.55
 20
255.590675
 30
0.0
 11
82.55
 21
260.137275
 31
0.0
  0
LINE
  5
11F
330
1F
100
AcDbEntity
  8
SLD-0
100
AcDbLine
 10
82.55
 20
260.137275
 30
0.0
 11
79.375
 21
260.137275
 31
0.0
  0
LINE
  5
120
330
1F
100
AcDbEntity
  8
SLD-0
100
AcDbLine
 10
79.375
 20
260.137275
 30
0.0
 11
79.375
 21
263.693275
 31
0.0
  0
LINE
  5
121
330
1F
100
AcDbEntity
  8
SLD-0
100
AcDbLine
 10
79.375
 20
263.693275
 30
0.0
 11
82.55
 21
263.693275
 31
0.0
  0
LINE
  5
122
330
1F
100
AcDbEntity
  8
SLD-0
100
AcDbLine
 10
82.55
 20
263.693275
 30
0.0
 11
82.55
 21
268.290675
 31
0.0
  0
LINE
  5
123
330
1F
100
AcDbEntity
  8
SLD-0
100
AcDbLine
 10
82.55
 20
268.290675
 30
0.0
 11
79.375
 21
268.290675
 31
0.0
  0
LINE
  5
124
330
1F
100
AcDbEntity
  8
SLD-0
100
AcDbLine
 10
79.375
 20
268.290675
 30
0.0
 11
79.375
 21
280.990675
 31
0.0
  0
LINE
  5
125
330
1F
100
AcDbEntity
  8
SLD-0
100
AcDbLine
 10
79.375
 20
280.990675
 30
0.0
 11
82.55
 21
280.990675
 31
0.0
  0
LINE
  5
126
330
1F
100
AcDbEntity
  8
SLD-0
100
AcDbLine
 10
82.55
 20
280.990675
 30
0.0
 11
82.55
 21
285.537275
 31
0.0
  0
LINE
  5
127
330
1F
100
AcDbEntity
  8
SLD-0
100
AcDbLine
 10
82.55
 20
285.537275
 30
0.0
 11
79.375
 21
285.537275
 31
0.0
  0
LINE
  5
128
330
1F
100
AcDbEntity
  8
SLD-0
100
AcDbLine
 10
79.375
 20
285.537275
 30
0.0
 11
79.375
 21
289.093275
 31
0.0
  0
LINE
  5
129
330
1F
100
AcDbEntity
  8
SLD-0
100
AcDbLine
 10
79.375
 20
289.093275
 30
0.0
 11
82.55
 21
289.093275
 31
0.0
  0
LINE
  5
12A
330
1F
100
AcDbEntity
  8
SLD-0
100
AcDbLine
 10
82.55
 20
289.093275
 30
0.0
 11
82.55
 21
293.690675
 31
0.0
  0
LINE
  5
12B
330
1F
100
AcDbEntity
  8
SLD-0
100
AcDbLine
 10
82.55
 20
293.690675
 30
0.0
 11
79.375
 21
293.690675
 31
0.0
  0
LINE
  5
12C
330
1F
100
AcDbEntity
  8
SLD-0
100
AcDbLine
 10
79.375
 20
293.690675
 30
0.0
 11
79.375
 21
306.390675
 31
0.0
  0
LINE
  5
12D
330
1F
100
AcDbEntity
  8
SLD-0
100
AcDbLine
 10
79.375
 20
306.390675
 30
0.0
 11
69.85
 21
306.390675
 31
0.0
  0
LINE
  5
12E
330
1F
100
AcDbEntity
  8
SLD-0
100
AcDbLine
 10
69.85
 20
306.390675
 30
0.0
 11
69.85
 21
303.215675
 31
0.0
  0
LINE
  5
12F
330
1F
100
AcDbEntity
  8
SLD-0
100
AcDbLine
 10
69.85
 20
303.215675
 30
0.0
 11
65.278
 21
303.215675
 31
0.0
  0
LINE
  5
130
330
1F
100
AcDbEntity
  8
SLD-0
100
AcDbLine
 10
65.278
 20
303.215675
 30
0.0
 11
65.278
 21
297.215675
 31
0.0
  0
LINE
  5
131
330
1F
100
AcDbEntity
  8
SLD-0
100
AcDbLine
 10
65.278
 20
297.215675
 30
0.0
 11
67.469
 21
297.215675
 31
0.0
  0
LINE
  5
132
330
1F
100
AcDbEntity
  8
SLD-0
100
AcDbLine
 10
67.469
 20
297.215675
 30
0.0
 11
67.469
 21
294.437675
 31
0.0
  0
LINE
  5
133
330
1F
100
AcDbEntity
  8
SLD-0
100
AcDbLine
 10
67.469
 20
294.437675
 30
0.0
 11
65.278
 21
294.437675
 31
0.0
  0
LINE
  5
134
330
1F
100
AcDbEntity
  8
SLD-0
100
AcDbLine
 10
65.278
 20
294.437675
 30
0.0
 11
65.278
 21
291.150675
 31
0.0
  0
LINE
  5
135
330
1F
100
AcDbEntity
  8
SLD-0
100
AcDbLine
 10
65.278
 20
291.150675
 30
0.0
 11
61.722
 21
291.150675
 31
0.0
  0
LINE
  5
136
330
1F
100
AcDbEntity
  8
SLD-0
100
AcDbLine
 10
61.722
 20
291.150675
 30
0.0
 11
61.722
 21
294.437675
 31
0.0
  0
LINE
  5
137
330
1F
100
AcDbEntity
  8
SLD-0
100
AcDbLine
 10
61.722
 20
294.437675
 30
0.0
 11
59.5315
 21
294.437675
 31
0.0
  0
LINE
  5
138
330
1F
100
AcDbEntity
  8
SLD-0
100
AcDbLine
 10
59.5315
 20
294.437675
 30
0.0
 11
59.5315
 21
297.215675
 31
0.0
  0
LINE
  5
139
330
1F
100
AcDbEntity
  8
SLD-0
100
AcDbLine
 10
59.5315
 20
297.215675
 30
0.0
 11
61.722
 21
297.215675
 31
0.0
  0
LINE
  5
13A
330
1F
100
AcDbEntity
  8
SLD-0
100
AcDbLine
 10
61.722
 20
297.215675
 30
0.0
 11
61.722
 21
303.215675
 31
0.0
  0
LINE
  5
13B
330
1F
100
AcDbEntity
  8
SLD-0
100
AcDbLine
 10
61.722
 20
303.215675
 30
0.0
 11
57.15
 21
303.215675
 31
0.0
  0
LINE
  5
13C
330
1F
100
AcDbEntity
  8
SLD-0
100
AcDbLine
 10
57.15
 20
303.215675
 30
0.0
 11
57.15
 21
306.390675
 31
0.0
  0
LINE
  5
13D
330
1F
100
AcDbEntity
  8
SLD-0
100
AcDbLine
 10
57.15
 20
306.390675
 30
0.0
 11
44.45
 21
306.390675
 31
0.0
  0
LINE
  5
13E
330
1F
100
AcDbEntity
  8
SLD-0
100
AcDbLine
 10
44.45
 20
306.390675
 30
0.0
 11
44.45
 21
303.215675
 31
0.0
  0
LINE
  5
13F
330
1F
100
AcDbEntity
  8
SLD-0
100
AcDbLine
 10
44.45
 20
303.215675
 30
0.0
 11
39.878
 21
303.215675
 31
0.0
  0
LINE
  5
140
330
1F
100
AcDbEntity
  8
SLD-0
100
AcDbLine
 10
39.878
 20
303.215675
 30
0.0
 11
39.878
 21
297.215675
 31
0.0
  0
LINE
  5
141
330
1F
100
AcDbEntity
  8
SLD-0
100
AcDbLine
 10
39.878
 20
297.215675
 30
0.0
 11
42.069
 21
297.215675
 31
0.0
  0
LINE
  5
142
330
1F
100
AcDbEntity
  8
SLD-0
100
AcDbLine
 10
42.069
 20
297.215675
 30
0.0
 11
42.069
 21
294.437675
 31
0.0
  0
LINE
  5
143
330
1F
100
AcDbEntity
  8
SLD-0
100
AcDbLine
 10
42.069
 20
294.437675
 30
0.0
 11
39.878
 21
294.437675
 31
0.0
  0
LINE
  5
144
330
1F
100
AcDbEntity
  8
SLD-0
100
AcDbLine
 10
39.878
 20
294.437675
 30
0.0
 11
39.878
 21
291.150675
 31
0.0
  0
LINE
  5
145
330
1F
100
AcDbEntity
  8
SLD-0
100
AcDbLine
 10
39.878
 20
291.150675
 30
0.0
 11
36.322
 21
291.150675
 31
0.0
  0
LINE
  5
146
330
1F
100
AcDbEntity
  8
SLD-0
100
AcDbLine
 10
36.322
 20
291.150675
 30
0.0
 11
36.322
 21
294.437675
 31
0.0
  0
LINE
  5
147
330
1F
100
AcDbEntity
  8
SLD-0
100
AcDbLine
 10
36.322
 20
294.437675
 30
0.0
 11
34.1315
 21
294.437675
 31
0.0
  0
LINE
  5
148
330
1F
100
AcDbEntity
  8
SLD-0
100
AcDbLine
 10
34.1315
 20
294.437675
 30
0.0
 11
34.1315
 21
297.215675
 31
0.0
  0
LINE
  5
149
330
1F
100
AcDbEntity
  8
SLD-0
100
AcDbLine
 10
34.1315
 20
297.215675
 30
0.0
 11
36.322
 21
297.215675
 31
0.0
  0
LINE
  5
14A
330
1F
100
AcDbEntity
  8
SLD-0
100
AcDbLine
 10
36.322
 20
297.215675
 30
0.0
 11
36.322
 21
303.215675
 31
0.0
  0
LINE
  5
14B
330
1F
100
AcDbEntity
  8
SLD-0
100
AcDbLine
 10
36.322
 20
303.215675
 30
0.0
 11
31.75
 21
303.215675
 31
0.0
  0
LINE
  5
14C
330
1F
100
AcDbEntity
  8
SLD-0
100
AcDbLine
 10
31.75
 20
303.215675
 30
0.0
 11
31.75
 21
306.390675
 31
0.0
  0
LINE
  5
14D
330
1F
100
AcDbEntity
  8
SLD-0
100
AcDbLine
 10
31.75
 20
306.390675
 30
0.0
 11
19.05
 21
306.390675
 31
0.0
  0
LINE
  5
14E
330
1F
100
AcDbEntity
  8
SLD-0
100
AcDbLine
 10
19.05
 20
306.390675
 30
0.0
 11
19.05
 21
303.215675
 31
0.0
  0
LINE
  5
14F
330
1F
100
AcDbEntity
  8
SLD-0
100
AcDbLine
 10
19.05
 20
303.215675
 30
0.0
 11
14.478
 21
303.215675
 31
0.0
  0
LINE
  5
150
330
1F
100
AcDbEntity
  8
SLD-0
100
AcDbLine
 10
14.478
 20
303.215675
 30
0.0
 11
14.478
 21
297.215675
 31
0.0
  0
LINE
  5
151
330
1F
100
AcDbEntity
  8
SLD-0
100
AcDbLine
 10
14.478
 20
297.215675
 30
0.0
 11
16.669
 21
297.215675
 31
0.0
  0
LINE
  5
152
330
1F
100
AcDbEntity
  8
SLD-0
100
AcDbLine
 10
16.669
 20
297.215675
 30
0.0
 11
16.669
 21
294.437675
 31
0.0
  0
LINE
  5
153
330
1F
100
AcDbEntity
  8
SLD-0
100
AcDbLine
 10
16.669
 20
294.437675
 30
0.0
 11
14.478
 21
294.437675
 31
0.0
  0
LINE
  5
154
330
1F
100
AcDbEntity
  8
SLD-0
100
AcDbLine
 10
14.478
 20
294.437675
 30
0.0
 11
14.478
 21
291.150675
 31
0.0
  0
LINE
  5
155
330
1F
100
AcDbEntity
  8
SLD-0
100
AcDbLine
 10
14.478
 20
291.150675
 30
0.0
 11
10.922
 21
291.150675
 31
0.0
  0
LINE
  5
156
330
1F
100
AcDbEntity
  8
SLD-0
100
AcDbLine
 10
10.922
 20
291.150675
 30
0.0
 11
10.922
 21
294.437675
 31
0.0
  0
LINE
  5
157
330
1F
100
AcDbEntity
  8
SLD-0
100
AcDbLine
 10
10.922
 20
294.437675
 30
0.0
 11
8.7315
 21
294.437675
 31
0.0
  0
LINE
  5
158
330
1F
100
AcDbEntity
  8
SLD-0
100
AcDbLine
 10
8.7315
 20
294.437675
 30
0.0
 11
8.7315
 21
297.215675
 31
0.0
  0
LINE
  5
159
330
1F
100
AcDbEntity
  8
SLD-0
100
AcDbLine
 10
8.7315
 20
297.215675
 30
0.0
 11
10.922
 21
297.215675
 31
0.0
  0
LINE
  5
15A
330
1F
100
AcDbEntity
  8
SLD-0
100
AcDbLine
 10
10.922
 20
297.215675
 30
0.0
 11
10.922
 21
303.215675
 31
0.0
  0
LINE
  5
15B
330
1F
100
AcDbEntity
  8
SLD-0
100
AcDbLine
 10
10.922
 20
303.215675
 30
0.0
 11
6.35
 21
303.215675
 31
0.0
  0
LINE
  5
15C
330
1F
100
AcDbEntity
  8
SLD-0
100
AcDbLine
 10
6.35
 20
303.215675
 30
0.0
 11
6.35
 21
306.390675
 31
0.0
  0
LINE
  5
15D
330
1F
100
AcDbEntity
  8
SLD-0
100
AcDbLine
 10
6.35
 20
306.390675
 30
0.0
 11
-6.35
 21
306.390675
 31
0.0
  0
LINE
  5
15E
330
1F
100
AcDbEntity
  8
SLD-0
100
AcDbLine
 10
-6.35
 20
306.390675
 30
0.0
 11
-6.35
 21
303.215675
 31
0.0
  0
LINE
  5
15F
330
1F
100
AcDbEntity
  8
SLD-0
100
AcDbLine
 10
-6.35
 20
303.215675
 30
0.0
 11
-10.922
 21
303.215675
 31
0.0
  0
LINE
  5
160
330
1F
100
AcDbEntity
  8
SLD-0
100
AcDbLine
 10
-10.922
 20
303.215675
 30
0.0
 11
-10.922
 21
297.215675
 31
0.0
  0
LINE
  5
161
330
1F
100
AcDbEntity
  8
SLD-0
100
AcDbLine
 10
-10.922
 20
297.215675
 30
0.0
 11
-8.731
 21
297.215675
 31
0.0
  0
LINE
  5
162
330
1F
100
AcDbEntity
  8
SLD-0
100
AcDbLine
 10
-8.731
 20
297.215675
 30
0.0
 11
-8.731
 21
294.437675
 31
0.0
  0
LINE
  5
163
330
1F
100
AcDbEntity
  8
SLD-0
100
AcDbLine
 10
-8.731
 20
294.437675
 30
0.0
 11
-10.922
 21
294.437675
 31
0.0
  0
LINE
  5
164
330
1F
100
AcDbEntity
  8
SLD-0
100
AcDbLine
 10
-10.922
 20
294.437675
 30
0.0
 11
-10.922
 21
291.150675
 31
0.0
  0
LINE
  5
165
330
1F
100
AcDbEntity
  8
SLD-0
100
AcDbLine
 10
-10.922
 20
291.150675
 30
0.0
 11
-14.478
 21
291.150675
 31
0.0
  0
LINE
  5
166
330
1F
100
AcDbEntity
  8
SLD-0
100
AcDbLine
 10
-14.478
 20
291.150675
 30
0.0
 11
-14.478
 21
294.437675
 31
0.0
  0
LINE
  5
167
330
1F
100
AcDbEntity
  8
SLD-0
100
AcDbLine
 10
-14.478
 20
294.437675
 30
0.0
 11
-16.6685
 21
294.437675
 31
0.0
  0
LINE
  5
168
330
1F
100
AcDbEntity
  8
SLD-0
100
AcDbLine
 10
-16.6685
 20
294.437675
 30
0.0
 11
-16.6685
 21
297.215675
 31
0.0
  0
LINE
  5
169
330
1F
100
AcDbEntity
  8
SLD-0
100
AcDbLine
 10
-16.6685
 20
297.215675
 30
0.0
 11
-14.478
 21
297.215675
 31
0.0
  0
LINE
  5
16A
330
1F
100
AcDbEntity
  8
SLD-0
100
AcDbLine
 10
-14.478
 20
297.215675
 30
0.0
 11
-14.478
 21
303.215675
 31
0.0
  0
LINE
  5
16B
330
1F
100
AcDbEntity
  8
SLD-0
100
AcDbLine
 10
-14.478
 20
303.215675
 30
0.0
 11
-19.05
 21
303.215675
 31
0.0
  0
LINE
  5
16C
330
1F
100
AcDbEntity
  8
SLD-0
100
AcDbLine
 10
-19.05
 20
303.215675
 30
0.0
 11
-19.05
 21
306.390675
 31
0.0
  0
LINE
  5
16D
330
1F
100
AcDbEntity
  8
SLD-0
100
AcDbLine
 10
-19.05
 20
306.390675
 30
0.0
 11
-31.75
 21
306.390675
 31
0.0
  0
LINE
  5
16E
330
1F
100
AcDbEntity
  8
SLD-0
100
AcDbLine
 10
-31.75
 20
306.390675
 30
0.0
 11
-31.75
 21
303.215675
 31
0.0
  0
LINE
  5
16F
330
1F
100
AcDbEntity
  8
SLD-0
100
AcDbLine
 10
-31.75
 20
303.215675
 30
0.0
 11
-36.322
 21
303.215675
 31
0.0
  0
LINE
  5
170
330
1F
100
AcDbEntity
  8
SLD-0
100
AcDbLine
 10
-36.322
 20
303.215675
 30
0.0
 11
-36.322
 21
297.215675
 31
0.0
  0
LINE
  5
171
330
1F
100
AcDbEntity
  8
SLD-0
100
AcDbLine
 10
-36.322
 20
297.215675
 30
0.0
 11
-34.131
 21
297.215675
 31
0.0
  0
LINE
  5
172
330
1F
100
AcDbEntity
  8
SLD-0
100
AcDbLine
 10
-34.131
 20
297.215675
 30
0.0
 11
-34.131
 21
294.437675
 31
0.0
  0
LINE
  5
173
330
1F
100
AcDbEntity
  8
SLD-0
100
AcDbLine
 10
-34.131
 20
294.437675
 30
0.0
 11
-36.322
 21
294.437675
 31
0.0
  0
LINE
  5
174
330
1F
100
AcDbEntity
  8
SLD-0
100
AcDbLine
 10
-36.322
 20
294.437675
 30
0.0
 11
-36.322
 21
291.150675
 31
0.0
  0
LINE
  5
175
330
1F
100
AcDbEntity
  8
SLD-0
100
AcDbLine
 10
-36.322
 20
291.150675
 30
0.0
 11
-39.878
 21
291.150675
 31
0.0
  0
LINE
  5
176
330
1F
100
AcDbEntity
  8
SLD-0
100
AcDbLine
 10
-39.878
 20
291.150675
 30
0.0
 11
-39.878
 21
294.437675
 31
0.0
  0
LINE
  5
177
330
1F
100
AcDbEntity
  8
SLD-0
100
AcDbLine
 10
-39.878
 20
294.437675
 30
0.0
 11
-42.0685
 21
294.437675
 31
0.0
  0
LINE
  5
178
330
1F
100
AcDbEntity
  8
SLD-0
100
AcDbLine
 10
-42.0685
 20
294.437675
 30
0.0
 11
-42.0685
 21
297.215675
 31
0.0
  0
LINE
  5
179
330
1F
100
AcDbEntity
  8
SLD-0
100
AcDbLine
 10
-42.0685
 20
297.215675
 30
0.0
 11
-39.878
 21
297.215675
 31
0.0
  0
LINE
  5
17A
330
1F
100
AcDbEntity
  8
SLD-0
100
AcDbLine
 10
-39.878
 20
297.215675
 30
0.0
 11
-39.878
 21
303.215675
 31
0.0
  0
LINE
  5
17B
330
1F
100
AcDbEntity
  8
SLD-0
100
AcDbLine
 10
-39.878
 20
303.215675
 30
0.0
 11
-44.45
 21
303.215675
 31
0.0
  0
LINE
  5
17C
330
1F
100
AcDbEntity
  8
SLD-0
100
AcDbLine
 10
-44.45
 20
303.215675
 30
0.0
 11
-44.45
 21
306.390675
 31
0.0
  0
LINE
  5
17D
330
1F
100
AcDbEntity
  8
SLD-0
100
AcDbLine
 10
-44.45
 20
306.390675
 30
0.0
 11
-57.15
 21
306.390675
 31
0.0
  0
LINE
  5
17E
330
1F
100
AcDbEntity
  8
SLD-0
100
AcDbLine
 10
-57.15
 20
306.390675
 30
0.0
 11
-57.15
 21
303.215675
 31
0.0
  0
LINE
  5
17F
330
1F
100
AcDbEntity
  8
SLD-0
100
AcDbLine
 10
-57.15
 20
303.215675
 30
0.0
 11
-61.722
 21
303.215675
 31
0.0
  0
LINE
  5
180
330
1F
100
AcDbEntity
  8
SLD-0
100
AcDbLine
 10
-61.722
 20
303.215675
 30
0.0
 11
-61.722
 21
297.215675
 31
0.0
  0
LINE
  5
181
330
1F
100
AcDbEntity
  8
SLD-0
100
AcDbLine
 10
-61.722
 20
297.215675
 30
0.0
 11
-59.531
 21
297.215675
 31
0.0
  0
LINE
  5
182
330
1F
100
AcDbEntity
  8
SLD-0
100
AcDbLine
 10
-59.531
 20
297.215675
 30
0.0
 11
-59.531
 21
294.437675
 31
0.0
  0
LINE
  5
183
330
1F
100
AcDbEntity
  8
SLD-0
100
AcDbLine
 10
-59.531
 20
294.437675
 30
0.0
 11
-61.722
 21
294.437675
 31
0.0
  0
LINE
  5
184
330
1F
100
AcDbEntity
  8
SLD-0
100
AcDbLine
 10
-61.722
 20
294.437675
 30
0.0
 11
-61.722
 21
291.150675
 31
0.0
  0
LINE
  5
185
330
1F
100
AcDbEntity
  8
SLD-0
100
AcDbLine
 10
-61.722
 20
291.150675
 30
0.0
 11
-65.278
 21
291.150675
 31
0.0
  0
LINE
  5
186
330
1F
100
AcDbEntity
  8
SLD-0
100
AcDbLine
 10
-65.278
 20
291.150675
 30
0.0
 11
-65.278
 21
294.437675
 31
0.0
  0
LINE
  5
187
330
1F
100
AcDbEntity
  8
SLD-0
100
AcDbLine
 10
-65.278
 20
294.437675
 30
0.0
 11
-67.4685
 21
294.437675
 31
0.0
  0
LINE
  5
188
330
1F
100
AcDbEntity
  8
SLD-0
100
AcDbLine
 10
-67.4685
 20
294.437675
 30
0.0
 11
-67.4685
 21
297.215675
 31
0.0
  0
LINE
  5
189
330
1F
100
AcDbEntity
  8
SLD-0
100
AcDbLine
 10
-67.4685
 20
297.215675
 30
0.0
 11
-65.278
 21
297.215675
 31
0.0
  0
LINE
  5
18A
330
1F
100
AcDbEntity
  8
SLD-0
100
AcDbLine
 10
-65.278
 20
297.215675
 30
0.0
 11
-65.278
 21
303.215675
 31
0.0
  0
LINE
  5
18B
330
1F
100
AcDbEntity
  8
SLD-0
100
AcDbLine
 10
-65.278
 20
303.215675
 30
0.0
 11
-69.85
 21
303.215675
 31
0.0
  0
LINE
  5
18C
330
1F
100
AcDbEntity
  8
SLD-0
100
AcDbLine
 10
-69.85
 20
303.215675
 30
0.0
 11
-69.85
 21
306.390675
 31
0.0
  0
LINE
  5
18D
330
1F
100
AcDbEntity
  8
SLD-0
100
AcDbLine
 10
-69.85
 20
306.390675
 30
0.0
 11
-82.55
 21
306.390675
 31
0.0
  0
LINE
  5
18E
330
1F
100
AcDbEntity
  8
SLD-0
100
AcDbLine
 10
-82.55
 20
306.390675
 30
0.0
 11
-82.55
 21
-306.384325
 31
0.0
  0
LINE
  5
18F
330
1F
100
AcDbEntity
  8
SLD-0
100
AcDbLine
 10
-82.55
 20
-306.384325
 30
0.0
 11
-69.85
 21
-306.384325
 31
0.0
  0
LINE
  5
190
330
1F
100
AcDbEntity
  8
SLD-0
100
AcDbLine
 10
-69.85
 20
-306.384325
 30
0.0
 11
-69.85
 21
-303.209325
 31
0.0
  0
LINE
  5
191
330
1F
100
AcDbEntity
  8
SLD-0
100
AcDbLine
 10
-69.85
 20
-303.209325
 30
0.0
 11
-65.278
 21
-303.209325
 31
0.0
  0
LINE
  5
192
330
1F
100
AcDbEntity
  8
SLD-0
100
AcDbLine
 10
-65.278
 20
-303.209325
 30
0.0
 11
-65.278
 21
-297.209325
 31
0.0
  0
LINE
  5
193
330
1F
100
AcDbEntity
  8
SLD-0
100
AcDbLine
 10
-65.278
 20
-297.209325
 30
0.0
 11
-67.4685
 21
-297.209325
 31
0.0
  0
LINE
  5
194
330
1F
100
AcDbEntity
  8
SLD-0
100
AcDbLine
 10
-67.4685
 20
-297.209325
 30
0.0
 11
-67.4685
 21
-294.431325
 31
0.0
  0
LINE
  5
195
330
1F
100
AcDbEntity
  8
SLD-0
100
AcDbLine
 10
-67.4685
 20
-294.431325
 30
0.0
 11
-65.278
 21
-294.431325
 31
0.0
  0
LINE
  5
196
330
1F
100
AcDbEntity
  8
SLD-0
100
AcDbLine
 10
-65.278
 20
-294.431325
 30
0.0
 11
-65.278
 21
-291.144325
 31
0.0
  0
LINE
  5
197
330
1F
100
AcDbEntity
  8
SLD-0
100
AcDbLine
 10
-65.278
 20
-291.144325
 30
0.0
 11
-61.722
 21
-291.144325
 31
0.0
  0
LINE
  5
198
330
1F
100
AcDbEntity
  8
SLD-0
100
AcDbLine
 10
-61.722
 20
-291.144325
 30
0.0
 11
-61.722
 21
-294.431325
 31
0.0
  0
LINE
  5
199
330
1F
100
AcDbEntity
  8
SLD-0
100
AcDbLine
 10
-61.722
 20
-294.431325
 30
0.0
 11
-59.531
 21
-294.431325
 31
0.0
  0
LINE
  5
19A
330
1F
100
AcDbEntity
  8
SLD-0
100
AcDbLine
 10
-59.531
 20
-294.431325
 30
0.0
 11
-59.531
 21
-297.209325
 31
0.0
  0
LINE
  5
19B
330
1F
100
AcDbEntity
  8
SLD-0
100
AcDbLine
 10
-59.531
 20
-297.209325
 30
0.0
 11
-61.722
 21
-297.209325
 31
0.0
  0
LINE
  5
19C
330
1F
100
AcDbEntity
  8
SLD-0
100
AcDbLine
 10
-61.722
 20
-297.209325
 30
0.0
 11
-61.722
 21
-303.209325
 31
0.0
  0
LINE
  5
19D
330
1F
100
AcDbEntity
  8
SLD-0
100
AcDbLine
 10
-61.722
 20
-303.209325
 30
0.0
 11
-57.15
 21
-303.209325
 31
0.0
  0
LINE
  5
19E
330
1F
100
AcDbEntity
  8
SLD-0
100
AcDbLine
 10
-57.15
 20
-303.209325
 30
0.0
 11
-57.15
 21
-306.384325
 31
0.0
  0
LINE
  5
19F
330
1F
100
AcDbEntity
  8
SLD-0
100
AcDbLine
 10
-57.15
 20
-306.384325
 30
0.0
 11
-44.45
 21
-306.384325
 31
0.0
  0
LINE
  5
1A0
330
1F
100
AcDbEntity
  8
SLD-0
100
AcDbLine
 10
-44.45
 20
-306.384325
 30
0.0
 11
-44.45
 21
-303.209325
 31
0.0
  0
LINE
  5
1A1
330
1F
100
AcDbEntity
  8
SLD-0
100
AcDbLine
 10
-44.45
 20
-303.209325
 30
0.0
 11
-39.878
 21
-303.209325
 31
0.0
  0
LINE
  5
1A2
330
1F
100
AcDbEntity
  8
SLD-0
100
AcDbLine
 10
-39.878
 20
-303.209325
 30
0.0
 11
-39.878
 21
-297.209325
 31
0.0
  0
LINE
  5
1A3
330
1F
100
AcDbEntity
  8
SLD-0
100
AcDbLine
 10
-39.878
 20
-297.209325
 30
0.0
 11
-42.0685
 21
-297.209325
 31
0.0
  0
LINE
  5
1A4
330
1F
100
AcDbEntity
  8
SLD-0
100
AcDbLine
 10
-42.0685
 20
-297.209325
 30
0.0
 11
-42.0685
 21
-294.431325
 31
0.0
  0
LINE
  5
1A5
330
1F
100
AcDbEntity
  8
SLD-0
100
AcDbLine
 10
-42.0685
 20
-294.431325
 30
0.0
 11
-39.878
 21
-294.431325
 31
0.0
  0
LINE
  5
1A6
330
1F
100
AcDbEntity
  8
SLD-0
100
AcDbLine
 10
-39.878
 20
-294.431325
 30
0.0
 11
-39.878
 21
-291.144325
 31
0.0
  0
LINE
  5
1A7
330
1F
100
AcDbEntity
  8
SLD-0
100
AcDbLine
 10
-39.878
 20
-291.144325
 30
0.0
 11
-36.322
 21
-291.144325
 31
0.0
  0
LINE
  5
1A8
330
1F
100
AcDbEntity
  8
SLD-0
100
AcDbLine
 10
-36.322
 20
-291.144325
 30
0.0
 11
-36.322
 21
-294.431325
 31
0.0
  0
LINE
  5
1A9
330
1F
100
AcDbEntity
  8
SLD-0
100
AcDbLine
 10
-36.322
 20
-294.431325
 30
0.0
 11
-34.131
 21
-294.431325
 31
0.0
  0
LINE
  5
1AA
330
1F
100
AcDbEntity
  8
SLD-0
100
AcDbLine
 10
-34.131
 20
-294.431325
 30
0.0
 11
-34.131
 21
-297.209325
 31
0.0
  0
LINE
  5
1AB
330
1F
100
AcDbEntity
  8
SLD-0
100
AcDbLine
 10
-34.131
 20
-297.209325
 30
0.0
 11
-36.322
 21
-297.209325
 31
0.0
  0
LINE
  5
1AC
330
1F
100
AcDbEntity
  8
SLD-0
100
AcDbLine
 10
-36.322
 20
-297.209325
 30
0.0
 11
-36.322
 21
-303.209325
 31
0.0
  0
LINE
  5
1AD
330
1F
100
AcDbEntity
  8
SLD-0
100
AcDbLine
 10
-36.322
 20
-303.209325
 30
0.0
 11
-31.75
 21
-303.209325
 31
0.0
  0
LINE
  5
1AE
330
1F
100
AcDbEntity
  8
SLD-0
100
AcDbLine
 10
-31.75
 20
-303.209325
 30
0.0
 11
-31.75
 21
-306.384325
 31
0.0
  0
LINE
  5
1AF
330
1F
100
AcDbEntity
  8
SLD-0
100
AcDbLine
 10
-31.75
 20
-306.384325
 30
0.0
 11
-19.05
 21
-306.384325
 31
0.0
  0
LINE
  5
1B0
330
1F
100
AcDbEntity
  8
SLD-0
100
AcDbLine
 10
-19.05
 20
-306.384325
 30
0.0
 11
-19.05
 21
-303.209325
 31
0.0
  0
LINE
  5
1B1
330
1F
100
AcDbEntity
  8
SLD-0
100
AcDbLine
 10
-19.05
 20
-303.209325
 30
0.0
 11
-14.478
 21
-303.209325
 31
0.0
  0
LINE
  5
1B2
330
1F
100
AcDbEntity
  8
SLD-0
100
AcDbLine
 10
-14.478
 20
-303.209325
 30
0.0
 11
-14.478
 21
-297.209325
 31
0.0
  0
LINE
  5
1B3
330
1F
100
AcDbEntity
  8
SLD-0
100
AcDbLine
 10
-14.478
 20
-297.209325
 30
0.0
 11
-16.6685
 21
-297.209325
 31
0.0
  0
LINE
  5
1B4
330
1F
100
AcDbEntity
  8
SLD-0
100
AcDbLine
 10
-16.6685
 20
-297.209325
 30
0.0
 11
-16.6685
 21
-294.431325
 31
0.0
  0
LINE
  5
1B5
330
1F
100
AcDbEntity
  8
SLD-0
100
AcDbLine
 10
-16.6685
 20
-294.431325
 30
0.0
 11
-14.478
 21
-294.431325
 31
0.0
  0
LINE
  5
1B6
330
1F
100
AcDbEntity
  8
SLD-0
100
AcDbLine
 10
-14.478
 20
-294.431325
 30
0.0
 11
-14.478
 21
-291.144325
 31
0.0
  0
LINE
  5
1B7
330
1F
100
AcDbEntity
  8
SLD-0
100
AcDbLine
 10
-14.478
 20
-291.144325
 30
0.0
 11
-10.922
 21
-291.144325
 31
0.0
  0
LINE
  5
1B8
330
1F
100
AcDbEntity
  8
SLD-0
100
AcDbLine
 10
-10.922
 20
-291.144325
 30
0.0
 11
-10.922
 21
-294.431325
 31
0.0
  0
LINE
  5
1B9
330
1F
100
AcDbEntity
  8
SLD-0
100
AcDbLine
 10
-10.922
 20
-294.431325
 30
0.0
 11
-8.731
 21
-294.431325
 31
0.0
  0
LINE
  5
1BA
330
1F
100
AcDbEntity
  8
SLD-0
100
AcDbLine
 10
-8.731
 20
-294.431325
 30
0.0
 11
-8.731
 21
-297.209325
 31
0.0
  0
LINE
  5
1BB
330
1F
100
AcDbEntity
  8
SLD-0
100
AcDbLine
 10
-8.731
 20
-297.209325
 30
0.0
 11
-10.922
 21
-297.209325
 31
0.0
  0
LINE
  5
1BC
330
1F
100
AcDbEntity
  8
SLD-0
100
AcDbLine
 10
-10.922
 20
-297.209325
 30
0.0
 11
-10.922
 21
-303.209325
 31
0.0
  0
LINE
  5
1BD
330
1F
100
AcDbEntity
  8
SLD-0
100
AcDbLine
 10
-10.922
 20
-303.209325
 30
0.0
 11
-6.35
 21
-303.209325
 31
0.0
  0
LINE
  5
1BE
330
1F
100
AcDbEntity
  8
SLD-0
100
AcDbLine
 10
-6.35
 20
-303.209325
 30
0.0
 11
-6.35
 21
-306.384325
 31
0.0
  0
LINE
  5
1BF
330
1F
100
AcDbEntity
  8
SLD-0
100
AcDbLine
 10
-6.35
 20
-306.384325
 30
0.0
 11
6.35
 21
-306.384325
 31
0.0
  0
LINE
  5
1C0
330
1F
100
AcDbEntity
  8
SLD-0
100
AcDbLine
 10
6.35
 20
-306.384325
 30
0.0
 11
6.35
 21
-303.209325
 31
0.0
  0
LINE
  5
1C1
330
1F
100
AcDbEntity
  8
SLD-0
100
AcDbLine
 10
6.35
 20
-303.209325
 30
0.0
 11
10.922
 21
-303.209325
 31
0.0
  0
LINE
  5
1C2
330
1F
100
AcDbEntity
  8
SLD-0
100
AcDbLine
 10
10.922
 20
-303.209325
 30
0.0
 11
10.922
 21
-297.209325
 31
0.0
  0
LINE
  5
1C3
330
1F
100
AcDbEntity
  8
SLD-0
100
AcDbLine
 10
10.922
 20
-297.209325
 30
0.0
 11
8.7315
 21
-297.209325
 31
0.0
  0
LINE
  5
1C4
330
1F
100
AcDbEntity
  8
SLD-0
100
AcDbLine
 10
8.7315
 20
-297.209325
 30
0.0
 11
8.7315
 21
-294.431325
 31
0.0
  0
LINE
  5
1C5
330
1F
100
AcDbEntity
  8
SLD-0
100
AcDbLine
 10
8.7315
 20
-294.431325
 30
0.0
 11
10.922
 21
-294.431325
 31
0.0
  0
LINE
  5
1C6
330
1F
100
AcDbEntity
  8
SLD-0
100
AcDbLine
 10
10.922
 20
-294.431325
 30
0.0
 11
10.922
 21
-291.144325
 31
0.0
  0
LINE
  5
1C7
330
1F
100
AcDbEntity
  8
SLD-0
100
AcDbLine
 10
10.922
 20
-291.144325
 30
0.0
 11
14.478
 21
-291.144325
 31
0.0
  0
LINE
  5
1C8
330
1F
100
AcDbEntity
  8
SLD-0
100
AcDbLine
 10
14.478
 20
-291.144325
 30
0.0
 11
14.478
 21
-294.431325
 31
0.0
  0
LINE
  5
1C9
330
1F
100
AcDbEntity
  8
SLD-0
100
AcDbLine
 10
14.478
 20
-294.431325
 30
0.0
 11
16.669
 21
-294.431325
 31
0.0
  0
LINE
  5
1CA
330
1F
100
AcDbEntity
  8
SLD-0
100
AcDbLine
 10
16.669
 20
-294.431325
 30
0.0
 11
16.669
 21
-297.209325
 31
0.0
  0
LINE
  5
1CB
330
1F
100
AcDbEntity
  8
SLD-0
100
AcDbLine
 10
16.669
 20
-297.209325
 30
0.0
 11
14.478
 21
-297.209325
 31
0.0
  0
LINE
  5
1CC
330
1F
100
AcDbEntity
  8
SLD-0
100
AcDbLine
 10
14.478
 20
-297.209325
 30
0.0
 11
14.478
 21
-303.209325
 31
0.0
  0
LINE
  5
1CD
330
1F
100
AcDbEntity
  8
SLD-0
100
AcDbLine
 10
14.478
 20
-303.209325
 30
0.0
 11
19.05
 21
-303.209325
 31
0.0
  0
LINE
  5
1CE
330
1F
100
AcDbEntity
  8
SLD-0
100
AcDbLine
 10
19.05
 20
-303.209325
 30
0.0
 11
19.05
 21
-306.384325
 31
0.0
  0
LINE
  5
1CF
330
1F
100
AcDbEntity
  8
SLD-0
100
AcDbLine
 10
19.05
 20
-306.384325
 30
0.0
 11
31.75
 21
-306.384325
 31
0.0
  0
LINE
  5
1D0
330
1F
100
AcDbEntity
  8
SLD-0
100
AcDbLine
 10
31.75
 20
-306.384325
 30
0.0
 11
31.75
 21
-303.209325
 31
0.0
  0
LINE
  5
1D1
330
1F
100
AcDbEntity
  8
SLD-0
100
AcDbLine
 10
31.75
 20
-303.209325
 30
0.0
 11
36.322
 21
-303.209325
 31
0.0
  0
LINE
  5
1D2
330
1F
100
AcDbEntity
  8
SLD-0
100
AcDbLine
 10
36.322
 20
-303.209325
 30
0.0
 11
36.322
 21
-297.209325
 31
0.0
  0
LINE
  5
1D3
330
1F
100
AcDbEntity
  8
SLD-0
100
AcDbLine
 10
36.322
 20
-297.209325
 30
0.0
 11
34.1315
 21
-297.209325
 31
0.0
  0
LINE
  5
1D4
330
1F
100
AcDbEntity
  8
SLD-0
100
AcDbLine
 10
34.1315
 20
-297.209325
 30
0.0
 11
34.1315
 21
-294.431325
 31
0.0
  0
LINE
  5
1D5
330
1F
100
AcDbEntity
  8
SLD-0
100
AcDbLine
 10
34.1315
 20
-294.431325
 30
0.0
 11
36.322
 21
-294.431325
 31
0.0
  0
LINE
  5
1D6
330
1F
100
AcDbEntity
  8
SLD-0
100
AcDbLine
 10
36.322
 20
-294.431325
 30
0.0
 11
36.322
 21
-291.144325
 31
0.0
  0
LINE
  5
1D7
330
1F
100
AcDbEntity
  8
SLD-0
100
AcDbLine
 10
36.322
 20
-291.144325
 30
0.0
 11
39.878
 21
-291.144325
 31
0.0
  0
LINE
  5
1D8
330
1F
100
AcDbEntity
  8
SLD-0
100
AcDbLine
 10
39.878
 20
-291.144325
 30
0.0
 11
39.878
 21
-294.431325
 31
0.0
  0
LINE
  5
1D9
330
1F
100
AcDbEntity
  8
SLD-0
100
AcDbLine
 10
39.878
 20
-294.431325
 30
0.0
 11
42.069
 21
-294.431325
 31
0.0
  0
LINE
  5
1DA
330
1F
100
AcDbEntity
  8
SLD-0
100
AcDbLine
 10
42.069
 20
-294.431325
 30
0.0
 11
42.069
 21
-297.209325
 31
0.0
  0
LINE
  5
1DB
330
1F
100
AcDbEntity
  8
SLD-0
100
AcDbLine
 10
42.069
 20
-297.209325
 30
0.0
 11
39.878
 21
-297.209325
 31
0.0
  0
LINE
  5
1DC
330
1F
100
AcDbEntity
  8
SLD-0
100
AcDbLine
 10
39.878
 20
-297.209325
 30
0.0
 11
39.878
 21
-303.209325
 31
0.0
  0
LINE
  5
1DD
330
1F
100
AcDbEntity
  8
SLD-0
100
AcDbLine
 10
39.878
 20
-303.209325
 30
0.0
 11
44.45
 21
-303.209325
 31
0.0
  0
LINE
  5
1DE
330
1F
100
AcDbEntity
  8
SLD-0
100
AcDbLine
 10
44.45
 20
-303.209325
 30
0.0
 11
44.45
 21
-306.384325
 31
0.0
  0
LINE
  5
1DF
330
1F
100
AcDbEntity
  8
SLD-0
100
AcDbLine
 10
44.45
 20
-306.384325
 30
0.0
 11
57.15
 21
-306.384325
 31
0.0
  0
LINE
  5
1E0
330
1F
100
AcDbEntity
  8
SLD-0
100
AcDbLine
 10
57.15
 20
-306.384325
 30
0.0
 11
57.15
 21
-303.209325
 31
0.0
  0
LINE
  5
1E1
330
1F
100
AcDbEntity
  8
SLD-0
100
AcDbLine
 10
57.15
 20
-303.209325
 30
0.0
 11
61.722
 21
-303.209325
 31
0.0
  0
LINE
  5
1E2
330
1F
100
AcDbEntity
  8
SLD-0
100
AcDbLine
 10
61.722
 20
-303.209325
 30
0.0
 11
61.722
 21
-297.209325
 31
0.0
  0
LINE
  5
1E3
330
1F
100
AcDbEntity
  8
SLD-0
100
AcDbLine
 10
61.722
 20
-297.209325
 30
0.0
 11
59.5315
 21
-297.209325
 31
0.0
  0
LINE
  5
1E4
330
1F
100
AcDbEntity
  8
SLD-0
100
AcDbLine
 10
59.5315
 20
-297.209325
 30
0.0
 11
59.5315
 21
-294.431325
 31
0.0
  0
LINE
  5
1E5
330
1F
100
AcDbEntity
  8
SLD-0
100
AcDbLine
 10
59.5315
 20
-294.431325
 30
0.0
 11
61.722
 21
-294.431325
 31
0.0
  0
LINE
  5
1E6
330
1F
100
AcDbEntity
  8
SLD-0
100
AcDbLine
 10
61.722
 20
-294.431325
 30
0.0
 11
61.722
 21
-291.144325
 31
0.0
  0
LINE
  5
1E7
330
1F
100
AcDbEntity
  8
SLD-0
100
AcDbLine
 10
61.722
 20
-291.144325
 30
0.0
 11
65.278
 21
-291.144325
 31
0.0
  0
LINE
  5
1E8
330
1F
100
AcDbEntity
  8
SLD-0
100
AcDbLine
 10
65.278
 20
-291.144325
 30
0.0
 11
65.278
 21
-294.431325
 31
0.0
  0
LINE
  5
1E9
330
1F
100
AcDbEntity
  8
SLD-0
100
AcDbLine
 10
65.278
 20
-294.431325
 30
0.0
 11
67.469
 21
-294.431325
 31
0.0
  0
LINE
  5
1EA
330
1F
100
AcDbEntity
  8
SLD-0
100
AcDbLine
 10
67.469
 20
-294.431325
 30
0.0
 11
67.469
 21
-297.209325
 31
0.0
  0
LINE
  5
1EB
330
1F
100
AcDbEntity
  8
SLD-0
100
AcDbLine
 10
67.469
 20
-297.209325
 30
0.0
 11
65.278
 21
-297.209325
 31
0.0
  0
LINE
  5
1EC
330
1F
100
AcDbEntity
  8
SLD-0
100
AcDbLine
 10
65.278
 20
-297.209325
 30
0.0
 11
65.278
 21
-303.209325
 31
0.0
  0
LINE
  5
1ED
330
1F
100
AcDbEntity
  8
SLD-0
100
AcDbLine
 10
65.278
 20
-303.209325
 30
0.0
 11
69.85
 21
-303.209325
 31
0.0
  0
LINE
  5
1EE
330
1F
100
AcDbEntity
  8
SLD-0
100
AcDbLine
 10
69.85
 20
-303.209325
 30
0.0
 11
69.85
 21
-306.384325
 31
0.0
  0
LINE
  5
1EF
330
1F
100
AcDbEntity
  8
SLD-0
100
AcDbLine
 10
69.85
 20
-306.384325
 30
0.0
 11
79.375
 21
-306.384325
 31
0.0
  0
LINE
  5
1F0
330
1F
100
AcDbEntity
  8
SLD-0
100
AcDbLine
 10
61.722
 20
297.215675
 30
0.0
 11
59.5315
 21
297.215675
 31
0.0
  0
LINE
  5
1F1
330
1F
100
AcDbEntity
  8
SLD-0
100
AcDbLine
 10
59.5315
 20
297.215675
 30
0.0
 11
59.5315
 21
294.437675
 31
0.0
  0
LINE
  5
1F2
330
1F
100
AcDbEntity
  8
SLD-0
100
AcDbLine
 10
59.5315
 20
294.437675
 30
0.0
 11
61.722
 21
294.437675
 31
0.0
  0
LINE
  5
1F3
330
1F
100
AcDbEntity
  8
SLD-0
100
AcDbLine
 10
61.722
 20
294.437675
 30
0.0
 11
61.722
 21
291.150675
 31
0.0
  0
LINE
  5
1F4
330
1F
100
AcDbEntity
  8
SLD-0
100
AcDbLine
 10
61.722
 20
291.150675
 30
0.0
 11
65.278
 21
291.150675
 31
0.0
  0
LINE
  5
1F5
330
1F
100
AcDbEntity
  8
SLD-0
100
AcDbLine
 10
65.278
 20
291.150675
 30
0.0
 11
65.278
 21
294.437675
 31
0.0
  0
LINE
  5
1F6
330
1F
100
AcDbEntity
  8
SLD-0
100
AcDbLine
 10
65.278
 20
294.437675
 30
0.0
 11
67.469
 21
294.437675
 31
0.0
  0
LINE
  5
1F7
330
1F
100
AcDbEntity
  8
SLD-0
100
AcDbLine
 10
67.469
 20
294.437675
 30
0.0
 11
67.469
 21
297.215675
 31
0.0
  0
LINE
  5
1F8
330
1F
100
AcDbEntity
  8
SLD-0
100
AcDbLine
 10
67.469
 20
297.215675
 30
0.0
 11
65.278
 21
297.215675
 31
0.0
  0
LINE
  5
1F9
330
1F
100
AcDbEntity
  8
SLD-0
100
AcDbLine
 10
65.278
 20
297.215675
 30
0.0
 11
65.278
 21
303.215675
 31
0.0
  0
LINE
  5
1FA
330
1F
100
AcDbEntity
  8
SLD-0
100
AcDbLine
 10
65.278
 20
303.215675
 30
0.0
 11
69.85
 21
303.215675
 31
0.0
  0
LINE
  5
1FB
330
1F
100
AcDbEntity
  8
SLD-0
100
AcDbLine
 10
69.85
 20
303.215675
 30
0.0
 11
69.85
 21
306.390675
 31
0.0
  0
LINE
  5
1FC
330
1F
100
AcDbEntity
  8
SLD-0
100
AcDbLine
 10
69.85
 20
306.390675
 30
0.0
 11
79.375
 21
306.390675
 31
0.0
  0
LINE
  5
1FD
330
1F
100
AcDbEntity
  8
SLD-0
100
AcDbLine
 10
79.375
 20
306.390675
 30
0.0
 11
79.375
 21
293.690675
 31
0.0
  0
LINE
  5
1FE
330
1F
100
AcDbEntity
  8
SLD-0
100
AcDbLine
 10
79.375
 20
293.690675
 30
0.0
 11
82.55
 21
293.690675
 31
0.0
  0
LINE
  5
1FF
330
1F
100
AcDbEntity
  8
SLD-0
100
AcDbLine
 10
82.55
 20
293.690675
 30
0.0
 11
82.55
 21
289.093275
 31
0.0
  0
LINE
  5
200
330
1F
100
AcDbEntity
  8
SLD-0
100
AcDbLine
 10
82.55
 20
289.093275
 30
0.0
 11
79.375
 21
289.093275
 31
0.0
  0
LINE
  5
201
330
1F
100
AcDbEntity
  8
SLD-0
100
AcDbLine
 10
79.375
 20
289.093275
 30
0.0
 11
79.375
 21
285.537275
 31
0.0
  0
LINE
  5
202
330
1F
100
AcDbEntity
  8
SLD-0
100
AcDbLine
 10
79.375
 20
285.537275
 30
0.0
 11
82.55
 21
285.537275
 31
0.0
  0
LINE
  5
203
330
1F
100
AcDbEntity
  8
SLD-0
100
AcDbLine
 10
82.55
 20
285.537275
 30
0.0
 11
82.55
 21
280.990675
 31
0.0
  0
LINE
  5
204
330
1F
100
AcDbEntity
  8
SLD-0
100
AcDbLine
 10
82.55
 20
280.990675
 30
0.0
 11
79.375
 21
280.990675
 31
0.0
  0
LINE
  5
205
330
1F
100
AcDbEntity
  8
SLD-0
100
AcDbLine
 10
79.375
 20
280.990675
 30
0.0
 11
79.375
 21
268.290675
 31
0.0
  0
LINE
  5
206
330
1F
100
AcDbEntity
  8
SLD-0
100
AcDbLine
 10
79.375
 20
268.290675
 30
0.0
 11
82.55
 21
268.290675
 31
0.0
  0
LINE
  5
207
330
1F
100
AcDbEntity
  8
SLD-0
100
AcDbLine
 10
82.55
 20
268.290675
 30
0.0
 11
82.55
 21
263.693275
 31
0.0
  0
LINE
  5
208
330
1F
100
AcDbEntity
  8
SLD-0
100
AcDbLine
 10
82.55
 20
263.693275
 30
0.0
 11
79.375
 21
263.693275
 31
0.0
  0
LINE
  5
209
330
1F
100
AcDbEntity
  8
SLD-0
100
AcDbLine
 10
79.375
 20
263.693275
 30
0.0
 11
79.375
 21
260.137275
 31
0.0
  0
LINE
  5
20A
330
1F
100
AcDbEntity
  8
SLD-0
100
AcDbLine
 10
79.375
 20
260.137275
 30
0.0
 11
82.55
 21
260.137275
 31
0.0
  0
LINE
  5
20B
330
1F
100
AcDbEntity
  8
SLD-0
100
AcDbLine
 10
82.55
 20
260.137275
 30
0.0
 11
82.55
 21
255.590675
 31
0.0
  0
LINE
  5
20C
330
1F
100
AcDbEntity
  8
SLD-0
100
AcDbLine
 10
82.55
 20
255.590675
 30
0.0
 11
79.375
 21
255.590675
 31
0.0
  0
LINE
  5
20D
330
1F
100
AcDbEntity
  8
SLD-0
100
AcDbLine
 10
79.375
 20
255.590675
 30
0.0
 11
79.375
 21
242.890675
 31
0.0
  0
LINE
  5
20E
330
1F
100
AcDbEntity
  8
SLD-0
100
AcDbLine
 10
79.375
 20
242.890675
 30
0.0
 11
82.55
 21
242.890675
 31
0.0
  0
LINE
  5
20F
330
1F
100
AcDbEntity
  8
SLD-0
100
AcDbLine
 10
82.55
 20
242.890675
 30
0.0
 11
82.55
 21
238.293275
 31
0.0
  0
LINE
  5
210
330
1F
100
AcDbEntity
  8
SLD-0
100
AcDbLine
 10
82.55
 20
238.293275
 30
0.0
 11
79.375
 21
238.293275
 31
0.0
  0
LINE
  5
211
330
1F
100
AcDbEntity
  8
SLD-0
100
AcDbLine
 10
79.375
 20
238.293275
 30
0.0
 11
79.375
 21
234.737275
 31
0.0
  0
LINE
  5
212
330
1F
100
AcDbEntity
  8
SLD-0
100
AcDbLine
 10
79.375
 20
234.737275
 30
0.0
 11
82.55
 21
234.737275
 31
0.0
  0
LINE
  5
213
330
1F
100
AcDbEntity
  8
SLD-0
100
AcDbLine
 10
82.55
 20
234.737275
 30
0.0
 11
82.55
 21
230.190675
 31
0.0
  0
LINE
  5
214
330
1F
100
AcDbEntity
  8
SLD-0
100
AcDbLine
 10
82.55
 20
230.190675
 30
0.0
 11
79.375
 21
230.190675
 31
0.0
  0
LINE
  5
215
330
1F
100
AcDbEntity
  8
SLD-0
100
AcDbLine
 10
79.375
 20
230.190675
 30
0.0
 11
79.375
 21
217.490675
 31
0.0
  0
LINE
  5
216
330
1F
100
AcDbEntity
  8
SLD-0
100
AcDbLine
 10
79.375
 20
217.490675
 30
0.0
 11
82.55
 21
217.490675
 31
0.0
  0
LINE
  5
217
330
1F
100
AcDbEntity
  8
SLD-0
100
AcDbLine
 10
82.55
 20
217.490675
 30
0.0
 11
82.55
 21
212.893275
 31
0.0
  0
LINE
  5
218
330
1F
100
AcDbEntity
  8
SLD-0
100
AcDbLine
 10
82.55
 20
212.893275
 30
0.0
 11
79.375
 21
212.893275
 31
0.0
  0
LINE
  5
219
330
1F
100
AcDbEntity
  8
SLD-0
100
AcDbLine
 10
79.375
 20
212.893275
 30
0.0
 11
79.375
 21
209.337275
 31
0.0
  0
LINE
  5
21A
330
1F
100
AcDbEntity
  8
SLD-0
100
AcDbLine
 10
79.375
 20
209.337275
 30
0.0
 11
82.55
 21
209.337275
 31
0.0
  0
LINE
  5
21B
330
1F
100
AcDbEntity
  8
SLD-0
100
AcDbLine
 10
82.55
 20
209.337275
 30
0.0
 11
82.55
 21
204.790675
 31
0.0
  0
LINE
  5
21C
330
1F
100
AcDbEntity
  8
SLD-0
100
AcDbLine
 10
82.55
 20
204.790675
 30
0.0
 11
79.375
 21
204.790675
 31
0.0
  0
LINE
  5
21D
330
1F
100
AcDbEntity
  8
SLD-0
100
AcDbLine
 10
79.375
 20
204.790675
 30
0.0
 11
79.375
 21
192.090675
 31
0.0
  0
LINE
  5
21E
330
1F
100
AcDbEntity
  8
SLD-0
100
AcDbLine
 10
79.375
 20
192.090675
 30
0.0
 11
82.55
 21
192.090675
 31
0.0
  0
LINE
  5
21F
330
1F
100
AcDbEntity
  8
SLD-0
100
AcDbLine
 10
82.55
 20
192.090675
 30
0.0
 11
82.55
 21
187.493275
 31
0.0
  0
LINE
  5
220
330
1F
100
AcDbEntity
  8
SLD-0
100
AcDbLine
 10
82.55
 20
187.493275
 30
0.0
 11
79.375
 21
187.493275
 31
0.0
  0
LINE
  5
221
330
1F
100
AcDbEntity
  8
SLD-0
100
AcDbLine
 10
79.375
 20
187.493275
 30
0.0
 11
79.375
 21
183.937275
 31
0.0
  0
LINE
  5
222
330
1F
100
AcDbEntity
  8
SLD-0
100
AcDbLine
 10
79.375
 20
183.937275
 30
0.0
 11
82.55
 21
183.937275
 31
0.0
  0
LINE
  5
223
330
1F
100
AcDbEntity
  8
SLD-0
100
AcDbLine
 10
82.55
 20
183.937275
 30
0.0
 11
82.55
 21
179.390675
 31
0.0
  0
LINE
  5
224
330
1F
100
AcDbEntity
  8
SLD-0
100
AcDbLine
 10
82.55
 20
179.390675
 30
0.0
 11
79.375
 21
179.390675
 31
0.0
  0
LINE
  5
225
330
1F
100
AcDbEntity
  8
SLD-0
100
AcDbLine
 10
79.375
 20
179.390675
 30
0.0
 11
79.375
 21
166.690675
 31
0.0
  0
LINE
  5
226
330
1F
100
AcDbEntity
  8
SLD-0
100
AcDbLine
 10
79.375
 20
166.690675
 30
0.0
 11
82.55
 21
166.690675
 31
0.0
  0
LINE
  5
227
330
1F
100
AcDbEntity
  8
SLD-0
100
AcDbLine
 10
82.55
 20
166.690675
 30
0.0
 11
82.55
 21
162.093275
 31
0.0
  0
LINE
  5
228
330
1F
100
AcDbEntity
  8
SLD-0
100
AcDbLine
 10
82.55
 20
162.093275
 30
0.0
 11
79.375
 21
162.093275
 31
0.0
  0
LINE
  5
229
330
1F
100
AcDbEntity
  8
SLD-0
100
AcDbLine
 10
79.375
 20
162.093275
 30
0.0
 11
79.375
 21
158.537275
 31
0.0
  0
LINE
  5
22A
330
1F
100
AcDbEntity
  8
SLD-0
100
AcDbLine
 10
79.375
 20
158.537275
 30
0.0
 11
82.55
 21
158.537275
 31
0.0
  0
LINE
  5
22B
330
1F
100
AcDbEntity
  8
SLD-0
100
AcDbLine
 10
82.55
 20
158.537275
 30
0.0
 11
82.55
 21
153.990675
 31
0.0
  0
LINE
  5
22C
330
1F
100
AcDbEntity
  8
SLD-0
100
AcDbLine
 10
82.55
 20
153.990675
 30
0.0
 11
79.375
 21
153.990675
 31
0.0
  0
LINE
  5
22D
330
1F
100
AcDbEntity
  8
SLD-0
100
AcDbLine
 10
79.375
 20
153.990675
 30
0.0
 11
79.375
 21
141.290675
 31
0.0
  0
LINE
  5
22E
330
1F
100
AcDbEntity
  8
SLD-0
100
AcDbLine
 10
79.375
 20
141.290675
 30
0.0
 11
82.55
 21
141.290675
 31
0.0
  0
LINE
  5
22F
330
1F
100
AcDbEntity
  8
SLD-0
100
AcDbLine
 10
82.55
 20
141.290675
 30
0.0
 11
82.55
 21
136.693275
 31
0.0
  0
LINE
  5
230
330
1F
100
AcDbEntity
  8
SLD-0
100
AcDbLine
 10
82.55
 20
136.693275
 30
0.0
 11
79.375
 21
136.693275
 31
0.0
  0
LINE
  5
231
330
1F
100
AcDbEntity
  8
SLD-0
100
AcDbLine
 10
79.375
 20
136.693275
 30
0.0
 11
79.375
 21
133.137275
 31
0.0
  0
LINE
  5
232
330
1F
100
AcDbEntity
  8
SLD-0
100
AcDbLine
 10
79.375
 20
133.137275
 30
0.0
 11
82.55
 21
133.137275
 31
0.0
  0
LINE
  5
233
330
1F
100
AcDbEntity
  8
SLD-0
100
AcDbLine
 10
82.55
 20
133.137275
 30
0.0
 11
82.55
 21
128.590675
 31
0.0
  0
LINE
  5
234
330
1F
100
AcDbEntity
  8
SLD-0
100
AcDbLine
 10
82.55
 20
128.590675
 30
0.0
 11
79.375
 21
128.590675
 31
0.0
  0
LINE
  5
235
330
1F
100
AcDbEntity
  8
SLD-0
100
AcDbLine
 10
79.375
 20
128.590675
 30
0.0
 11
79.375
 21
115.890675
 31
0.0
  0
LINE
  5
236
330
1F
100
AcDbEntity
  8
SLD-0
100
AcDbLine
 10
79.375
 20
115.890675
 30
0.0
 11
82.55
 21
115.890675
 31
0.0
  0
LINE
  5
237
330
1F
100
AcDbEntity
  8
SLD-0
100
AcDbLine
 10
82.55
 20
115.890675
 30
0.0
 11
82.55
 21
111.293275
 31
0.0
  0
LINE
  5
238
330
1F
100
AcDbEntity
  8
SLD-0
100
AcDbLine
 10
82.55
 20
111.293275
 30
0.0
 11
79.375
 21
111.293275
 31
0.0
  0
LINE
  5
239
330
1F
100
AcDbEntity
  8
SLD-0
100
AcDbLine
 10
79.375
 20
111.293275
 30
0.0
 11
79.375
 21
107.737275
 31
0.0
  0
LINE
  5
23A
330
1F
100
AcDbEntity
  8
SLD-0
100
AcDbLine
 10
79.375
 20
107.737275
 30
0.0
 11
82.55
 21
107.737275
 31
0.0
  0
LINE
  5
23B
330
1F
100
AcDbEntity
  8
SLD-0
100
AcDbLine
 10
82.55
 20
107.737275
 30
0.0
 11
82.55
 21
103.190675
 31
0.0
  0
LINE
  5
23C
330
1F
100
AcDbEntity
  8
SLD-0
100
AcDbLine
 10
82.55
 20
103.190675
 30
0.0
 11
79.375
 21
103.190675
 31
0.0
  0
LINE
  5
23D
330
1F
100
AcDbEntity
  8
SLD-0
100
AcDbLine
 10
79.375
 20
103.190675
 30
0.0
 11
79.375
 21
90.490675
 31
0.0
  0
LINE
  5
23E
330
1F
100
AcDbEntity
  8
SLD-0
100
AcDbLine
 10
79.375
 20
90.490675
 30
0.0
 11
82.55
 21
90.490675
 31
0.0
  0
LINE
  5
23F
330
1F
100
AcDbEntity
  8
SLD-0
100
AcDbLine
 10
82.55
 20
90.490675
 30
0.0
 11
82.55
 21
85.893275
 31
0.0
  0
LINE
  5
240
330
1F
100
AcDbEntity
  8
SLD-0
100
AcDbLine
 10
82.55
 20
85.893275
 30
0.0
 11
79.375
 21
85.893275
 31
0.0
  0
LINE
  5
241
330
1F
100
AcDbEntity
  8
SLD-0
100
AcDbLine
 10
79.375
 20
85.893275
 30
0.0
 11
79.375
 21
82.337275
 31
0.0
  0
LINE
  5
242
330
1F
100
AcDbEntity
  8
SLD-0
100
AcDbLine
 10
79.375
 20
82.337275
 30
0.0
 11
82.55
 21
82.337275
 31
0.0
  0
LINE
  5
243
330
1F
100
AcDbEntity
  8
SLD-0
100
AcDbLine
 10
82.55
 20
82.337275
 30
0.0
 11
82.55
 21
77.790675
 31
0.0
  0
LINE
  5
244
330
1F
100
AcDbEntity
  8
SLD-0
100
AcDbLine
 10
82.55
 20
77.790675
 30
0.0
 11
79.375
 21
77.790675
 31
0.0
  0
LINE
  5
245
330
1F
100
AcDbEntity
  8
SLD-0
100
AcDbLine
 10
79.375
 20
77.790675
 30
0.0
 11
79.375
 21
65.090675
 31
0.0
  0
LINE
  5
246
330
1F
100
AcDbEntity
  8
SLD-0
100
AcDbLine
 10
79.375
 20
65.090675
 30
0.0
 11
82.55
 21
65.090675
 31
0.0
  0
LINE
  5
247
330
1F
100
AcDbEntity
  8
SLD-0
100
AcDbLine
 10
82.55
 20
65.090675
 30
0.0
 11
82.55
 21
60.493275
 31
0.0
  0
LINE
  5
248
330
1F
100
AcDbEntity
  8
SLD-0
100
AcDbLine
 10
82.55
 20
60.493275
 30
0.0
 11
79.375
 21
60.493275
 31
0.0
  0
LINE
  5
249
330
1F
100
AcDbEntity
  8
SLD-0
100
AcDbLine
 10
79.375
 20
60.493275
 30
0.0
 11
79.375
 21
56.937275
 31
0.0
  0
LINE
  5
24A
330
1F
100
AcDbEntity
  8
SLD-0
100
AcDbLine
 10
79.375
 20
56.937275
 30
0.0
 11
82.55
 21
56.937275
 31
0.0
  0
LINE
  5
24B
330
1F
100
AcDbEntity
  8
SLD-0
100
AcDbLine
 10
82.55
 20
56.937275
 30
0.0
 11
82.55
 21
52.390675
 31
0.0
  0
LINE
  5
24C
330
1F
100
AcDbEntity
  8
SLD-0
100
AcDbLine
 10
82.55
 20
52.390675
 30
0.0
 11
79.375
 21
52.390675
 31
0.0
  0
LINE
  5
24D
330
1F
100
AcDbEntity
  8
SLD-0
100
AcDbLine
 10
79.375
 20
52.390675
 30
0.0
 11
79.375
 21
39.690675
 31
0.0
  0
LINE
  5
24E
330
1F
100
AcDbEntity
  8
SLD-0
100
AcDbLine
 10
79.375
 20
39.690675
 30
0.0
 11
82.55
 21
39.690675
 31
0.0
  0
LINE
  5
24F
330
1F
100
AcDbEntity
  8
SLD-0
100
AcDbLine
 10
82.55
 20
39.690675
 30
0.0
 11
82.55
 21
35.093275
 31
0.0
  0
LINE
  5
250
330
1F
100
AcDbEntity
  8
SLD-0
100
AcDbLine
 10
82.55
 20
35.093275
 30
0.0
 11
79.375
 21
35.093275
 31
0.0
  0
LINE
  5
251
330
1F
100
AcDbEntity
  8
SLD-0
100
AcDbLine
 10
79.375
 20
35.093275
 30
0.0
 11
79.375
 21
31.537275
 31
0.0
  0
LINE
  5
252
330
1F
100
AcDbEntity
  8
SLD-0
100
AcDbLine
 10
79.375
 20
31.537275
 30
0.0
 11
82.55
 21
31.537275
 31
0.0
  0
LINE
  5
253
330
1F
100
AcDbEntity
  8
SLD-0
100
AcDbLine
 10
82.55
 20
31.537275
 30
0.0
 11
82.55
 21
26.990675
 31
0.0
  0
LINE
  5
254
330
1F
100
AcDbEntity
  8
SLD-0
100
AcDbLine
 10
82.55
 20
26.990675
 30
0.0
 11
79.375
 21
26.990675
 31
0.0
  0
LINE
  5
255
330
1F
100
AcDbEntity
  8
SLD-0
100
AcDbLine
 10
79.375
 20
26.990675
 30
0.0
 11
79.375
 21
14.290675
 31
0.0
  0
LINE
  5
256
330
1F
100
AcDbEntity
  8
SLD-0
100
AcDbLine
 10
79.375
 20
14.290675
 30
0.0
 11
82.55
 21
14.290675
 31
0.0
  0
LINE
  5
257
330
1F
100
AcDbEntity
  8
SLD-0
100
AcDbLine
 10
82.55
 20
14.290675
 30
0.0
 11
82.55
 21
9.693275
 31
0.0
  0
LINE
  5
258
330
1F
100
AcDbEntity
  8
SLD-0
100
AcDbLine
 10
82.55
 20
9.693275
 30
0.0
 11
79.375
 21
9.693275
 31
0.0
  0
LINE
  5
259
330
1F
100
AcDbEntity
  8
SLD-0
100
AcDbLine
 10
79.375
 20
9.693275
 30
0.0
 11
79.375
 21
6.137275
 31
0.0
  0
LINE
  5
25A
330
1F
100
AcDbEntity
  8
SLD-0
100
AcDbLine
 10
79.375
 20
6.137275
 30
0.0
 11
82.55
 21
6.137275
 31
0.0
  0
LINE
  5
25B
330
1F
100
AcDbEntity
  8
SLD-0
100
AcDbLine
 10
82.55
 20
6.137275
 30
0.0
 11
82.55
 21
1.590675
 31
0.0
  0
LINE
  5
25C
330
1F
100
AcDbEntity
  8
SLD-0
100
AcDbLine
 10
82.55
 20
1.590675
 30
0.0
 11
79.375
 21
1.590675
 31
0.0
  0
LINE
  5
25D
330
1F
100
AcDbEntity
  8
SLD-0
100
AcDbLine
 10
79.375
 20
1.590675
 30
0.0
 11
79.375
 21
-11.109325
 31
0.0
  0
LINE
  5
25E
330
1F
100
AcDbEntity
  8
SLD-0
100
AcDbLine
 10
79.375
 20
-11.109325
 30
0.0
 11
82.55
 21
-11.109325
 31
0.0
  0
LINE
  5
25F
330
1F
100
AcDbEntity
  8
SLD-0
100
AcDbLine
 10
82.55
 20
-11.109325
 30
0.0
 11
82.55
 21
-15.706725
 31
0.0
  0
LINE
  5
260
330
1F
100
AcDbEntity
  8
SLD-0
100
AcDbLine
 10
82.55
 20
-15.706725
 30
0.0
 11
79.375
 21
-15.706725
 31
0.0
  0
LINE
  5
261
330
1F
100
AcDbEntity
  8
SLD-0
100
AcDbLine
 10
79.375
 20
-15.706725
 30
0.0
 11
79.375
 21
-19.262725
 31
0.0
  0
LINE
  5
262
330
1F
100
AcDbEntity
  8
SLD-0
100
AcDbLine
 10
79.375
 20
-19.262725
 30
0.0
 11
82.55
 21
-19.262725
 31
0.0
  0
LINE
  5
263
330
1F
100
AcDbEntity
  8
SLD-0
100
AcDbLine
 10
82.55
 20
-19.262725
 30
0.0
 11
82.55
 21
-23.809325
 31
0.0
  0
LINE
  5
264
330
1F
100
AcDbEntity
  8
SLD-0
100
AcDbLine
 10
82.55
 20
-23.809325
 30
0.0
 11
79.375
 21
-23.809325
 31
0.0
  0
LINE
  5
265
330
1F
100
AcDbEntity
  8
SLD-0
100
AcDbLine
 10
79.375
 20
-23.809325
 30
0.0
 11
79.375
 21
-36.509325
 31
0.0
  0
LINE
  5
266
330
1F
100
AcDbEntity
  8
SLD-0
100
AcDbLine
 10
79.375
 20
-36.509325
 30
0.0
 11
82.55
 21
-36.509325
 31
0.0
  0
LINE
  5
267
330
1F
100
AcDbEntity
  8
SLD-0
100
AcDbLine
 10
82.55
 20
-36.509325
 30
0.0
 11
82.55
 21
-41.106725
 31
0.0
  0
LINE
  5
268
330
1F
100
AcDbEntity
  8
SLD-0
100
AcDbLine
 10
82.55
 20
-41.106725
 30
0.0
 11
79.375
 21
-41.106725
 31
0.0
  0
LINE
  5
269
330
1F
100
AcDbEntity
  8
SLD-0
100
AcDbLine
 10
79.375
 20
-41.106725
 30
0.0
 11
79.375
 21
-44.662725
 31
0.0
  0
LINE
  5
26A
330
1F
100
AcDbEntity
  8
SLD-0
100
AcDbLine
 10
79.375
 20
-44.662725
 30
0.0
 11
82.55
 21
-44.662725
 31
0.0
  0
LINE
  5
26B
330
1F
100
AcDbEntity
  8
SLD-0
100
AcDbLine
 10
82.55
 20
-44.662725
 30
0.0
 11
82.55
 21
-49.209325
 31
0.0
  0
LINE
  5
26C
330
1F
100
AcDbEntity
  8
SLD-0
100
AcDbLine
 10
82.55
 20
-49.209325
 30
0.0
 11
79.375
 21
-49.209325
 31
0.0
  0
LINE
  5
26D
330
1F
100
AcDbEntity
  8
SLD-0
100
AcDbLine
 10
79.375
 20
-49.209325
 30
0.0
 11
79.375
 21
-61.909325
 31
0.0
  0
LINE
  5
26E
330
1F
100
AcDbEntity
  8
SLD-0
100
AcDbLine
 10
79.375
 20
-61.909325
 30
0.0
 11
82.55
 21
-61.909325
 31
0.0
  0
LINE
  5
26F
330
1F
100
AcDbEntity
  8
SLD-0
100
AcDbLine
 10
82.55
 20
-61.909325
 30
0.0
 11
82.55
 21
-66.506725
 31
0.0
  0
LINE
  5
270
330
1F
100
AcDbEntity
  8
SLD-0
100
AcDbLine
 10
82.55
 20
-66.506725
 30
0.0
 11
79.375
 21
-66.506725
 31
0.0
  0
LINE
  5
271
330
1F
100
AcDbEntity
  8
SLD-0
100
AcDbLine
 10
79.375
 20
-66.506725
 30
0.0
 11
79.375
 21
-70.062725
 31
0.0
  0
LINE
  5
272
330
1F
100
AcDbEntity
  8
SLD-0
100
AcDbLine
 10
79.375
 20
-70.062725
 30
0.0
 11
82.55
 21
-70.062725
 31
0.0
  0
LINE
  5
273
330
1F
100
AcDbEntity
  8
SLD-0
100
AcDbLine
 10
82.55
 20
-70.062725
 30
0.0
 11
82.55
 21
-74.609325
 31
0.0
  0
LINE
  5
274
330
1F
100
AcDbEntity
  8
SLD-0
100
AcDbLine
 10
82.55
 20
-74.609325
 30
0.0
 11
79.375
 21
-74.609325
 31
0.0
  0
LINE
  5
275
330
1F
100
AcDbEntity
  8
SLD-0
100
AcDbLine
 10
79.375
 20
-74.609325
 30
0.0
 11
79.375
 21
-87.309325
 31
0.0
  0
LINE
  5
276
330
1F
100
AcDbEntity
  8
SLD-0
100
AcDbLine
 10
79.375
 20
-87.309325
 30
0.0
 11
82.55
 21
-87.309325
 31
0.0
  0
LINE
  5
277
330
1F
100
AcDbEntity
  8
SLD-0
100
AcDbLine
 10
82.55
 20
-87.309325
 30
0.0
 11
82.55
 21
-91.906725
 31
0.0
  0
LINE
  5
278
330
1F
100
AcDbEntity
  8
SLD-0
100
AcDbLine
 10
82.55
 20
-91.906725
 30
0.0
 11
79.375
 21
-91.906725
 31
0.0
  0
LINE
  5
279
330
1F
100
AcDbEntity
  8
SLD-0
100
AcDbLine
 10
79.375
 20
-91.906725
 30
0.0
 11
79.375
 21
-95.462725
 31
0.0
  0
LINE
  5
27A
330
1F
100
AcDbEntity
  8
SLD-0
100
AcDbLine
 10
79.375
 20
-95.462725
 30
0.0
 11
82.55
 21
-95.462725
 31
0.0
  0
LINE
  5
27B
330
1F
100
AcDbEntity
  8
SLD-0
100
AcDbLine
 10
82.55
 20
-95.462725
 30
0.0
 11
82.55
 21
-100.009325
 31
0.0
  0
LINE
  5
27C
330
1F
100
AcDbEntity
  8
SLD-0
100
AcDbLine
 10
82.55
 20
-100.009325
 30
0.0
 11
79.375
 21
-100.009325
 31
0.0
  0
LINE
  5
27D
330
1F
100
AcDbEntity
  8
SLD-0
100
AcDbLine
 10
79.375
 20
-100.009325
 30
0.0
 11
79.375
 21
-112.709325
 31
0.0
  0
LINE
  5
27E
330
1F
100
AcDbEntity
  8
SLD-0
100
AcDbLine
 10
79.375
 20
-112.709325
 30
0.0
 11
82.55
 21
-112.709325
 31
0.0
  0
LINE
  5
27F
330
1F
100
AcDbEntity
  8
SLD-0
100
AcDbLine
 10
82.55
 20
-112.709325
 30
0.0
 11
82.55
 21
-117.306725
 31
0.0
  0
LINE
  5
280
330
1F
100
AcDbEntity
  8
SLD-0
100
AcDbLine
 10
82.55
 20
-117.306725
 30
0.0
 11
79.375
 21
-117.306725
 31
0.0
  0
LINE
  5
281
330
1F
100
AcDbEntity
  8
SLD-0
100
AcDbLine
 10
79.375
 20
-117.306725
 30
0.0
 11
79.375
 21
-120.862725
 31
0.0
  0
LINE
  5
282
330
1F
100
AcDbEntity
  8
SLD-0
100
AcDbLine
 10
79.375
 20
-120.862725
 30
0.0
 11
82.55
 21
-120.862725
 31
0.0
  0
LINE
  5
283
330
1F
100
AcDbEntity
  8
SLD-0
100
AcDbLine
 10
82.55
 20
-120.862725
 30
0.0
 11
82.55
 21
-125.409325
 31
0.0
  0
LINE
  5
284
330
1F
100
AcDbEntity
  8
SLD-0
100
AcDbLine
 10
82.55
 20
-125.409325
 30
0.0
 11
79.375
 21
-125.409325
 31
0.0
  0
LINE
  5
285
330
1F
100
AcDbEntity
  8
SLD-0
100
AcDbLine
 10
79.375
 20
-125.409325
 30
0.0
 11
79.375
 21
-138.109325
 31
0.0
  0
LINE
  5
286
330
1F
100
AcDbEntity
  8
SLD-0
100
AcDbLine
 10
79.375
 20
-138.109325
 30
0.0
 11
82.55
 21
-138.109325
 31
0.0
  0
LINE
  5
287
330
1F
100
AcDbEntity
  8
SLD-0
100
AcDbLine
 10
82.55
 20
-138.109325
 30
0.0
 11
82.55
 21
-142.706725
 31
0.0
  0
LINE
  5
288
330
1F
100
AcDbEntity
  8
SLD-0
100
AcDbLine
 10
82.55
 20
-142.706725
 30
0.0
 11
79.375
 21
-142.706725
 31
0.0
  0
LINE
  5
289
330
1F
100
AcDbEntity
  8
SLD-0
100
AcDbLine
 10
79.375
 20
-142.706725
 30
0.0
 11
79.375
 21
-146.262725
 31
0.0
  0
LINE
  5
28A
330
1F
100
AcDbEntity
  8
SLD-0
100
AcDbLine
 10
79.375
 20
-146.262725
 30
0.0
 11
82.55
 21
-146.262725
 31
0.0
  0
LINE
  5
28B
330
1F
100
AcDbEntity
  8
SLD-0
100
AcDbLine
 10
82.55
 20
-146.262725
 30
0.0
 11
82.55
 21
-150.809325
 31
0.0
  0
LINE
  5
28C
330
1F
100
AcDbEntity
  8
SLD-0
100
AcDbLine
 10
82.55
 20
-150.809325
 30
0.0
 11
79.375
 21
-150.809325
 31
0.0
  0
LINE
  5
28D
330
1F
100
AcDbEntity
  8
SLD-0
100
AcDbLine
 10
79.375
 20
-150.809325
 30
0.0
 11
79.375
 21
-163.509325
 31
0.0
  0
LINE
  5
28E
330
1F
100
AcDbEntity
  8
SLD-0
100
AcDbLine
 10
79.375
 20
-163.509325
 30
0.0
 11
82.55
 21
-163.509325
 31
0.0
  0
LINE
  5
28F
330
1F
100
AcDbEntity
  8
SLD-0
100
AcDbLine
 10
82.55
 20
-163.509325
 30
0.0
 11
82.55
 21
-168.106725
 31
0.0
  0
LINE
  5
290
330
1F
100
AcDbEntity
  8
SLD-0
100
AcDbLine
 10
82.55
 20
-168.106725
 30
0.0
 11
79.375
 21
-168.106725
 31
0.0
  0
LINE
  5
291
330
1F
100
AcDbEntity
  8
SLD-0
100
AcDbLine
 10
79.375
 20
-168.106725
 30
0.0
 11
79.375
 21
-171.662725
 31
0.0
  0
LINE
  5
292
330
1F
100
AcDbEntity
  8
SLD-0
100
AcDbLine
 10
79.375
 20
-171.662725
 30
0.0
 11
82.55
 21
-171.662725
 31
0.0
  0
LINE
  5
293
330
1F
100
AcDbEntity
  8
SLD-0
100
AcDbLine
 10
82.55
 20
-171.662725
 30
0.0
 11
82.55
 21
-176.209325
 31
0.0
  0
LINE
  5
294
330
1F
100
AcDbEntity
  8
SLD-0
100
AcDbLine
 10
82.55
 20
-176.209325
 30
0.0
 11
79.375
 21
-176.209325
 31
0.0
  0
LINE
  5
295
330
1F
100
AcDbEntity
  8
SLD-0
100
AcDbLine
 10
79.375
 20
-176.209325
 30
0.0
 11
79.375
 21
-188.909325
 31
0.0
  0
LINE
  5
296
330
1F
100
AcDbEntity
  8
SLD-0
100
AcDbLine
 10
79.375
 20
-188.909325
 30
0.0
 11
82.55
 21
-188.909325
 31
0.0
  0
LINE
  5
297
330
1F
100
AcDbEntity
  8
SLD-0
100
AcDbLine
 10
82.55
 20
-188.909325
 30
0.0
 11
82.55
 21
-193.506725
 31
0.0
  0
LINE
  5
298
330
1F
100
AcDbEntity
  8
SLD-0
100
AcDbLine
 10
82.55
 20
-193.506725
 30
0.0
 11
79.375
 21
-193.506725
 31
0.0
  0
LINE
  5
299
330
1F
100
AcDbEntity
  8
SLD-0
100
AcDbLine
 10
79.375
 20
-193.506725
 30
0.0
 11
79.375
 21
-197.062725
 31
0.0
  0
LINE
  5
29A
330
1F
100
AcDbEntity
  8
SLD-0
100
AcDbLine
 10
79.375
 20
-197.062725
 30
0.0
 11
82.55
 21
-197.062725
 31
0.0
  0
LINE
  5
29B
330
1F
100
AcDbEntity
  8
SLD-0
100
AcDbLine
 10
82.55
 20
-197.062725
 30
0.0
 11
82.55
 21
-201.609325
 31
0.0
  0
LINE
  5
29C
330
1F
100
AcDbEntity
  8
SLD-0
100
AcDbLine
 10
82.55
 20
-201.609325
 30
0.0
 11
79.375
 21
-201.609325
 31
0.0
  0
LINE
  5
29D
330
1F
100
AcDbEntity
  8
SLD-0
100
AcDbLine
 10
79.375
 20
-201.609325
 30
0.0
 11
79.375
 21
-214.309325
 31
0.0
  0
LINE
  5
29E
330
1F
100
AcDbEntity
  8
SLD-0
100
AcDbLine
 10
79.375
 20
-214.309325
 30
0.0
 11
82.55
 21
-214.309325
 31
0.0
  0
LINE
  5
29F
330
1F
100
AcDbEntity
  8
SLD-0
100
AcDbLine
 10
82.55
 20
-214.309325
 30
0.0
 11
82.55
 21
-218.906725
 31
0.0
  0
LINE
  5
2A0
330
1F
100
AcDbEntity
  8
SLD-0
100
AcDbLine
 10
82.55
 20
-218.906725
 30
0.0
 11
79.375
 21
-218.906725
 31
0.0
  0
LINE
  5
2A1
330
1F
100
AcDbEntity
  8
SLD-0
100
AcDbLine
 10
79.375
 20
-218.906725
 30
0.0
 11
79.375
 21
-222.462725
 31
0.0
  0
LINE
  5
2A2
330
1F
100
AcDbEntity
  8
SLD-0
100
AcDbLine
 10
79.375
 20
-222.462725
 30
0.0
 11
82.55
 21
-222.462725
 31
0.0
  0
LINE
  5
2A3
330
1F
100
AcDbEntity
  8
SLD-0
100
AcDbLine
 10
82.55
 20
-222.462725
 30
0.0
 11
82.55
 21
-227.009325
 31
0.0
  0
LINE
  5
2A4
330
1F
100
AcDbEntity
  8
SLD-0
100
AcDbLine
 10
82.55
 20
-227.009325
 30
0.0
 11
79.375
 21
-227.009325
 31
0.0
  0
LINE
  5
2A5
330
1F
100
AcDbEntity
  8
SLD-0
100
AcDbLine
 10
79.375
 20
-227.009325
 30
0.0
 11
79.375
 21
-239.709325
 31
0.0
  0
LINE
  5
2A6
330
1F
100
AcDbEntity
  8
SLD-0
100
AcDbLine
 10
79.375
 20
-239.709325
 30
0.0
 11
82.55
 21
-239.709325
 31
0.0
  0
LINE
  5
2A7
330
1F
100
AcDbEntity
  8
SLD-0
100
AcDbLine
 10
82.55
 20
-239.709325
 30
0.0
 11
82.55
 21
-244.306725
 31
0.0
  0
LINE
  5
2A8
330
1F
100
AcDbEntity
  8
SLD-0
100
AcDbLine
 10
82.55
 20
-244.306725
 30
0.0
 11
79.375
 21
-244.306725
 31
0.0
  0
LINE
  5
2A9
330
1F
100
AcDbEntity
  8
SLD-0
100
AcDbLine
 10
79.375
 20
-244.306725
 30
0.0
 11
79.375
 21
-247.862725
 31
0.0
  0
LINE
  5
2AA
330
1F
100
AcDbEntity
  8
SLD-0
100
AcDbLine
 10
79.375
 20
-247.862725
 30
0.0
 11
82.55
 21
-247.862725
 31
0.0
  0
LINE
  5
2AB
330
1F
100
AcDbEntity
  8
SLD-0
100
AcDbLine
 10
82.55
 20
-247.862725
 30
0.0
 11
82.55
 21
-252.409325
 31
0.0
  0
LINE
  5
2AC
330
1F
100
AcDbEntity
  8
SLD-0
100
AcDbLine
 10
82.55
 20
-252.409325
 30
0.0
 11
79.375
 21
-252.409325
 31
0.0
  0
LINE
  5
2AD
330
1F
100
AcDbEntity
  8
SLD-0
100
AcDbLine
 10
79.375
 20
-252.409325
 30
0.0
 11
79.375
 21
-265.109325
 31
0.0
  0
LINE
  5
2AE
330
1F
100
AcDbEntity
  8
SLD-0
100
AcDbLine
 10
79.375
 20
-265.109325
 30
0.0
 11
82.55
 21
-265.109325
 31
0.0
  0
LINE
  5
2AF
330
1F
100
AcDbEntity
  8
SLD-0
100
AcDbLine
 10
82.55
 20
-265.109325
 30
0.0
 11
82.55
 21
-269.706725
 31
0.0
  0
LINE
  5
2B0
330
1F
100
AcDbEntity
  8
SLD-0
100
AcDbLine
 10
82.55
 20
-269.706725
 30
0.0
 11
79.375
 21
-269.706725
 31
0.0
  0
LINE
  5
2B1
330
1F
100
AcDbEntity
  8
SLD-0
100
AcDbLine
 10
79.375
 20
-269.706725
 30
0.0
 11
79.375
 21
-273.262725
 31
0.0
  0
LINE
  5
2B2
330
1F
100
AcDbEntity
  8
SLD-0
100
AcDbLine
 10
79.375
 20
-273.262725
 30
0.0
 11
82.55
 21
-273.262725
 31
0.0
  0
LINE
  5
2B3
330
1F
100
AcDbEntity
  8
SLD-0
100
AcDbLine
 10
82.55
 20
-273.262725
 30
0.0
 11
82.55
 21
-277.784325
 31
0.0
  0
LINE
  5
2B4
330
1F
100
AcDbEntity
  8
SLD-0
100
AcDbLine
 10
82.55
 20
-277.784325
 30
0.0
 11
79.375
 21
-277.784325
 31
0.0
  0
LINE
  5
2B5
330
1F
100
AcDbEntity
  8
SLD-0
100
AcDbLine
 10
79.375
 20
-277.784325
 30
0.0
 11
79.375
 21
-306.384325
 31
0.0
  0
LINE
  5
2B6
330
1F
100
AcDbEntity
  8
SLD-0
100
AcDbLine
 10
79.375
 20
-306.384325
 30
0.0
 11
69.85
 21
-306.384325
 31
0.0
  0
LINE
  5
2B7
330
1F
100
AcDbEntity
  8
SLD-0
100
AcDbLine
 10
69.85
 20
-306.384325
 30
0.0
 11
69.85
 21
-303.209325
 31
0.0
  0
LINE
  5
2B8
330
1F
100
AcDbEntity
  8
SLD-0
100
AcDbLine
 10
69.85
 20
-303.209325
 30
0.0
 11
65.278
 21
-303.209325
 31
0.0
  0
LINE
  5
2B9
330
1F
100
AcDbEntity
  8
SLD-0
100
AcDbLine
 10
65.278
 20
-303.209325
 30
0.0
 11
65.278
 21
-297.209325
 31
0.0
  0
LINE
  5
2BA
330
1F
100
AcDbEntity
  8
SLD-0
100
AcDbLine
 10
65.278
 20
-297.209325
 30
0.0
 11
67.469
 21
-297.209325
 31
0.0
  0
LINE
  5
2BB
330
1F
100
AcDbEntity
  8
SLD-0
100
AcDbLine
 10
67.469
 20
-297.209325
 30
0.0
 11
67.469
 21
-294.431325
 31
0.0
  0
LINE
  5
2BC
330
1F
100
AcDbEntity
  8
SLD-0
100
AcDbLine
 10
67.469
 20
-294.431325
 30
0.0
 11
65.278
 21
-294.431325
 31
0.0
  0
LINE
  5
2BD
330
1F
100
AcDbEntity
  8
SLD-0
100
AcDbLine
 10
65.278
 20
-294.431325
 30
0.0
 11
65.278
 21
-291.144325
 31
0.0
  0
LINE
  5
2BE
330
1F
100
AcDbEntity
  8
SLD-0
100
AcDbLine
 10
65.278
 20
-291.144325
 30
0.0
 11
61.722
 21
-291.144325
 31
0.0
  0
LINE
  5
2BF
330
1F
100
AcDbEntity
  8
SLD-0
100
AcDbLine
 10
61.722
 20
-291.144325
 30
0.0
 11
61.722
 21
-294.431325
 31
0.0
  0
LINE
  5
2C0
330
1F
100
AcDbEntity
  8
SLD-0
100
AcDbLine
 10
61.722
 20
-294.431325
 30
0.0
 11
59.5315
 21
-294.431325
 31
0.0
  0
LINE
  5
2C1
330
1F
100
AcDbEntity
  8
SLD-0
100
AcDbLine
 10
59.5315
 20
-294.431325
 30
0.0
 11
59.5315
 21
-297.209325
 31
0.0
  0
LINE
  5
2C2
330
1F
100
AcDbEntity
  8
SLD-0
100
AcDbLine
 10
59.5315
 20
-297.209325
 30
0.0
 11
61.722
 21
-297.209325
 31
0.0
  0
LINE
  5
2C3
330
1F
100
AcDbEntity
  8
SLD-0
100
AcDbLine
 10
61.722
 20
-297.209325
 30
0.0
 11
61.722
 21
-303.209325
 31
0.0
  0
LINE
  5
2C4
330
1F
100
AcDbEntity
  8
SLD-0
100
AcDbLine
 10
61.722
 20
-303.209325
 30
0.0
 11
57.15
 21
-303.209325
 31
0.0
  0
LINE
  5
2C5
330
1F
100
AcDbEntity
  8
SLD-0
100
AcDbLine
 10
57.15
 20
-303.209325
 30
0.0
 11
57.15
 21
-306.384325
 31
0.0
  0
LINE
  5
2C6
330
1F
100
AcDbEntity
  8
SLD-0
100
AcDbLine
 10
57.15
 20
-306.384325
 30
0.0
 11
44.45
 21
-306.384325
 31
0.0
  0
LINE
  5
2C7
330
1F
100
AcDbEntity
  8
SLD-0
100
AcDbLine
 10
44.45
 20
-306.384325
 30
0.0
 11
44.45
 21
-303.209325
 31
0.0
  0
LINE
  5
2C8
330
1F
100
AcDbEntity
  8
SLD-0
100
AcDbLine
 10
44.45
 20
-303.209325
 30
0.0
 11
39.878
 21
-303.209325
 31
0.0
  0
LINE
  5
2C9
330
1F
100
AcDbEntity
  8
SLD-0
100
AcDbLine
 10
39.878
 20
-303.209325
 30
0.0
 11
39.878
 21
-297.209325
 31
0.0
  0
LINE
  5
2CA
330
1F
100
AcDbEntity
  8
SLD-0
100
AcDbLine
 10
39.878
 20
-297.209325
 30
0.0
 11
42.069
 21
-297.209325
 31
0.0
  0
LINE
  5
2CB
330
1F
100
AcDbEntity
  8
SLD-0
100
AcDbLine
 10
42.069
 20
-297.209325
 30
0.0
 11
42.069
 21
-294.431325
 31
0.0
  0
LINE
  5
2CC
330
1F
100
AcDbEntity
  8
SLD-0
100
AcDbLine
 10
42.069
 20
-294.431325
 30
0.0
 11
39.878
 21
-294.431325
 31
0.0
  0
LINE
  5
2CD
330
1F
100
AcDbEntity
  8
SLD-0
100
AcDbLine
 10
39.878
 20
-294.431325
 30
0.0
 11
39.878
 21
-291.144325
 31
0.0
  0
LINE
  5
2CE
330
1F
100
AcDbEntity
  8
SLD-0
100
AcDbLine
 10
39.878
 20
-291.144325
 30
0.0
 11
36.322
 21
-291.144325
 31
0.0
  0
LINE
  5
2CF
330
1F
100
AcDbEntity
  8
SLD-0
100
AcDbLine
 10
36.322
 20
-291.144325
 30
0.0
 11
36.322
 21
-294.431325
 31
0.0
  0
LINE
  5
2D0
330
1F
100
AcDbEntity
  8
SLD-0
100
AcDbLine
 10
36.322
 20
-294.431325
 30
0.0
 11
34.1315
 21
-294.431325
 31
0.0
  0
LINE
  5
2D1
330
1F
100
AcDbEntity
  8
SLD-0
100
AcDbLine
 10
34.1315
 20
-294.431325
 30
0.0
 11
34.1315
 21
-297.209325
 31
0.0
  0
LINE
  5
2D2
330
1F
100
AcDbEntity
  8
SLD-0
100
AcDbLine
 10
34.1315
 20
-297.209325
 30
0.0
 11
36.322
 21
-297.209325
 31
0.0
  0
LINE
  5
2D3
330
1F
100
AcDbEntity
  8
SLD-0
100
AcDbLine
 10
36.322
 20
-297.209325
 30
0.0
 11
36.322
 21
-303.209325
 31
0.0
  0
LINE
  5
2D4
330
1F
100
AcDbEntity
  8
SLD-0
100
AcDbLine
 10
36.322
 20
-303.209325
 30
0.0
 11
31.75
 21
-303.209325
 31
0.0
  0
LINE
  5
2D5
330
1F
100
AcDbEntity
  8
SLD-0
100
AcDbLine
 10
31.75
 20
-303.209325
 30
0.0
 11
31.75
 21
-306.384325
 31
0.0
  0
LINE
  5
2D6
330
1F
100
AcDbEntity
  8
SLD-0
100
AcDbLine
 10
31.75
 20
-306.384325
 30
0.0
 11
19.05
 21
-306.384325
 31
0.0
  0
LINE
  5
2D7
330
1F
100
AcDbEntity
  8
SLD-0
100
AcDbLine
 10
19.05
 20
-306.384325
 30
0.0
 11
19.05
 21
-303.209325
 31
0.0
  0
LINE
  5
2D8
330
1F
100
AcDbEntity
  8
SLD-0
100
AcDbLine
 10
19.05
 20
-303.209325
 30
0.0
 11
14.478
 21
-303.209325
 31
0.0
  0
LINE
  5
2D9
330
1F
100
AcDbEntity
  8
SLD-0
100
AcDbLine
 10
14.478
 20
-303.209325
 30
0.0
 11
14.478
 21
-297.209325
 31
0.0
  0
LINE
  5
2DA
330
1F
100
AcDbEntity
  8
SLD-0
100
AcDbLine
 10
14.478
 20
-297.209325
 30
0.0
 11
16.669
 21
-297.209325
 31
0.0
  0
LINE
  5
2DB
330
1F
100
AcDbEntity
  8
SLD-0
100
AcDbLine
 10
16.669
 20
-297.209325
 30
0.0
 11
16.669
 21
-294.431325
 31
0.0
  0
LINE
  5
2DC
330
1F
100
AcDbEntity
  8
SLD-0
100
AcDbLine
 10
16.669
 20
-294.431325
 30
0.0
 11
14.478
 21
-294.431325
 31
0.0
  0
LINE
  5
2DD
330
1F
100
AcDbEntity
  8
SLD-0
100
AcDbLine
 10
14.478
 20
-294.431325
 30
0.0
 11
14.478
 21
-291.144325
 31
0.0
  0
LINE
  5
2DE
330
1F
100
AcDbEntity
  8
SLD-0
100
AcDbLine
 10
14.478
 20
-291.144325
 30
0.0
 11
10.922
 21
-291.144325
 31
0.0
  0
LINE
  5
2DF
330
1F
100
AcDbEntity
  8
SLD-0
100
AcDbLine
 10
10.922
 20
-291.144325
 30
0.0
 11
10.922
 21
-294.431325
 31
0.0
  0
LINE
  5
2E0
330
1F
100
AcDbEntity
  8
SLD-0
100
AcDbLine
 10
10.922
 20
-294.431325
 30
0.0
 11
8.7315
 21
-294.431325
 31
0.0
  0
LINE
  5
2E1
330
1F
100
AcDbEntity
  8
SLD-0
100
AcDbLine
 10
8.7315
 20
-294.431325
 30
0.0
 11
8.7315
 21
-297.209325
 31
0.0
  0
LINE
  5
2E2
330
1F
100
AcDbEntity
  8
SLD-0
100
AcDbLine
 10
8.7315
 20
-297.209325
 30
0.0
 11
10.922
 21
-297.209325
 31
0.0
  0
LINE
  5
2E3
330
1F
100
AcDbEntity
  8
SLD-0
100
AcDbLine
 10
10.922
 20
-297.209325
 30
0.0
 11
10.922
 21
-303.209325
 31
0.0
  0
LINE
  5
2E4
330
1F
100
AcDbEntity
  8
SLD-0
100
AcDbLine
 10
10.922
 20
-303.209325
 30
0.0
 11
6.35
 21
-303.209325
 31
0.0
  0
LINE
  5
2E5
330
1F
100
AcDbEntity
  8
SLD-0
100
AcDbLine
 10
6.35
 20
-303.209325
 30
0.0
 11
6.35
 21
-306.384325
 31
0.0
  0
LINE
  5
2E6
330
1F
100
AcDbEntity
  8
SLD-0
100
AcDbLine
 10
6.35
 20
-306.384325
 30
0.0
 11
-6.35
 21
-306.384325
 31
0.0
  0
LINE
  5
2E7
330
1F
100
AcDbEntity
  8
SLD-0
100
AcDbLine
 10
-6.35
 20
-306.384325
 30
0.0
 11
-6.35
 21
-303.209325
 31
0.0
  0
LINE
  5
2E8
330
1F
100
AcDbEntity
  8
SLD-0
100
AcDbLine
 10
-6.35
 20
-303.209325
 30
0.0
 11
-10.922
 21
-303.209325
 31
0.0
  0
LINE
  5
2E9
330
1F
100
AcDbEntity
  8
SLD-0
100
AcDbLine
 10
-10.922
 20
-303.209325
 30
0.0
 11
-10.922
 21
-297.209325
 31
0.0
  0
LINE
  5
2EA
330
1F
100
AcDbEntity
  8
SLD-0
100
AcDbLine
 10
-10.922
 20
-297.209325
 30
0.0
 11
-8.731
 21
-297.209325
 31
0.0
  0
LINE
  5
2EB
330
1F
100
AcDbEntity
  8
SLD-0
100
AcDbLine
 10
-8.731
 20
-297.209325
 30
0.0
 11
-8.731
 21
-294.431325
 31
0.0
  0
LINE
  5
2EC
330
1F
100
AcDbEntity
  8
SLD-0
100
AcDbLine
 10
-8.731
 20
-294.431325
 30
0.0
 11
-10.922
 21
-294.431325
 31
0.0
  0
LINE
  5
2ED
330
1F
100
AcDbEntity
  8
SLD-0
100
AcDbLine
 10
-10.922
 20
-294.431325
 30
0.0
 11
-10.922
 21
-291.144325
 31
0.0
  0
LINE
  5
2EE
330
1F
100
AcDbEntity
  8
SLD-0
100
AcDbLine
 10
-10.922
 20
-291.144325
 30
0.0
 11
-14.478
 21
-291.144325
 31
0.0
  0
LINE
  5
2EF
330
1F
100
AcDbEntity
  8
SLD-0
100
AcDbLine
 10
-14.478
 20
-291.144325
 30
0.0
 11
-14.478
 21
-294.431325
 31
0.0
  0
LINE
  5
2F0
330
1F
100
AcDbEntity
  8
SLD-0
100
AcDbLine
 10
-14.478
 20
-294.431325
 30
0.0
 11
-16.6685
 21
-294.431325
 31
0.0
  0
LINE
  5
2F1
330
1F
100
AcDbEntity
  8
SLD-0
100
AcDbLine
 10
-16.6685
 20
-294.431325
 30
0.0
 11
-16.6685
 21
-297.209325
 31
0.0
  0
LINE
  5
2F2
330
1F
100
AcDbEntity
  8
SLD-0
100
AcDbLine
 10
-16.6685
 20
-297.209325
 30
0.0
 11
-14.478
 21
-297.209325
 31
0.0
  0
LINE
  5
2F3
330
1F
100
AcDbEntity
  8
SLD-0
100
AcDbLine
 10
-14.478
 20
-297.209325
 30
0.0
 11
-14.478
 21
-303.209325
 31
0.0
  0
LINE
  5
2F4
330
1F
100
AcDbEntity
  8
SLD-0
100
AcDbLine
 10
-14.478
 20
-303.209325
 30
0.0
 11
-19.05
 21
-303.209325
 31
0.0
  0
LINE
  5
2F5
330
1F
100
AcDbEntity
  8
SLD-0
100
AcDbLine
 10
-19.05
 20
-303.209325
 30
0.0
 11
-19.05
 21
-306.384325
 31
0.0
  0
LINE
  5
2F6
330
1F
100
AcDbEntity
  8
SLD-0
100
AcDbLine
 10
-19.05
 20
-306.384325
 30
0.0
 11
-31.75
 21
-306.384325
 31
0.0
  0
LINE
  5
2F7
330
1F
100
AcDbEntity
  8
SLD-0
100
AcDbLine
 10
-31.75
 20
-306.384325
 30
0.0
 11
-31.75
 21
-303.209325
 31
0.0
  0
LINE
  5
2F8
330
1F
100
AcDbEntity
  8
SLD-0
100
AcDbLine
 10
-31.75
 20
-303.209325
 30
0.0
 11
-36.322
 21
-303.209325
 31
0.0
  0
LINE
  5
2F9
330
1F
100
AcDbEntity
  8
SLD-0
100
AcDbLine
 10
-36.322
 20
-303.209325
 30
0.0
 11
-36.322
 21
-297.209325
 31
0.0
  0
LINE
  5
2FA
330
1F
100
AcDbEntity
  8
SLD-0
100
AcDbLine
 10
-36.322
 20
-297.209325
 30
0.0
 11
-34.131
 21
-297.209325
 31
0.0
  0
LINE
  5
2FB
330
1F
100
AcDbEntity
  8
SLD-0
100
AcDbLine
 10
-34.131
 20
-297.209325
 30
0.0
 11
-34.131
 21
-294.431325
 31
0.0
  0
LINE
  5
2FC
330
1F
100
AcDbEntity
  8
SLD-0
100
AcDbLine
 10
-34.131
 20
-294.431325
 30
0.0
 11
-36.322
 21
-294.431325
 31
0.0
  0
LINE
  5
2FD
330
1F
100
AcDbEntity
  8
SLD-0
100
AcDbLine
 10
-36.322
 20
-294.431325
 30
0.0
 11
-36.322
 21
-291.144325
 31
0.0
  0
LINE
  5
2FE
330
1F
100
AcDbEntity
  8
SLD-0
100
AcDbLine
 10
-36.322
 20
-291.144325
 30
0.0
 11
-39.878
 21
-291.144325
 31
0.0
  0
LINE
  5
2FF
330
1F
100
AcDbEntity
  8
SLD-0
100
AcDbLine
 10
-39.878
 20
-291.144325
 30
0.0
 11
-39.878
 21
-294.431325
 31
0.0
  0
LINE
  5
300
330
1F
100
AcDbEntity
  8
SLD-0
100
AcDbLine
 10
-39.878
 20
-294.431325
 30
0.0
 11
-42.0685
 21
-294.431325
 31
0.0
  0
LINE
  5
301
330
1F
100
AcDbEntity
  8
SLD-0
100
AcDbLine
 10
-42.0685
 20
-294.431325
 30
0.0
 11
-42.0685
 21
-297.209325
 31
0.0
  0
LINE
  5
302
330
1F
100
AcDbEntity
  8
SLD-0
100
AcDbLine
 10
-42.0685
 20
-297.209325
 30
0.0
 11
-39.878
 21
-297.209325
 31
0.0
  0
LINE
  5
303
330
1F
100
AcDbEntity
  8
SLD-0
100
AcDbLine
 10
-39.878
 20
-297.209325
 30
0.0
 11
-39.878
 21
-303.209325
 31
0.0
  0
LINE
  5
304
330
1F
100
AcDbEntity
  8
SLD-0
100
AcDbLine
 10
-39.878
 20
-303.209325
 30
0.0
 11
-44.45
 21
-303.209325
 31
0.0
  0
LINE
  5
305
330
1F
100
AcDbEntity
  8
SLD-0
100
AcDbLine
 10
-44.45
 20
-303.209325
 30
0.0
 11
-44.45
 21
-306.384325
 31
0.0
  0
LINE
  5
306
330
1F
100
AcDbEntity
  8
SLD-0
100
AcDbLine
 10
-44.45
 20
-306.384325
 30
0.0
 11
-57.15
 21
-306.384325
 31
0.0
  0
LINE
  5
307
330
1F
100
AcDbEntity
  8
SLD-0
100
AcDbLine
 10
-57.15
 20
-306.384325
 30
0.0
 11
-57.15
 21
-303.209325
 31
0.0
  0
LINE
  5
308
330
1F
100
AcDbEntity
  8
SLD-0
100
AcDbLine
 10
-57.15
 20
-303.209325
 30
0.0
 11
-61.722
 21
-303.209325
 31
0.0
  0
LINE
  5
309
330
1F
100
AcDbEntity
  8
SLD-0
100
AcDbLine
 10
-61.722
 20
-303.209325
 30
0.0
 11
-61.722
 21
-297.209325
 31
0.0
  0
LINE
  5
30A
330
1F
100
AcDbEntity
  8
SLD-0
100
AcDbLine
 10
-61.722
 20
-297.209325
 30
0.0
 11
-59.531
 21
-297.209325
 31
0.0
  0
LINE
  5
30B
330
1F
100
AcDbEntity
  8
SLD-0
100
AcDbLine
 10
-59.531
 20
-297.209325
 30
0.0
 11
-59.531
 21
-294.431325
 31
0.0
  0
LINE
  5
30C
330
1F
100
AcDbEntity
  8
SLD-0
100
AcDbLine
 10
-59.531
 20
-294.431325
 30
0.0
 11
-61.722
 21
-294.431325
 31
0.0
  0
LINE
  5
30D
330
1F
100
AcDbEntity
  8
SLD-0
100
AcDbLine
 10
-61.722
 20
-294.431325
 30
0.0
 11
-61.722
 21
-291.144325
 31
0.0
  0
LINE
  5
30E
330
1F
100
AcDbEntity
  8
SLD-0
100
AcDbLine
 10
-61.722
 20
-291.144325
 30
0.0
 11
-65.278
 21
-291.144325
 31
0.0
  0
LINE
  5
30F
330
1F
100
AcDbEntity
  8
SLD-0
100
AcDbLine
 10
-65.278
 20
-291.144325
 30
0.0
 11
-65.278
 21
-294.431325
 31
0.0
  0
LINE
  5
310
330
1F
100
AcDbEntity
  8
SLD-0
100
AcDbLine
 10
-65.278
 20
-294.431325
 30
0.0
 11
-67.4685
 21
-294.431325
 31
0.0
  0
LINE
  5
311
330
1F
100
AcDbEntity
  8
SLD-0
100
AcDbLine
 10
-67.4685
 20
-294.431325
 30
0.0
 11
-67.4685
 21
-297.209325
 31
0.0
  0
LINE
  5
312
330
1F
100
AcDbEntity
  8
SLD-0
100
AcDbLine
 10
-67.4685
 20
-297.209325
 30
0.0
 11
-65.278
 21
-297.209325
 31
0.0
  0
LINE
  5
313
330
1F
100
AcDbEntity
  8
SLD-0
100
AcDbLine
 10
-65.278
 20
-297.209325
 30
0.0
 11
-65.278
 21
-303.209325
 31
0.0
  0
LINE
  5
314
330
1F
100
AcDbEntity
  8
SLD-0
100
AcDbLine
 10
-65.278
 20
-303.209325
 30
0.0
 11
-69.85
 21
-303.209325
 31
0.0
  0
LINE
  5
315
330
1F
100
AcDbEntity
  8
SLD-0
100
AcDbLine
 10
-69.85
 20
-303.209325
 30
0.0
 11
-69.85
 21
-306.384325
 31
0.0
  0
LINE
  5
316
330
1F
100
AcDbEntity
  8
SLD-0
100
AcDbLine
 10
-69.85
 20
-306.384325
 30
0.0
 11
-82.55
 21
-306.384325
 31
0.0
  0
LINE
  5
317
330
1F
100
AcDbEntity
  8
SLD-0
100
AcDbLine
 10
-82.55
 20
-306.384325
 30
0.0
 11
-82.55
 21
306.390675
 31
0.0
  0
LINE
  5
318
330
1F
100
AcDbEntity
  8
SLD-0
100
AcDbLine
 10
-82.55
 20
306.390675
 30
0.0
 11
-69.85
 21
306.390675
 31
0.0
  0
LINE
  5
319
330
1F
100
AcDbEntity
  8
SLD-0
100
AcDbLine
 10
-69.85
 20
306.390675
 30
0.0
 11
-69.85
 21
303.215675
 31
0.0
  0
LINE
  5
31A
330
1F
100
AcDbEntity
  8
SLD-0
100
AcDbLine
 10
-69.85
 20
303.215675
 30
0.0
 11
-65.278
 21
303.215675
 31
0.0
  0
LINE
  5
31B
330
1F
100
AcDbEntity
  8
SLD-0
100
AcDbLine
 10
-65.278
 20
303.215675
 30
0.0
 11
-65.278
 21
297.215675
 31
0.0
  0
LINE
  5
31C
330
1F
100
AcDbEntity
  8
SLD-0
100
AcDbLine
 10
-65.278
 20
297.215675
 30
0.0
 11
-67.4685
 21
297.215675
 31
0.0
  0
LINE
  5
31D
330
1F
100
AcDbEntity
  8
SLD-0
100
AcDbLine
 10
-67.4685
 20
297.215675
 30
0.0
 11
-67.4685
 21
294.437675
 31
0.0
  0
LINE
  5
31E
330
1F
100
AcDbEntity
  8
SLD-0
100
AcDbLine
 10
-67.4685
 20
294.437675
 30
0.0
 11
-65.278
 21
294.437675
 31
0.0
  0
LINE
  5
31F
330
1F
100
AcDbEntity
  8
SLD-0
100
AcDbLine
 10
-65.278
 20
294.437675
 30
0.0
 11
-65.278
 21
291.150675
 31
0.0
  0
LINE
  5
320
330
1F
100
AcDbEntity
  8
SLD-0
100
AcDbLine
 10
-65.278
 20
291.150675
 30
0.0
 11
-61.722
 21
291.150675
 31
0.0
  0
LINE
  5
321
330
1F
100
AcDbEntity
  8
SLD-0
100
AcDbLine
 10
-61.722
 20
291.150675
 30
0.0
 11
-61.722
 21
294.437675
 31
0.0
  0
LINE
  5
322
330
1F
100
AcDbEntity
  8
SLD-0
100
AcDbLine
 10
-61.722
 20
294.437675
 30
0.0
 11
-59.531
 21
294.437675
 31
0.0
  0
LINE
  5
323
330
1F
100
AcDbEntity
  8
SLD-0
100
AcDbLine
 10
-59.531
 20
294.437675
 30
0.0
 11
-59.531
 21
297.215675
 31
0.0
  0
LINE
  5
324
330
1F
100
AcDbEntity
  8
SLD-0
100
AcDbLine
 10
-59.531
 20
297.215675
 30
0.0
 11
-61.722
 21
297.215675
 31
0.0
  0
LINE
  5
325
330
1F
100
AcDbEntity
  8
SLD-0
100
AcDbLine
 10
-61.722
 20
297.215675
 30
0.0
 11
-61.722
 21
303.215675
 31
0.0
  0
LINE
  5
326
330
1F
100
AcDbEntity
  8
SLD-0
100
AcDbLine
 10
-61.722
 20
303.215675
 30
0.0
 11
-57.15
 21
303.215675
 31
0.0
  0
LINE
  5
327
330
1F
100
AcDbEntity
  8
SLD-0
100
AcDbLine
 10
-57.15
 20
303.215675
 30
0.0
 11
-57.15
 21
306.390675
 31
0.0
  0
LINE
  5
328
330
1F
100
AcDbEntity
  8
SLD-0
100
AcDbLine
 10
-57.15
 20
306.390675
 30
0.0
 11
-44.45
 21
306.390675
 31
0.0
  0
LINE
  5
329
330
1F
100
AcDbEntity
  8
SLD-0
100
AcDbLine
 10
-44.45
 20
306.390675
 30
0.0
 11
-44.45
 21
303.215675
 31
0.0
  0
LINE
  5
32A
330
1F
100
AcDbEntity
  8
SLD-0
100
AcDbLine
 10
-44.45
 20
303.215675
 30
0.0
 11
-39.878
 21
303.215675
 31
0.0
  0
LINE
  5
32B
330
1F
100
AcDbEntity
  8
SLD-0
100
AcDbLine
 10
-39.878
 20
303.215675
 30
0.0
 11
-39.878
 21
297.215675
 31
0.0
  0
LINE
  5
32C
330
1F
100
AcDbEntity
  8
SLD-0
100
AcDbLine
 10
-39.878
 20
297.215675
 30
0.0
 11
-42.0685
 21
297.215675
 31
0.0
  0
LINE
  5
32D
330
1F
100
AcDbEntity
  8
SLD-0
100
AcDbLine
 10
-42.0685
 20
297.215675
 30
0.0
 11
-42.0685
 21
294.437675
 31
0.0
  0
LINE
  5
32E
330
1F
100
AcDbEntity
  8
SLD-0
100
AcDbLine
 10
-42.0685
 20
294.437675
 30
0.0
 11
-39.878
 21
294.437675
 31
0.0
  0
LINE
  5
32F
330
1F
100
AcDbEntity
  8
SLD-0
100
AcDbLine
 10
-39.878
 20
294.437675
 30
0.0
 11
-39.878
 21
291.150675
 31
0.0
  0
LINE
  5
330
330
1F
100
AcDbEntity
  8
SLD-0
100
AcDbLine
 10
-39.878
 20
291.150675
 30
0.0
 11
-36.322
 21
291.150675
 31
0.0
  0
LINE
  5
331
330
1F
100
AcDbEntity
  8
SLD-0
100
AcDbLine
 10
-36.322
 20
291.150675
 30
0.0
 11
-36.322
 21
294.437675
 31
0.0
  0
LINE
  5
332
330
1F
100
AcDbEntity
  8
SLD-0
100
AcDbLine
 10
-36.322
 20
294.437675
 30
0.0
 11
-34.131
 21
294.437675
 31
0.0
  0
LINE
  5
333
330
1F
100
AcDbEntity
  8
SLD-0
100
AcDbLine
 10
-34.131
 20
294.437675
 30
0.0
 11
-34.131
 21
297.215675
 31
0.0
  0
LINE
  5
334
330
1F
100
AcDbEntity
  8
SLD-0
100
AcDbLine
 10
-34.131
 20
297.215675
 30
0.0
 11
-36.322
 21
297.215675
 31
0.0
  0
LINE
  5
335
330
1F
100
AcDbEntity
  8
SLD-0
100
AcDbLine
 10
-36.322
 20
297.215675
 30
0.0
 11
-36.322
 21
303.215675
 31
0.0
  0
LINE
  5
336
330
1F
100
AcDbEntity
  8
SLD-0
100
AcDbLine
 10
-36.322
 20
303.215675
 30
0.0
 11
-31.75
 21
303.215675
 31
0.0
  0
LINE
  5
337
330
1F
100
AcDbEntity
  8
SLD-0
100
AcDbLine
 10
-31.75
 20
303.215675
 30
0.0
 11
-31.75
 21
306.390675
 31
0.0
  0
LINE
  5
338
330
1F
100
AcDbEntity
  8
SLD-0
100
AcDbLine
 10
-31.75
 20
306.390675
 30
0.0
 11
-19.05
 21
306.390675
 31
0.0
  0
LINE
  5
339
330
1F
100
AcDbEntity
  8
SLD-0
100
AcDbLine
 10
-19.05
 20
306.390675
 30
0.0
 11
-19.05
 21
303.215675
 31
0.0
  0
LINE
  5
33A
330
1F
100
AcDbEntity
  8
SLD-0
100
AcDbLine
 10
-19.05
 20
303.215675
 30
0.0
 11
-14.478
 21
303.215675
 31
0.0
  0
LINE
  5
33B
330
1F
100
AcDbEntity
  8
SLD-0
100
AcDbLine
 10
-14.478
 20
303.215675
 30
0.0
 11
-14.478
 21
297.215675
 31
0.0
  0
LINE
  5
33C
330
1F
100
AcDbEntity
  8
SLD-0
100
AcDbLine
 10
-14.478
 20
297.215675
 30
0.0
 11
-16.6685
 21
297.215675
 31
0.0
  0
LINE
  5
33D
330
1F
100
AcDbEntity
  8
SLD-0
100
AcDbLine
 10
-16.6685
 20
297.215675
 30
0.0
 11
-16.6685
 21
294.437675
 31
0.0
  0
LINE
  5
33E
330
1F
100
AcDbEntity
  8
SLD-0
100
AcDbLine
 10
-16.6685
 20
294.437675
 30
0.0
 11
-14.478
 21
294.437675
 31
0.0
  0
LINE
  5
33F
330
1F
100
AcDbEntity
  8
SLD-0
100
AcDbLine
 10
-14.478
 20
294.437675
 30
0.0
 11
-14.478
 21
291.150675
 31
0.0
  0
LINE
  5
340
330
1F
100
AcDbEntity
  8
SLD-0
100
AcDbLine
 10
-14.478
 20
291.150675
 30
0.0
 11
-10.922
 21
291.150675
 31
0.0
  0
LINE
  5
341
330
1F
100
AcDbEntity
  8
SLD-0
100
AcDbLine
 10
-10.922
 20
291.150675
 30
0.0
 11
-10.922
 21
294.437675
 31
0.0
  0
LINE
  5
342
330
1F
100
AcDbEntity
  8
SLD-0
100
AcDbLine
 10
-10.922
 20
294.437675
 30
0.0
 11
-8.731
 21
294.437675
 31
0.0
  0
LINE
  5
343
330
1F
100
AcDbEntity
  8
SLD-0
100
AcDbLine
 10
-8.731
 20
294.437675
 30
0.0
 11
-8.731
 21
297.215675
 31
0.0
  0
LINE
  5
344
330
1F
100
AcDbEntity
  8
SLD-0
100
AcDbLine
 10
-8.731
 20
297.215675
 30
0.0
 11
-10.922
 21
297.215675
 31
0.0
  0
LINE
  5
345
330
1F
100
AcDbEntity
  8
SLD-0
100
AcDbLine
 10
-10.922
 20
297.215675
 30
0.0
 11
-10.922
 21
303.215675
 31
0.0
  0
LINE
  5
346
330
1F
100
AcDbEntity
  8
SLD-0
100
AcDbLine
 10
-10.922
 20
303.215675
 30
0.0
 11
-6.35
 21
303.215675
 31
0.0
  0
LINE
  5
347
330
1F
100
AcDbEntity
  8
SLD-0
100
AcDbLine
 10
-6.35
 20
303.215675
 30
0.0
 11
-6.35
 21
306.390675
 31
0.0
  0
LINE
  5
348
330
1F
100
AcDbEntity
  8
SLD-0
100
AcDbLine
 10
-6.35
 20
306.390675
 30
0.0
 11
6.35
 21
306.390675
 31
0.0
  0
LINE
  5
349
330
1F
100
AcDbEntity
  8
SLD-0
100
AcDbLine
 10
6.35
 20
306.390675
 30
0.0
 11
6.35
 21
303.215675
 31
0.0
  0
LINE
  5
34A
330
1F
100
AcDbEntity
  8
SLD-0
100
AcDbLine
 10
6.35
 20
303.215675
 30
0.0
 11
10.922
 21
303.215675
 31
0.0
  0
LINE
  5
34B
330
1F
100
AcDbEntity
  8
SLD-0
100
AcDbLine
 10
10.922
 20
303.215675
 30
0.0
 11
10.922
 21
297.215675
 31
0.0
  0
LINE
  5
34C
330
1F
100
AcDbEntity
  8
SLD-0
100
AcDbLine
 10
10.922
 20
297.215675
 30
0.0
 11
8.7315
 21
297.215675
 31
0.0
  0
LINE
  5
34D
330
1F
100
AcDbEntity
  8
SLD-0
100
AcDbLine
 10
8.7315
 20
297.215675
 30
0.0
 11
8.7315
 21
294.437675
 31
0.0
  0
LINE
  5
34E
330
1F
100
AcDbEntity
  8
SLD-0
100
AcDbLine
 10
8.7315
 20
294.437675
 30
0.0
 11
10.922
 21
294.437675
 31
0.0
  0
LINE
  5
34F
330
1F
100
AcDbEntity
  8
SLD-0
100
AcDbLine
 10
10.922
 20
294.437675
 30
0.0
 11
10.922
 21
291.150675
 31
0.0
  0
LINE
  5
350
330
1F
100
AcDbEntity
  8
SLD-0
100
AcDbLine
 10
10.922
 20
291.150675
 30
0.0
 11
14.478
 21
291.150675
 31
0.0
  0
LINE
  5
351
330
1F
100
AcDbEntity
  8
SLD-0
100
AcDbLine
 10
14.478
 20
291.150675
 30
0.0
 11
14.478
 21
294.437675
 31
0.0
  0
LINE
  5
352
330
1F
100
AcDbEntity
  8
SLD-0
100
AcDbLine
 10
14.478
 20
294.437675
 30
0.0
 11
16.669
 21
294.437675
 31
0.0
  0
LINE
  5
353
330
1F
100
AcDbEntity
  8
SLD-0
100
AcDbLine
 10
16.669
 20
294.437675
 30
0.0
 11
16.669
 21
297.215675
 31
0.0
  0
LINE
  5
354
330
1F
100
AcDbEntity
  8
SLD-0
100
AcDbLine
 10
16.669
 20
297.215675
 30
0.0
 11
14.478
 21
297.215675
 31
0.0
  0
LINE
  5
355
330
1F
100
AcDbEntity
  8
SLD-0
100
AcDbLine
 10
14.478
 20
297.215675
 30
0.0
 11
14.478
 21
303.215675
 31
0.0
  0
LINE
  5
356
330
1F
100
AcDbEntity
  8
SLD-0
100
AcDbLine
 10
14.478
 20
303.215675
 30
0.0
 11
19.05
 21
303.215675
 31
0.0
  0
LINE
  5
357
330
1F
100
AcDbEntity
  8
SLD-0
100
AcDbLine
 10
19.05
 20
303.215675
 30
0.0
 11
19.05
 21
306.390675
 31
0.0
  0
LINE
  5
358
330
1F
100
AcDbEntity
  8
SLD-0
100
AcDbLine
 10
19.05
 20
306.390675
 30
0.0
 11
31.75
 21
306.390675
 31
0.0
  0
LINE
  5
359
330
1F
100
AcDbEntity
  8
SLD-0
100
AcDbLine
 10
31.75
 20
306.390675
 30
0.0
 11
31.75
 21
303.215675
 31
0.0
  0
LINE
  5
35A
330
1F
100
AcDbEntity
  8
SLD-0
100
AcDbLine
 10
31.75
 20
303.215675
 30
0.0
 11
36.322
 21
303.215675
 31
0.0
  0
LINE
  5
35B
330
1F
100
AcDbEntity
  8
SLD-0
100
AcDbLine
 10
36.322
 20
303.215675
 30
0.0
 11
36.322
 21
297.215675
 31
0.0
  0
LINE
  5
35C
330
1F
100
AcDbEntity
  8
SLD-0
100
AcDbLine
 10
36.322
 20
297.215675
 30
0.0
 11
34.1315
 21
297.215675
 31
0.0
  0
LINE
  5
35D
330
1F
100
AcDbEntity
  8
SLD-0
100
AcDbLine
 10
34.1315
 20
297.215675
 30
0.0
 11
34.1315
 21
294.437675
 31
0.0
  0
LINE
  5
35E
330
1F
100
AcDbEntity
  8
SLD-0
100
AcDbLine
 10
34.1315
 20
294.437675
 30
0.0
 11
36.322
 21
294.437675
 31
0.0
  0
LINE
  5
35F
330
1F
100
AcDbEntity
  8
SLD-0
100
AcDbLine
 10
36.322
 20
294.437675
 30
0.0
 11
36.322
 21
291.150675
 31
0.0
  0
LINE
  5
360
330
1F
100
AcDbEntity
  8
SLD-0
100
AcDbLine
 10
36.322
 20
291.150675
 30
0.0
 11
39.878
 21
291.150675
 31
0.0
  0
LINE
  5
361
330
1F
100
AcDbEntity
  8
SLD-0
100
AcDbLine
 10
39.878
 20
291.150675
 30
0.0
 11
39.878
 21
294.437675
 31
0.0
  0
LINE
  5
362
330
1F
100
AcDbEntity
  8
SLD-0
100
AcDbLine
 10
39.878
 20
294.437675
 30
0.0
 11
42.069
 21
294.437675
 31
0.0
  0
LINE
  5
363
330
1F
100
AcDbEntity
  8
SLD-0
100
AcDbLine
 10
42.069
 20
294.437675
 30
0.0
 11
42.069
 21
297.215675
 31
0.0
  0
LINE
  5
364
330
1F
100
AcDbEntity
  8
SLD-0
100
AcDbLine
 10
42.069
 20
297.215675
 30
0.0
 11
39.878
 21
297.215675
 31
0.0
  0
LINE
  5
365
330
1F
100
AcDbEntity
  8
SLD-0
100
AcDbLine
 10
39.878
 20
297.215675
 30
0.0
 11
39.878
 21
303.215675
 31
0.0
  0
LINE
  5
366
330
1F
100
AcDbEntity
  8
SLD-0
100
AcDbLine
 10
39.878
 20
303.215675
 30
0.0
 11
44.45
 21
303.215675
 31
0.0
  0
LINE
  5
367
330
1F
100
AcDbEntity
  8
SLD-0
100
AcDbLine
 10
44.45
 20
303.215675
 30
0.0
 11
44.45
 21
306.390675
 31
0.0
  0
LINE
  5
368
330
1F
100
AcDbEntity
  8
SLD-0
100
AcDbLine
 10
44.45
 20
306.390675
 30
0.0
 11
57.15
 21
306.390675
 31
0.0
  0
LINE
  5
369
330
1F
100
AcDbEntity
  8
SLD-0
100
AcDbLine
 10
57.15
 20
306.390675
 30
0.0
 11
57.15
 21
303.215675
 31
0.0
  0
LINE
  5
36A
330
1F
100
AcDbEntity
  8
SLD-0
100
AcDbLine
 10
57.15
 20
303.215675
 30
0.0
 11
61.722
 21
303.215675
 31
0.0
  0
LINE
  5
36B
330
1F
100
AcDbEntity
  8
SLD-0
100
AcDbLine
 10
61.722
 20
303.215675
 30
0.0
 11
61.722
 21
297.215675
 31
0.0
  0
CIRCLE
  5
36C
330
1F
100
AcDbEntity
  8
SLD-0
100
AcDbCircle
 10
-66.5
 20
-253.884325
 30
0.0
 40
2.5
  0
CIRCLE
  5
36D
330
1F
100
AcDbEntity
  8
SLD-0
100
AcDbCircle
 10
66.5
 20
-253.884325
 30
0.0
 40
2.5
  0
CIRCLE
  5
36E
330
1F
100
AcDbEntity
  8
SLD-0
100
AcDbCircle
 10
66.5
 20
-23.884325
 30
0.0
 40
2.5
  0
CIRCLE
  5
36F
330
1F
100
AcDbEntity
  8
SLD-0
100
AcDbCircle
 10
-66.5
 20
-23.884325
 30
0.0
 40
2.5
  0
CIRCLE
  5
370
330
1F
100
AcDbEntity
  8
SLD-0
100
AcDbCircle
 10
-46.7
 20
-259.394325
 30
0.0
 40
1.849999999999994
  0
CIRCLE
  5
371
330
1F
100
AcDbEntity
  8
SLD-0
100
AcDbCircle
 10
46.7
 20
-259.394325
 30
0.0
 40
1.850000000000001
  0
CIRCLE
  5
372
330
1F
100
AcDbEntity
  8
SLD-0
100
AcDbCircle
 10
-54.61
 20
-26.484325
 30
0.0
 40
1.850000000000001
  0
CIRCLE
  5
373
330
1F
100
AcDbEntity
  8
SLD-0
100
AcDbCircle
 10
46.7
 20
-18.574325
 30
0.0
 40
1.850000000000001
  0
CIRCLE
  5
374
330
1F
100
AcDbEntity
  8
SLD-0
100
AcDbCircle
 10
54.61
 20
-26.484325
 30
0.0
 40
1.849999999999994
  0
CIRCLE
  5
375
330
1F
100
AcDbEntity
  8
SLD-0
100
AcDbCircle
 10
-46.7
 20
-18.574325
 30
0.0
 40
1.849999999999994
  0
CIRCLE
  5
376
330
1F
100
AcDbEntity
  8
SLD-0
100
AcDbCircle
 10
54.61
 20
-251.484325
 30
0.0
 40
1.849999999999994
  0
CIRCLE
  5
377
330
1F
100
AcDbEntity
  8
SLD-0
100
AcDbCircle
 10
-54.61
 20
-251.484325
 30
0.0
 40
1.849999999999994
  0
CIRCLE
  5
378
330
1F
100
AcDbEntity
  8
SLD-0
100
AcDbCircle
 10
-66.5
 20
-253.884325
 30
0.0
 40
2.5
  0
CIRCLE
  5
379
330
1F
100
AcDbEntity
  8
SLD-0
100
AcDbCircle
 10
66.5
 20
-253.884325
 30
0.0
 40
2.5
  0
CIRCLE
  5
37A
330
1F
100
AcDbEntity
  8
SLD-0
100
AcDbCircle
 10
66.5
 20
-23.884325
 30
0.0
 40
2.5
  0
CIRCLE
  5
37B
330
1F
100
AcDbEntity
  8
SLD-0
100
AcDbCircle
 10
-66.5
 20
-23.884325
 30
0.0
 40
2.5
  0
CIRCLE
  5
37C
330
1F
100
AcDbEntity
  8
SLD-0
100
AcDbCircle
 10
-54.61
 20
-251.484325
 30
0.0
 40
1.849999999999994
  0
CIRCLE
  5
37D
330
1F
100
AcDbEntity
  8
SLD-0
100
AcDbCircle
 10
54.61
 20
-251.484325
 30
0.0
 40
1.849999999999994
  0
CIRCLE
  5
37E
330
1F
100
AcDbEntity
  8
SLD-0
100
AcDbCircle
 10
-46.7
 20
-18.574325
 30
0.0
 40
1.849999999999994
  0
CIRCLE
  5
37F
330
1F
100
AcDbEntity
  8
SLD-0
100
AcDbCircle
 10
54.61
 20
-26.484325
 30
0.0
 40
1.849999999999994
  0
CIRCLE
  5
380
330
1F
100
AcDbEntity
  8
SLD-0
100
AcDbCircle
 10
46.7
 20
-18.574325
 30
0.0
 40
1.850000000000001
  0
CIRCLE
  5
381
330
1F
100
AcDbEntity
  8
SLD-0
100
AcDbCircle
 10
-54.61
 20
-26.484325
 30
0.0
 40
1.850000000000001
  0
CIRCLE
  5
382
330
1F
100
AcDbEntity
  8
SLD-0
100
AcDbCircle
 10
46.7
 20
-259.394325
 30
0.0
 40
1.850000000000001
  0
CIRCLE
  5
383
330
1F
100
AcDbEntity
  8
SLD-0
100
AcDbCircle
 10
-46.7
 20
-259.394325
 30
0.0
 40
1.849999999999994
  0
ENDSEC
  0
SECTION
  2
OBJECTS
  0
DICTIONARY
  5
C
330
0
100
AcDbDictionary
281
     1
  3
ACAD_GROUP
350
D
  3
ACAD_LAYOUT
350
1A
  3
ACAD_MLINESTYLE
350
17
  3
ACAD_PLOTSETTINGS
350
19
  3
ACAD_PLOTSTYLENAME
350
E
  3
ACAD_SCALELIST
350
47
  0
DICTIONARY
  5
D
102
{ACAD_REACTORS
330
C
102
}
330
C
100
AcDbDictionary
281
     1
  0
DICTIONARY
  5
1A
102
{ACAD_REACTORS
330
C
102
}
330
C
100
AcDbDictionary
281
     1
  3
Layout1
350
1E
  3
Layout2
350
26
  3
Model
350
22
  0
DICTIONARY
  5
17
102
{ACAD_REACTORS
330
C
102
}
330
C
100
AcDbDictionary
281
     1
  3
Standard
350
18
  0
DICTIONARY
  5
19
102
{ACAD_REACTORS
330
C
102
}
330
C
100
AcDbDictionary
281
     1
  0
ACDBDICTIONARYWDFLT
  5
E
102
{ACAD_REACTORS
330
C
102
}
330
C
100
AcDbDictionary
281
     1
  3
Normal
350
F
100
AcDbDictionaryWithDefault
340
F
  0
DICTIONARY
  5
47
102
{ACAD_REACTORS
330
C
102
}
330
C
100
AcDbDictionary
281
     1
  3
A0
350
48
  3
A1
350
49
  3
A2
350
4A
  3
A3
350
4B
  3
A4
350
4C
  3
A5
350
4D
  3
A6
350
4E
  3
A7
350
4F
  3
A8
350
50
  3
A9
350
51
  3
B0
350
52
  3
B1
350
53
  3
B2
350
54
  3
B3
350
55
  3
B4
350
56
  3
B5
350
57
  3
B6
350
58
  3
B7
350
59
  3
B8
350
5A
  3
B9
350
5B
  3
C0
350
5C
  3
C1
350
5D
  3
C2
350
5E
  3
C3
350
5F
  3
C4
350
60
  3
C5
350
61
  3
C6
350
62
  3
C7
350
63
  3
C8
350
64
  3
C9
350
65
  3
D0
350
66
  3
D1
350
67
  3
D2
350
68
  0
LAYOUT
  5
1E
102
{ACAD_REACTORS
330
1A
102
}
330
1A
100
AcDbPlotSettings
  1

  2
none_device
  4

  6

 40
0.0
 41
0.0
 42
0.0
 43
0.0
 44
0.0
 45
0.0
 46
0.0
 47
0.0
 48
0.0
 49
0.0
140
0.0
141
0.0
142
1.0
143
1.0
 70
   688
 72
     1
 73
     0
 74
     5
  7

 75
    16
147
1.0
148
0.0
149
0.0
100
AcDbLayout
  1
Layout1
 70
     1
 71
     1
 10
0.0
 20
0.0
 11
420.0
 21
297.0
 12
0.0
 22
0.0
 32
0.0
 14
1.0000000000E+20
 24
1.0000000000E+20
 34
1.0000000000E+20
 15
-1.0000000000E+20
 25
-1.0000000000E+20
 35
-1.0000000000E+20
146
0.0
 13
0.0
 23
0.0
 33
0.0
 16
1.0
 26
0.0
 36
0.0
 17
0.0
 27
1.0
 37
0.0
 76
     0
330
1B
  0
LAYOUT
  5
26
102
{ACAD_REACTORS
330
1A
102
}
330
1A
100
AcDbPlotSettings
  1

  2
none_device
  4

  6

 40
0.0
 41
0.0
 42
0.0
 43
0.0
 44
0.0
 45
0.0
 46
0.0
 47
0.0
 48
0.0
 49
0.0
140
0.0
141
0.0
142
1.0
143
1.0
 70
   688
 72
     1
 73
     0
 74
     5
  7

 75
    16
147
1.0
148
0.0
149
0.0
100
AcDbLayout
  1
Layout2
 70
     1
 71
     2
 10
0.0
 20
0.0
 11
0.0
 21
0.0
 12
0.0
 22
0.0
 32
0.0
 14
0.0
 24
0.0
 34
0.0
 15
0.0
 25
0.0
 35
0.0
146
0.0
 13
0.0
 23
0.0
 33
0.0
 16
1.0
 26
0.0
 36
0.0
 17
0.0
 27
1.0
 37
0.0
 76
     0
330
23
  0
LAYOUT
  5
22
102
{ACAD_REACTORS
330
1A
102
}
330
1A
100
AcDbPlotSettings
  1

  2
none_device
  4
Letter_(8.50_x_11.00_Inches)
  6

 40
6.35
 41
6.35
 42
6.35000508
 43
6.35000508
 44
215.9
 45
279.4
 46
0.0
 47
0.0
 48
0.0
 49
0.0
140
0.0
141
0.0
142
1.0
143
1.0
 70
  1712
 72
     1
 73
     0
 74
     0
  7

 75
     0
147
1.0
148
0.0
149
0.0
100
AcDbLayout
  1
Model
 70
     1
 71
     0
 10
0.0
 20
0.0
 11
1117.6
 21
863.6
 12
0.0
 22
0.0
 32
0.0
 14
0.0
 24
0.0
 34
0.0
 15
1117.6
 25
863.6
 35
0.0
146
0.0
 13
0.0
 23
0.0
 33
0.0
 16
1.0
 26
0.0
 36
0.0
 17
0.0
 27
1.0
 37
0.0
 76
     0
330
1F
331
29
  0
MLINESTYLE
  5
18
102
{ACAD_REACTORS
330
17
102
}
330
17
100
AcDbMlineStyle
  2
Standard
 70
     0
  3

 62
   256
 51
90.0
 52
90.0
 71
     2
 49
0.5
 62
   256
  6
BYLAYER
 49
-0.5
 62
   256
  6
BYLAYER
  0
ACDBPLACEHOLDER
  5
F
102
{ACAD_REACTORS
330
E
102
}
330
E
  0
SCALE
  5
48
102
{ACAD_REACTORS
330
47
102
}
330
47
100
AcDbScale
 70
     0
300
1:1
140
1.0
141
1.0
290
     1
  0
SCALE
  5
49
102
{ACAD_REACTORS
330
47
102
}
330
47
100
AcDbScale
 70
     0
300
1:2
140
1.0
141
2.0
290
     0
  0
SCALE
  5
4A
102
{ACAD_REACTORS
330
47
102
}
330
47
100
AcDbScale
 70
     0
300
1:4
140
1.0
141
4.0
290
     0
  0
SCALE
  5
4B
102
{ACAD_REACTORS
330
47
102
}
330
47
100
AcDbScale
 70
     0
300
1:5
140
1.0
141
5.0
290
     0
  0
SCALE
  5
4C
102
{ACAD_REACTORS
330
47
102
}
330
47
100
AcDbScale
 70
     0
300
1:8
140
1.0
141
8.0
290
     0
  0
SCALE
  5
4D
102
{ACAD_REACTORS
330
47
102
}
330
47
100
AcDbScale
 70
     0
300
1:10
140
1.0
141
10.0
290
     0
  0
SCALE
  5
4E
102
{ACAD_REACTORS
330
47
102
}
330
47
100
AcDbScale
 70
     0
300
1:16
140
1.0
141
16.0
290
     0
  0
SCALE
  5
4F
102
{ACAD_REACTORS
330
47
102
}
330
47
100
AcDbScale
 70
     0
300
1:20
140
1.0
141
20.0
290
     0
  0
SCALE
  5
50
102
{ACAD_REACTORS
330
47
102
}
330
47
100
AcDbScale
 70
     0
300
1:30
140
1.0
141
30.0
290
     0
  0
SCALE
  5
51
102
{ACAD_REACTORS
330
47
102
}
330
47
100
AcDbScale
 70
     0
300
1:40
140
1.0
141
40.0
290
     0
  0
SCALE
  5
52
102
{ACAD_REACTORS
330
47
102
}
330
47
100
AcDbScale
 70
     0
300
1:50
140
1.0
141
50.0
290
     0
  0
SCALE
  5
53
102
{ACAD_REACTORS
330
47
102
}
330
47
100
AcDbScale
 70
     0
300
1:100
140
1.0
141
100.0
290
     0
  0
SCALE
  5
54
102
{ACAD_REACTORS
330
47
102
}
330
47
100
AcDbScale
 70
     0
300
2:1
140
2.0
141
1.0
290
     0
  0
SCALE
  5
55
102
{ACAD_REACTORS
330
47
102
}
330
47
100
AcDbScale
 70
     0
300
4:1
140
4.0
141
1.0
290
     0
  0
SCALE
  5
56
102
{ACAD_REACTORS
330
47
102
}
330
47
100
AcDbScale
 70
     0
300
8:1
140
8.0
141
1.0
290
     0
  0
SCALE
  5
57
102
{ACAD_REACTORS
330
47
102
}
330
47
100
AcDbScale
 70
     0
300
10:1
140
10.0
141
1.0
290
     0
  0
SCALE
  5
58
102
{ACAD_REACTORS
330
47
102
}
330
47
100
AcDbScale
 70
     0
300
100:1
140
100.0
141
1.0
290
     0
  0
SCALE
  5
59
102
{ACAD_REACTORS
330
47
102
}
330
47
100
AcDbScale
 70
     0
300
1/128" = 1'-0"
140
0.0078125
141
12.0
290
     0
  0
SCALE
  5
5A
102
{ACAD_REACTORS
330
47
102
}
330
47
100
AcDbScale
 70
     0
300
1/64" = 1'-0"
140
0.015625
141
12.0
290
     0
  0
SCALE
  5
5B
102
{ACAD_REACTORS
330
47
102
}
330
47
100
AcDbScale
 70
     0
300
1/32" = 1'-0"
140
0.03125
141
12.0
290
     0
  0
SCALE
  5
5C
102
{ACAD_REACTORS
330
47
102
}
330
47
100
AcDbScale
 70
     0
300
1/16" = 1'-0"
140
0.0625
141
12.0
290
     0
  0
SCALE
  5
5D
102
{ACAD_REACTORS
330
47
102
}
330
47
100
AcDbScale
 70
     0
300
3/32" = 1'-0"
140
0.09375
141
12.0
290
     0
  0
SCALE
  5
5E
102
{ACAD_REACTORS
330
47
102
}
330
47
100
AcDbScale
 70
     0
300
1/8" = 1'-0"
140
0.125
141
12.0
290
     0
  0
SCALE
  5
5F
102
{ACAD_REACTORS
330
47
102
}
330
47
100
AcDbScale
 70
     0
300
3/16" = 1'-0"
140
0.1875
141
12.0
290
     0
  0
SCALE
  5
60
102
{ACAD_REACTORS
330
47
102
}
330
47
100
AcDbScale
 70
     0
300
1/4" = 1'-0"
140
0.25
141
12.0
290
     0
  0
SCALE
  5
61
102
{ACAD_REACTORS
330
47
102
}
330
47
100
AcDbScale
 70
     0
300
3/8" = 1'-0"
140
0.375
141
12.0
290
     0
  0
SCALE
  5
62
102
{ACAD_REACTORS
330
47
102
}
330
47
100
AcDbScale
 70
     0
300
1/2" = 1'-0"
140
0.5
141
12.0
290
     0
  0
SCALE
  5
63
102
{ACAD_REACTORS
330
47
102
}
330
47
100
AcDbScale
 70
     0
300
3/4" = 1'-0"
140
0.75
141
12.0
290
     0
  0
SCALE
  5
64
102
{ACAD_REACTORS
330
47
102
}
330
47
100
AcDbScale
 70
     0
300
1" = 1'-0"
140
1.0
141
12.0
290
     0
  0
SCALE
  5
65
102
{ACAD_REACTORS
330
47
102
}
330
47
100
AcDbScale
 70
     0
300
1-1/2" = 1'-0"
140
1.5
141
12.0
290
     0
  0
SCALE
  5
66
102
{ACAD_REACTORS
330
47
102
}
330
47
100
AcDbScale
 70
     0
300
3" = 1'-0"
140
3.0
141
12.0
290
     0
  0
SCALE
  5
67
102
{ACAD_REACTORS
330
47
102
}
330
47
100
AcDbScale
 70
     0
300
6" = 1'-0"
140
6.0
141
12.0
290
     0
  0
SCALE
  5
68
102
{ACAD_REACTORS
330
47
102
}
330
47
100
AcDbScale
 70
     0
300
1'-0" = 1'-0"
140
12.0
141
12.0
290
     0
  0
ENDSEC
  0
EOF
