  0
SECTION
  2
HEADER
  9
$ACADVER
  1
AC1015
  9
$ACADMAINTVER
 70
     6
  9
$DWGCODEPAGE
  3
ANSI_1252
  9
$INSBASE
 10
0.0
 20
0.0
 30
0.0
  9
$EXTMIN
 10
0.0
 20
0.0
 30
0.0
  9
$EXTMAX
 10
1117.6
 20
863.6
 30
0.0
  9
$LIMMIN
 10
0.0
 20
0.0
  9
$LIMMAX
 10
1117.6
 20
863.6
  9
$ORTHOMODE
 70
     0
  9
$REGENMODE
 70
     1
  9
$FILLMODE
 70
     1
  9
$QTEXTMODE
 70
     0
  9
$MIRRTEXT
 70
     1
  9
$LTSCALE
 40
1.0
  9
$ATTMODE
 70
     1
  9
$TEXTSIZE
 40
3.175
  9
$TRACEWID
 40
1.0
  9
$TEXTSTYLE
  7
Standard
  9
$CLAYER
  8
0
  9
$CELTYPE
  6
ByLayer
  9
$CECOLOR
 62
   256
  9
$CELTSCALE
 40
1.0
  9
$DISPSILH
 70
     0
  9
$DIMSCALE
 40
1.0
  9
$DIMASZ
 40
3.302
  9
$DIMEXO
 40
1.27
  9
$DIMDLI
 40
3.75
  9
$DIMRND
 40
0.0
  9
$DIMDLE
 40
0.0
  9
$DIMEXE
 40
3.175
  9
$DIMTP
 40
0.0
  9
$DIMTM
 40
0.0
  9
$DIMTXT
 40
3.175
  9
$DIMCEN
 40
2.5
  9
$DIMTSZ
 40
0.0
  9
$DIMTOL
 70
     0
  9
$DIMLIM
 70
     0
  9
$DIMTIH
 70
     1
  9
$DIMTOH
 70
     1
  9
$DIMSE1
 70
     0
  9
$DIMSE2
 70
     0
  9
$DIMTAD
 70
     0
  9
$DIMZIN
 70
     1
  9
$DIMBLK
  1

  9
$DIMASO
 70
     1
  9
$DIMSHO
 70
     1
  9
$DIMPOST
  1

  9
$DIMAPOST
  1

  9
$DIMALT
 70
     0
  9
$DIMALTD
 70
     3
  9
$DIMALTF
 40
0.0393700787
  9
$DIMLFAC
 40
1.0
  9
$DIMTOFL
 70
     1
  9
$DIMTVP
 40
0.0
  9
$DIMTIX
 70
     0
  9
$DIMSOXD
 70
     0
  9
$DIMSAH
 70
     0
  9
$DIMBLK1
  1

  9
$DIMBLK2
  1

  9
$DIMSTYLE
  2
ISO-25
  9
$DIMCLRD
 70
     0
  9
$DIMCLRE
 70
     0
  9
$DIMCLRT
 70
     0
  9
$DIMTFAC
 40
1.0
  9
$DIMGAP
 40
1.524
  9
$DIMJUST
 70
     0
  9
$DIMSD1
 70
     0
  9
$DIMSD2
 70
     0
  9
$DIMTOLJ
 70
     0
  9
$DIMTZIN
 70
     1
  9
$DIMALTZ
 70
     0
  9
$DIMALTTZ
 70
     0
  9
$DIMUPT
 70
     0
  9
$DIMDEC
 70
     4
  9
$DIMTDEC
 70
     4
  9
$DIMALTU
 70
     2
  9
$DIMALTTD
 70
     3
  9
$DIMTXSTY
  7
Standard
  9
$DIMAUNIT
 70
     0
  9
$DIMADEC
 70
     0
  9
$DIMALTRND
 40
0.0
  9
$DIMAZIN
 70
     0
  9
$DIMDSEP
 70
    44
  9
$DIMATFIT
 70
     3
  9
$DIMFRAC
 70
     0
  9
$DIMLDRBLK
  1

  9
$DIMLUNIT
 70
     2
  9
$DIMLWD
 70
    -2
  9
$DIMLWE
 70
    -2
  9
$DIMTMOVE
 70
     0
  9
$LUNITS
 70
     2
  9
$LUPREC
 70
     4
  9
$SKETCHINC
 40
1.0
  9
$FILLETRAD
 40
10.0
  9
$AUNITS
 70
     0
  9
$AUPREC
 70
     0
  9
$MENU
  1
.
  9
$ELEVATION
 40
0.0
  9
$PELEVATION
 40
0.0
  9
$THICKNESS
 40
0.0
  9
$LIMCHECK
 70
     0
  9
$CHAMFERA
 40
0.0
  9
$CHAMFERB
 40
0.0
  9
$CHAMFERC
 40
0.0
  9
$CHAMFERD
 40
0.0
  9
$SKPOLY
 70
     0
  9
$TDCREATE
 40
2458045.661514306
  9
$TDUCREATE
 40
2458045.828180972
  9
$TDUPDATE
 40
2458045.661514514
  9
$TDUUPDATE
 40
2458045.828181181
  9
$TDINDWG
 40
0.0000000116
  9
$TDUSRTIMER
 40
0.0000000116
  9
$USRTIMER
 70
     1
  9
$ANGBASE
 50
0.0
  9
$ANGDIR
 70
     0
  9
$PDMODE
 70
     0
  9
$PDSIZE
 40
-1.0
  9
$PLINEWID
 40
0.0
  9
$SPLFRAME
 70
     0
  9
$SPLINETYPE
 70
     6
  9
$SPLINESEGS
 70
     8
  9
$HANDSEED
  5
434
  9
$SURFTAB1
 70
     6
  9
$SURFTAB2
 70
     6
  9
$SURFTYPE
 70
     6
  9
$SURFU
 70
     6
  9
$SURFV
 70
     6
  9
$UCSBASE
  2

  9
$UCSNAME
  2

  9
$UCSORG
 10
0.0
 20
0.0
 30
0.0
  9
$UCSXDIR
 10
1.0
 20
0.0
 30
0.0
  9
$UCSYDIR
 10
0.0
 20
1.0
 30
0.0
  9
$UCSORTHOREF
  2

  9
$UCSORTHOVIEW
 70
     0
  9
$UCSORGTOP
 10
0.0
 20
0.0
 30
0.0
  9
$UCSORGBOTTOM
 10
0.0
 20
0.0
 30
0.0
  9
$UCSORGLEFT
 10
0.0
 20
0.0
 30
0.0
  9
$UCSORGRIGHT
 10
0.0
 20
0.0
 30
0.0
  9
$UCSORGFRONT
 10
0.0
 20
0.0
 30
0.0
  9
$UCSORGBACK
 10
0.0
 20
0.0
 30
0.0
  9
$PUCSBASE
  2

  9
$PUCSNAME
  2

  9
$PUCSORG
 10
0.0
 20
0.0
 30
0.0
  9
$PUCSXDIR
 10
1.0
 20
0.0
 30
0.0
  9
$PUCSYDIR
 10
0.0
 20
1.0
 30
0.0
  9
$PUCSORTHOREF
  2

  9
$PUCSORTHOVIEW
 70
     0
  9
$PUCSORGTOP
 10
0.0
 20
0.0
 30
0.0
  9
$PUCSORGBOTTOM
 10
0.0
 20
0.0
 30
0.0
  9
$PUCSORGLEFT
 10
0.0
 20
0.0
 30
0.0
  9
$PUCSORGRIGHT
 10
0.0
 20
0.0
 30
0.0
  9
$PUCSORGFRONT
 10
0.0
 20
0.0
 30
0.0
  9
$PUCSORGBACK
 10
0.0
 20
0.0
 30
0.0
  9
$USERI1
 70
     0
  9
$USERI2
 70
     0
  9
$USERI3
 70
     0
  9
$USERI4
 70
     0
  9
$USERI5
 70
     0
  9
$USERR1
 40
0.0
  9
$USERR2
 40
0.0
  9
$USERR3
 40
0.0
  9
$USERR4
 40
0.0
  9
$USERR5
 40
0.0
  9
$WORLDVIEW
 70
     1
  9
$SHADEDGE
 70
     3
  9
$SHADEDIF
 70
    70
  9
$TILEMODE
 70
     1
  9
$MAXACTVP
 70
    64
  9
$PINSBASE
 10
0.0
 20
0.0
 30
0.0
  9
$PLIMCHECK
 70
     0
  9
$PEXTMIN
 10
1.0000000000E+20
 20
1.0000000000E+20
 30
1.0000000000E+20
  9
$PEXTMAX
 10
-1.0000000000E+20
 20
-1.0000000000E+20
 30
-1.0000000000E+20
  9
$PLIMMIN
 10
0.0
 20
0.0
  9
$PLIMMAX
 10
420.0
 20
297.0
  9
$UNITMODE
 70
     0
  9
$VISRETAIN
 70
     1
  9
$PLINEGEN
 70
     0
  9
$PSLTSCALE
 70
     1
  9
$TREEDEPTH
 70
  3020
  9
$CMLSTYLE
  2
Standard
  9
$CMLJUST
 70
     0
  9
$CMLSCALE
 40
20.0
  9
$PROXYGRAPHICS
 70
     1
  9
$MEASUREMENT
 70
     1
  9
$CELWEIGHT
370
    -1
  9
$ENDCAPS
280
     0
  9
$JOINSTYLE
280
     0
  9
$LWDISPLAY
290
     1
  9
$INSUNITS
 70
     4
  9
$HYPERLINKBASE
  1

  9
$STYLESHEET
  1

  9
$XEDIT
290
     1
  9
$CEPSNTYPE
380
     0
  9
$PSTYLEMODE
290
     1
  9
$FINGERPRINTGUID
  2
{06C05EE5-B1FB-40B6-A9F0-F2482AA24C25}
  9
$VERSIONGUID
  2
{FAEB1C32-E019-11D5-929B-00C0DF256EC4}
  9
$EXTNAMES
290
     1
  9
$PSVPSCALE
 40
0.0
  9
$OLESTARTUP
290
     0
  0
ENDSEC
  0
SECTION
  2
CLASSES
  0
CLASS
  1
ACDBDICTIONARYWDFLT
  2
AcDbDictionaryWithDefault
  3
ObjectDBX Classes
 90
        0
280
     0
281
     0
  0
CLASS
  1
VISUALSTYLE
  2
AcDbVisualStyle
  3
ObjectDBX Classes
 90
     4095
280
     0
281
     0
  0
CLASS
  1
MATERIAL
  2
AcDbMaterial
  3
ObjectDBX Classes
 90
     1153
280
     0
281
     0
  0
CLASS
  1
SCALE
  2
AcDbScale
  3
ObjectDBX Classes
 90
     1153
280
     0
281
     0
  0
CLASS
  1
TABLESTYLE
  2
AcDbTableStyle
  3
ObjectDBX Classes
 90
     4095
280
     0
281
     0
  0
CLASS
  1
MLEADERSTYLE
  2
AcDbMLeaderStyle
  3
ACDB_MLEADERSTYLE_CLASS
 90
     4095
280
     0
281
     0
  0
CLASS
  1
SUN
  2
AcDbSun
  3
SCENEOE
 90
     1153
280
     0
281
     0
  0
CLASS
  1
ACDBPLACEHOLDER
  2
AcDbPlaceHolder
  3
ObjectDBX Classes
 90
        0
280
     0
281
     0
  0
CLASS
  1
LAYOUT
  2
AcDbLayout
  3
ObjectDBX Classes
 90
        0
280
     0
281
     0
  0
ENDSEC
  0
SECTION
  2
TABLES
  0
TABLE
  2
VPORT
  5
8
330
0
100
AcDbSymbolTable
 70
     1
  0
VPORT
  5
29
330
8
100
AcDbSymbolTableRecord
100
AcDbViewportTableRecord
  2
*Active
 70
     0
 10
0.0
 20
0.0
 11
1.0
 21
1.0
 12
558.8
 22
431.8
 13
0.0
 23
0.0
 14
10.0
 24
10.0
 15
10.0
 25
10.0
 16
0.0
 26
0.0
 36
1.0
 17
0.0
 27
0.0
 37
0.0
 40
863.6
 41
1.2941176471
 42
50.0
 43
0.0
 44
0.0
 50
0.0
 51
0.0
 71
     0
 72
  2000
 73
     1
 74
     3
 75
     0
 76
     0
 77
     0
 78
     0
281
     0
 65
     1
110
0.0
120
0.0
130
0.0
111
1.0
121
0.0
131
0.0
112
0.0
122
1.0
132
0.0
 79
     0
146
0.0
  0
ENDTAB
  0
TABLE
  2
LTYPE
  5
5
330
0
100
AcDbSymbolTable
 70
     6
  0
LTYPE
  5
14
330
5
100
AcDbSymbolTableRecord
100
AcDbLinetypeTableRecord
  2
ByBlock
 70
     0
  3

 72
    65
 73
     0
 40
0.0
  0
LTYPE
  5
15
330
5
100
AcDbSymbolTableRecord
100
AcDbLinetypeTableRecord
  2
ByLayer
 70
     0
  3

 72
    65
 73
     0
 40
0.0
  0
LTYPE
  5
16
330
5
100
AcDbSymbolTableRecord
100
AcDbLinetypeTableRecord
  2
Continuous
 70
     0
  3
Solid line
 72
    65
 73
     0
 40
0.0
  0
LTYPE
  5
6E
330
5
100
AcDbSymbolTableRecord
100
AcDbLinetypeTableRecord
  2
HIDDEN
 70
     0
  3
Hidden __ __ __ __ __ __ __ __ __ __ __ __ __ __
 72
    65
 73
     2
 40
1.905
 49
1.27
 74
     0
 49
-0.635
 74
     0
  0
LTYPE
  5
6F
330
5
100
AcDbSymbolTableRecord
100
AcDbLinetypeTableRecord
  2
PHANTOM
 70
     0
  3
Phantom ______  __  __  ______  __  __  ______
 72
    65
 73
     6
 40
12.7
 49
6.35
 74
     0
 49
-1.27
 74
     0
 49
1.27
 74
     0
 49
-1.27
 74
     0
 49
1.27
 74
     0
 49
-1.27
 74
     0
  0
LTYPE
  5
70
330
5
100
AcDbSymbolTableRecord
100
AcDbLinetypeTableRecord
  2
CENTER
 70
     0
  3
Center ____ _ ____ _ ____ _ ____ _ ____ _ ____
 72
    65
 73
     4
 40
10.16
 49
6.35
 74
     0
 49
-1.27
 74
     0
 49
1.27
 74
     0
 49
-1.27
 74
     0
  0
LTYPE
  5
71
330
5
100
AcDbSymbolTableRecord
100
AcDbLinetypeTableRecord
  2
CENTERX2
 70
     0
  3
Center (2x) ________  __  ________  __  _____
 72
    65
 73
     4
 40
20.32
 49
12.7
 74
     0
 49
-2.54
 74
     0
 49
2.54
 74
     0
 49
-2.54
 74
     0
  0
LTYPE
  5
72
330
5
100
AcDbSymbolTableRecord
100
AcDbLinetypeTableRecord
  2
DOT2
 70
     0
  3
Dot (.5x) ........................................
 72
    65
 73
     2
 40
0.635
 49
0.0
 74
     0
 49
-0.635
 74
     0
  0
ENDTAB
  0
TABLE
  2
LAYER
  5
2
330
0
100
AcDbSymbolTable
 70
     2
  0
LAYER
  5
10
330
2
100
AcDbSymbolTableRecord
100
AcDbLayerTableRecord
  2
0
 70
     0
 62
     7
  6
Continuous
370
    -3
390
F
  0
LAYER
  5
73
330
2
100
AcDbSymbolTableRecord
100
AcDbLayerTableRecord
  2
SLD-0
 70
     0
 62
   179
  6
Continuous
370
    -3
390
F
  0
ENDTAB
  0
TABLE
  2
STYLE
  5
3
330
0
100
AcDbSymbolTable
 70
     1
  0
STYLE
  5
11
330
3
100
AcDbSymbolTableRecord
100
AcDbTextStyleTableRecord
  2
Standard
 70
     0
 40
0.0
 41
1.0
 50
0.0
 71
     0
 42
3.175
  3
txt
  4

  0
ENDTAB
  0
TABLE
  2
VIEW
  5
6
330
0
100
AcDbSymbolTable
 70
     0
  0
ENDTAB
  0
TABLE
  2
UCS
  5
7
330
0
100
AcDbSymbolTable
 70
     0
  0
ENDTAB
  0
TABLE
  2
APPID
  5
9
330
0
100
AcDbSymbolTable
 70
     1
  0
APPID
  5
12
330
9
100
AcDbSymbolTableRecord
100
AcDbRegAppTableRecord
  2
ACAD
 70
     0
  0
ENDTAB
  0
TABLE
  2
DIMSTYLE
  5
A
330
0
100
AcDbSymbolTable
 70
     1
100
AcDbDimStyleTable
  0
DIMSTYLE
105
27
330
A
100
AcDbSymbolTableRecord
100
AcDbDimStyleTableRecord
  2
ISO-25
 70
     0
 41
2.5
 42
0.625
 43
3.75
 44
1.25
 73
     0
 74
     0
 77
     1
 78
     8
140
2.5
141
2.5
143
0.0393700787
147
0.625
171
     3
172
     1
178
     0
271
     2
272
     2
274
     3
278
    44
283
     0
284
     8
340
11
  0
ENDTAB
  0
TABLE
  2
BLOCK_RECORD
  5
1
330
0
100
AcDbSymbolTable
 70
     1
  0
BLOCK_RECORD
  5
1F
330
1
100
AcDbSymbolTableRecord
100
AcDbBlockTableRecord
  2
*Model_Space
340
22
  0
BLOCK_RECORD
  5
1B
330
1
100
AcDbSymbolTableRecord
100
AcDbBlockTableRecord
  2
*Paper_Space
340
1E
  0
BLOCK_RECORD
  5
23
330
1
100
AcDbSymbolTableRecord
100
AcDbBlockTableRecord
  2
*Paper_Space0
340
26
  0
ENDTAB
  0
ENDSEC
  0
SECTION
  2
BLOCKS
  0
BLOCK
  5
20
330
1F
100
AcDbEntity
  8
0
100
AcDbBlockBegin
  2
*Model_Space
 70
     0
 10
0.0
 20
0.0
 30
0.0
  3
*Model_Space
  1

  0
ENDBLK
  5
21
330
1F
100
AcDbEntity
  8
0
100
AcDbBlockEnd
  0
BLOCK
  5
1C
330
1B
100
AcDbEntity
 67
     1
  8
0
100
AcDbBlockBegin
  2
*Paper_Space
 70
     0
 10
0.0
 20
0.0
 30
0.0
  3
*Paper_Space
  1

  0
ENDBLK
  5
1D
330
1B
100
AcDbEntity
 67
     1
  8
0
100
AcDbBlockEnd
  0
BLOCK
  5
24
330
23
100
AcDbEntity
  8
0
100
AcDbBlockBegin
  2
*Paper_Space0
 70
     0
 10
0.0
 20
0.0
 30
0.0
  3
*Paper_Space0
  1

  0
ENDBLK
  5
25
330
23
100
AcDbEntity
  8
0
100
AcDbBlockEnd
  0
ENDSEC
  0
SECTION
  2
ENTITIES
  0
LINE
  5
74
330
1F
100
AcDbEntity
  8
SLD-0
100
AcDbLine
 10
-2.7411318856
 20
-204.1659624858
 30
0.0
 11
-2.7411318856
 21
-189.1074536293
 31
0.0
  0
LINE
  5
75
330
1F
100
AcDbEntity
  8
SLD-0
100
AcDbLine
 10
7.3924211231
 20
-189.1074536293
 30
0.0
 11
7.3924211231
 21
-204.1659624858
 31
0.0
  0
LINE
  5
76
330
1F
100
AcDbEntity
  8
SLD-0
100
AcDbLine
 10
-2.8942152704
 20
-89.414547774
 30
0.0
 11
-2.8942152704
 21
-71.5674261664
 31
0.0
  0
LINE
  5
77
330
1F
100
AcDbEntity
  8
SLD-0
100
AcDbLine
 10
7.5455045079
 20
-71.5674261664
 30
0.0
 11
7.5455045079
 21
-89.414547774
 31
0.0
  0
LINE
  5
78
330
1F
100
AcDbEntity
  8
SLD-0
100
AcDbLine
 10
-33.248129293
 20
238.838690861
 30
0.0
 11
-33.248129293
 21
199.9370744681
 31
0.0
  0
LINE
  5
79
330
1F
100
AcDbEntity
  8
SLD-0
100
AcDbLine
 10
-42.4739247103
 20
199.9370744681
 30
0.0
 11
-42.4739247103
 21
238.838690861
 31
0.0
  0
LINE
  5
7A
330
1F
100
AcDbEntity
  8
SLD-0
100
AcDbLine
 10
-33.248129293
 20
163.838690861
 30
0.0
 11
-33.248129293
 21
124.9370744681
 31
0.0
  0
LINE
  5
7B
330
1F
100
AcDbEntity
  8
SLD-0
100
AcDbLine
 10
-42.4739247103
 20
124.9370744681
 30
0.0
 11
-42.4739247103
 21
163.838690861
 31
0.0
  0
LINE
  5
7C
330
1F
100
AcDbEntity
  8
SLD-0
100
AcDbLine
 10
-33.248129293
 20
88.838690861
 30
0.0
 11
-33.248129293
 21
49.9370744681
 31
0.0
  0
LINE
  5
7D
330
1F
100
AcDbEntity
  8
SLD-0
100
AcDbLine
 10
-42.4739247103
 20
49.9370744681
 30
0.0
 11
-42.4739247103
 21
88.838690861
 31
0.0
  0
LINE
  5
7E
330
1F
100
AcDbEntity
  8
SLD-0
100
AcDbLine
 10
-33.248129293
 20
13.838690861
 30
0.0
 11
-33.248129293
 21
-25.0629255319
 31
0.0
  0
LINE
  5
7F
330
1F
100
AcDbEntity
  8
SLD-0
100
AcDbLine
 10
-42.4739247103
 20
-25.0629255319
 30
0.0
 11
-42.4739247103
 21
13.838690861
 31
0.0
  0
LINE
  5
80
330
1F
100
AcDbEntity
  8
SLD-0
100
AcDbLine
 10
-49.496825
 20
-99.2964476334
 30
0.0
 11
-49.496825
 21
-63.4785523666
 31
0.0
  0
LINE
  5
81
330
1F
100
AcDbEntity
  8
SLD-0
100
AcDbLine
 10
-47.9057726334
 20
-61.8875
 30
0.0
 11
-12.0878773666
 21
-61.8875
 31
0.0
  0
LINE
  5
82
330
1F
100
AcDbEntity
  8
SLD-0
100
AcDbLine
 10
-10.496825
 20
-63.4785523666
 30
0.0
 11
-10.496825
 21
-99.2964476334
 31
0.0
  0
LINE
  5
83
330
1F
100
AcDbEntity
  8
SLD-0
100
AcDbLine
 10
-12.0878773666
 20
-100.8875
 30
0.0
 11
-47.9057726334
 21
-100.8875
 31
0.0
  0
LINE
  5
84
330
1F
100
AcDbEntity
  8
SLD-0
100
AcDbLine
 10
-49.496825
 20
-214.2964476334
 30
0.0
 11
-49.496825
 21
-178.4785523666
 31
0.0
  0
LINE
  5
85
330
1F
100
AcDbEntity
  8
SLD-0
100
AcDbLine
 10
-47.9057726334
 20
-176.8875
 30
0.0
 11
-12.0878773666
 21
-176.8875
 31
0.0
  0
LINE
  5
86
330
1F
100
AcDbEntity
  8
SLD-0
100
AcDbLine
 10
-10.496825
 20
-178.4785523666
 30
0.0
 11
-10.496825
 21
-214.2964476334
 31
0.0
  0
LINE
  5
87
330
1F
100
AcDbEntity
  8
SLD-0
100
AcDbLine
 10
-12.0878773666
 20
-215.8875
 30
0.0
 11
-47.9057726334
 21
-215.8875
 31
0.0
  0
LINE
  5
88
330
1F
100
AcDbEntity
  8
SLD-0
100
AcDbLine
 10
-16.9737419008
 20
-250.63839723
 30
0.0
 11
33.0262580992
 21
-228.2979716981
 31
0.0
  0
LINE
  5
89
330
1F
100
AcDbEntity
  8
SLD-0
100
AcDbLine
 10
36.9800919008
 20
-237.1470283019
 30
0.0
 11
-13.0199080992
 21
-259.4874538338
 31
0.0
  0
LINE
  5
8A
330
1F
100
AcDbEntity
  8
SLD-0
100
AcDbLine
 10
-16.9737419008
 20
-230.63839723
 30
0.0
 11
33.0262580992
 21
-208.2979716981
 31
0.0
  0
LINE
  5
8B
330
1F
100
AcDbEntity
  8
SLD-0
100
AcDbLine
 10
36.9800919008
 20
-217.1470283019
 30
0.0
 11
-13.0199080992
 21
-239.4874538338
 31
0.0
  0
LINE
  5
8C
330
1F
100
AcDbEntity
  8
SLD-0
100
AcDbLine
 10
-16.9737419008
 20
-0.63839723
 30
0.0
 11
33.0262580992
 21
21.7020283019
 31
0.0
  0
LINE
  5
8D
330
1F
100
AcDbEntity
  8
SLD-0
100
AcDbLine
 10
36.9800919008
 20
12.8529716981
 30
0.0
 11
-13.0199080992
 21
-9.4874538338
 31
0.0
  0
LINE
  5
8E
330
1F
100
AcDbEntity
  8
SLD-0
100
AcDbLine
 10
-16.9737419008
 20
39.36160277
 30
0.0
 11
33.0262580992
 21
61.7020283019
 31
0.0
  0
LINE
  5
8F
330
1F
100
AcDbEntity
  8
SLD-0
100
AcDbLine
 10
36.9800919008
 20
52.8529716981
 30
0.0
 11
-13.0199080992
 21
30.5125461662
 31
0.0
  0
LINE
  5
90
330
1F
100
AcDbEntity
  8
SLD-0
100
AcDbLine
 10
-16.9737419008
 20
79.36160277
 30
0.0
 11
33.0262580992
 21
101.7020283019
 31
0.0
  0
LINE
  5
91
330
1F
100
AcDbEntity
  8
SLD-0
100
AcDbLine
 10
36.9800919008
 20
92.8529716981
 30
0.0
 11
-13.0199080992
 21
70.5125461662
 31
0.0
  0
LINE
  5
92
330
1F
100
AcDbEntity
  8
SLD-0
100
AcDbLine
 10
-16.9737419008
 20
119.36160277
 30
0.0
 11
33.0262580992
 21
141.7020283019
 31
0.0
  0
LINE
  5
93
330
1F
100
AcDbEntity
  8
SLD-0
100
AcDbLine
 10
36.9800919008
 20
132.8529716981
 30
0.0
 11
-13.0199080992
 21
110.5125461662
 31
0.0
  0
LINE
  5
94
330
1F
100
AcDbEntity
  8
SLD-0
100
AcDbLine
 10
-16.9737419008
 20
159.36160277
 30
0.0
 11
33.0262580992
 21
181.7020283019
 31
0.0
  0
LINE
  5
95
330
1F
100
AcDbEntity
  8
SLD-0
100
AcDbLine
 10
36.9800919008
 20
172.8529716981
 30
0.0
 11
-13.0199080992
 21
150.5125461662
 31
0.0
  0
LINE
  5
96
330
1F
100
AcDbEntity
  8
SLD-0
100
AcDbLine
 10
-16.9737419008
 20
199.36160277
 30
0.0
 11
33.0262580992
 21
221.7020283019
 31
0.0
  0
LINE
  5
97
330
1F
100
AcDbEntity
  8
SLD-0
100
AcDbLine
 10
36.9800919008
 20
212.8529716981
 30
0.0
 11
-13.0199080992
 21
190.5125461662
 31
0.0
  0
LINE
  5
98
330
1F
100
AcDbEntity
  8
SLD-0
100
AcDbLine
 10
-16.9737419008
 20
239.36160277
 30
0.0
 11
33.0262580992
 21
261.7020283019
 31
0.0
  0
LINE
  5
99
330
1F
100
AcDbEntity
  8
SLD-0
100
AcDbLine
 10
36.9800919008
 20
252.8529716981
 30
0.0
 11
-13.0199080992
 21
230.5125461662
 31
0.0
  0
LINE
  5
9A
330
1F
100
AcDbEntity
  8
SLD-0
100
AcDbLine
 10
60.828175
 20
285.5595
 30
0.0
 11
60.8281749999
 21
283.3685
 31
0.0
  0
LINE
  5
9B
330
1F
100
AcDbEntity
  8
SLD-0
100
AcDbLine
 10
60.8281749999
 20
283.3685
 30
0.0
 11
58.0501749999
 21
283.3685
 31
0.0
  0
LINE
  5
9C
330
1F
100
AcDbEntity
  8
SLD-0
100
AcDbLine
 10
58.0501749999
 20
283.3685
 30
0.0
 11
58.0501749999
 21
285.5495
 31
0.0
  0
LINE
  5
9D
330
1F
100
AcDbEntity
  8
SLD-0
100
AcDbLine
 10
58.0501749999
 20
285.5495
 30
0.0
 11
54.763175
 21
285.5495
 31
0.0
  0
LINE
  5
9E
330
1F
100
AcDbEntity
  8
SLD-0
100
AcDbLine
 10
54.763175
 20
285.5495
 30
0.0
 11
54.763175
 21
289.1155
 31
0.0
  0
LINE
  5
9F
330
1F
100
AcDbEntity
  8
SLD-0
100
AcDbLine
 10
54.763175
 20
289.1155
 30
0.0
 11
58.0501749999
 21
289.1155
 31
0.0
  0
LINE
  5
A0
330
1F
100
AcDbEntity
  8
SLD-0
100
AcDbLine
 10
58.0501749999
 20
289.1155
 30
0.0
 11
58.0501749999
 21
291.3065
 31
0.0
  0
LINE
  5
A1
330
1F
100
AcDbEntity
  8
SLD-0
100
AcDbLine
 10
58.0501749999
 20
291.3065
 30
0.0
 11
60.8281749999
 21
291.3065
 31
0.0
  0
LINE
  5
A2
330
1F
100
AcDbEntity
  8
SLD-0
100
AcDbLine
 10
60.8281749999
 20
291.3065
 30
0.0
 11
60.828175
 21
289.1155
 31
0.0
  0
LINE
  5
A3
330
1F
100
AcDbEntity
  8
SLD-0
100
AcDbLine
 10
60.828175
 20
289.1155
 30
0.0
 11
66.828175
 21
289.1155
 31
0.0
  0
LINE
  5
A4
330
1F
100
AcDbEntity
  8
SLD-0
100
AcDbLine
 10
66.828175
 20
289.1155
 30
0.0
 11
66.828175
 21
293.6875
 31
0.0
  0
LINE
  5
A5
330
1F
100
AcDbEntity
  8
SLD-0
100
AcDbLine
 10
66.828175
 20
293.6875
 30
0.0
 11
70.003175
 21
293.6875
 31
0.0
  0
LINE
  5
A6
330
1F
100
AcDbEntity
  8
SLD-0
100
AcDbLine
 10
70.003175
 20
293.6875
 30
0.0
 11
70.003175
 21
306.3875
 31
0.0
  0
LINE
  5
A7
330
1F
100
AcDbEntity
  8
SLD-0
100
AcDbLine
 10
70.003175
 20
306.3875
 30
0.0
 11
54.128175
 21
306.3875
 31
0.0
  0
LINE
  5
A8
330
1F
100
AcDbEntity
  8
SLD-0
100
AcDbLine
 10
54.128175
 20
306.3875
 30
0.0
 11
54.128175
 21
303.2125
 31
0.0
  0
LINE
  5
A9
330
1F
100
AcDbEntity
  8
SLD-0
100
AcDbLine
 10
54.128175
 20
303.2125
 30
0.0
 11
49.556175
 21
303.2125
 31
0.0
  0
LINE
  5
AA
330
1F
100
AcDbEntity
  8
SLD-0
100
AcDbLine
 10
49.556175
 20
303.2125
 30
0.0
 11
49.556175
 21
297.2125
 31
0.0
  0
LINE
  5
AB
330
1F
100
AcDbEntity
  8
SLD-0
100
AcDbLine
 10
49.556175
 20
297.2125
 30
0.0
 11
51.747175
 21
297.2125
 31
0.0
  0
LINE
  5
AC
330
1F
100
AcDbEntity
  8
SLD-0
100
AcDbLine
 10
51.747175
 20
297.2125
 30
0.0
 11
51.747175
 21
294.4345
 31
0.0
  0
LINE
  5
AD
330
1F
100
AcDbEntity
  8
SLD-0
100
AcDbLine
 10
51.747175
 20
294.4345
 30
0.0
 11
49.566175
 21
294.4345
 31
0.0
  0
LINE
  5
AE
330
1F
100
AcDbEntity
  8
SLD-0
100
AcDbLine
 10
49.566175
 20
294.4345
 30
0.0
 11
49.566175
 21
291.1475
 31
0.0
  0
LINE
  5
AF
330
1F
100
AcDbEntity
  8
SLD-0
100
AcDbLine
 10
49.566175
 20
291.1475
 30
0.0
 11
46.000175
 21
291.1475
 31
0.0
  0
LINE
  5
B0
330
1F
100
AcDbEntity
  8
SLD-0
100
AcDbLine
 10
46.000175
 20
291.1475
 30
0.0
 11
46.000175
 21
294.4345
 31
0.0
  0
LINE
  5
B1
330
1F
100
AcDbEntity
  8
SLD-0
100
AcDbLine
 10
46.000175
 20
294.4345
 30
0.0
 11
43.809175
 21
294.4345
 31
0.0
  0
LINE
  5
B2
330
1F
100
AcDbEntity
  8
SLD-0
100
AcDbLine
 10
43.809175
 20
294.4345
 30
0.0
 11
43.809175
 21
297.2125
 31
0.0
  0
LINE
  5
B3
330
1F
100
AcDbEntity
  8
SLD-0
100
AcDbLine
 10
43.809175
 20
297.2125
 30
0.0
 11
46.000175
 21
297.2125
 31
0.0
  0
LINE
  5
B4
330
1F
100
AcDbEntity
  8
SLD-0
100
AcDbLine
 10
46.000175
 20
297.2125
 30
0.0
 11
46.000175
 21
303.2125
 31
0.0
  0
LINE
  5
B5
330
1F
100
AcDbEntity
  8
SLD-0
100
AcDbLine
 10
46.000175
 20
303.2125
 30
0.0
 11
41.428175
 21
303.2125
 31
0.0
  0
LINE
  5
B6
330
1F
100
AcDbEntity
  8
SLD-0
100
AcDbLine
 10
41.428175
 20
303.2125
 30
0.0
 11
41.428175
 21
306.3875
 31
0.0
  0
LINE
  5
B7
330
1F
100
AcDbEntity
  8
SLD-0
100
AcDbLine
 10
41.428175
 20
306.3875
 30
0.0
 11
28.728175
 21
306.3875
 31
0.0
  0
LINE
  5
B8
330
1F
100
AcDbEntity
  8
SLD-0
100
AcDbLine
 10
28.728175
 20
306.3875
 30
0.0
 11
28.728175
 21
303.2125
 31
0.0
  0
LINE
  5
B9
330
1F
100
AcDbEntity
  8
SLD-0
100
AcDbLine
 10
28.728175
 20
303.2125
 30
0.0
 11
24.156175
 21
303.2125
 31
0.0
  0
LINE
  5
BA
330
1F
100
AcDbEntity
  8
SLD-0
100
AcDbLine
 10
24.156175
 20
303.2125
 30
0.0
 11
24.156175
 21
297.2125
 31
0.0
  0
LINE
  5
BB
330
1F
100
AcDbEntity
  8
SLD-0
100
AcDbLine
 10
24.156175
 20
297.2125
 30
0.0
 11
26.347175
 21
297.2125
 31
0.0
  0
LINE
  5
BC
330
1F
100
AcDbEntity
  8
SLD-0
100
AcDbLine
 10
26.347175
 20
297.2125
 30
0.0
 11
26.347175
 21
294.4345
 31
0.0
  0
LINE
  5
BD
330
1F
100
AcDbEntity
  8
SLD-0
100
AcDbLine
 10
26.347175
 20
294.4345
 30
0.0
 11
24.166175
 21
294.4345
 31
0.0
  0
LINE
  5
BE
330
1F
100
AcDbEntity
  8
SLD-0
100
AcDbLine
 10
24.166175
 20
294.4345
 30
0.0
 11
24.166175
 21
291.1475
 31
0.0
  0
LINE
  5
BF
330
1F
100
AcDbEntity
  8
SLD-0
100
AcDbLine
 10
24.166175
 20
291.1475
 30
0.0
 11
20.600175
 21
291.1475
 31
0.0
  0
LINE
  5
C0
330
1F
100
AcDbEntity
  8
SLD-0
100
AcDbLine
 10
20.600175
 20
291.1475
 30
0.0
 11
20.600175
 21
294.4345
 31
0.0
  0
LINE
  5
C1
330
1F
100
AcDbEntity
  8
SLD-0
100
AcDbLine
 10
20.600175
 20
294.4345
 30
0.0
 11
18.409175
 21
294.4345
 31
0.0
  0
LINE
  5
C2
330
1F
100
AcDbEntity
  8
SLD-0
100
AcDbLine
 10
18.409175
 20
294.4345
 30
0.0
 11
18.409175
 21
297.2125
 31
0.0
  0
LINE
  5
C3
330
1F
100
AcDbEntity
  8
SLD-0
100
AcDbLine
 10
18.409175
 20
297.2125
 30
0.0
 11
20.600175
 21
297.2125
 31
0.0
  0
LINE
  5
C4
330
1F
100
AcDbEntity
  8
SLD-0
100
AcDbLine
 10
20.600175
 20
297.2125
 30
0.0
 11
20.600175
 21
303.2125
 31
0.0
  0
LINE
  5
C5
330
1F
100
AcDbEntity
  8
SLD-0
100
AcDbLine
 10
20.600175
 20
303.2125
 30
0.0
 11
16.028175
 21
303.2125
 31
0.0
  0
LINE
  5
C6
330
1F
100
AcDbEntity
  8
SLD-0
100
AcDbLine
 10
16.028175
 20
303.2125
 30
0.0
 11
16.028175
 21
306.3875
 31
0.0
  0
LINE
  5
C7
330
1F
100
AcDbEntity
  8
SLD-0
100
AcDbLine
 10
16.028175
 20
306.3875
 30
0.0
 11
3.328175
 21
306.3875
 31
0.0
  0
LINE
  5
C8
330
1F
100
AcDbEntity
  8
SLD-0
100
AcDbLine
 10
3.328175
 20
306.3875
 30
0.0
 11
3.328175
 21
303.2125
 31
0.0
  0
LINE
  5
C9
330
1F
100
AcDbEntity
  8
SLD-0
100
AcDbLine
 10
3.328175
 20
303.2125
 30
0.0
 11
-1.243825
 21
303.2125
 31
0.0
  0
LINE
  5
CA
330
1F
100
AcDbEntity
  8
SLD-0
100
AcDbLine
 10
-1.243825
 20
303.2125
 30
0.0
 11
-1.243825
 21
297.2125
 31
0.0
  0
LINE
  5
CB
330
1F
100
AcDbEntity
  8
SLD-0
100
AcDbLine
 10
-1.243825
 20
297.2125
 30
0.0
 11
0.947175
 21
297.2125
 31
0.0
  0
LINE
  5
CC
330
1F
100
AcDbEntity
  8
SLD-0
100
AcDbLine
 10
0.947175
 20
297.2125
 30
0.0
 11
0.947175
 21
294.4345
 31
0.0
  0
LINE
  5
CD
330
1F
100
AcDbEntity
  8
SLD-0
100
AcDbLine
 10
0.947175
 20
294.4345
 30
0.0
 11
-1.233825
 21
294.4345
 31
0.0
  0
LINE
  5
CE
330
1F
100
AcDbEntity
  8
SLD-0
100
AcDbLine
 10
-1.233825
 20
294.4345
 30
0.0
 11
-1.233825
 21
291.1475
 31
0.0
  0
LINE
  5
CF
330
1F
100
AcDbEntity
  8
SLD-0
100
AcDbLine
 10
-1.233825
 20
291.1475
 30
0.0
 11
-4.799825
 21
291.1475
 31
0.0
  0
LINE
  5
D0
330
1F
100
AcDbEntity
  8
SLD-0
100
AcDbLine
 10
-4.799825
 20
291.1475
 30
0.0
 11
-4.799825
 21
294.4345
 31
0.0
  0
LINE
  5
D1
330
1F
100
AcDbEntity
  8
SLD-0
100
AcDbLine
 10
-4.799825
 20
294.4345
 30
0.0
 11
-6.990825
 21
294.4345
 31
0.0
  0
LINE
  5
D2
330
1F
100
AcDbEntity
  8
SLD-0
100
AcDbLine
 10
-6.990825
 20
294.4345
 30
0.0
 11
-6.990825
 21
297.2125
 31
0.0
  0
LINE
  5
D3
330
1F
100
AcDbEntity
  8
SLD-0
100
AcDbLine
 10
-6.990825
 20
297.2125
 30
0.0
 11
-4.799825
 21
297.2125
 31
0.0
  0
LINE
  5
D4
330
1F
100
AcDbEntity
  8
SLD-0
100
AcDbLine
 10
-4.799825
 20
297.2125
 30
0.0
 11
-4.799825
 21
303.2125
 31
0.0
  0
LINE
  5
D5
330
1F
100
AcDbEntity
  8
SLD-0
100
AcDbLine
 10
-4.799825
 20
303.2125
 30
0.0
 11
-9.371825
 21
303.2125
 31
0.0
  0
LINE
  5
D6
330
1F
100
AcDbEntity
  8
SLD-0
100
AcDbLine
 10
-9.371825
 20
303.2125
 30
0.0
 11
-9.371825
 21
306.3875
 31
0.0
  0
LINE
  5
D7
330
1F
100
AcDbEntity
  8
SLD-0
100
AcDbLine
 10
-9.371825
 20
306.3875
 30
0.0
 11
-22.071825
 21
306.3875
 31
0.0
  0
LINE
  5
D8
330
1F
100
AcDbEntity
  8
SLD-0
100
AcDbLine
 10
-22.071825
 20
306.3875
 30
0.0
 11
-22.071825
 21
303.2125
 31
0.0
  0
LINE
  5
D9
330
1F
100
AcDbEntity
  8
SLD-0
100
AcDbLine
 10
-22.071825
 20
303.2125
 30
0.0
 11
-26.643825
 21
303.2125
 31
0.0
  0
LINE
  5
DA
330
1F
100
AcDbEntity
  8
SLD-0
100
AcDbLine
 10
-26.643825
 20
303.2125
 30
0.0
 11
-26.643825
 21
297.2125
 31
0.0
  0
LINE
  5
DB
330
1F
100
AcDbEntity
  8
SLD-0
100
AcDbLine
 10
-26.643825
 20
297.2125
 30
0.0
 11
-24.452825
 21
297.2125
 31
0.0
  0
LINE
  5
DC
330
1F
100
AcDbEntity
  8
SLD-0
100
AcDbLine
 10
-24.452825
 20
297.2125
 30
0.0
 11
-24.452825
 21
294.4345
 31
0.0
  0
LINE
  5
DD
330
1F
100
AcDbEntity
  8
SLD-0
100
AcDbLine
 10
-24.452825
 20
294.4345
 30
0.0
 11
-26.633825
 21
294.4345
 31
0.0
  0
LINE
  5
DE
330
1F
100
AcDbEntity
  8
SLD-0
100
AcDbLine
 10
-26.633825
 20
294.4345
 30
0.0
 11
-26.633825
 21
291.1475
 31
0.0
  0
LINE
  5
DF
330
1F
100
AcDbEntity
  8
SLD-0
100
AcDbLine
 10
-26.633825
 20
291.1475
 30
0.0
 11
-30.199825
 21
291.1475
 31
0.0
  0
LINE
  5
E0
330
1F
100
AcDbEntity
  8
SLD-0
100
AcDbLine
 10
-30.199825
 20
291.1475
 30
0.0
 11
-30.199825
 21
294.4345
 31
0.0
  0
LINE
  5
E1
330
1F
100
AcDbEntity
  8
SLD-0
100
AcDbLine
 10
-30.199825
 20
294.4345
 30
0.0
 11
-32.390825
 21
294.4345
 31
0.0
  0
LINE
  5
E2
330
1F
100
AcDbEntity
  8
SLD-0
100
AcDbLine
 10
-32.390825
 20
294.4345
 30
0.0
 11
-32.390825
 21
297.2125
 31
0.0
  0
LINE
  5
E3
330
1F
100
AcDbEntity
  8
SLD-0
100
AcDbLine
 10
-32.390825
 20
297.2125
 30
0.0
 11
-30.199825
 21
297.2125
 31
0.0
  0
LINE
  5
E4
330
1F
100
AcDbEntity
  8
SLD-0
100
AcDbLine
 10
-30.199825
 20
297.2125
 30
0.0
 11
-30.199825
 21
303.2125
 31
0.0
  0
LINE
  5
E5
330
1F
100
AcDbEntity
  8
SLD-0
100
AcDbLine
 10
-30.199825
 20
303.2125
 30
0.0
 11
-34.771825
 21
303.2125
 31
0.0
  0
LINE
  5
E6
330
1F
100
AcDbEntity
  8
SLD-0
100
AcDbLine
 10
-34.771825
 20
303.2125
 30
0.0
 11
-34.771825
 21
306.3875
 31
0.0
  0
LINE
  5
E7
330
1F
100
AcDbEntity
  8
SLD-0
100
AcDbLine
 10
-34.771825
 20
306.3875
 30
0.0
 11
-47.471825
 21
306.3875
 31
0.0
  0
LINE
  5
E8
330
1F
100
AcDbEntity
  8
SLD-0
100
AcDbLine
 10
-47.471825
 20
306.3875
 30
0.0
 11
-47.471825
 21
303.2125
 31
0.0
  0
LINE
  5
E9
330
1F
100
AcDbEntity
  8
SLD-0
100
AcDbLine
 10
-47.471825
 20
303.2125
 30
0.0
 11
-52.043825
 21
303.2125
 31
0.0
  0
LINE
  5
EA
330
1F
100
AcDbEntity
  8
SLD-0
100
AcDbLine
 10
-52.043825
 20
303.2125
 30
0.0
 11
-52.043825
 21
297.2125
 31
0.0
  0
LINE
  5
EB
330
1F
100
AcDbEntity
  8
SLD-0
100
AcDbLine
 10
-52.043825
 20
297.2125
 30
0.0
 11
-49.852825
 21
297.2125
 31
0.0
  0
LINE
  5
EC
330
1F
100
AcDbEntity
  8
SLD-0
100
AcDbLine
 10
-49.852825
 20
297.2125
 30
0.0
 11
-49.852825
 21
294.4345
 31
0.0
  0
LINE
  5
ED
330
1F
100
AcDbEntity
  8
SLD-0
100
AcDbLine
 10
-49.852825
 20
294.4345
 30
0.0
 11
-52.033825
 21
294.4345
 31
0.0
  0
LINE
  5
EE
330
1F
100
AcDbEntity
  8
SLD-0
100
AcDbLine
 10
-52.033825
 20
294.4345
 30
0.0
 11
-52.033825
 21
291.1475
 31
0.0
  0
LINE
  5
EF
330
1F
100
AcDbEntity
  8
SLD-0
100
AcDbLine
 10
-52.033825
 20
291.1475
 30
0.0
 11
-55.599825
 21
291.1475
 31
0.0
  0
LINE
  5
F0
330
1F
100
AcDbEntity
  8
SLD-0
100
AcDbLine
 10
-55.599825
 20
291.1475
 30
0.0
 11
-55.599825
 21
294.4345
 31
0.0
  0
LINE
  5
F1
330
1F
100
AcDbEntity
  8
SLD-0
100
AcDbLine
 10
-55.599825
 20
294.4345
 30
0.0
 11
-57.790825
 21
294.4345
 31
0.0
  0
LINE
  5
F2
330
1F
100
AcDbEntity
  8
SLD-0
100
AcDbLine
 10
-57.790825
 20
294.4345
 30
0.0
 11
-57.790825
 21
297.2125
 31
0.0
  0
LINE
  5
F3
330
1F
100
AcDbEntity
  8
SLD-0
100
AcDbLine
 10
-57.790825
 20
297.2125
 30
0.0
 11
-55.599825
 21
297.2125
 31
0.0
  0
LINE
  5
F4
330
1F
100
AcDbEntity
  8
SLD-0
100
AcDbLine
 10
-55.599825
 20
297.2125
 30
0.0
 11
-55.599825
 21
303.2125
 31
0.0
  0
LINE
  5
F5
330
1F
100
AcDbEntity
  8
SLD-0
100
AcDbLine
 10
-55.599825
 20
303.2125
 30
0.0
 11
-60.171825
 21
303.2125
 31
0.0
  0
LINE
  5
F6
330
1F
100
AcDbEntity
  8
SLD-0
100
AcDbLine
 10
-60.171825
 20
303.2125
 30
0.0
 11
-60.171825
 21
306.3875
 31
0.0
  0
LINE
  5
F7
330
1F
100
AcDbEntity
  8
SLD-0
100
AcDbLine
 10
-60.171825
 20
306.3875
 30
0.0
 11
-69.996825
 21
306.3875
 31
0.0
  0
LINE
  5
F8
330
1F
100
AcDbEntity
  8
SLD-0
100
AcDbLine
 10
-69.996825
 20
306.3875
 30
0.0
 11
-69.996825
 21
268.2875
 31
0.0
  0
LINE
  5
F9
330
1F
100
AcDbEntity
  8
SLD-0
100
AcDbLine
 10
-69.996825
 20
268.2875
 30
0.0
 11
-66.821825
 21
268.2875
 31
0.0
  0
LINE
  5
FA
330
1F
100
AcDbEntity
  8
SLD-0
100
AcDbLine
 10
-66.821825
 20
268.2875
 30
0.0
 11
-66.821825
 21
263.7155
 31
0.0
  0
LINE
  5
FB
330
1F
100
AcDbEntity
  8
SLD-0
100
AcDbLine
 10
-66.821825
 20
263.7155
 30
0.0
 11
-60.821825
 21
263.7155
 31
0.0
  0
LINE
  5
FC
330
1F
100
AcDbEntity
  8
SLD-0
100
AcDbLine
 10
-60.821825
 20
263.7155
 30
0.0
 11
-60.8218249999
 21
265.9065
 31
0.0
  0
LINE
  5
FD
330
1F
100
AcDbEntity
  8
SLD-0
100
AcDbLine
 10
-60.8218249999
 20
265.9065
 30
0.0
 11
-58.0438249999
 21
265.9065
 31
0.0
  0
LINE
  5
FE
330
1F
100
AcDbEntity
  8
SLD-0
100
AcDbLine
 10
-58.0438249999
 20
265.9065
 30
0.0
 11
-58.0438249999
 21
263.7155
 31
0.0
  0
LINE
  5
FF
330
1F
100
AcDbEntity
  8
SLD-0
100
AcDbLine
 10
-58.0438249999
 20
263.7155
 30
0.0
 11
-54.756825
 21
263.7155
 31
0.0
  0
LINE
  5
100
330
1F
100
AcDbEntity
  8
SLD-0
100
AcDbLine
 10
-54.756825
 20
263.7155
 30
0.0
 11
-54.756825
 21
260.1495
 31
0.0
  0
LINE
  5
101
330
1F
100
AcDbEntity
  8
SLD-0
100
AcDbLine
 10
-54.756825
 20
260.1495
 30
0.0
 11
-58.0438249999
 21
260.1495
 31
0.0
  0
LINE
  5
102
330
1F
100
AcDbEntity
  8
SLD-0
100
AcDbLine
 10
-58.0438249999
 20
260.1495
 30
0.0
 11
-58.0438249999
 21
257.9685
 31
0.0
  0
LINE
  5
103
330
1F
100
AcDbEntity
  8
SLD-0
100
AcDbLine
 10
-58.0438249999
 20
257.9685
 30
0.0
 11
-60.8218249999
 21
257.9685
 31
0.0
  0
LINE
  5
104
330
1F
100
AcDbEntity
  8
SLD-0
100
AcDbLine
 10
-60.8218249999
 20
257.9685
 30
0.0
 11
-60.821825
 21
260.1595
 31
0.0
  0
LINE
  5
105
330
1F
100
AcDbEntity
  8
SLD-0
100
AcDbLine
 10
-60.821825
 20
260.1595
 30
0.0
 11
-66.821825
 21
260.1595
 31
0.0
  0
LINE
  5
106
330
1F
100
AcDbEntity
  8
SLD-0
100
AcDbLine
 10
-66.821825
 20
260.1595
 30
0.0
 11
-66.821825
 21
255.5875
 31
0.0
  0
LINE
  5
107
330
1F
100
AcDbEntity
  8
SLD-0
100
AcDbLine
 10
-66.821825
 20
255.5875
 30
0.0
 11
-69.996825
 21
255.5875
 31
0.0
  0
LINE
  5
108
330
1F
100
AcDbEntity
  8
SLD-0
100
AcDbLine
 10
-69.996825
 20
255.5875
 30
0.0
 11
-69.996825
 21
242.8875
 31
0.0
  0
LINE
  5
109
330
1F
100
AcDbEntity
  8
SLD-0
100
AcDbLine
 10
-69.996825
 20
242.8875
 30
0.0
 11
-66.821825
 21
242.8875
 31
0.0
  0
LINE
  5
10A
330
1F
100
AcDbEntity
  8
SLD-0
100
AcDbLine
 10
-66.821825
 20
242.8875
 30
0.0
 11
-66.821825
 21
238.3155
 31
0.0
  0
LINE
  5
10B
330
1F
100
AcDbEntity
  8
SLD-0
100
AcDbLine
 10
-66.821825
 20
238.3155
 30
0.0
 11
-60.821825
 21
238.3155
 31
0.0
  0
LINE
  5
10C
330
1F
100
AcDbEntity
  8
SLD-0
100
AcDbLine
 10
-60.821825
 20
238.3155
 30
0.0
 11
-60.8218249999
 21
240.5065
 31
0.0
  0
LINE
  5
10D
330
1F
100
AcDbEntity
  8
SLD-0
100
AcDbLine
 10
-60.8218249999
 20
240.5065
 30
0.0
 11
-58.0438249999
 21
240.5065
 31
0.0
  0
LINE
  5
10E
330
1F
100
AcDbEntity
  8
SLD-0
100
AcDbLine
 10
-58.0438249999
 20
240.5065
 30
0.0
 11
-58.0438249999
 21
238.3155
 31
0.0
  0
LINE
  5
10F
330
1F
100
AcDbEntity
  8
SLD-0
100
AcDbLine
 10
-58.0438249999
 20
238.3155
 30
0.0
 11
-54.756825
 21
238.3155
 31
0.0
  0
LINE
  5
110
330
1F
100
AcDbEntity
  8
SLD-0
100
AcDbLine
 10
-54.756825
 20
238.3155
 30
0.0
 11
-54.756825
 21
234.7495
 31
0.0
  0
LINE
  5
111
330
1F
100
AcDbEntity
  8
SLD-0
100
AcDbLine
 10
-54.756825
 20
234.7495
 30
0.0
 11
-58.0438249999
 21
234.7495
 31
0.0
  0
LINE
  5
112
330
1F
100
AcDbEntity
  8
SLD-0
100
AcDbLine
 10
-58.0438249999
 20
234.7495
 30
0.0
 11
-58.0438249999
 21
232.5685
 31
0.0
  0
LINE
  5
113
330
1F
100
AcDbEntity
  8
SLD-0
100
AcDbLine
 10
-58.0438249999
 20
232.5685
 30
0.0
 11
-60.8218249999
 21
232.5685
 31
0.0
  0
LINE
  5
114
330
1F
100
AcDbEntity
  8
SLD-0
100
AcDbLine
 10
-60.8218249999
 20
232.5685
 30
0.0
 11
-60.821825
 21
234.7595
 31
0.0
  0
LINE
  5
115
330
1F
100
AcDbEntity
  8
SLD-0
100
AcDbLine
 10
-60.821825
 20
234.7595
 30
0.0
 11
-66.821825
 21
234.7595
 31
0.0
  0
LINE
  5
116
330
1F
100
AcDbEntity
  8
SLD-0
100
AcDbLine
 10
-66.821825
 20
234.7595
 30
0.0
 11
-66.821825
 21
230.1875
 31
0.0
  0
LINE
  5
117
330
1F
100
AcDbEntity
  8
SLD-0
100
AcDbLine
 10
-66.821825
 20
230.1875
 30
0.0
 11
-69.996825
 21
230.1875
 31
0.0
  0
LINE
  5
118
330
1F
100
AcDbEntity
  8
SLD-0
100
AcDbLine
 10
-69.996825
 20
230.1875
 30
0.0
 11
-69.996825
 21
217.4875
 31
0.0
  0
LINE
  5
119
330
1F
100
AcDbEntity
  8
SLD-0
100
AcDbLine
 10
-69.996825
 20
217.4875
 30
0.0
 11
-66.821825
 21
217.4875
 31
0.0
  0
LINE
  5
11A
330
1F
100
AcDbEntity
  8
SLD-0
100
AcDbLine
 10
-66.821825
 20
217.4875
 30
0.0
 11
-66.821825
 21
212.9155
 31
0.0
  0
LINE
  5
11B
330
1F
100
AcDbEntity
  8
SLD-0
100
AcDbLine
 10
-66.821825
 20
212.9155
 30
0.0
 11
-60.821825
 21
212.9155
 31
0.0
  0
LINE
  5
11C
330
1F
100
AcDbEntity
  8
SLD-0
100
AcDbLine
 10
-60.821825
 20
212.9155
 30
0.0
 11
-60.8218249999
 21
215.1065
 31
0.0
  0
LINE
  5
11D
330
1F
100
AcDbEntity
  8
SLD-0
100
AcDbLine
 10
-60.8218249999
 20
215.1065
 30
0.0
 11
-58.0438249999
 21
215.1065
 31
0.0
  0
LINE
  5
11E
330
1F
100
AcDbEntity
  8
SLD-0
100
AcDbLine
 10
-58.0438249999
 20
215.1065
 30
0.0
 11
-58.0438249999
 21
212.9155
 31
0.0
  0
LINE
  5
11F
330
1F
100
AcDbEntity
  8
SLD-0
100
AcDbLine
 10
-58.0438249999
 20
212.9155
 30
0.0
 11
-54.756825
 21
212.9155
 31
0.0
  0
LINE
  5
120
330
1F
100
AcDbEntity
  8
SLD-0
100
AcDbLine
 10
-54.756825
 20
212.9155
 30
0.0
 11
-54.756825
 21
209.3495
 31
0.0
  0
LINE
  5
121
330
1F
100
AcDbEntity
  8
SLD-0
100
AcDbLine
 10
-54.756825
 20
209.3495
 30
0.0
 11
-58.0438249999
 21
209.3495
 31
0.0
  0
LINE
  5
122
330
1F
100
AcDbEntity
  8
SLD-0
100
AcDbLine
 10
-58.0438249999
 20
209.3495
 30
0.0
 11
-58.0438249999
 21
207.1685
 31
0.0
  0
LINE
  5
123
330
1F
100
AcDbEntity
  8
SLD-0
100
AcDbLine
 10
-58.0438249999
 20
207.1685
 30
0.0
 11
-60.8218249999
 21
207.1685
 31
0.0
  0
LINE
  5
124
330
1F
100
AcDbEntity
  8
SLD-0
100
AcDbLine
 10
-60.8218249999
 20
207.1685
 30
0.0
 11
-60.821825
 21
209.3595
 31
0.0
  0
LINE
  5
125
330
1F
100
AcDbEntity
  8
SLD-0
100
AcDbLine
 10
-60.821825
 20
209.3595
 30
0.0
 11
-66.821825
 21
209.3595
 31
0.0
  0
LINE
  5
126
330
1F
100
AcDbEntity
  8
SLD-0
100
AcDbLine
 10
-66.821825
 20
209.3595
 30
0.0
 11
-66.821825
 21
204.7875
 31
0.0
  0
LINE
  5
127
330
1F
100
AcDbEntity
  8
SLD-0
100
AcDbLine
 10
-66.821825
 20
204.7875
 30
0.0
 11
-69.996825
 21
204.7875
 31
0.0
  0
LINE
  5
128
330
1F
100
AcDbEntity
  8
SLD-0
100
AcDbLine
 10
-69.996825
 20
204.7875
 30
0.0
 11
-69.996825
 21
192.0875
 31
0.0
  0
LINE
  5
129
330
1F
100
AcDbEntity
  8
SLD-0
100
AcDbLine
 10
-69.996825
 20
192.0875
 30
0.0
 11
-66.821825
 21
192.0875
 31
0.0
  0
LINE
  5
12A
330
1F
100
AcDbEntity
  8
SLD-0
100
AcDbLine
 10
-66.821825
 20
192.0875
 30
0.0
 11
-66.821825
 21
187.5155
 31
0.0
  0
LINE
  5
12B
330
1F
100
AcDbEntity
  8
SLD-0
100
AcDbLine
 10
-66.821825
 20
187.5155
 30
0.0
 11
-60.821825
 21
187.5155
 31
0.0
  0
LINE
  5
12C
330
1F
100
AcDbEntity
  8
SLD-0
100
AcDbLine
 10
-60.821825
 20
187.5155
 30
0.0
 11
-60.8218249999
 21
189.7065
 31
0.0
  0
LINE
  5
12D
330
1F
100
AcDbEntity
  8
SLD-0
100
AcDbLine
 10
-60.8218249999
 20
189.7065
 30
0.0
 11
-58.0438249999
 21
189.7065
 31
0.0
  0
LINE
  5
12E
330
1F
100
AcDbEntity
  8
SLD-0
100
AcDbLine
 10
-58.0438249999
 20
189.7065
 30
0.0
 11
-58.0438249999
 21
187.5155
 31
0.0
  0
LINE
  5
12F
330
1F
100
AcDbEntity
  8
SLD-0
100
AcDbLine
 10
-58.0438249999
 20
187.5155
 30
0.0
 11
-54.756825
 21
187.5155
 31
0.0
  0
LINE
  5
130
330
1F
100
AcDbEntity
  8
SLD-0
100
AcDbLine
 10
-54.756825
 20
187.5155
 30
0.0
 11
-54.756825
 21
183.9495
 31
0.0
  0
LINE
  5
131
330
1F
100
AcDbEntity
  8
SLD-0
100
AcDbLine
 10
-54.756825
 20
183.9495
 30
0.0
 11
-58.0438249999
 21
183.9495
 31
0.0
  0
LINE
  5
132
330
1F
100
AcDbEntity
  8
SLD-0
100
AcDbLine
 10
-58.0438249999
 20
183.9495
 30
0.0
 11
-58.0438249999
 21
181.7685
 31
0.0
  0
LINE
  5
133
330
1F
100
AcDbEntity
  8
SLD-0
100
AcDbLine
 10
-58.0438249999
 20
181.7685
 30
0.0
 11
-60.8218249999
 21
181.7685
 31
0.0
  0
LINE
  5
134
330
1F
100
AcDbEntity
  8
SLD-0
100
AcDbLine
 10
-60.8218249999
 20
181.7685
 30
0.0
 11
-60.821825
 21
183.9595
 31
0.0
  0
LINE
  5
135
330
1F
100
AcDbEntity
  8
SLD-0
100
AcDbLine
 10
-60.821825
 20
183.9595
 30
0.0
 11
-66.821825
 21
183.9595
 31
0.0
  0
LINE
  5
136
330
1F
100
AcDbEntity
  8
SLD-0
100
AcDbLine
 10
-66.821825
 20
183.9595
 30
0.0
 11
-66.821825
 21
179.3875
 31
0.0
  0
LINE
  5
137
330
1F
100
AcDbEntity
  8
SLD-0
100
AcDbLine
 10
-66.821825
 20
179.3875
 30
0.0
 11
-69.996825
 21
179.3875
 31
0.0
  0
LINE
  5
138
330
1F
100
AcDbEntity
  8
SLD-0
100
AcDbLine
 10
-69.996825
 20
179.3875
 30
0.0
 11
-69.996825
 21
166.6875
 31
0.0
  0
LINE
  5
139
330
1F
100
AcDbEntity
  8
SLD-0
100
AcDbLine
 10
-69.996825
 20
166.6875
 30
0.0
 11
-66.821825
 21
166.6875
 31
0.0
  0
LINE
  5
13A
330
1F
100
AcDbEntity
  8
SLD-0
100
AcDbLine
 10
-66.821825
 20
166.6875
 30
0.0
 11
-66.821825
 21
162.1155
 31
0.0
  0
LINE
  5
13B
330
1F
100
AcDbEntity
  8
SLD-0
100
AcDbLine
 10
-66.821825
 20
162.1155
 30
0.0
 11
-60.821825
 21
162.1155
 31
0.0
  0
LINE
  5
13C
330
1F
100
AcDbEntity
  8
SLD-0
100
AcDbLine
 10
-60.821825
 20
162.1155
 30
0.0
 11
-60.8218249999
 21
164.3065
 31
0.0
  0
LINE
  5
13D
330
1F
100
AcDbEntity
  8
SLD-0
100
AcDbLine
 10
-60.8218249999
 20
164.3065
 30
0.0
 11
-58.0438249999
 21
164.3065
 31
0.0
  0
LINE
  5
13E
330
1F
100
AcDbEntity
  8
SLD-0
100
AcDbLine
 10
-58.0438249999
 20
164.3065
 30
0.0
 11
-58.0438249999
 21
162.1155
 31
0.0
  0
LINE
  5
13F
330
1F
100
AcDbEntity
  8
SLD-0
100
AcDbLine
 10
-58.0438249999
 20
162.1155
 30
0.0
 11
-54.756825
 21
162.1155
 31
0.0
  0
LINE
  5
140
330
1F
100
AcDbEntity
  8
SLD-0
100
AcDbLine
 10
-54.756825
 20
162.1155
 30
0.0
 11
-54.756825
 21
158.5495
 31
0.0
  0
LINE
  5
141
330
1F
100
AcDbEntity
  8
SLD-0
100
AcDbLine
 10
-54.756825
 20
158.5495
 30
0.0
 11
-58.0438249999
 21
158.5495
 31
0.0
  0
LINE
  5
142
330
1F
100
AcDbEntity
  8
SLD-0
100
AcDbLine
 10
-58.0438249999
 20
158.5495
 30
0.0
 11
-58.0438249999
 21
156.3685
 31
0.0
  0
LINE
  5
143
330
1F
100
AcDbEntity
  8
SLD-0
100
AcDbLine
 10
-58.0438249999
 20
156.3685
 30
0.0
 11
-60.8218249999
 21
156.3685
 31
0.0
  0
LINE
  5
144
330
1F
100
AcDbEntity
  8
SLD-0
100
AcDbLine
 10
-60.8218249999
 20
156.3685
 30
0.0
 11
-60.821825
 21
158.5595
 31
0.0
  0
LINE
  5
145
330
1F
100
AcDbEntity
  8
SLD-0
100
AcDbLine
 10
-60.821825
 20
158.5595
 30
0.0
 11
-66.821825
 21
158.5595
 31
0.0
  0
LINE
  5
146
330
1F
100
AcDbEntity
  8
SLD-0
100
AcDbLine
 10
-66.821825
 20
158.5595
 30
0.0
 11
-66.821825
 21
153.9875
 31
0.0
  0
LINE
  5
147
330
1F
100
AcDbEntity
  8
SLD-0
100
AcDbLine
 10
-66.821825
 20
153.9875
 30
0.0
 11
-69.996825
 21
153.9875
 31
0.0
  0
LINE
  5
148
330
1F
100
AcDbEntity
  8
SLD-0
100
AcDbLine
 10
-69.996825
 20
153.9875
 30
0.0
 11
-69.996825
 21
141.2875
 31
0.0
  0
LINE
  5
149
330
1F
100
AcDbEntity
  8
SLD-0
100
AcDbLine
 10
-69.996825
 20
141.2875
 30
0.0
 11
-66.821825
 21
141.2875
 31
0.0
  0
LINE
  5
14A
330
1F
100
AcDbEntity
  8
SLD-0
100
AcDbLine
 10
-66.821825
 20
141.2875
 30
0.0
 11
-66.821825
 21
136.7155
 31
0.0
  0
LINE
  5
14B
330
1F
100
AcDbEntity
  8
SLD-0
100
AcDbLine
 10
-66.821825
 20
136.7155
 30
0.0
 11
-60.821825
 21
136.7155
 31
0.0
  0
LINE
  5
14C
330
1F
100
AcDbEntity
  8
SLD-0
100
AcDbLine
 10
-60.821825
 20
136.7155
 30
0.0
 11
-60.8218249999
 21
138.9065
 31
0.0
  0
LINE
  5
14D
330
1F
100
AcDbEntity
  8
SLD-0
100
AcDbLine
 10
-60.8218249999
 20
138.9065
 30
0.0
 11
-58.0438249999
 21
138.9065
 31
0.0
  0
LINE
  5
14E
330
1F
100
AcDbEntity
  8
SLD-0
100
AcDbLine
 10
-58.0438249999
 20
138.9065
 30
0.0
 11
-58.0438249999
 21
136.7155
 31
0.0
  0
LINE
  5
14F
330
1F
100
AcDbEntity
  8
SLD-0
100
AcDbLine
 10
-58.0438249999
 20
136.7155
 30
0.0
 11
-54.756825
 21
136.7155
 31
0.0
  0
LINE
  5
150
330
1F
100
AcDbEntity
  8
SLD-0
100
AcDbLine
 10
-54.756825
 20
136.7155
 30
0.0
 11
-54.756825
 21
133.1495
 31
0.0
  0
LINE
  5
151
330
1F
100
AcDbEntity
  8
SLD-0
100
AcDbLine
 10
-54.756825
 20
133.1495
 30
0.0
 11
-58.0438249999
 21
133.1495
 31
0.0
  0
LINE
  5
152
330
1F
100
AcDbEntity
  8
SLD-0
100
AcDbLine
 10
-58.0438249999
 20
133.1495
 30
0.0
 11
-58.0438249999
 21
130.9685
 31
0.0
  0
LINE
  5
153
330
1F
100
AcDbEntity
  8
SLD-0
100
AcDbLine
 10
-58.0438249999
 20
130.9685
 30
0.0
 11
-60.8218249999
 21
130.9685
 31
0.0
  0
LINE
  5
154
330
1F
100
AcDbEntity
  8
SLD-0
100
AcDbLine
 10
-60.8218249999
 20
130.9685
 30
0.0
 11
-60.821825
 21
133.1595
 31
0.0
  0
LINE
  5
155
330
1F
100
AcDbEntity
  8
SLD-0
100
AcDbLine
 10
-60.821825
 20
133.1595
 30
0.0
 11
-66.821825
 21
133.1595
 31
0.0
  0
LINE
  5
156
330
1F
100
AcDbEntity
  8
SLD-0
100
AcDbLine
 10
-66.821825
 20
133.1595
 30
0.0
 11
-66.821825
 21
128.5875
 31
0.0
  0
LINE
  5
157
330
1F
100
AcDbEntity
  8
SLD-0
100
AcDbLine
 10
-66.821825
 20
128.5875
 30
0.0
 11
-69.996825
 21
128.5875
 31
0.0
  0
LINE
  5
158
330
1F
100
AcDbEntity
  8
SLD-0
100
AcDbLine
 10
-69.996825
 20
128.5875
 30
0.0
 11
-69.996825
 21
115.8875
 31
0.0
  0
LINE
  5
159
330
1F
100
AcDbEntity
  8
SLD-0
100
AcDbLine
 10
-69.996825
 20
115.8875
 30
0.0
 11
-66.821825
 21
115.8875
 31
0.0
  0
LINE
  5
15A
330
1F
100
AcDbEntity
  8
SLD-0
100
AcDbLine
 10
-66.821825
 20
115.8875
 30
0.0
 11
-66.821825
 21
111.3155
 31
0.0
  0
LINE
  5
15B
330
1F
100
AcDbEntity
  8
SLD-0
100
AcDbLine
 10
-66.821825
 20
111.3155
 30
0.0
 11
-60.821825
 21
111.3155
 31
0.0
  0
LINE
  5
15C
330
1F
100
AcDbEntity
  8
SLD-0
100
AcDbLine
 10
-60.821825
 20
111.3155
 30
0.0
 11
-60.8218249999
 21
113.5065
 31
0.0
  0
LINE
  5
15D
330
1F
100
AcDbEntity
  8
SLD-0
100
AcDbLine
 10
-60.8218249999
 20
113.5065
 30
0.0
 11
-58.0438249999
 21
113.5065
 31
0.0
  0
LINE
  5
15E
330
1F
100
AcDbEntity
  8
SLD-0
100
AcDbLine
 10
-58.0438249999
 20
113.5065
 30
0.0
 11
-58.0438249999
 21
111.3155
 31
0.0
  0
LINE
  5
15F
330
1F
100
AcDbEntity
  8
SLD-0
100
AcDbLine
 10
-58.0438249999
 20
111.3155
 30
0.0
 11
-54.756825
 21
111.3155
 31
0.0
  0
LINE
  5
160
330
1F
100
AcDbEntity
  8
SLD-0
100
AcDbLine
 10
-54.756825
 20
111.3155
 30
0.0
 11
-54.756825
 21
107.7495
 31
0.0
  0
LINE
  5
161
330
1F
100
AcDbEntity
  8
SLD-0
100
AcDbLine
 10
-54.756825
 20
107.7495
 30
0.0
 11
-58.0438249999
 21
107.7495
 31
0.0
  0
LINE
  5
162
330
1F
100
AcDbEntity
  8
SLD-0
100
AcDbLine
 10
-58.0438249999
 20
107.7495
 30
0.0
 11
-58.0438249999
 21
105.5685
 31
0.0
  0
LINE
  5
163
330
1F
100
AcDbEntity
  8
SLD-0
100
AcDbLine
 10
-58.0438249999
 20
105.5685
 30
0.0
 11
-60.8218249999
 21
105.5685
 31
0.0
  0
LINE
  5
164
330
1F
100
AcDbEntity
  8
SLD-0
100
AcDbLine
 10
-60.8218249999
 20
105.5685
 30
0.0
 11
-60.821825
 21
107.7595
 31
0.0
  0
LINE
  5
165
330
1F
100
AcDbEntity
  8
SLD-0
100
AcDbLine
 10
-60.821825
 20
107.7595
 30
0.0
 11
-66.821825
 21
107.7595
 31
0.0
  0
LINE
  5
166
330
1F
100
AcDbEntity
  8
SLD-0
100
AcDbLine
 10
-66.821825
 20
107.7595
 30
0.0
 11
-66.821825
 21
103.1875
 31
0.0
  0
LINE
  5
167
330
1F
100
AcDbEntity
  8
SLD-0
100
AcDbLine
 10
-66.821825
 20
103.1875
 30
0.0
 11
-69.996825
 21
103.1875
 31
0.0
  0
LINE
  5
168
330
1F
100
AcDbEntity
  8
SLD-0
100
AcDbLine
 10
-69.996825
 20
103.1875
 30
0.0
 11
-69.996825
 21
90.4875
 31
0.0
  0
LINE
  5
169
330
1F
100
AcDbEntity
  8
SLD-0
100
AcDbLine
 10
-69.996825
 20
90.4875
 30
0.0
 11
-66.821825
 21
90.4875
 31
0.0
  0
LINE
  5
16A
330
1F
100
AcDbEntity
  8
SLD-0
100
AcDbLine
 10
-66.821825
 20
90.4875
 30
0.0
 11
-66.821825
 21
85.9155
 31
0.0
  0
LINE
  5
16B
330
1F
100
AcDbEntity
  8
SLD-0
100
AcDbLine
 10
-66.821825
 20
85.9155
 30
0.0
 11
-60.821825
 21
85.9155
 31
0.0
  0
LINE
  5
16C
330
1F
100
AcDbEntity
  8
SLD-0
100
AcDbLine
 10
-60.821825
 20
85.9155
 30
0.0
 11
-60.8218249999
 21
88.1065
 31
0.0
  0
LINE
  5
16D
330
1F
100
AcDbEntity
  8
SLD-0
100
AcDbLine
 10
-60.8218249999
 20
88.1065
 30
0.0
 11
-58.0438249999
 21
88.1065
 31
0.0
  0
LINE
  5
16E
330
1F
100
AcDbEntity
  8
SLD-0
100
AcDbLine
 10
-58.0438249999
 20
88.1065
 30
0.0
 11
-58.0438249999
 21
85.9155
 31
0.0
  0
LINE
  5
16F
330
1F
100
AcDbEntity
  8
SLD-0
100
AcDbLine
 10
-58.0438249999
 20
85.9155
 30
0.0
 11
-54.756825
 21
85.9155
 31
0.0
  0
LINE
  5
170
330
1F
100
AcDbEntity
  8
SLD-0
100
AcDbLine
 10
-54.756825
 20
85.9155
 30
0.0
 11
-54.756825
 21
82.3495
 31
0.0
  0
LINE
  5
171
330
1F
100
AcDbEntity
  8
SLD-0
100
AcDbLine
 10
-54.756825
 20
82.3495
 30
0.0
 11
-58.0438249999
 21
82.3495
 31
0.0
  0
LINE
  5
172
330
1F
100
AcDbEntity
  8
SLD-0
100
AcDbLine
 10
-58.0438249999
 20
82.3495
 30
0.0
 11
-58.0438249999
 21
80.1685
 31
0.0
  0
LINE
  5
173
330
1F
100
AcDbEntity
  8
SLD-0
100
AcDbLine
 10
-58.0438249999
 20
80.1685
 30
0.0
 11
-60.8218249999
 21
80.1685
 31
0.0
  0
LINE
  5
174
330
1F
100
AcDbEntity
  8
SLD-0
100
AcDbLine
 10
-60.8218249999
 20
80.1685
 30
0.0
 11
-60.821825
 21
82.3595
 31
0.0
  0
LINE
  5
175
330
1F
100
AcDbEntity
  8
SLD-0
100
AcDbLine
 10
-60.821825
 20
82.3595
 30
0.0
 11
-66.821825
 21
82.3595
 31
0.0
  0
LINE
  5
176
330
1F
100
AcDbEntity
  8
SLD-0
100
AcDbLine
 10
-66.821825
 20
82.3595
 30
0.0
 11
-66.821825
 21
77.7875
 31
0.0
  0
LINE
  5
177
330
1F
100
AcDbEntity
  8
SLD-0
100
AcDbLine
 10
-66.821825
 20
77.7875
 30
0.0
 11
-69.996825
 21
77.7875
 31
0.0
  0
LINE
  5
178
330
1F
100
AcDbEntity
  8
SLD-0
100
AcDbLine
 10
-69.996825
 20
77.7875
 30
0.0
 11
-69.996825
 21
65.0875
 31
0.0
  0
LINE
  5
179
330
1F
100
AcDbEntity
  8
SLD-0
100
AcDbLine
 10
-69.996825
 20
65.0875
 30
0.0
 11
-66.821825
 21
65.0875
 31
0.0
  0
LINE
  5
17A
330
1F
100
AcDbEntity
  8
SLD-0
100
AcDbLine
 10
-66.821825
 20
65.0875
 30
0.0
 11
-66.821825
 21
60.5155
 31
0.0
  0
LINE
  5
17B
330
1F
100
AcDbEntity
  8
SLD-0
100
AcDbLine
 10
-66.821825
 20
60.5155
 30
0.0
 11
-60.821825
 21
60.5155
 31
0.0
  0
LINE
  5
17C
330
1F
100
AcDbEntity
  8
SLD-0
100
AcDbLine
 10
-60.821825
 20
60.5155
 30
0.0
 11
-60.8218249999
 21
62.7065
 31
0.0
  0
LINE
  5
17D
330
1F
100
AcDbEntity
  8
SLD-0
100
AcDbLine
 10
-60.8218249999
 20
62.7065
 30
0.0
 11
-58.0438249999
 21
62.7065
 31
0.0
  0
LINE
  5
17E
330
1F
100
AcDbEntity
  8
SLD-0
100
AcDbLine
 10
-58.0438249999
 20
62.7065
 30
0.0
 11
-58.0438249999
 21
60.5155
 31
0.0
  0
LINE
  5
17F
330
1F
100
AcDbEntity
  8
SLD-0
100
AcDbLine
 10
-58.0438249999
 20
60.5155
 30
0.0
 11
-54.756825
 21
60.5155
 31
0.0
  0
LINE
  5
180
330
1F
100
AcDbEntity
  8
SLD-0
100
AcDbLine
 10
-54.756825
 20
60.5155
 30
0.0
 11
-54.756825
 21
56.9495
 31
0.0
  0
LINE
  5
181
330
1F
100
AcDbEntity
  8
SLD-0
100
AcDbLine
 10
-54.756825
 20
56.9495
 30
0.0
 11
-58.0438249999
 21
56.9495
 31
0.0
  0
LINE
  5
182
330
1F
100
AcDbEntity
  8
SLD-0
100
AcDbLine
 10
-58.0438249999
 20
56.9495
 30
0.0
 11
-58.0438249999
 21
54.7685
 31
0.0
  0
LINE
  5
183
330
1F
100
AcDbEntity
  8
SLD-0
100
AcDbLine
 10
-58.0438249999
 20
54.7685
 30
0.0
 11
-60.8218249999
 21
54.7685
 31
0.0
  0
LINE
  5
184
330
1F
100
AcDbEntity
  8
SLD-0
100
AcDbLine
 10
-60.8218249999
 20
54.7685
 30
0.0
 11
-60.821825
 21
56.9595
 31
0.0
  0
LINE
  5
185
330
1F
100
AcDbEntity
  8
SLD-0
100
AcDbLine
 10
-60.821825
 20
56.9595
 30
0.0
 11
-66.821825
 21
56.9595
 31
0.0
  0
LINE
  5
186
330
1F
100
AcDbEntity
  8
SLD-0
100
AcDbLine
 10
-66.821825
 20
56.9595
 30
0.0
 11
-66.821825
 21
52.3875
 31
0.0
  0
LINE
  5
187
330
1F
100
AcDbEntity
  8
SLD-0
100
AcDbLine
 10
-66.821825
 20
52.3875
 30
0.0
 11
-69.996825
 21
52.3875
 31
0.0
  0
LINE
  5
188
330
1F
100
AcDbEntity
  8
SLD-0
100
AcDbLine
 10
-69.996825
 20
52.3875
 30
0.0
 11
-69.996825
 21
39.6875
 31
0.0
  0
LINE
  5
189
330
1F
100
AcDbEntity
  8
SLD-0
100
AcDbLine
 10
-69.996825
 20
39.6875
 30
0.0
 11
-66.821825
 21
39.6875
 31
0.0
  0
LINE
  5
18A
330
1F
100
AcDbEntity
  8
SLD-0
100
AcDbLine
 10
-66.821825
 20
39.6875
 30
0.0
 11
-66.821825
 21
35.1155
 31
0.0
  0
LINE
  5
18B
330
1F
100
AcDbEntity
  8
SLD-0
100
AcDbLine
 10
-66.821825
 20
35.1155
 30
0.0
 11
-60.821825
 21
35.1155
 31
0.0
  0
LINE
  5
18C
330
1F
100
AcDbEntity
  8
SLD-0
100
AcDbLine
 10
-60.821825
 20
35.1155
 30
0.0
 11
-60.8218249999
 21
37.3065
 31
0.0
  0
LINE
  5
18D
330
1F
100
AcDbEntity
  8
SLD-0
100
AcDbLine
 10
-60.8218249999
 20
37.3065
 30
0.0
 11
-58.0438249999
 21
37.3065
 31
0.0
  0
LINE
  5
18E
330
1F
100
AcDbEntity
  8
SLD-0
100
AcDbLine
 10
-58.0438249999
 20
37.3065
 30
0.0
 11
-58.0438249999
 21
35.1155
 31
0.0
  0
LINE
  5
18F
330
1F
100
AcDbEntity
  8
SLD-0
100
AcDbLine
 10
-58.0438249999
 20
35.1155
 30
0.0
 11
-54.756825
 21
35.1155
 31
0.0
  0
LINE
  5
190
330
1F
100
AcDbEntity
  8
SLD-0
100
AcDbLine
 10
-54.756825
 20
35.1155
 30
0.0
 11
-54.756825
 21
31.5495
 31
0.0
  0
LINE
  5
191
330
1F
100
AcDbEntity
  8
SLD-0
100
AcDbLine
 10
-54.756825
 20
31.5495
 30
0.0
 11
-58.0438249999
 21
31.5495
 31
0.0
  0
LINE
  5
192
330
1F
100
AcDbEntity
  8
SLD-0
100
AcDbLine
 10
-58.0438249999
 20
31.5495
 30
0.0
 11
-58.0438249999
 21
29.3685
 31
0.0
  0
LINE
  5
193
330
1F
100
AcDbEntity
  8
SLD-0
100
AcDbLine
 10
-58.0438249999
 20
29.3685
 30
0.0
 11
-60.8218249999
 21
29.3685
 31
0.0
  0
LINE
  5
194
330
1F
100
AcDbEntity
  8
SLD-0
100
AcDbLine
 10
-60.8218249999
 20
29.3685
 30
0.0
 11
-60.821825
 21
31.5595
 31
0.0
  0
LINE
  5
195
330
1F
100
AcDbEntity
  8
SLD-0
100
AcDbLine
 10
-60.821825
 20
31.5595
 30
0.0
 11
-66.821825
 21
31.5595
 31
0.0
  0
LINE
  5
196
330
1F
100
AcDbEntity
  8
SLD-0
100
AcDbLine
 10
-66.821825
 20
31.5595
 30
0.0
 11
-66.821825
 21
26.9875
 31
0.0
  0
LINE
  5
197
330
1F
100
AcDbEntity
  8
SLD-0
100
AcDbLine
 10
-66.821825
 20
26.9875
 30
0.0
 11
-69.996825
 21
26.9875
 31
0.0
  0
LINE
  5
198
330
1F
100
AcDbEntity
  8
SLD-0
100
AcDbLine
 10
-69.996825
 20
26.9875
 30
0.0
 11
-69.996825
 21
14.2875
 31
0.0
  0
LINE
  5
199
330
1F
100
AcDbEntity
  8
SLD-0
100
AcDbLine
 10
-69.996825
 20
14.2875
 30
0.0
 11
-66.821825
 21
14.2875
 31
0.0
  0
LINE
  5
19A
330
1F
100
AcDbEntity
  8
SLD-0
100
AcDbLine
 10
-66.821825
 20
14.2875
 30
0.0
 11
-66.821825
 21
9.7155
 31
0.0
  0
LINE
  5
19B
330
1F
100
AcDbEntity
  8
SLD-0
100
AcDbLine
 10
-66.821825
 20
9.7155
 30
0.0
 11
-60.821825
 21
9.7155
 31
0.0
  0
LINE
  5
19C
330
1F
100
AcDbEntity
  8
SLD-0
100
AcDbLine
 10
-60.821825
 20
9.7155
 30
0.0
 11
-60.8218249999
 21
11.9065
 31
0.0
  0
LINE
  5
19D
330
1F
100
AcDbEntity
  8
SLD-0
100
AcDbLine
 10
-60.8218249999
 20
11.9065
 30
0.0
 11
-58.0438249999
 21
11.9065
 31
0.0
  0
LINE
  5
19E
330
1F
100
AcDbEntity
  8
SLD-0
100
AcDbLine
 10
-58.0438249999
 20
11.9065
 30
0.0
 11
-58.0438249999
 21
9.7155
 31
0.0
  0
LINE
  5
19F
330
1F
100
AcDbEntity
  8
SLD-0
100
AcDbLine
 10
-58.0438249999
 20
9.7155
 30
0.0
 11
-54.756825
 21
9.7155
 31
0.0
  0
LINE
  5
1A0
330
1F
100
AcDbEntity
  8
SLD-0
100
AcDbLine
 10
-54.756825
 20
9.7155
 30
0.0
 11
-54.756825
 21
6.1495
 31
0.0
  0
LINE
  5
1A1
330
1F
100
AcDbEntity
  8
SLD-0
100
AcDbLine
 10
-54.756825
 20
6.1495
 30
0.0
 11
-58.0438249999
 21
6.1495
 31
0.0
  0
LINE
  5
1A2
330
1F
100
AcDbEntity
  8
SLD-0
100
AcDbLine
 10
-58.0438249999
 20
6.1495
 30
0.0
 11
-58.0438249999
 21
3.9685
 31
0.0
  0
LINE
  5
1A3
330
1F
100
AcDbEntity
  8
SLD-0
100
AcDbLine
 10
-58.0438249999
 20
3.9685
 30
0.0
 11
-60.8218249999
 21
3.9685
 31
0.0
  0
LINE
  5
1A4
330
1F
100
AcDbEntity
  8
SLD-0
100
AcDbLine
 10
-60.8218249999
 20
3.9685
 30
0.0
 11
-60.821825
 21
6.1595
 31
0.0
  0
LINE
  5
1A5
330
1F
100
AcDbEntity
  8
SLD-0
100
AcDbLine
 10
-60.821825
 20
6.1595
 30
0.0
 11
-66.821825
 21
6.1595
 31
0.0
  0
LINE
  5
1A6
330
1F
100
AcDbEntity
  8
SLD-0
100
AcDbLine
 10
-66.821825
 20
6.1595
 30
0.0
 11
-66.821825
 21
1.5875
 31
0.0
  0
LINE
  5
1A7
330
1F
100
AcDbEntity
  8
SLD-0
100
AcDbLine
 10
-66.821825
 20
1.5875
 30
0.0
 11
-69.996825
 21
1.5875
 31
0.0
  0
LINE
  5
1A8
330
1F
100
AcDbEntity
  8
SLD-0
100
AcDbLine
 10
-69.996825
 20
1.5875
 30
0.0
 11
-69.996825
 21
-11.1125
 31
0.0
  0
LINE
  5
1A9
330
1F
100
AcDbEntity
  8
SLD-0
100
AcDbLine
 10
-69.996825
 20
-11.1125
 30
0.0
 11
-66.821825
 21
-11.1125
 31
0.0
  0
LINE
  5
1AA
330
1F
100
AcDbEntity
  8
SLD-0
100
AcDbLine
 10
-66.821825
 20
-11.1125
 30
0.0
 11
-66.821825
 21
-15.6845
 31
0.0
  0
LINE
  5
1AB
330
1F
100
AcDbEntity
  8
SLD-0
100
AcDbLine
 10
-66.821825
 20
-15.6845
 30
0.0
 11
-60.821825
 21
-15.6845
 31
0.0
  0
LINE
  5
1AC
330
1F
100
AcDbEntity
  8
SLD-0
100
AcDbLine
 10
-60.821825
 20
-15.6845
 30
0.0
 11
-60.8218249999
 21
-13.4935
 31
0.0
  0
LINE
  5
1AD
330
1F
100
AcDbEntity
  8
SLD-0
100
AcDbLine
 10
-60.8218249999
 20
-13.4935
 30
0.0
 11
-58.0438249999
 21
-13.4935
 31
0.0
  0
LINE
  5
1AE
330
1F
100
AcDbEntity
  8
SLD-0
100
AcDbLine
 10
-58.0438249999
 20
-13.4935
 30
0.0
 11
-58.0438249999
 21
-15.6845
 31
0.0
  0
LINE
  5
1AF
330
1F
100
AcDbEntity
  8
SLD-0
100
AcDbLine
 10
-58.0438249999
 20
-15.6845
 30
0.0
 11
-54.756825
 21
-15.6845
 31
0.0
  0
LINE
  5
1B0
330
1F
100
AcDbEntity
  8
SLD-0
100
AcDbLine
 10
-54.756825
 20
-15.6845
 30
0.0
 11
-54.756825
 21
-19.2505
 31
0.0
  0
LINE
  5
1B1
330
1F
100
AcDbEntity
  8
SLD-0
100
AcDbLine
 10
-54.756825
 20
-19.2505
 30
0.0
 11
-58.0438249999
 21
-19.2505
 31
0.0
  0
LINE
  5
1B2
330
1F
100
AcDbEntity
  8
SLD-0
100
AcDbLine
 10
-58.0438249999
 20
-19.2505
 30
0.0
 11
-58.0438249999
 21
-21.4315
 31
0.0
  0
LINE
  5
1B3
330
1F
100
AcDbEntity
  8
SLD-0
100
AcDbLine
 10
-58.0438249999
 20
-21.4315
 30
0.0
 11
-60.8218249999
 21
-21.4315
 31
0.0
  0
LINE
  5
1B4
330
1F
100
AcDbEntity
  8
SLD-0
100
AcDbLine
 10
-60.8218249999
 20
-21.4315
 30
0.0
 11
-60.821825
 21
-19.2405
 31
0.0
  0
LINE
  5
1B5
330
1F
100
AcDbEntity
  8
SLD-0
100
AcDbLine
 10
-60.821825
 20
-19.2405
 30
0.0
 11
-66.821825
 21
-19.2405
 31
0.0
  0
LINE
  5
1B6
330
1F
100
AcDbEntity
  8
SLD-0
100
AcDbLine
 10
-66.821825
 20
-19.2405
 30
0.0
 11
-66.821825
 21
-23.8125
 31
0.0
  0
LINE
  5
1B7
330
1F
100
AcDbEntity
  8
SLD-0
100
AcDbLine
 10
-66.821825
 20
-23.8125
 30
0.0
 11
-69.996825
 21
-23.8125
 31
0.0
  0
LINE
  5
1B8
330
1F
100
AcDbEntity
  8
SLD-0
100
AcDbLine
 10
-69.996825
 20
-23.8125
 30
0.0
 11
-69.996825
 21
-36.5125
 31
0.0
  0
LINE
  5
1B9
330
1F
100
AcDbEntity
  8
SLD-0
100
AcDbLine
 10
-69.996825
 20
-36.5125
 30
0.0
 11
-66.821825
 21
-36.5125
 31
0.0
  0
LINE
  5
1BA
330
1F
100
AcDbEntity
  8
SLD-0
100
AcDbLine
 10
-66.821825
 20
-36.5125
 30
0.0
 11
-66.821825
 21
-41.0845
 31
0.0
  0
LINE
  5
1BB
330
1F
100
AcDbEntity
  8
SLD-0
100
AcDbLine
 10
-66.821825
 20
-41.0845
 30
0.0
 11
-60.821825
 21
-41.0845
 31
0.0
  0
LINE
  5
1BC
330
1F
100
AcDbEntity
  8
SLD-0
100
AcDbLine
 10
-60.821825
 20
-41.0845
 30
0.0
 11
-60.8218249999
 21
-38.8935
 31
0.0
  0
LINE
  5
1BD
330
1F
100
AcDbEntity
  8
SLD-0
100
AcDbLine
 10
-60.8218249999
 20
-38.8935
 30
0.0
 11
-58.0438249999
 21
-38.8935
 31
0.0
  0
LINE
  5
1BE
330
1F
100
AcDbEntity
  8
SLD-0
100
AcDbLine
 10
-58.0438249999
 20
-38.8935
 30
0.0
 11
-58.0438249999
 21
-41.0845
 31
0.0
  0
LINE
  5
1BF
330
1F
100
AcDbEntity
  8
SLD-0
100
AcDbLine
 10
-58.0438249999
 20
-41.0845
 30
0.0
 11
-54.756825
 21
-41.0845
 31
0.0
  0
LINE
  5
1C0
330
1F
100
AcDbEntity
  8
SLD-0
100
AcDbLine
 10
-54.756825
 20
-41.0845
 30
0.0
 11
-54.756825
 21
-44.6505
 31
0.0
  0
LINE
  5
1C1
330
1F
100
AcDbEntity
  8
SLD-0
100
AcDbLine
 10
-54.756825
 20
-44.6505
 30
0.0
 11
-58.0438249999
 21
-44.6505
 31
0.0
  0
LINE
  5
1C2
330
1F
100
AcDbEntity
  8
SLD-0
100
AcDbLine
 10
-58.0438249999
 20
-44.6505
 30
0.0
 11
-58.0438249999
 21
-46.8315
 31
0.0
  0
LINE
  5
1C3
330
1F
100
AcDbEntity
  8
SLD-0
100
AcDbLine
 10
-58.0438249999
 20
-46.8315
 30
0.0
 11
-60.8218249999
 21
-46.8315
 31
0.0
  0
LINE
  5
1C4
330
1F
100
AcDbEntity
  8
SLD-0
100
AcDbLine
 10
-60.8218249999
 20
-46.8315
 30
0.0
 11
-60.821825
 21
-44.6405
 31
0.0
  0
LINE
  5
1C5
330
1F
100
AcDbEntity
  8
SLD-0
100
AcDbLine
 10
-60.821825
 20
-44.6405
 30
0.0
 11
-66.821825
 21
-44.6405
 31
0.0
  0
LINE
  5
1C6
330
1F
100
AcDbEntity
  8
SLD-0
100
AcDbLine
 10
-66.821825
 20
-44.6405
 30
0.0
 11
-66.821825
 21
-49.2125
 31
0.0
  0
LINE
  5
1C7
330
1F
100
AcDbEntity
  8
SLD-0
100
AcDbLine
 10
-66.821825
 20
-49.2125
 30
0.0
 11
-69.996825
 21
-49.2125
 31
0.0
  0
LINE
  5
1C8
330
1F
100
AcDbEntity
  8
SLD-0
100
AcDbLine
 10
-69.996825
 20
-49.2125
 30
0.0
 11
-69.996825
 21
-61.9125
 31
0.0
  0
LINE
  5
1C9
330
1F
100
AcDbEntity
  8
SLD-0
100
AcDbLine
 10
-69.996825
 20
-61.9125
 30
0.0
 11
-66.821825
 21
-61.9125
 31
0.0
  0
LINE
  5
1CA
330
1F
100
AcDbEntity
  8
SLD-0
100
AcDbLine
 10
-66.821825
 20
-61.9125
 30
0.0
 11
-66.821825
 21
-66.4845
 31
0.0
  0
LINE
  5
1CB
330
1F
100
AcDbEntity
  8
SLD-0
100
AcDbLine
 10
-66.821825
 20
-66.4845
 30
0.0
 11
-60.821825
 21
-66.4845
 31
0.0
  0
LINE
  5
1CC
330
1F
100
AcDbEntity
  8
SLD-0
100
AcDbLine
 10
-60.821825
 20
-66.4845
 30
0.0
 11
-60.8218249999
 21
-64.2935
 31
0.0
  0
LINE
  5
1CD
330
1F
100
AcDbEntity
  8
SLD-0
100
AcDbLine
 10
-60.8218249999
 20
-64.2935
 30
0.0
 11
-58.0438249999
 21
-64.2935
 31
0.0
  0
LINE
  5
1CE
330
1F
100
AcDbEntity
  8
SLD-0
100
AcDbLine
 10
-58.0438249999
 20
-64.2935
 30
0.0
 11
-58.0438249999
 21
-66.4845
 31
0.0
  0
LINE
  5
1CF
330
1F
100
AcDbEntity
  8
SLD-0
100
AcDbLine
 10
-58.0438249999
 20
-66.4845
 30
0.0
 11
-54.756825
 21
-66.4845
 31
0.0
  0
LINE
  5
1D0
330
1F
100
AcDbEntity
  8
SLD-0
100
AcDbLine
 10
-54.756825
 20
-66.4845
 30
0.0
 11
-54.756825
 21
-70.0505
 31
0.0
  0
LINE
  5
1D1
330
1F
100
AcDbEntity
  8
SLD-0
100
AcDbLine
 10
-54.756825
 20
-70.0505
 30
0.0
 11
-58.0438249999
 21
-70.0505
 31
0.0
  0
LINE
  5
1D2
330
1F
100
AcDbEntity
  8
SLD-0
100
AcDbLine
 10
-58.0438249999
 20
-70.0505
 30
0.0
 11
-58.0438249999
 21
-72.2315
 31
0.0
  0
LINE
  5
1D3
330
1F
100
AcDbEntity
  8
SLD-0
100
AcDbLine
 10
-58.0438249999
 20
-72.2315
 30
0.0
 11
-60.8218249999
 21
-72.2315
 31
0.0
  0
LINE
  5
1D4
330
1F
100
AcDbEntity
  8
SLD-0
100
AcDbLine
 10
-60.8218249999
 20
-72.2315
 30
0.0
 11
-60.821825
 21
-70.0405
 31
0.0
  0
LINE
  5
1D5
330
1F
100
AcDbEntity
  8
SLD-0
100
AcDbLine
 10
-60.821825
 20
-70.0405
 30
0.0
 11
-66.821825
 21
-70.0405
 31
0.0
  0
LINE
  5
1D6
330
1F
100
AcDbEntity
  8
SLD-0
100
AcDbLine
 10
-66.821825
 20
-70.0405
 30
0.0
 11
-66.821825
 21
-74.6125
 31
0.0
  0
LINE
  5
1D7
330
1F
100
AcDbEntity
  8
SLD-0
100
AcDbLine
 10
-66.821825
 20
-74.6125
 30
0.0
 11
-69.996825
 21
-74.6125
 31
0.0
  0
LINE
  5
1D8
330
1F
100
AcDbEntity
  8
SLD-0
100
AcDbLine
 10
-69.996825
 20
-74.6125
 30
0.0
 11
-69.996825
 21
-87.3125
 31
0.0
  0
LINE
  5
1D9
330
1F
100
AcDbEntity
  8
SLD-0
100
AcDbLine
 10
-69.996825
 20
-87.3125
 30
0.0
 11
-66.821825
 21
-87.3125
 31
0.0
  0
LINE
  5
1DA
330
1F
100
AcDbEntity
  8
SLD-0
100
AcDbLine
 10
-66.821825
 20
-87.3125
 30
0.0
 11
-66.821825
 21
-91.8845
 31
0.0
  0
LINE
  5
1DB
330
1F
100
AcDbEntity
  8
SLD-0
100
AcDbLine
 10
-66.821825
 20
-91.8845
 30
0.0
 11
-60.821825
 21
-91.8845
 31
0.0
  0
LINE
  5
1DC
330
1F
100
AcDbEntity
  8
SLD-0
100
AcDbLine
 10
-60.821825
 20
-91.8845
 30
0.0
 11
-60.8218249999
 21
-89.6935
 31
0.0
  0
LINE
  5
1DD
330
1F
100
AcDbEntity
  8
SLD-0
100
AcDbLine
 10
-60.8218249999
 20
-89.6935
 30
0.0
 11
-58.0438249999
 21
-89.6935
 31
0.0
  0
LINE
  5
1DE
330
1F
100
AcDbEntity
  8
SLD-0
100
AcDbLine
 10
-58.0438249999
 20
-89.6935
 30
0.0
 11
-58.0438249999
 21
-91.8845
 31
0.0
  0
LINE
  5
1DF
330
1F
100
AcDbEntity
  8
SLD-0
100
AcDbLine
 10
-58.0438249999
 20
-91.8845
 30
0.0
 11
-54.756825
 21
-91.8845
 31
0.0
  0
LINE
  5
1E0
330
1F
100
AcDbEntity
  8
SLD-0
100
AcDbLine
 10
-54.756825
 20
-91.8845
 30
0.0
 11
-54.756825
 21
-95.4505
 31
0.0
  0
LINE
  5
1E1
330
1F
100
AcDbEntity
  8
SLD-0
100
AcDbLine
 10
-54.756825
 20
-95.4505
 30
0.0
 11
-58.0438249999
 21
-95.4505
 31
0.0
  0
LINE
  5
1E2
330
1F
100
AcDbEntity
  8
SLD-0
100
AcDbLine
 10
-58.0438249999
 20
-95.4505
 30
0.0
 11
-58.0438249999
 21
-97.6315
 31
0.0
  0
LINE
  5
1E3
330
1F
100
AcDbEntity
  8
SLD-0
100
AcDbLine
 10
-58.0438249999
 20
-97.6315
 30
0.0
 11
-60.8218249999
 21
-97.6315
 31
0.0
  0
LINE
  5
1E4
330
1F
100
AcDbEntity
  8
SLD-0
100
AcDbLine
 10
-60.8218249999
 20
-97.6315
 30
0.0
 11
-60.821825
 21
-95.4405
 31
0.0
  0
LINE
  5
1E5
330
1F
100
AcDbEntity
  8
SLD-0
100
AcDbLine
 10
-60.821825
 20
-95.4405
 30
0.0
 11
-66.821825
 21
-95.4405
 31
0.0
  0
LINE
  5
1E6
330
1F
100
AcDbEntity
  8
SLD-0
100
AcDbLine
 10
-66.821825
 20
-95.4405
 30
0.0
 11
-66.821825
 21
-100.0125
 31
0.0
  0
LINE
  5
1E7
330
1F
100
AcDbEntity
  8
SLD-0
100
AcDbLine
 10
-66.821825
 20
-100.0125
 30
0.0
 11
-69.996825
 21
-100.0125
 31
0.0
  0
LINE
  5
1E8
330
1F
100
AcDbEntity
  8
SLD-0
100
AcDbLine
 10
-69.996825
 20
-100.0125
 30
0.0
 11
-69.996825
 21
-112.7125
 31
0.0
  0
LINE
  5
1E9
330
1F
100
AcDbEntity
  8
SLD-0
100
AcDbLine
 10
-69.996825
 20
-112.7125
 30
0.0
 11
-66.821825
 21
-112.7125
 31
0.0
  0
LINE
  5
1EA
330
1F
100
AcDbEntity
  8
SLD-0
100
AcDbLine
 10
-66.821825
 20
-112.7125
 30
0.0
 11
-66.821825
 21
-117.2845
 31
0.0
  0
LINE
  5
1EB
330
1F
100
AcDbEntity
  8
SLD-0
100
AcDbLine
 10
-66.821825
 20
-117.2845
 30
0.0
 11
-60.821825
 21
-117.2845
 31
0.0
  0
LINE
  5
1EC
330
1F
100
AcDbEntity
  8
SLD-0
100
AcDbLine
 10
-60.821825
 20
-117.2845
 30
0.0
 11
-60.8218249999
 21
-115.0935
 31
0.0
  0
LINE
  5
1ED
330
1F
100
AcDbEntity
  8
SLD-0
100
AcDbLine
 10
-60.8218249999
 20
-115.0935
 30
0.0
 11
-58.0438249999
 21
-115.0935
 31
0.0
  0
LINE
  5
1EE
330
1F
100
AcDbEntity
  8
SLD-0
100
AcDbLine
 10
-58.0438249999
 20
-115.0935
 30
0.0
 11
-58.0438249999
 21
-117.2845
 31
0.0
  0
LINE
  5
1EF
330
1F
100
AcDbEntity
  8
SLD-0
100
AcDbLine
 10
-58.0438249999
 20
-117.2845
 30
0.0
 11
-54.756825
 21
-117.2845
 31
0.0
  0
LINE
  5
1F0
330
1F
100
AcDbEntity
  8
SLD-0
100
AcDbLine
 10
-54.756825
 20
-117.2845
 30
0.0
 11
-54.756825
 21
-120.8505
 31
0.0
  0
LINE
  5
1F1
330
1F
100
AcDbEntity
  8
SLD-0
100
AcDbLine
 10
-54.756825
 20
-120.8505
 30
0.0
 11
-58.0438249999
 21
-120.8505
 31
0.0
  0
LINE
  5
1F2
330
1F
100
AcDbEntity
  8
SLD-0
100
AcDbLine
 10
-58.0438249999
 20
-120.8505
 30
0.0
 11
-58.0438249999
 21
-123.0315
 31
0.0
  0
LINE
  5
1F3
330
1F
100
AcDbEntity
  8
SLD-0
100
AcDbLine
 10
-58.0438249999
 20
-123.0315
 30
0.0
 11
-60.8218249999
 21
-123.0315
 31
0.0
  0
LINE
  5
1F4
330
1F
100
AcDbEntity
  8
SLD-0
100
AcDbLine
 10
-60.8218249999
 20
-123.0315
 30
0.0
 11
-60.821825
 21
-120.8405
 31
0.0
  0
LINE
  5
1F5
330
1F
100
AcDbEntity
  8
SLD-0
100
AcDbLine
 10
-60.821825
 20
-120.8405
 30
0.0
 11
-66.821825
 21
-120.8405
 31
0.0
  0
LINE
  5
1F6
330
1F
100
AcDbEntity
  8
SLD-0
100
AcDbLine
 10
-66.821825
 20
-120.8405
 30
0.0
 11
-66.821825
 21
-125.4125
 31
0.0
  0
LINE
  5
1F7
330
1F
100
AcDbEntity
  8
SLD-0
100
AcDbLine
 10
-66.821825
 20
-125.4125
 30
0.0
 11
-69.996825
 21
-125.4125
 31
0.0
  0
LINE
  5
1F8
330
1F
100
AcDbEntity
  8
SLD-0
100
AcDbLine
 10
-69.996825
 20
-125.4125
 30
0.0
 11
-69.996825
 21
-138.1125
 31
0.0
  0
LINE
  5
1F9
330
1F
100
AcDbEntity
  8
SLD-0
100
AcDbLine
 10
-69.996825
 20
-138.1125
 30
0.0
 11
-66.821825
 21
-138.1125
 31
0.0
  0
LINE
  5
1FA
330
1F
100
AcDbEntity
  8
SLD-0
100
AcDbLine
 10
-66.821825
 20
-138.1125
 30
0.0
 11
-66.821825
 21
-142.6845
 31
0.0
  0
LINE
  5
1FB
330
1F
100
AcDbEntity
  8
SLD-0
100
AcDbLine
 10
-66.821825
 20
-142.6845
 30
0.0
 11
-60.821825
 21
-142.6845
 31
0.0
  0
LINE
  5
1FC
330
1F
100
AcDbEntity
  8
SLD-0
100
AcDbLine
 10
-60.821825
 20
-142.6845
 30
0.0
 11
-60.8218249999
 21
-140.4935
 31
0.0
  0
LINE
  5
1FD
330
1F
100
AcDbEntity
  8
SLD-0
100
AcDbLine
 10
-60.8218249999
 20
-140.4935
 30
0.0
 11
-58.0438249999
 21
-140.4935
 31
0.0
  0
LINE
  5
1FE
330
1F
100
AcDbEntity
  8
SLD-0
100
AcDbLine
 10
-58.0438249999
 20
-140.4935
 30
0.0
 11
-58.0438249999
 21
-142.6845
 31
0.0
  0
LINE
  5
1FF
330
1F
100
AcDbEntity
  8
SLD-0
100
AcDbLine
 10
-58.0438249999
 20
-142.6845
 30
0.0
 11
-54.756825
 21
-142.6845
 31
0.0
  0
LINE
  5
200
330
1F
100
AcDbEntity
  8
SLD-0
100
AcDbLine
 10
-54.756825
 20
-142.6845
 30
0.0
 11
-54.756825
 21
-146.2505
 31
0.0
  0
LINE
  5
201
330
1F
100
AcDbEntity
  8
SLD-0
100
AcDbLine
 10
-54.756825
 20
-146.2505
 30
0.0
 11
-58.0438249999
 21
-146.2505
 31
0.0
  0
LINE
  5
202
330
1F
100
AcDbEntity
  8
SLD-0
100
AcDbLine
 10
-58.0438249999
 20
-146.2505
 30
0.0
 11
-58.0438249999
 21
-148.4315
 31
0.0
  0
LINE
  5
203
330
1F
100
AcDbEntity
  8
SLD-0
100
AcDbLine
 10
-58.0438249999
 20
-148.4315
 30
0.0
 11
-60.8218249999
 21
-148.4315
 31
0.0
  0
LINE
  5
204
330
1F
100
AcDbEntity
  8
SLD-0
100
AcDbLine
 10
-60.8218249999
 20
-148.4315
 30
0.0
 11
-60.821825
 21
-146.2405
 31
0.0
  0
LINE
  5
205
330
1F
100
AcDbEntity
  8
SLD-0
100
AcDbLine
 10
-60.821825
 20
-146.2405
 30
0.0
 11
-66.821825
 21
-146.2405
 31
0.0
  0
LINE
  5
206
330
1F
100
AcDbEntity
  8
SLD-0
100
AcDbLine
 10
-66.821825
 20
-146.2405
 30
0.0
 11
-66.821825
 21
-150.8125
 31
0.0
  0
LINE
  5
207
330
1F
100
AcDbEntity
  8
SLD-0
100
AcDbLine
 10
-66.821825
 20
-150.8125
 30
0.0
 11
-69.996825
 21
-150.8125
 31
0.0
  0
LINE
  5
208
330
1F
100
AcDbEntity
  8
SLD-0
100
AcDbLine
 10
-69.996825
 20
-150.8125
 30
0.0
 11
-69.996825
 21
-163.5125
 31
0.0
  0
LINE
  5
209
330
1F
100
AcDbEntity
  8
SLD-0
100
AcDbLine
 10
-69.996825
 20
-163.5125
 30
0.0
 11
-66.821825
 21
-163.5125
 31
0.0
  0
LINE
  5
20A
330
1F
100
AcDbEntity
  8
SLD-0
100
AcDbLine
 10
-66.821825
 20
-163.5125
 30
0.0
 11
-66.821825
 21
-168.0845
 31
0.0
  0
LINE
  5
20B
330
1F
100
AcDbEntity
  8
SLD-0
100
AcDbLine
 10
-66.821825
 20
-168.0845
 30
0.0
 11
-60.821825
 21
-168.0845
 31
0.0
  0
LINE
  5
20C
330
1F
100
AcDbEntity
  8
SLD-0
100
AcDbLine
 10
-60.821825
 20
-168.0845
 30
0.0
 11
-60.8218249999
 21
-165.8935
 31
0.0
  0
LINE
  5
20D
330
1F
100
AcDbEntity
  8
SLD-0
100
AcDbLine
 10
-60.8218249999
 20
-165.8935
 30
0.0
 11
-58.0438249999
 21
-165.8935
 31
0.0
  0
LINE
  5
20E
330
1F
100
AcDbEntity
  8
SLD-0
100
AcDbLine
 10
-58.0438249999
 20
-165.8935
 30
0.0
 11
-58.0438249999
 21
-168.0845
 31
0.0
  0
LINE
  5
20F
330
1F
100
AcDbEntity
  8
SLD-0
100
AcDbLine
 10
-58.0438249999
 20
-168.0845
 30
0.0
 11
-54.756825
 21
-168.0845
 31
0.0
  0
LINE
  5
210
330
1F
100
AcDbEntity
  8
SLD-0
100
AcDbLine
 10
-54.756825
 20
-168.0845
 30
0.0
 11
-54.756825
 21
-171.6505
 31
0.0
  0
LINE
  5
211
330
1F
100
AcDbEntity
  8
SLD-0
100
AcDbLine
 10
-54.756825
 20
-171.6505
 30
0.0
 11
-58.0438249999
 21
-171.6505
 31
0.0
  0
LINE
  5
212
330
1F
100
AcDbEntity
  8
SLD-0
100
AcDbLine
 10
-58.0438249999
 20
-171.6505
 30
0.0
 11
-58.0438249999
 21
-173.8315
 31
0.0
  0
LINE
  5
213
330
1F
100
AcDbEntity
  8
SLD-0
100
AcDbLine
 10
-58.0438249999
 20
-173.8315
 30
0.0
 11
-60.8218249999
 21
-173.8315
 31
0.0
  0
LINE
  5
214
330
1F
100
AcDbEntity
  8
SLD-0
100
AcDbLine
 10
-60.8218249999
 20
-173.8315
 30
0.0
 11
-60.821825
 21
-171.6405
 31
0.0
  0
LINE
  5
215
330
1F
100
AcDbEntity
  8
SLD-0
100
AcDbLine
 10
-60.821825
 20
-171.6405
 30
0.0
 11
-66.821825
 21
-171.6405
 31
0.0
  0
LINE
  5
216
330
1F
100
AcDbEntity
  8
SLD-0
100
AcDbLine
 10
-66.821825
 20
-171.6405
 30
0.0
 11
-66.821825
 21
-176.2125
 31
0.0
  0
LINE
  5
217
330
1F
100
AcDbEntity
  8
SLD-0
100
AcDbLine
 10
-66.821825
 20
-176.2125
 30
0.0
 11
-69.996825
 21
-176.2125
 31
0.0
  0
LINE
  5
218
330
1F
100
AcDbEntity
  8
SLD-0
100
AcDbLine
 10
-69.996825
 20
-176.2125
 30
0.0
 11
-69.996825
 21
-188.9125
 31
0.0
  0
LINE
  5
219
330
1F
100
AcDbEntity
  8
SLD-0
100
AcDbLine
 10
-69.996825
 20
-188.9125
 30
0.0
 11
-66.821825
 21
-188.9125
 31
0.0
  0
LINE
  5
21A
330
1F
100
AcDbEntity
  8
SLD-0
100
AcDbLine
 10
-66.821825
 20
-188.9125
 30
0.0
 11
-66.821825
 21
-193.4845
 31
0.0
  0
LINE
  5
21B
330
1F
100
AcDbEntity
  8
SLD-0
100
AcDbLine
 10
-66.821825
 20
-193.4845
 30
0.0
 11
-60.821825
 21
-193.4845
 31
0.0
  0
LINE
  5
21C
330
1F
100
AcDbEntity
  8
SLD-0
100
AcDbLine
 10
-60.821825
 20
-193.4845
 30
0.0
 11
-60.8218249999
 21
-191.2935
 31
0.0
  0
LINE
  5
21D
330
1F
100
AcDbEntity
  8
SLD-0
100
AcDbLine
 10
-60.8218249999
 20
-191.2935
 30
0.0
 11
-58.0438249999
 21
-191.2935
 31
0.0
  0
LINE
  5
21E
330
1F
100
AcDbEntity
  8
SLD-0
100
AcDbLine
 10
-58.0438249999
 20
-191.2935
 30
0.0
 11
-58.0438249999
 21
-193.4845
 31
0.0
  0
LINE
  5
21F
330
1F
100
AcDbEntity
  8
SLD-0
100
AcDbLine
 10
-58.0438249999
 20
-193.4845
 30
0.0
 11
-54.756825
 21
-193.4845
 31
0.0
  0
LINE
  5
220
330
1F
100
AcDbEntity
  8
SLD-0
100
AcDbLine
 10
-54.756825
 20
-193.4845
 30
0.0
 11
-54.756825
 21
-197.0505
 31
0.0
  0
LINE
  5
221
330
1F
100
AcDbEntity
  8
SLD-0
100
AcDbLine
 10
-54.756825
 20
-197.0505
 30
0.0
 11
-58.0438249999
 21
-197.0505
 31
0.0
  0
LINE
  5
222
330
1F
100
AcDbEntity
  8
SLD-0
100
AcDbLine
 10
-58.0438249999
 20
-197.0505
 30
0.0
 11
-58.0438249999
 21
-199.2315
 31
0.0
  0
LINE
  5
223
330
1F
100
AcDbEntity
  8
SLD-0
100
AcDbLine
 10
-58.0438249999
 20
-199.2315
 30
0.0
 11
-60.8218249999
 21
-199.2315
 31
0.0
  0
LINE
  5
224
330
1F
100
AcDbEntity
  8
SLD-0
100
AcDbLine
 10
-60.8218249999
 20
-199.2315
 30
0.0
 11
-60.821825
 21
-197.0405
 31
0.0
  0
LINE
  5
225
330
1F
100
AcDbEntity
  8
SLD-0
100
AcDbLine
 10
-60.821825
 20
-197.0405
 30
0.0
 11
-66.821825
 21
-197.0405
 31
0.0
  0
LINE
  5
226
330
1F
100
AcDbEntity
  8
SLD-0
100
AcDbLine
 10
-66.821825
 20
-197.0405
 30
0.0
 11
-66.821825
 21
-201.6125
 31
0.0
  0
LINE
  5
227
330
1F
100
AcDbEntity
  8
SLD-0
100
AcDbLine
 10
-66.821825
 20
-201.6125
 30
0.0
 11
-69.996825
 21
-201.6125
 31
0.0
  0
LINE
  5
228
330
1F
100
AcDbEntity
  8
SLD-0
100
AcDbLine
 10
-69.996825
 20
-201.6125
 30
0.0
 11
-69.996825
 21
-214.3125
 31
0.0
  0
LINE
  5
229
330
1F
100
AcDbEntity
  8
SLD-0
100
AcDbLine
 10
-69.996825
 20
-214.3125
 30
0.0
 11
-66.821825
 21
-214.3125
 31
0.0
  0
LINE
  5
22A
330
1F
100
AcDbEntity
  8
SLD-0
100
AcDbLine
 10
-66.821825
 20
-214.3125
 30
0.0
 11
-66.821825
 21
-218.8845
 31
0.0
  0
LINE
  5
22B
330
1F
100
AcDbEntity
  8
SLD-0
100
AcDbLine
 10
-66.821825
 20
-218.8845
 30
0.0
 11
-60.821825
 21
-218.8845
 31
0.0
  0
LINE
  5
22C
330
1F
100
AcDbEntity
  8
SLD-0
100
AcDbLine
 10
-60.821825
 20
-218.8845
 30
0.0
 11
-60.8218249999
 21
-216.6935
 31
0.0
  0
LINE
  5
22D
330
1F
100
AcDbEntity
  8
SLD-0
100
AcDbLine
 10
-60.8218249999
 20
-216.6935
 30
0.0
 11
-58.0438249999
 21
-216.6935
 31
0.0
  0
LINE
  5
22E
330
1F
100
AcDbEntity
  8
SLD-0
100
AcDbLine
 10
-58.0438249999
 20
-216.6935
 30
0.0
 11
-58.0438249999
 21
-218.8845
 31
0.0
  0
LINE
  5
22F
330
1F
100
AcDbEntity
  8
SLD-0
100
AcDbLine
 10
-58.0438249999
 20
-218.8845
 30
0.0
 11
-54.756825
 21
-218.8845
 31
0.0
  0
LINE
  5
230
330
1F
100
AcDbEntity
  8
SLD-0
100
AcDbLine
 10
-54.756825
 20
-218.8845
 30
0.0
 11
-54.756825
 21
-222.4505
 31
0.0
  0
LINE
  5
231
330
1F
100
AcDbEntity
  8
SLD-0
100
AcDbLine
 10
-54.756825
 20
-222.4505
 30
0.0
 11
-58.0438249999
 21
-222.4505
 31
0.0
  0
LINE
  5
232
330
1F
100
AcDbEntity
  8
SLD-0
100
AcDbLine
 10
-58.0438249999
 20
-222.4505
 30
0.0
 11
-58.0438249999
 21
-224.6315
 31
0.0
  0
LINE
  5
233
330
1F
100
AcDbEntity
  8
SLD-0
100
AcDbLine
 10
-58.0438249999
 20
-224.6315
 30
0.0
 11
-60.8218249999
 21
-224.6315
 31
0.0
  0
LINE
  5
234
330
1F
100
AcDbEntity
  8
SLD-0
100
AcDbLine
 10
-60.8218249999
 20
-224.6315
 30
0.0
 11
-60.821825
 21
-222.4405
 31
0.0
  0
LINE
  5
235
330
1F
100
AcDbEntity
  8
SLD-0
100
AcDbLine
 10
-60.821825
 20
-222.4405
 30
0.0
 11
-66.821825
 21
-222.4405
 31
0.0
  0
LINE
  5
236
330
1F
100
AcDbEntity
  8
SLD-0
100
AcDbLine
 10
-66.821825
 20
-222.4405
 30
0.0
 11
-66.821825
 21
-227.0125
 31
0.0
  0
LINE
  5
237
330
1F
100
AcDbEntity
  8
SLD-0
100
AcDbLine
 10
-66.821825
 20
-227.0125
 30
0.0
 11
-69.996825
 21
-227.0125
 31
0.0
  0
LINE
  5
238
330
1F
100
AcDbEntity
  8
SLD-0
100
AcDbLine
 10
-69.996825
 20
-227.0125
 30
0.0
 11
-69.996825
 21
-239.7125
 31
0.0
  0
LINE
  5
239
330
1F
100
AcDbEntity
  8
SLD-0
100
AcDbLine
 10
-69.996825
 20
-239.7125
 30
0.0
 11
-66.821825
 21
-239.7125
 31
0.0
  0
LINE
  5
23A
330
1F
100
AcDbEntity
  8
SLD-0
100
AcDbLine
 10
-66.821825
 20
-239.7125
 30
0.0
 11
-66.821825
 21
-244.2845
 31
0.0
  0
LINE
  5
23B
330
1F
100
AcDbEntity
  8
SLD-0
100
AcDbLine
 10
-66.821825
 20
-244.2845
 30
0.0
 11
-60.821825
 21
-244.2845
 31
0.0
  0
LINE
  5
23C
330
1F
100
AcDbEntity
  8
SLD-0
100
AcDbLine
 10
-60.821825
 20
-244.2845
 30
0.0
 11
-60.8218249999
 21
-242.0935
 31
0.0
  0
LINE
  5
23D
330
1F
100
AcDbEntity
  8
SLD-0
100
AcDbLine
 10
-60.8218249999
 20
-242.0935
 30
0.0
 11
-58.0438249999
 21
-242.0935
 31
0.0
  0
LINE
  5
23E
330
1F
100
AcDbEntity
  8
SLD-0
100
AcDbLine
 10
-58.0438249999
 20
-242.0935
 30
0.0
 11
-58.0438249999
 21
-244.2845
 31
0.0
  0
LINE
  5
23F
330
1F
100
AcDbEntity
  8
SLD-0
100
AcDbLine
 10
-58.0438249999
 20
-244.2845
 30
0.0
 11
-54.756825
 21
-244.2845
 31
0.0
  0
LINE
  5
240
330
1F
100
AcDbEntity
  8
SLD-0
100
AcDbLine
 10
-54.756825
 20
-244.2845
 30
0.0
 11
-54.756825
 21
-247.8505
 31
0.0
  0
LINE
  5
241
330
1F
100
AcDbEntity
  8
SLD-0
100
AcDbLine
 10
-54.756825
 20
-247.8505
 30
0.0
 11
-58.0438249999
 21
-247.8505
 31
0.0
  0
LINE
  5
242
330
1F
100
AcDbEntity
  8
SLD-0
100
AcDbLine
 10
-58.0438249999
 20
-247.8505
 30
0.0
 11
-58.0438249999
 21
-250.0315
 31
0.0
  0
LINE
  5
243
330
1F
100
AcDbEntity
  8
SLD-0
100
AcDbLine
 10
-58.0438249999
 20
-250.0315
 30
0.0
 11
-60.8218249999
 21
-250.0315
 31
0.0
  0
LINE
  5
244
330
1F
100
AcDbEntity
  8
SLD-0
100
AcDbLine
 10
-60.8218249999
 20
-250.0315
 30
0.0
 11
-60.821825
 21
-247.8405
 31
0.0
  0
LINE
  5
245
330
1F
100
AcDbEntity
  8
SLD-0
100
AcDbLine
 10
-60.821825
 20
-247.8405
 30
0.0
 11
-66.821825
 21
-247.8405
 31
0.0
  0
LINE
  5
246
330
1F
100
AcDbEntity
  8
SLD-0
100
AcDbLine
 10
-66.821825
 20
-247.8405
 30
0.0
 11
-66.821825
 21
-252.4125
 31
0.0
  0
LINE
  5
247
330
1F
100
AcDbEntity
  8
SLD-0
100
AcDbLine
 10
-66.821825
 20
-252.4125
 30
0.0
 11
-69.996825
 21
-252.4125
 31
0.0
  0
LINE
  5
248
330
1F
100
AcDbEntity
  8
SLD-0
100
AcDbLine
 10
-69.996825
 20
-252.4125
 30
0.0
 11
-69.996825
 21
-265.1125
 31
0.0
  0
LINE
  5
249
330
1F
100
AcDbEntity
  8
SLD-0
100
AcDbLine
 10
-69.996825
 20
-265.1125
 30
0.0
 11
-66.821825
 21
-265.1125
 31
0.0
  0
LINE
  5
24A
330
1F
100
AcDbEntity
  8
SLD-0
100
AcDbLine
 10
-66.821825
 20
-265.1125
 30
0.0
 11
-66.821825
 21
-269.6845
 31
0.0
  0
LINE
  5
24B
330
1F
100
AcDbEntity
  8
SLD-0
100
AcDbLine
 10
-66.821825
 20
-269.6845
 30
0.0
 11
-60.821825
 21
-269.6845
 31
0.0
  0
LINE
  5
24C
330
1F
100
AcDbEntity
  8
SLD-0
100
AcDbLine
 10
-60.821825
 20
-269.6845
 30
0.0
 11
-60.8218249999
 21
-267.4935
 31
0.0
  0
LINE
  5
24D
330
1F
100
AcDbEntity
  8
SLD-0
100
AcDbLine
 10
-60.8218249999
 20
-267.4935
 30
0.0
 11
-58.0438249999
 21
-267.4935
 31
0.0
  0
LINE
  5
24E
330
1F
100
AcDbEntity
  8
SLD-0
100
AcDbLine
 10
-58.0438249999
 20
-267.4935
 30
0.0
 11
-58.0438249999
 21
-269.6845
 31
0.0
  0
LINE
  5
24F
330
1F
100
AcDbEntity
  8
SLD-0
100
AcDbLine
 10
-58.0438249999
 20
-269.6845
 30
0.0
 11
-54.756825
 21
-269.6845
 31
0.0
  0
LINE
  5
250
330
1F
100
AcDbEntity
  8
SLD-0
100
AcDbLine
 10
-54.756825
 20
-269.6845
 30
0.0
 11
-54.756825
 21
-273.2505
 31
0.0
  0
LINE
  5
251
330
1F
100
AcDbEntity
  8
SLD-0
100
AcDbLine
 10
-54.756825
 20
-273.2505
 30
0.0
 11
-58.0438249999
 21
-273.2505
 31
0.0
  0
LINE
  5
252
330
1F
100
AcDbEntity
  8
SLD-0
100
AcDbLine
 10
-58.0438249999
 20
-273.2505
 30
0.0
 11
-58.0438249999
 21
-275.4315
 31
0.0
  0
LINE
  5
253
330
1F
100
AcDbEntity
  8
SLD-0
100
AcDbLine
 10
-58.0438249999
 20
-275.4315
 30
0.0
 11
-60.8218249999
 21
-275.4315
 31
0.0
  0
LINE
  5
254
330
1F
100
AcDbEntity
  8
SLD-0
100
AcDbLine
 10
-60.8218249999
 20
-275.4315
 30
0.0
 11
-60.821825
 21
-273.2405
 31
0.0
  0
LINE
  5
255
330
1F
100
AcDbEntity
  8
SLD-0
100
AcDbLine
 10
-60.821825
 20
-273.2405
 30
0.0
 11
-66.821825
 21
-273.2405
 31
0.0
  0
LINE
  5
256
330
1F
100
AcDbEntity
  8
SLD-0
100
AcDbLine
 10
-66.821825
 20
-273.2405
 30
0.0
 11
-66.821825
 21
-277.8125
 31
0.0
  0
LINE
  5
257
330
1F
100
AcDbEntity
  8
SLD-0
100
AcDbLine
 10
-66.821825
 20
-277.8125
 30
0.0
 11
-69.996825
 21
-277.8125
 31
0.0
  0
LINE
  5
258
330
1F
100
AcDbEntity
  8
SLD-0
100
AcDbLine
 10
-69.996825
 20
-277.8125
 30
0.0
 11
-69.996825
 21
-306.3875
 31
0.0
  0
LINE
  5
259
330
1F
100
AcDbEntity
  8
SLD-0
100
AcDbLine
 10
-69.996825
 20
-306.3875
 30
0.0
 11
-60.171825
 21
-306.3875
 31
0.0
  0
LINE
  5
25A
330
1F
100
AcDbEntity
  8
SLD-0
100
AcDbLine
 10
-60.171825
 20
-306.3875
 30
0.0
 11
-60.171825
 21
-303.2125
 31
0.0
  0
LINE
  5
25B
330
1F
100
AcDbEntity
  8
SLD-0
100
AcDbLine
 10
-60.171825
 20
-303.2125
 30
0.0
 11
-55.599825
 21
-303.2125
 31
0.0
  0
LINE
  5
25C
330
1F
100
AcDbEntity
  8
SLD-0
100
AcDbLine
 10
-55.599825
 20
-303.2125
 30
0.0
 11
-55.599825
 21
-297.2125
 31
0.0
  0
LINE
  5
25D
330
1F
100
AcDbEntity
  8
SLD-0
100
AcDbLine
 10
-55.599825
 20
-297.2125
 30
0.0
 11
-57.790825
 21
-297.2125
 31
0.0
  0
LINE
  5
25E
330
1F
100
AcDbEntity
  8
SLD-0
100
AcDbLine
 10
-57.790825
 20
-297.2125
 30
0.0
 11
-57.790825
 21
-294.4345
 31
0.0
  0
LINE
  5
25F
330
1F
100
AcDbEntity
  8
SLD-0
100
AcDbLine
 10
-57.790825
 20
-294.4345
 30
0.0
 11
-55.599825
 21
-294.4345
 31
0.0
  0
LINE
  5
260
330
1F
100
AcDbEntity
  8
SLD-0
100
AcDbLine
 10
-55.599825
 20
-294.4345
 30
0.0
 11
-55.599825
 21
-291.1475
 31
0.0
  0
LINE
  5
261
330
1F
100
AcDbEntity
  8
SLD-0
100
AcDbLine
 10
-55.599825
 20
-291.1475
 30
0.0
 11
-52.033825
 21
-291.1475
 31
0.0
  0
LINE
  5
262
330
1F
100
AcDbEntity
  8
SLD-0
100
AcDbLine
 10
-52.033825
 20
-291.1475
 30
0.0
 11
-52.033825
 21
-294.4345
 31
0.0
  0
LINE
  5
263
330
1F
100
AcDbEntity
  8
SLD-0
100
AcDbLine
 10
-52.033825
 20
-294.4345
 30
0.0
 11
-49.852825
 21
-294.4345
 31
0.0
  0
LINE
  5
264
330
1F
100
AcDbEntity
  8
SLD-0
100
AcDbLine
 10
-49.852825
 20
-294.4345
 30
0.0
 11
-49.852825
 21
-297.2125
 31
0.0
  0
LINE
  5
265
330
1F
100
AcDbEntity
  8
SLD-0
100
AcDbLine
 10
-49.852825
 20
-297.2125
 30
0.0
 11
-52.043825
 21
-297.2125
 31
0.0
  0
LINE
  5
266
330
1F
100
AcDbEntity
  8
SLD-0
100
AcDbLine
 10
-52.043825
 20
-297.2125
 30
0.0
 11
-52.043825
 21
-303.2125
 31
0.0
  0
LINE
  5
267
330
1F
100
AcDbEntity
  8
SLD-0
100
AcDbLine
 10
-52.043825
 20
-303.2125
 30
0.0
 11
-47.471825
 21
-303.2125
 31
0.0
  0
LINE
  5
268
330
1F
100
AcDbEntity
  8
SLD-0
100
AcDbLine
 10
-47.471825
 20
-303.2125
 30
0.0
 11
-47.471825
 21
-306.3875
 31
0.0
  0
LINE
  5
269
330
1F
100
AcDbEntity
  8
SLD-0
100
AcDbLine
 10
-47.471825
 20
-306.3875
 30
0.0
 11
-34.771825
 21
-306.3875
 31
0.0
  0
LINE
  5
26A
330
1F
100
AcDbEntity
  8
SLD-0
100
AcDbLine
 10
-34.771825
 20
-306.3875
 30
0.0
 11
-34.771825
 21
-303.2125
 31
0.0
  0
LINE
  5
26B
330
1F
100
AcDbEntity
  8
SLD-0
100
AcDbLine
 10
-34.771825
 20
-303.2125
 30
0.0
 11
-30.199825
 21
-303.2125
 31
0.0
  0
LINE
  5
26C
330
1F
100
AcDbEntity
  8
SLD-0
100
AcDbLine
 10
-30.199825
 20
-303.2125
 30
0.0
 11
-30.199825
 21
-297.2125
 31
0.0
  0
LINE
  5
26D
330
1F
100
AcDbEntity
  8
SLD-0
100
AcDbLine
 10
-30.199825
 20
-297.2125
 30
0.0
 11
-32.390825
 21
-297.2125
 31
0.0
  0
LINE
  5
26E
330
1F
100
AcDbEntity
  8
SLD-0
100
AcDbLine
 10
-32.390825
 20
-297.2125
 30
0.0
 11
-32.390825
 21
-294.4345
 31
0.0
  0
LINE
  5
26F
330
1F
100
AcDbEntity
  8
SLD-0
100
AcDbLine
 10
-32.390825
 20
-294.4345
 30
0.0
 11
-30.199825
 21
-294.4345
 31
0.0
  0
LINE
  5
270
330
1F
100
AcDbEntity
  8
SLD-0
100
AcDbLine
 10
-30.199825
 20
-294.4345
 30
0.0
 11
-30.199825
 21
-291.1475
 31
0.0
  0
LINE
  5
271
330
1F
100
AcDbEntity
  8
SLD-0
100
AcDbLine
 10
-30.199825
 20
-291.1475
 30
0.0
 11
-26.633825
 21
-291.1475
 31
0.0
  0
LINE
  5
272
330
1F
100
AcDbEntity
  8
SLD-0
100
AcDbLine
 10
-26.633825
 20
-291.1475
 30
0.0
 11
-26.633825
 21
-294.4345
 31
0.0
  0
LINE
  5
273
330
1F
100
AcDbEntity
  8
SLD-0
100
AcDbLine
 10
-26.633825
 20
-294.4345
 30
0.0
 11
-24.452825
 21
-294.4345
 31
0.0
  0
LINE
  5
274
330
1F
100
AcDbEntity
  8
SLD-0
100
AcDbLine
 10
-24.452825
 20
-294.4345
 30
0.0
 11
-24.452825
 21
-297.2125
 31
0.0
  0
LINE
  5
275
330
1F
100
AcDbEntity
  8
SLD-0
100
AcDbLine
 10
-24.452825
 20
-297.2125
 30
0.0
 11
-26.643825
 21
-297.2125
 31
0.0
  0
LINE
  5
276
330
1F
100
AcDbEntity
  8
SLD-0
100
AcDbLine
 10
-26.643825
 20
-297.2125
 30
0.0
 11
-26.643825
 21
-303.2125
 31
0.0
  0
LINE
  5
277
330
1F
100
AcDbEntity
  8
SLD-0
100
AcDbLine
 10
-26.643825
 20
-303.2125
 30
0.0
 11
-22.071825
 21
-303.2125
 31
0.0
  0
LINE
  5
278
330
1F
100
AcDbEntity
  8
SLD-0
100
AcDbLine
 10
-22.071825
 20
-303.2125
 30
0.0
 11
-22.071825
 21
-306.3875
 31
0.0
  0
LINE
  5
279
330
1F
100
AcDbEntity
  8
SLD-0
100
AcDbLine
 10
-22.071825
 20
-306.3875
 30
0.0
 11
-9.371825
 21
-306.3875
 31
0.0
  0
LINE
  5
27A
330
1F
100
AcDbEntity
  8
SLD-0
100
AcDbLine
 10
-9.371825
 20
-306.3875
 30
0.0
 11
-9.371825
 21
-303.2125
 31
0.0
  0
LINE
  5
27B
330
1F
100
AcDbEntity
  8
SLD-0
100
AcDbLine
 10
-9.371825
 20
-303.2125
 30
0.0
 11
-4.799825
 21
-303.2125
 31
0.0
  0
LINE
  5
27C
330
1F
100
AcDbEntity
  8
SLD-0
100
AcDbLine
 10
-4.799825
 20
-303.2125
 30
0.0
 11
-4.799825
 21
-297.2125
 31
0.0
  0
LINE
  5
27D
330
1F
100
AcDbEntity
  8
SLD-0
100
AcDbLine
 10
-4.799825
 20
-297.2125
 30
0.0
 11
-6.990825
 21
-297.2125
 31
0.0
  0
LINE
  5
27E
330
1F
100
AcDbEntity
  8
SLD-0
100
AcDbLine
 10
-6.990825
 20
-297.2125
 30
0.0
 11
-6.990825
 21
-294.4345
 31
0.0
  0
LINE
  5
27F
330
1F
100
AcDbEntity
  8
SLD-0
100
AcDbLine
 10
-6.990825
 20
-294.4345
 30
0.0
 11
-4.799825
 21
-294.4345
 31
0.0
  0
LINE
  5
280
330
1F
100
AcDbEntity
  8
SLD-0
100
AcDbLine
 10
-4.799825
 20
-294.4345
 30
0.0
 11
-4.799825
 21
-291.1475
 31
0.0
  0
LINE
  5
281
330
1F
100
AcDbEntity
  8
SLD-0
100
AcDbLine
 10
-4.799825
 20
-291.1475
 30
0.0
 11
-1.233825
 21
-291.1475
 31
0.0
  0
LINE
  5
282
330
1F
100
AcDbEntity
  8
SLD-0
100
AcDbLine
 10
-1.233825
 20
-291.1475
 30
0.0
 11
-1.233825
 21
-294.4345
 31
0.0
  0
LINE
  5
283
330
1F
100
AcDbEntity
  8
SLD-0
100
AcDbLine
 10
-1.233825
 20
-294.4345
 30
0.0
 11
0.947175
 21
-294.4345
 31
0.0
  0
LINE
  5
284
330
1F
100
AcDbEntity
  8
SLD-0
100
AcDbLine
 10
0.947175
 20
-294.4345
 30
0.0
 11
0.947175
 21
-297.2125
 31
0.0
  0
LINE
  5
285
330
1F
100
AcDbEntity
  8
SLD-0
100
AcDbLine
 10
0.947175
 20
-297.2125
 30
0.0
 11
-1.243825
 21
-297.2125
 31
0.0
  0
LINE
  5
286
330
1F
100
AcDbEntity
  8
SLD-0
100
AcDbLine
 10
-1.243825
 20
-297.2125
 30
0.0
 11
-1.243825
 21
-303.2125
 31
0.0
  0
LINE
  5
287
330
1F
100
AcDbEntity
  8
SLD-0
100
AcDbLine
 10
-1.243825
 20
-303.2125
 30
0.0
 11
3.328175
 21
-303.2125
 31
0.0
  0
LINE
  5
288
330
1F
100
AcDbEntity
  8
SLD-0
100
AcDbLine
 10
3.328175
 20
-303.2125
 30
0.0
 11
3.328175
 21
-306.3875
 31
0.0
  0
LINE
  5
289
330
1F
100
AcDbEntity
  8
SLD-0
100
AcDbLine
 10
3.328175
 20
-306.3875
 30
0.0
 11
16.028175
 21
-306.3875
 31
0.0
  0
LINE
  5
28A
330
1F
100
AcDbEntity
  8
SLD-0
100
AcDbLine
 10
16.028175
 20
-306.3875
 30
0.0
 11
16.028175
 21
-303.2125
 31
0.0
  0
LINE
  5
28B
330
1F
100
AcDbEntity
  8
SLD-0
100
AcDbLine
 10
16.028175
 20
-303.2125
 30
0.0
 11
20.600175
 21
-303.2125
 31
0.0
  0
LINE
  5
28C
330
1F
100
AcDbEntity
  8
SLD-0
100
AcDbLine
 10
20.600175
 20
-303.2125
 30
0.0
 11
20.600175
 21
-297.2125
 31
0.0
  0
LINE
  5
28D
330
1F
100
AcDbEntity
  8
SLD-0
100
AcDbLine
 10
20.600175
 20
-297.2125
 30
0.0
 11
18.409175
 21
-297.2125
 31
0.0
  0
LINE
  5
28E
330
1F
100
AcDbEntity
  8
SLD-0
100
AcDbLine
 10
18.409175
 20
-297.2125
 30
0.0
 11
18.409175
 21
-294.4345
 31
0.0
  0
LINE
  5
28F
330
1F
100
AcDbEntity
  8
SLD-0
100
AcDbLine
 10
18.409175
 20
-294.4345
 30
0.0
 11
20.600175
 21
-294.4345
 31
0.0
  0
LINE
  5
290
330
1F
100
AcDbEntity
  8
SLD-0
100
AcDbLine
 10
20.600175
 20
-294.4345
 30
0.0
 11
20.600175
 21
-291.1475
 31
0.0
  0
LINE
  5
291
330
1F
100
AcDbEntity
  8
SLD-0
100
AcDbLine
 10
20.600175
 20
-291.1475
 30
0.0
 11
24.166175
 21
-291.1475
 31
0.0
  0
LINE
  5
292
330
1F
100
AcDbEntity
  8
SLD-0
100
AcDbLine
 10
24.166175
 20
-291.1475
 30
0.0
 11
24.166175
 21
-294.4345
 31
0.0
  0
LINE
  5
293
330
1F
100
AcDbEntity
  8
SLD-0
100
AcDbLine
 10
24.166175
 20
-294.4345
 30
0.0
 11
26.347175
 21
-294.4345
 31
0.0
  0
LINE
  5
294
330
1F
100
AcDbEntity
  8
SLD-0
100
AcDbLine
 10
26.347175
 20
-294.4345
 30
0.0
 11
26.347175
 21
-297.2125
 31
0.0
  0
LINE
  5
295
330
1F
100
AcDbEntity
  8
SLD-0
100
AcDbLine
 10
26.347175
 20
-297.2125
 30
0.0
 11
24.156175
 21
-297.2125
 31
0.0
  0
LINE
  5
296
330
1F
100
AcDbEntity
  8
SLD-0
100
AcDbLine
 10
24.156175
 20
-297.2125
 30
0.0
 11
24.156175
 21
-303.2125
 31
0.0
  0
LINE
  5
297
330
1F
100
AcDbEntity
  8
SLD-0
100
AcDbLine
 10
24.156175
 20
-303.2125
 30
0.0
 11
28.728175
 21
-303.2125
 31
0.0
  0
LINE
  5
298
330
1F
100
AcDbEntity
  8
SLD-0
100
AcDbLine
 10
28.728175
 20
-303.2125
 30
0.0
 11
28.728175
 21
-306.3875
 31
0.0
  0
LINE
  5
299
330
1F
100
AcDbEntity
  8
SLD-0
100
AcDbLine
 10
28.728175
 20
-306.3875
 30
0.0
 11
41.428175
 21
-306.3875
 31
0.0
  0
LINE
  5
29A
330
1F
100
AcDbEntity
  8
SLD-0
100
AcDbLine
 10
41.428175
 20
-306.3875
 30
0.0
 11
41.428175
 21
-303.2125
 31
0.0
  0
LINE
  5
29B
330
1F
100
AcDbEntity
  8
SLD-0
100
AcDbLine
 10
41.428175
 20
-303.2125
 30
0.0
 11
46.000175
 21
-303.2125
 31
0.0
  0
LINE
  5
29C
330
1F
100
AcDbEntity
  8
SLD-0
100
AcDbLine
 10
46.000175
 20
-303.2125
 30
0.0
 11
46.000175
 21
-297.2125
 31
0.0
  0
LINE
  5
29D
330
1F
100
AcDbEntity
  8
SLD-0
100
AcDbLine
 10
46.000175
 20
-297.2125
 30
0.0
 11
43.809175
 21
-297.2125
 31
0.0
  0
LINE
  5
29E
330
1F
100
AcDbEntity
  8
SLD-0
100
AcDbLine
 10
43.809175
 20
-297.2125
 30
0.0
 11
43.809175
 21
-294.4345
 31
0.0
  0
LINE
  5
29F
330
1F
100
AcDbEntity
  8
SLD-0
100
AcDbLine
 10
43.809175
 20
-294.4345
 30
0.0
 11
46.000175
 21
-294.4345
 31
0.0
  0
LINE
  5
2A0
330
1F
100
AcDbEntity
  8
SLD-0
100
AcDbLine
 10
46.000175
 20
-294.4345
 30
0.0
 11
46.000175
 21
-291.1475
 31
0.0
  0
LINE
  5
2A1
330
1F
100
AcDbEntity
  8
SLD-0
100
AcDbLine
 10
46.000175
 20
-291.1475
 30
0.0
 11
49.566175
 21
-291.1475
 31
0.0
  0
LINE
  5
2A2
330
1F
100
AcDbEntity
  8
SLD-0
100
AcDbLine
 10
49.566175
 20
-291.1475
 30
0.0
 11
49.566175
 21
-294.4345
 31
0.0
  0
LINE
  5
2A3
330
1F
100
AcDbEntity
  8
SLD-0
100
AcDbLine
 10
49.566175
 20
-294.4345
 30
0.0
 11
51.747175
 21
-294.4345
 31
0.0
  0
LINE
  5
2A4
330
1F
100
AcDbEntity
  8
SLD-0
100
AcDbLine
 10
51.747175
 20
-294.4345
 30
0.0
 11
51.747175
 21
-297.2125
 31
0.0
  0
LINE
  5
2A5
330
1F
100
AcDbEntity
  8
SLD-0
100
AcDbLine
 10
51.747175
 20
-297.2125
 30
0.0
 11
49.556175
 21
-297.2125
 31
0.0
  0
LINE
  5
2A6
330
1F
100
AcDbEntity
  8
SLD-0
100
AcDbLine
 10
49.556175
 20
-297.2125
 30
0.0
 11
49.556175
 21
-303.2125
 31
0.0
  0
LINE
  5
2A7
330
1F
100
AcDbEntity
  8
SLD-0
100
AcDbLine
 10
49.556175
 20
-303.2125
 30
0.0
 11
54.128175
 21
-303.2125
 31
0.0
  0
LINE
  5
2A8
330
1F
100
AcDbEntity
  8
SLD-0
100
AcDbLine
 10
54.128175
 20
-303.2125
 30
0.0
 11
54.128175
 21
-306.3875
 31
0.0
  0
LINE
  5
2A9
330
1F
100
AcDbEntity
  8
SLD-0
100
AcDbLine
 10
54.128175
 20
-306.3875
 30
0.0
 11
70.003175
 21
-306.3875
 31
0.0
  0
LINE
  5
2AA
330
1F
100
AcDbEntity
  8
SLD-0
100
AcDbLine
 10
70.003175
 20
-306.3875
 30
0.0
 11
70.003175
 21
-277.8125
 31
0.0
  0
LINE
  5
2AB
330
1F
100
AcDbEntity
  8
SLD-0
100
AcDbLine
 10
70.003175
 20
-277.8125
 30
0.0
 11
66.828175
 21
-277.8125
 31
0.0
  0
LINE
  5
2AC
330
1F
100
AcDbEntity
  8
SLD-0
100
AcDbLine
 10
66.828175
 20
-277.8125
 30
0.0
 11
66.828175
 21
-273.2405
 31
0.0
  0
LINE
  5
2AD
330
1F
100
AcDbEntity
  8
SLD-0
100
AcDbLine
 10
66.828175
 20
-273.2405
 30
0.0
 11
60.828175
 21
-273.2405
 31
0.0
  0
LINE
  5
2AE
330
1F
100
AcDbEntity
  8
SLD-0
100
AcDbLine
 10
60.828175
 20
-273.2405
 30
0.0
 11
60.8281749999
 21
-275.4315
 31
0.0
  0
LINE
  5
2AF
330
1F
100
AcDbEntity
  8
SLD-0
100
AcDbLine
 10
60.8281749999
 20
-275.4315
 30
0.0
 11
58.0501749999
 21
-275.4315
 31
0.0
  0
LINE
  5
2B0
330
1F
100
AcDbEntity
  8
SLD-0
100
AcDbLine
 10
58.0501749999
 20
-275.4315
 30
0.0
 11
58.0501749999
 21
-273.2505
 31
0.0
  0
LINE
  5
2B1
330
1F
100
AcDbEntity
  8
SLD-0
100
AcDbLine
 10
58.0501749999
 20
-273.2505
 30
0.0
 11
54.763175
 21
-273.2505
 31
0.0
  0
LINE
  5
2B2
330
1F
100
AcDbEntity
  8
SLD-0
100
AcDbLine
 10
54.763175
 20
-273.2505
 30
0.0
 11
54.763175
 21
-269.6845
 31
0.0
  0
LINE
  5
2B3
330
1F
100
AcDbEntity
  8
SLD-0
100
AcDbLine
 10
54.763175
 20
-269.6845
 30
0.0
 11
58.0501749999
 21
-269.6845
 31
0.0
  0
LINE
  5
2B4
330
1F
100
AcDbEntity
  8
SLD-0
100
AcDbLine
 10
58.0501749999
 20
-269.6845
 30
0.0
 11
58.0501749999
 21
-267.4935
 31
0.0
  0
LINE
  5
2B5
330
1F
100
AcDbEntity
  8
SLD-0
100
AcDbLine
 10
58.0501749999
 20
-267.4935
 30
0.0
 11
60.8281749999
 21
-267.4935
 31
0.0
  0
LINE
  5
2B6
330
1F
100
AcDbEntity
  8
SLD-0
100
AcDbLine
 10
60.8281749999
 20
-267.4935
 30
0.0
 11
60.828175
 21
-269.6845
 31
0.0
  0
LINE
  5
2B7
330
1F
100
AcDbEntity
  8
SLD-0
100
AcDbLine
 10
60.828175
 20
-269.6845
 30
0.0
 11
66.828175
 21
-269.6845
 31
0.0
  0
LINE
  5
2B8
330
1F
100
AcDbEntity
  8
SLD-0
100
AcDbLine
 10
66.828175
 20
-269.6845
 30
0.0
 11
66.828175
 21
-265.1125
 31
0.0
  0
LINE
  5
2B9
330
1F
100
AcDbEntity
  8
SLD-0
100
AcDbLine
 10
66.828175
 20
-265.1125
 30
0.0
 11
70.003175
 21
-265.1125
 31
0.0
  0
LINE
  5
2BA
330
1F
100
AcDbEntity
  8
SLD-0
100
AcDbLine
 10
70.003175
 20
-265.1125
 30
0.0
 11
70.003175
 21
-252.4125
 31
0.0
  0
LINE
  5
2BB
330
1F
100
AcDbEntity
  8
SLD-0
100
AcDbLine
 10
70.003175
 20
-252.4125
 30
0.0
 11
66.828175
 21
-252.4125
 31
0.0
  0
LINE
  5
2BC
330
1F
100
AcDbEntity
  8
SLD-0
100
AcDbLine
 10
66.828175
 20
-252.4125
 30
0.0
 11
66.828175
 21
-247.8405
 31
0.0
  0
LINE
  5
2BD
330
1F
100
AcDbEntity
  8
SLD-0
100
AcDbLine
 10
66.828175
 20
-247.8405
 30
0.0
 11
60.828175
 21
-247.8405
 31
0.0
  0
LINE
  5
2BE
330
1F
100
AcDbEntity
  8
SLD-0
100
AcDbLine
 10
60.828175
 20
-247.8405
 30
0.0
 11
60.8281749999
 21
-250.0315
 31
0.0
  0
LINE
  5
2BF
330
1F
100
AcDbEntity
  8
SLD-0
100
AcDbLine
 10
60.8281749999
 20
-250.0315
 30
0.0
 11
58.0501749999
 21
-250.0315
 31
0.0
  0
LINE
  5
2C0
330
1F
100
AcDbEntity
  8
SLD-0
100
AcDbLine
 10
58.0501749999
 20
-250.0315
 30
0.0
 11
58.0501749999
 21
-247.8505
 31
0.0
  0
LINE
  5
2C1
330
1F
100
AcDbEntity
  8
SLD-0
100
AcDbLine
 10
58.0501749999
 20
-247.8505
 30
0.0
 11
54.763175
 21
-247.8505
 31
0.0
  0
LINE
  5
2C2
330
1F
100
AcDbEntity
  8
SLD-0
100
AcDbLine
 10
54.763175
 20
-247.8505
 30
0.0
 11
54.763175
 21
-244.2845
 31
0.0
  0
LINE
  5
2C3
330
1F
100
AcDbEntity
  8
SLD-0
100
AcDbLine
 10
54.763175
 20
-244.2845
 30
0.0
 11
58.0501749999
 21
-244.2845
 31
0.0
  0
LINE
  5
2C4
330
1F
100
AcDbEntity
  8
SLD-0
100
AcDbLine
 10
58.0501749999
 20
-244.2845
 30
0.0
 11
58.0501749999
 21
-242.0935
 31
0.0
  0
LINE
  5
2C5
330
1F
100
AcDbEntity
  8
SLD-0
100
AcDbLine
 10
58.0501749999
 20
-242.0935
 30
0.0
 11
60.8281749999
 21
-242.0935
 31
0.0
  0
LINE
  5
2C6
330
1F
100
AcDbEntity
  8
SLD-0
100
AcDbLine
 10
60.8281749999
 20
-242.0935
 30
0.0
 11
60.828175
 21
-244.2845
 31
0.0
  0
LINE
  5
2C7
330
1F
100
AcDbEntity
  8
SLD-0
100
AcDbLine
 10
60.828175
 20
-244.2845
 30
0.0
 11
66.828175
 21
-244.2845
 31
0.0
  0
LINE
  5
2C8
330
1F
100
AcDbEntity
  8
SLD-0
100
AcDbLine
 10
66.828175
 20
-244.2845
 30
0.0
 11
66.828175
 21
-239.7125
 31
0.0
  0
LINE
  5
2C9
330
1F
100
AcDbEntity
  8
SLD-0
100
AcDbLine
 10
66.828175
 20
-239.7125
 30
0.0
 11
70.003175
 21
-239.7125
 31
0.0
  0
LINE
  5
2CA
330
1F
100
AcDbEntity
  8
SLD-0
100
AcDbLine
 10
70.003175
 20
-239.7125
 30
0.0
 11
70.003175
 21
-227.0125
 31
0.0
  0
LINE
  5
2CB
330
1F
100
AcDbEntity
  8
SLD-0
100
AcDbLine
 10
70.003175
 20
-227.0125
 30
0.0
 11
66.828175
 21
-227.0125
 31
0.0
  0
LINE
  5
2CC
330
1F
100
AcDbEntity
  8
SLD-0
100
AcDbLine
 10
66.828175
 20
-227.0125
 30
0.0
 11
66.828175
 21
-222.4405
 31
0.0
  0
LINE
  5
2CD
330
1F
100
AcDbEntity
  8
SLD-0
100
AcDbLine
 10
66.828175
 20
-222.4405
 30
0.0
 11
60.828175
 21
-222.4405
 31
0.0
  0
LINE
  5
2CE
330
1F
100
AcDbEntity
  8
SLD-0
100
AcDbLine
 10
60.828175
 20
-222.4405
 30
0.0
 11
60.8281749999
 21
-224.6315
 31
0.0
  0
LINE
  5
2CF
330
1F
100
AcDbEntity
  8
SLD-0
100
AcDbLine
 10
60.8281749999
 20
-224.6315
 30
0.0
 11
58.0501749999
 21
-224.6315
 31
0.0
  0
LINE
  5
2D0
330
1F
100
AcDbEntity
  8
SLD-0
100
AcDbLine
 10
58.0501749999
 20
-224.6315
 30
0.0
 11
58.0501749999
 21
-222.4505
 31
0.0
  0
LINE
  5
2D1
330
1F
100
AcDbEntity
  8
SLD-0
100
AcDbLine
 10
58.0501749999
 20
-222.4505
 30
0.0
 11
54.763175
 21
-222.4505
 31
0.0
  0
LINE
  5
2D2
330
1F
100
AcDbEntity
  8
SLD-0
100
AcDbLine
 10
54.763175
 20
-222.4505
 30
0.0
 11
54.763175
 21
-218.8845
 31
0.0
  0
LINE
  5
2D3
330
1F
100
AcDbEntity
  8
SLD-0
100
AcDbLine
 10
54.763175
 20
-218.8845
 30
0.0
 11
58.0501749999
 21
-218.8845
 31
0.0
  0
LINE
  5
2D4
330
1F
100
AcDbEntity
  8
SLD-0
100
AcDbLine
 10
58.0501749999
 20
-218.8845
 30
0.0
 11
58.0501749999
 21
-216.6935
 31
0.0
  0
LINE
  5
2D5
330
1F
100
AcDbEntity
  8
SLD-0
100
AcDbLine
 10
58.0501749999
 20
-216.6935
 30
0.0
 11
60.8281749999
 21
-216.6935
 31
0.0
  0
LINE
  5
2D6
330
1F
100
AcDbEntity
  8
SLD-0
100
AcDbLine
 10
60.8281749999
 20
-216.6935
 30
0.0
 11
60.828175
 21
-218.8845
 31
0.0
  0
LINE
  5
2D7
330
1F
100
AcDbEntity
  8
SLD-0
100
AcDbLine
 10
60.828175
 20
-218.8845
 30
0.0
 11
66.828175
 21
-218.8845
 31
0.0
  0
LINE
  5
2D8
330
1F
100
AcDbEntity
  8
SLD-0
100
AcDbLine
 10
66.828175
 20
-218.8845
 30
0.0
 11
66.828175
 21
-214.3125
 31
0.0
  0
LINE
  5
2D9
330
1F
100
AcDbEntity
  8
SLD-0
100
AcDbLine
 10
66.828175
 20
-214.3125
 30
0.0
 11
70.003175
 21
-214.3125
 31
0.0
  0
LINE
  5
2DA
330
1F
100
AcDbEntity
  8
SLD-0
100
AcDbLine
 10
70.003175
 20
-214.3125
 30
0.0
 11
70.003175
 21
-201.6125
 31
0.0
  0
LINE
  5
2DB
330
1F
100
AcDbEntity
  8
SLD-0
100
AcDbLine
 10
70.003175
 20
-201.6125
 30
0.0
 11
66.828175
 21
-201.6125
 31
0.0
  0
LINE
  5
2DC
330
1F
100
AcDbEntity
  8
SLD-0
100
AcDbLine
 10
66.828175
 20
-201.6125
 30
0.0
 11
66.828175
 21
-197.0405
 31
0.0
  0
LINE
  5
2DD
330
1F
100
AcDbEntity
  8
SLD-0
100
AcDbLine
 10
66.828175
 20
-197.0405
 30
0.0
 11
60.828175
 21
-197.0405
 31
0.0
  0
LINE
  5
2DE
330
1F
100
AcDbEntity
  8
SLD-0
100
AcDbLine
 10
60.828175
 20
-197.0405
 30
0.0
 11
60.8281749999
 21
-199.2315
 31
0.0
  0
LINE
  5
2DF
330
1F
100
AcDbEntity
  8
SLD-0
100
AcDbLine
 10
60.8281749999
 20
-199.2315
 30
0.0
 11
58.0501749999
 21
-199.2315
 31
0.0
  0
LINE
  5
2E0
330
1F
100
AcDbEntity
  8
SLD-0
100
AcDbLine
 10
58.0501749999
 20
-199.2315
 30
0.0
 11
58.0501749999
 21
-197.0505
 31
0.0
  0
LINE
  5
2E1
330
1F
100
AcDbEntity
  8
SLD-0
100
AcDbLine
 10
58.0501749999
 20
-197.0505
 30
0.0
 11
54.763175
 21
-197.0505
 31
0.0
  0
LINE
  5
2E2
330
1F
100
AcDbEntity
  8
SLD-0
100
AcDbLine
 10
54.763175
 20
-197.0505
 30
0.0
 11
54.763175
 21
-193.4845
 31
0.0
  0
LINE
  5
2E3
330
1F
100
AcDbEntity
  8
SLD-0
100
AcDbLine
 10
54.763175
 20
-193.4845
 30
0.0
 11
58.0501749999
 21
-193.4845
 31
0.0
  0
LINE
  5
2E4
330
1F
100
AcDbEntity
  8
SLD-0
100
AcDbLine
 10
58.0501749999
 20
-193.4845
 30
0.0
 11
58.0501749999
 21
-191.2935
 31
0.0
  0
LINE
  5
2E5
330
1F
100
AcDbEntity
  8
SLD-0
100
AcDbLine
 10
58.0501749999
 20
-191.2935
 30
0.0
 11
60.8281749999
 21
-191.2935
 31
0.0
  0
LINE
  5
2E6
330
1F
100
AcDbEntity
  8
SLD-0
100
AcDbLine
 10
60.8281749999
 20
-191.2935
 30
0.0
 11
60.828175
 21
-193.4845
 31
0.0
  0
LINE
  5
2E7
330
1F
100
AcDbEntity
  8
SLD-0
100
AcDbLine
 10
60.828175
 20
-193.4845
 30
0.0
 11
66.828175
 21
-193.4845
 31
0.0
  0
LINE
  5
2E8
330
1F
100
AcDbEntity
  8
SLD-0
100
AcDbLine
 10
66.828175
 20
-193.4845
 30
0.0
 11
66.828175
 21
-188.9125
 31
0.0
  0
LINE
  5
2E9
330
1F
100
AcDbEntity
  8
SLD-0
100
AcDbLine
 10
66.828175
 20
-188.9125
 30
0.0
 11
70.003175
 21
-188.9125
 31
0.0
  0
LINE
  5
2EA
330
1F
100
AcDbEntity
  8
SLD-0
100
AcDbLine
 10
70.003175
 20
-188.9125
 30
0.0
 11
70.003175
 21
-176.2125
 31
0.0
  0
LINE
  5
2EB
330
1F
100
AcDbEntity
  8
SLD-0
100
AcDbLine
 10
70.003175
 20
-176.2125
 30
0.0
 11
66.828175
 21
-176.2125
 31
0.0
  0
LINE
  5
2EC
330
1F
100
AcDbEntity
  8
SLD-0
100
AcDbLine
 10
66.828175
 20
-176.2125
 30
0.0
 11
66.828175
 21
-171.6405
 31
0.0
  0
LINE
  5
2ED
330
1F
100
AcDbEntity
  8
SLD-0
100
AcDbLine
 10
66.828175
 20
-171.6405
 30
0.0
 11
60.828175
 21
-171.6405
 31
0.0
  0
LINE
  5
2EE
330
1F
100
AcDbEntity
  8
SLD-0
100
AcDbLine
 10
60.828175
 20
-171.6405
 30
0.0
 11
60.8281749999
 21
-173.8315
 31
0.0
  0
LINE
  5
2EF
330
1F
100
AcDbEntity
  8
SLD-0
100
AcDbLine
 10
60.8281749999
 20
-173.8315
 30
0.0
 11
58.0501749999
 21
-173.8315
 31
0.0
  0
LINE
  5
2F0
330
1F
100
AcDbEntity
  8
SLD-0
100
AcDbLine
 10
58.0501749999
 20
-173.8315
 30
0.0
 11
58.0501749999
 21
-171.6505
 31
0.0
  0
LINE
  5
2F1
330
1F
100
AcDbEntity
  8
SLD-0
100
AcDbLine
 10
58.0501749999
 20
-171.6505
 30
0.0
 11
54.763175
 21
-171.6505
 31
0.0
  0
LINE
  5
2F2
330
1F
100
AcDbEntity
  8
SLD-0
100
AcDbLine
 10
54.763175
 20
-171.6505
 30
0.0
 11
54.763175
 21
-168.0845
 31
0.0
  0
LINE
  5
2F3
330
1F
100
AcDbEntity
  8
SLD-0
100
AcDbLine
 10
54.763175
 20
-168.0845
 30
0.0
 11
58.0501749999
 21
-168.0845
 31
0.0
  0
LINE
  5
2F4
330
1F
100
AcDbEntity
  8
SLD-0
100
AcDbLine
 10
58.0501749999
 20
-168.0845
 30
0.0
 11
58.0501749999
 21
-165.8935
 31
0.0
  0
LINE
  5
2F5
330
1F
100
AcDbEntity
  8
SLD-0
100
AcDbLine
 10
58.0501749999
 20
-165.8935
 30
0.0
 11
60.8281749999
 21
-165.8935
 31
0.0
  0
LINE
  5
2F6
330
1F
100
AcDbEntity
  8
SLD-0
100
AcDbLine
 10
60.8281749999
 20
-165.8935
 30
0.0
 11
60.828175
 21
-168.0845
 31
0.0
  0
LINE
  5
2F7
330
1F
100
AcDbEntity
  8
SLD-0
100
AcDbLine
 10
60.828175
 20
-168.0845
 30
0.0
 11
66.828175
 21
-168.0845
 31
0.0
  0
LINE
  5
2F8
330
1F
100
AcDbEntity
  8
SLD-0
100
AcDbLine
 10
66.828175
 20
-168.0845
 30
0.0
 11
66.828175
 21
-163.5125
 31
0.0
  0
LINE
  5
2F9
330
1F
100
AcDbEntity
  8
SLD-0
100
AcDbLine
 10
66.828175
 20
-163.5125
 30
0.0
 11
70.003175
 21
-163.5125
 31
0.0
  0
LINE
  5
2FA
330
1F
100
AcDbEntity
  8
SLD-0
100
AcDbLine
 10
70.003175
 20
-163.5125
 30
0.0
 11
70.003175
 21
-150.8125
 31
0.0
  0
LINE
  5
2FB
330
1F
100
AcDbEntity
  8
SLD-0
100
AcDbLine
 10
70.003175
 20
-150.8125
 30
0.0
 11
66.828175
 21
-150.8125
 31
0.0
  0
LINE
  5
2FC
330
1F
100
AcDbEntity
  8
SLD-0
100
AcDbLine
 10
66.828175
 20
-150.8125
 30
0.0
 11
66.828175
 21
-146.2405
 31
0.0
  0
LINE
  5
2FD
330
1F
100
AcDbEntity
  8
SLD-0
100
AcDbLine
 10
66.828175
 20
-146.2405
 30
0.0
 11
60.828175
 21
-146.2405
 31
0.0
  0
LINE
  5
2FE
330
1F
100
AcDbEntity
  8
SLD-0
100
AcDbLine
 10
60.828175
 20
-146.2405
 30
0.0
 11
60.8281749999
 21
-148.4315
 31
0.0
  0
LINE
  5
2FF
330
1F
100
AcDbEntity
  8
SLD-0
100
AcDbLine
 10
60.8281749999
 20
-148.4315
 30
0.0
 11
58.0501749999
 21
-148.4315
 31
0.0
  0
LINE
  5
300
330
1F
100
AcDbEntity
  8
SLD-0
100
AcDbLine
 10
58.0501749999
 20
-148.4315
 30
0.0
 11
58.0501749999
 21
-146.2505
 31
0.0
  0
LINE
  5
301
330
1F
100
AcDbEntity
  8
SLD-0
100
AcDbLine
 10
58.0501749999
 20
-146.2505
 30
0.0
 11
54.763175
 21
-146.2505
 31
0.0
  0
LINE
  5
302
330
1F
100
AcDbEntity
  8
SLD-0
100
AcDbLine
 10
54.763175
 20
-146.2505
 30
0.0
 11
54.763175
 21
-142.6845
 31
0.0
  0
LINE
  5
303
330
1F
100
AcDbEntity
  8
SLD-0
100
AcDbLine
 10
54.763175
 20
-142.6845
 30
0.0
 11
58.0501749999
 21
-142.6845
 31
0.0
  0
LINE
  5
304
330
1F
100
AcDbEntity
  8
SLD-0
100
AcDbLine
 10
58.0501749999
 20
-142.6845
 30
0.0
 11
58.0501749999
 21
-140.4935
 31
0.0
  0
LINE
  5
305
330
1F
100
AcDbEntity
  8
SLD-0
100
AcDbLine
 10
58.0501749999
 20
-140.4935
 30
0.0
 11
60.8281749999
 21
-140.4935
 31
0.0
  0
LINE
  5
306
330
1F
100
AcDbEntity
  8
SLD-0
100
AcDbLine
 10
60.8281749999
 20
-140.4935
 30
0.0
 11
60.828175
 21
-142.6845
 31
0.0
  0
LINE
  5
307
330
1F
100
AcDbEntity
  8
SLD-0
100
AcDbLine
 10
60.828175
 20
-142.6845
 30
0.0
 11
66.828175
 21
-142.6845
 31
0.0
  0
LINE
  5
308
330
1F
100
AcDbEntity
  8
SLD-0
100
AcDbLine
 10
66.828175
 20
-142.6845
 30
0.0
 11
66.828175
 21
-138.1125
 31
0.0
  0
LINE
  5
309
330
1F
100
AcDbEntity
  8
SLD-0
100
AcDbLine
 10
66.828175
 20
-138.1125
 30
0.0
 11
70.003175
 21
-138.1125
 31
0.0
  0
LINE
  5
30A
330
1F
100
AcDbEntity
  8
SLD-0
100
AcDbLine
 10
70.003175
 20
-138.1125
 30
0.0
 11
70.003175
 21
-125.4125
 31
0.0
  0
LINE
  5
30B
330
1F
100
AcDbEntity
  8
SLD-0
100
AcDbLine
 10
70.003175
 20
-125.4125
 30
0.0
 11
66.828175
 21
-125.4125
 31
0.0
  0
LINE
  5
30C
330
1F
100
AcDbEntity
  8
SLD-0
100
AcDbLine
 10
66.828175
 20
-125.4125
 30
0.0
 11
66.828175
 21
-120.8405
 31
0.0
  0
LINE
  5
30D
330
1F
100
AcDbEntity
  8
SLD-0
100
AcDbLine
 10
66.828175
 20
-120.8405
 30
0.0
 11
60.828175
 21
-120.8405
 31
0.0
  0
LINE
  5
30E
330
1F
100
AcDbEntity
  8
SLD-0
100
AcDbLine
 10
60.828175
 20
-120.8405
 30
0.0
 11
60.8281749999
 21
-123.0315
 31
0.0
  0
LINE
  5
30F
330
1F
100
AcDbEntity
  8
SLD-0
100
AcDbLine
 10
60.8281749999
 20
-123.0315
 30
0.0
 11
58.0501749999
 21
-123.0315
 31
0.0
  0
LINE
  5
310
330
1F
100
AcDbEntity
  8
SLD-0
100
AcDbLine
 10
58.0501749999
 20
-123.0315
 30
0.0
 11
58.0501749999
 21
-120.8505
 31
0.0
  0
LINE
  5
311
330
1F
100
AcDbEntity
  8
SLD-0
100
AcDbLine
 10
58.0501749999
 20
-120.8505
 30
0.0
 11
54.763175
 21
-120.8505
 31
0.0
  0
LINE
  5
312
330
1F
100
AcDbEntity
  8
SLD-0
100
AcDbLine
 10
54.763175
 20
-120.8505
 30
0.0
 11
54.763175
 21
-117.2845
 31
0.0
  0
LINE
  5
313
330
1F
100
AcDbEntity
  8
SLD-0
100
AcDbLine
 10
54.763175
 20
-117.2845
 30
0.0
 11
58.0501749999
 21
-117.2845
 31
0.0
  0
LINE
  5
314
330
1F
100
AcDbEntity
  8
SLD-0
100
AcDbLine
 10
58.0501749999
 20
-117.2845
 30
0.0
 11
58.0501749999
 21
-115.0935
 31
0.0
  0
LINE
  5
315
330
1F
100
AcDbEntity
  8
SLD-0
100
AcDbLine
 10
58.0501749999
 20
-115.0935
 30
0.0
 11
60.8281749999
 21
-115.0935
 31
0.0
  0
LINE
  5
316
330
1F
100
AcDbEntity
  8
SLD-0
100
AcDbLine
 10
60.8281749999
 20
-115.0935
 30
0.0
 11
60.828175
 21
-117.2845
 31
0.0
  0
LINE
  5
317
330
1F
100
AcDbEntity
  8
SLD-0
100
AcDbLine
 10
60.828175
 20
-117.2845
 30
0.0
 11
66.828175
 21
-117.2845
 31
0.0
  0
LINE
  5
318
330
1F
100
AcDbEntity
  8
SLD-0
100
AcDbLine
 10
66.828175
 20
-117.2845
 30
0.0
 11
66.828175
 21
-112.7125
 31
0.0
  0
LINE
  5
319
330
1F
100
AcDbEntity
  8
SLD-0
100
AcDbLine
 10
66.828175
 20
-112.7125
 30
0.0
 11
70.003175
 21
-112.7125
 31
0.0
  0
LINE
  5
31A
330
1F
100
AcDbEntity
  8
SLD-0
100
AcDbLine
 10
70.003175
 20
-112.7125
 30
0.0
 11
70.003175
 21
-100.0125
 31
0.0
  0
LINE
  5
31B
330
1F
100
AcDbEntity
  8
SLD-0
100
AcDbLine
 10
70.003175
 20
-100.0125
 30
0.0
 11
66.828175
 21
-100.0125
 31
0.0
  0
LINE
  5
31C
330
1F
100
AcDbEntity
  8
SLD-0
100
AcDbLine
 10
66.828175
 20
-100.0125
 30
0.0
 11
66.828175
 21
-95.4405
 31
0.0
  0
LINE
  5
31D
330
1F
100
AcDbEntity
  8
SLD-0
100
AcDbLine
 10
66.828175
 20
-95.4405
 30
0.0
 11
60.828175
 21
-95.4405
 31
0.0
  0
LINE
  5
31E
330
1F
100
AcDbEntity
  8
SLD-0
100
AcDbLine
 10
60.828175
 20
-95.4405
 30
0.0
 11
60.8281749999
 21
-97.6315
 31
0.0
  0
LINE
  5
31F
330
1F
100
AcDbEntity
  8
SLD-0
100
AcDbLine
 10
60.8281749999
 20
-97.6315
 30
0.0
 11
58.0501749999
 21
-97.6315
 31
0.0
  0
LINE
  5
320
330
1F
100
AcDbEntity
  8
SLD-0
100
AcDbLine
 10
58.0501749999
 20
-97.6315
 30
0.0
 11
58.0501749999
 21
-95.4505
 31
0.0
  0
LINE
  5
321
330
1F
100
AcDbEntity
  8
SLD-0
100
AcDbLine
 10
58.0501749999
 20
-95.4505
 30
0.0
 11
54.763175
 21
-95.4505
 31
0.0
  0
LINE
  5
322
330
1F
100
AcDbEntity
  8
SLD-0
100
AcDbLine
 10
54.763175
 20
-95.4505
 30
0.0
 11
54.763175
 21
-91.8845
 31
0.0
  0
LINE
  5
323
330
1F
100
AcDbEntity
  8
SLD-0
100
AcDbLine
 10
54.763175
 20
-91.8845
 30
0.0
 11
58.0501749999
 21
-91.8845
 31
0.0
  0
LINE
  5
324
330
1F
100
AcDbEntity
  8
SLD-0
100
AcDbLine
 10
58.0501749999
 20
-91.8845
 30
0.0
 11
58.0501749999
 21
-89.6935
 31
0.0
  0
LINE
  5
325
330
1F
100
AcDbEntity
  8
SLD-0
100
AcDbLine
 10
58.0501749999
 20
-89.6935
 30
0.0
 11
60.8281749999
 21
-89.6935
 31
0.0
  0
LINE
  5
326
330
1F
100
AcDbEntity
  8
SLD-0
100
AcDbLine
 10
60.8281749999
 20
-89.6935
 30
0.0
 11
60.828175
 21
-91.8845
 31
0.0
  0
LINE
  5
327
330
1F
100
AcDbEntity
  8
SLD-0
100
AcDbLine
 10
60.828175
 20
-91.8845
 30
0.0
 11
66.828175
 21
-91.8845
 31
0.0
  0
LINE
  5
328
330
1F
100
AcDbEntity
  8
SLD-0
100
AcDbLine
 10
66.828175
 20
-91.8845
 30
0.0
 11
66.828175
 21
-87.3125
 31
0.0
  0
LINE
  5
329
330
1F
100
AcDbEntity
  8
SLD-0
100
AcDbLine
 10
66.828175
 20
-87.3125
 30
0.0
 11
70.003175
 21
-87.3125
 31
0.0
  0
LINE
  5
32A
330
1F
100
AcDbEntity
  8
SLD-0
100
AcDbLine
 10
70.003175
 20
-87.3125
 30
0.0
 11
70.003175
 21
-74.6125
 31
0.0
  0
LINE
  5
32B
330
1F
100
AcDbEntity
  8
SLD-0
100
AcDbLine
 10
70.003175
 20
-74.6125
 30
0.0
 11
66.828175
 21
-74.6125
 31
0.0
  0
LINE
  5
32C
330
1F
100
AcDbEntity
  8
SLD-0
100
AcDbLine
 10
66.828175
 20
-74.6125
 30
0.0
 11
66.828175
 21
-70.0405
 31
0.0
  0
LINE
  5
32D
330
1F
100
AcDbEntity
  8
SLD-0
100
AcDbLine
 10
66.828175
 20
-70.0405
 30
0.0
 11
60.828175
 21
-70.0405
 31
0.0
  0
LINE
  5
32E
330
1F
100
AcDbEntity
  8
SLD-0
100
AcDbLine
 10
60.828175
 20
-70.0405
 30
0.0
 11
60.8281749999
 21
-72.2315
 31
0.0
  0
LINE
  5
32F
330
1F
100
AcDbEntity
  8
SLD-0
100
AcDbLine
 10
60.8281749999
 20
-72.2315
 30
0.0
 11
58.0501749999
 21
-72.2315
 31
0.0
  0
LINE
  5
330
330
1F
100
AcDbEntity
  8
SLD-0
100
AcDbLine
 10
58.0501749999
 20
-72.2315
 30
0.0
 11
58.0501749999
 21
-70.0505
 31
0.0
  0
LINE
  5
331
330
1F
100
AcDbEntity
  8
SLD-0
100
AcDbLine
 10
58.0501749999
 20
-70.0505
 30
0.0
 11
54.763175
 21
-70.0505
 31
0.0
  0
LINE
  5
332
330
1F
100
AcDbEntity
  8
SLD-0
100
AcDbLine
 10
54.763175
 20
-70.0505
 30
0.0
 11
54.763175
 21
-66.4845
 31
0.0
  0
LINE
  5
333
330
1F
100
AcDbEntity
  8
SLD-0
100
AcDbLine
 10
54.763175
 20
-66.4845
 30
0.0
 11
58.0501749999
 21
-66.4845
 31
0.0
  0
LINE
  5
334
330
1F
100
AcDbEntity
  8
SLD-0
100
AcDbLine
 10
58.0501749999
 20
-66.4845
 30
0.0
 11
58.0501749999
 21
-64.2935
 31
0.0
  0
LINE
  5
335
330
1F
100
AcDbEntity
  8
SLD-0
100
AcDbLine
 10
58.0501749999
 20
-64.2935
 30
0.0
 11
60.8281749999
 21
-64.2935
 31
0.0
  0
LINE
  5
336
330
1F
100
AcDbEntity
  8
SLD-0
100
AcDbLine
 10
60.8281749999
 20
-64.2935
 30
0.0
 11
60.828175
 21
-66.4845
 31
0.0
  0
LINE
  5
337
330
1F
100
AcDbEntity
  8
SLD-0
100
AcDbLine
 10
60.828175
 20
-66.4845
 30
0.0
 11
66.828175
 21
-66.4845
 31
0.0
  0
LINE
  5
338
330
1F
100
AcDbEntity
  8
SLD-0
100
AcDbLine
 10
66.828175
 20
-66.4845
 30
0.0
 11
66.828175
 21
-61.9125
 31
0.0
  0
LINE
  5
339
330
1F
100
AcDbEntity
  8
SLD-0
100
AcDbLine
 10
66.828175
 20
-61.9125
 30
0.0
 11
70.003175
 21
-61.9125
 31
0.0
  0
LINE
  5
33A
330
1F
100
AcDbEntity
  8
SLD-0
100
AcDbLine
 10
70.003175
 20
-61.9125
 30
0.0
 11
70.003175
 21
-49.2125
 31
0.0
  0
LINE
  5
33B
330
1F
100
AcDbEntity
  8
SLD-0
100
AcDbLine
 10
70.003175
 20
-49.2125
 30
0.0
 11
66.828175
 21
-49.2125
 31
0.0
  0
LINE
  5
33C
330
1F
100
AcDbEntity
  8
SLD-0
100
AcDbLine
 10
66.828175
 20
-49.2125
 30
0.0
 11
66.828175
 21
-44.6405
 31
0.0
  0
LINE
  5
33D
330
1F
100
AcDbEntity
  8
SLD-0
100
AcDbLine
 10
66.828175
 20
-44.6405
 30
0.0
 11
60.828175
 21
-44.6405
 31
0.0
  0
LINE
  5
33E
330
1F
100
AcDbEntity
  8
SLD-0
100
AcDbLine
 10
60.828175
 20
-44.6405
 30
0.0
 11
60.8281749999
 21
-46.8315
 31
0.0
  0
LINE
  5
33F
330
1F
100
AcDbEntity
  8
SLD-0
100
AcDbLine
 10
60.8281749999
 20
-46.8315
 30
0.0
 11
58.0501749999
 21
-46.8315
 31
0.0
  0
LINE
  5
340
330
1F
100
AcDbEntity
  8
SLD-0
100
AcDbLine
 10
58.0501749999
 20
-46.8315
 30
0.0
 11
58.0501749999
 21
-44.6505
 31
0.0
  0
LINE
  5
341
330
1F
100
AcDbEntity
  8
SLD-0
100
AcDbLine
 10
58.0501749999
 20
-44.6505
 30
0.0
 11
54.763175
 21
-44.6505
 31
0.0
  0
LINE
  5
342
330
1F
100
AcDbEntity
  8
SLD-0
100
AcDbLine
 10
54.763175
 20
-44.6505
 30
0.0
 11
54.763175
 21
-41.0845
 31
0.0
  0
LINE
  5
343
330
1F
100
AcDbEntity
  8
SLD-0
100
AcDbLine
 10
54.763175
 20
-41.0845
 30
0.0
 11
58.0501749999
 21
-41.0845
 31
0.0
  0
LINE
  5
344
330
1F
100
AcDbEntity
  8
SLD-0
100
AcDbLine
 10
58.0501749999
 20
-41.0845
 30
0.0
 11
58.0501749999
 21
-38.8935
 31
0.0
  0
LINE
  5
345
330
1F
100
AcDbEntity
  8
SLD-0
100
AcDbLine
 10
58.0501749999
 20
-38.8935
 30
0.0
 11
60.8281749999
 21
-38.8935
 31
0.0
  0
LINE
  5
346
330
1F
100
AcDbEntity
  8
SLD-0
100
AcDbLine
 10
60.8281749999
 20
-38.8935
 30
0.0
 11
60.828175
 21
-41.0845
 31
0.0
  0
LINE
  5
347
330
1F
100
AcDbEntity
  8
SLD-0
100
AcDbLine
 10
60.828175
 20
-41.0845
 30
0.0
 11
66.828175
 21
-41.0845
 31
0.0
  0
LINE
  5
348
330
1F
100
AcDbEntity
  8
SLD-0
100
AcDbLine
 10
66.828175
 20
-41.0845
 30
0.0
 11
66.828175
 21
-36.5125
 31
0.0
  0
LINE
  5
349
330
1F
100
AcDbEntity
  8
SLD-0
100
AcDbLine
 10
66.828175
 20
-36.5125
 30
0.0
 11
70.003175
 21
-36.5125
 31
0.0
  0
LINE
  5
34A
330
1F
100
AcDbEntity
  8
SLD-0
100
AcDbLine
 10
70.003175
 20
-36.5125
 30
0.0
 11
70.003175
 21
-23.8125
 31
0.0
  0
LINE
  5
34B
330
1F
100
AcDbEntity
  8
SLD-0
100
AcDbLine
 10
70.003175
 20
-23.8125
 30
0.0
 11
66.828175
 21
-23.8125
 31
0.0
  0
LINE
  5
34C
330
1F
100
AcDbEntity
  8
SLD-0
100
AcDbLine
 10
66.828175
 20
-23.8125
 30
0.0
 11
66.828175
 21
-19.2405
 31
0.0
  0
LINE
  5
34D
330
1F
100
AcDbEntity
  8
SLD-0
100
AcDbLine
 10
66.828175
 20
-19.2405
 30
0.0
 11
60.828175
 21
-19.2405
 31
0.0
  0
LINE
  5
34E
330
1F
100
AcDbEntity
  8
SLD-0
100
AcDbLine
 10
60.828175
 20
-19.2405
 30
0.0
 11
60.8281749999
 21
-21.4315
 31
0.0
  0
LINE
  5
34F
330
1F
100
AcDbEntity
  8
SLD-0
100
AcDbLine
 10
60.8281749999
 20
-21.4315
 30
0.0
 11
58.0501749999
 21
-21.4315
 31
0.0
  0
LINE
  5
350
330
1F
100
AcDbEntity
  8
SLD-0
100
AcDbLine
 10
58.0501749999
 20
-21.4315
 30
0.0
 11
58.0501749999
 21
-19.2505
 31
0.0
  0
LINE
  5
351
330
1F
100
AcDbEntity
  8
SLD-0
100
AcDbLine
 10
58.0501749999
 20
-19.2505
 30
0.0
 11
54.763175
 21
-19.2505
 31
0.0
  0
LINE
  5
352
330
1F
100
AcDbEntity
  8
SLD-0
100
AcDbLine
 10
54.763175
 20
-19.2505
 30
0.0
 11
54.763175
 21
-15.6845
 31
0.0
  0
LINE
  5
353
330
1F
100
AcDbEntity
  8
SLD-0
100
AcDbLine
 10
54.763175
 20
-15.6845
 30
0.0
 11
58.0501749999
 21
-15.6845
 31
0.0
  0
LINE
  5
354
330
1F
100
AcDbEntity
  8
SLD-0
100
AcDbLine
 10
58.0501749999
 20
-15.6845
 30
0.0
 11
58.0501749999
 21
-13.4935
 31
0.0
  0
LINE
  5
355
330
1F
100
AcDbEntity
  8
SLD-0
100
AcDbLine
 10
58.0501749999
 20
-13.4935
 30
0.0
 11
60.8281749999
 21
-13.4935
 31
0.0
  0
LINE
  5
356
330
1F
100
AcDbEntity
  8
SLD-0
100
AcDbLine
 10
60.8281749999
 20
-13.4935
 30
0.0
 11
60.828175
 21
-15.6845
 31
0.0
  0
LINE
  5
357
330
1F
100
AcDbEntity
  8
SLD-0
100
AcDbLine
 10
60.828175
 20
-15.6845
 30
0.0
 11
66.828175
 21
-15.6845
 31
0.0
  0
LINE
  5
358
330
1F
100
AcDbEntity
  8
SLD-0
100
AcDbLine
 10
66.828175
 20
-15.6845
 30
0.0
 11
66.828175
 21
-11.1125
 31
0.0
  0
LINE
  5
359
330
1F
100
AcDbEntity
  8
SLD-0
100
AcDbLine
 10
66.828175
 20
-11.1125
 30
0.0
 11
70.003175
 21
-11.1125
 31
0.0
  0
LINE
  5
35A
330
1F
100
AcDbEntity
  8
SLD-0
100
AcDbLine
 10
70.003175
 20
-11.1125
 30
0.0
 11
70.003175
 21
1.5875
 31
0.0
  0
LINE
  5
35B
330
1F
100
AcDbEntity
  8
SLD-0
100
AcDbLine
 10
70.003175
 20
1.5875
 30
0.0
 11
66.828175
 21
1.5875
 31
0.0
  0
LINE
  5
35C
330
1F
100
AcDbEntity
  8
SLD-0
100
AcDbLine
 10
66.828175
 20
1.5875
 30
0.0
 11
66.828175
 21
6.1595
 31
0.0
  0
LINE
  5
35D
330
1F
100
AcDbEntity
  8
SLD-0
100
AcDbLine
 10
66.828175
 20
6.1595
 30
0.0
 11
60.828175
 21
6.1595
 31
0.0
  0
LINE
  5
35E
330
1F
100
AcDbEntity
  8
SLD-0
100
AcDbLine
 10
60.828175
 20
6.1595
 30
0.0
 11
60.8281749999
 21
3.9685
 31
0.0
  0
LINE
  5
35F
330
1F
100
AcDbEntity
  8
SLD-0
100
AcDbLine
 10
60.8281749999
 20
3.9685
 30
0.0
 11
58.0501749999
 21
3.9685
 31
0.0
  0
LINE
  5
360
330
1F
100
AcDbEntity
  8
SLD-0
100
AcDbLine
 10
58.0501749999
 20
3.9685
 30
0.0
 11
58.0501749999
 21
6.1495
 31
0.0
  0
LINE
  5
361
330
1F
100
AcDbEntity
  8
SLD-0
100
AcDbLine
 10
58.0501749999
 20
6.1495
 30
0.0
 11
54.763175
 21
6.1495
 31
0.0
  0
LINE
  5
362
330
1F
100
AcDbEntity
  8
SLD-0
100
AcDbLine
 10
54.763175
 20
6.1495
 30
0.0
 11
54.763175
 21
9.7155
 31
0.0
  0
LINE
  5
363
330
1F
100
AcDbEntity
  8
SLD-0
100
AcDbLine
 10
54.763175
 20
9.7155
 30
0.0
 11
58.0501749999
 21
9.7155
 31
0.0
  0
LINE
  5
364
330
1F
100
AcDbEntity
  8
SLD-0
100
AcDbLine
 10
58.0501749999
 20
9.7155
 30
0.0
 11
58.0501749999
 21
11.9065
 31
0.0
  0
LINE
  5
365
330
1F
100
AcDbEntity
  8
SLD-0
100
AcDbLine
 10
58.0501749999
 20
11.9065
 30
0.0
 11
60.8281749999
 21
11.9065
 31
0.0
  0
LINE
  5
366
330
1F
100
AcDbEntity
  8
SLD-0
100
AcDbLine
 10
60.8281749999
 20
11.9065
 30
0.0
 11
60.828175
 21
9.7155
 31
0.0
  0
LINE
  5
367
330
1F
100
AcDbEntity
  8
SLD-0
100
AcDbLine
 10
60.828175
 20
9.7155
 30
0.0
 11
66.828175
 21
9.7155
 31
0.0
  0
LINE
  5
368
330
1F
100
AcDbEntity
  8
SLD-0
100
AcDbLine
 10
66.828175
 20
9.7155
 30
0.0
 11
66.828175
 21
14.2875
 31
0.0
  0
LINE
  5
369
330
1F
100
AcDbEntity
  8
SLD-0
100
AcDbLine
 10
66.828175
 20
14.2875
 30
0.0
 11
70.003175
 21
14.2875
 31
0.0
  0
LINE
  5
36A
330
1F
100
AcDbEntity
  8
SLD-0
100
AcDbLine
 10
70.003175
 20
14.2875
 30
0.0
 11
70.003175
 21
26.9875
 31
0.0
  0
LINE
  5
36B
330
1F
100
AcDbEntity
  8
SLD-0
100
AcDbLine
 10
70.003175
 20
26.9875
 30
0.0
 11
66.828175
 21
26.9875
 31
0.0
  0
LINE
  5
36C
330
1F
100
AcDbEntity
  8
SLD-0
100
AcDbLine
 10
66.828175
 20
26.9875
 30
0.0
 11
66.828175
 21
31.5595
 31
0.0
  0
LINE
  5
36D
330
1F
100
AcDbEntity
  8
SLD-0
100
AcDbLine
 10
66.828175
 20
31.5595
 30
0.0
 11
60.828175
 21
31.5595
 31
0.0
  0
LINE
  5
36E
330
1F
100
AcDbEntity
  8
SLD-0
100
AcDbLine
 10
60.828175
 20
31.5595
 30
0.0
 11
60.8281749999
 21
29.3685
 31
0.0
  0
LINE
  5
36F
330
1F
100
AcDbEntity
  8
SLD-0
100
AcDbLine
 10
60.8281749999
 20
29.3685
 30
0.0
 11
58.0501749999
 21
29.3685
 31
0.0
  0
LINE
  5
370
330
1F
100
AcDbEntity
  8
SLD-0
100
AcDbLine
 10
58.0501749999
 20
29.3685
 30
0.0
 11
58.0501749999
 21
31.5495
 31
0.0
  0
LINE
  5
371
330
1F
100
AcDbEntity
  8
SLD-0
100
AcDbLine
 10
58.0501749999
 20
31.5495
 30
0.0
 11
54.763175
 21
31.5495
 31
0.0
  0
LINE
  5
372
330
1F
100
AcDbEntity
  8
SLD-0
100
AcDbLine
 10
54.763175
 20
31.5495
 30
0.0
 11
54.763175
 21
35.1155
 31
0.0
  0
LINE
  5
373
330
1F
100
AcDbEntity
  8
SLD-0
100
AcDbLine
 10
54.763175
 20
35.1155
 30
0.0
 11
58.0501749999
 21
35.1155
 31
0.0
  0
LINE
  5
374
330
1F
100
AcDbEntity
  8
SLD-0
100
AcDbLine
 10
58.0501749999
 20
35.1155
 30
0.0
 11
58.0501749999
 21
37.3065
 31
0.0
  0
LINE
  5
375
330
1F
100
AcDbEntity
  8
SLD-0
100
AcDbLine
 10
58.0501749999
 20
37.3065
 30
0.0
 11
60.8281749999
 21
37.3065
 31
0.0
  0
LINE
  5
376
330
1F
100
AcDbEntity
  8
SLD-0
100
AcDbLine
 10
60.8281749999
 20
37.3065
 30
0.0
 11
60.828175
 21
35.1155
 31
0.0
  0
LINE
  5
377
330
1F
100
AcDbEntity
  8
SLD-0
100
AcDbLine
 10
60.828175
 20
35.1155
 30
0.0
 11
66.828175
 21
35.1155
 31
0.0
  0
LINE
  5
378
330
1F
100
AcDbEntity
  8
SLD-0
100
AcDbLine
 10
66.828175
 20
35.1155
 30
0.0
 11
66.828175
 21
39.6875
 31
0.0
  0
LINE
  5
379
330
1F
100
AcDbEntity
  8
SLD-0
100
AcDbLine
 10
66.828175
 20
39.6875
 30
0.0
 11
70.003175
 21
39.6875
 31
0.0
  0
LINE
  5
37A
330
1F
100
AcDbEntity
  8
SLD-0
100
AcDbLine
 10
70.003175
 20
39.6875
 30
0.0
 11
70.003175
 21
52.3875
 31
0.0
  0
LINE
  5
37B
330
1F
100
AcDbEntity
  8
SLD-0
100
AcDbLine
 10
70.003175
 20
52.3875
 30
0.0
 11
66.828175
 21
52.3875
 31
0.0
  0
LINE
  5
37C
330
1F
100
AcDbEntity
  8
SLD-0
100
AcDbLine
 10
66.828175
 20
52.3875
 30
0.0
 11
66.828175
 21
56.9595
 31
0.0
  0
LINE
  5
37D
330
1F
100
AcDbEntity
  8
SLD-0
100
AcDbLine
 10
66.828175
 20
56.9595
 30
0.0
 11
60.828175
 21
56.9595
 31
0.0
  0
LINE
  5
37E
330
1F
100
AcDbEntity
  8
SLD-0
100
AcDbLine
 10
60.828175
 20
56.9595
 30
0.0
 11
60.8281749999
 21
54.7685
 31
0.0
  0
LINE
  5
37F
330
1F
100
AcDbEntity
  8
SLD-0
100
AcDbLine
 10
60.8281749999
 20
54.7685
 30
0.0
 11
58.0501749999
 21
54.7685
 31
0.0
  0
LINE
  5
380
330
1F
100
AcDbEntity
  8
SLD-0
100
AcDbLine
 10
58.0501749999
 20
54.7685
 30
0.0
 11
58.0501749999
 21
56.9495
 31
0.0
  0
LINE
  5
381
330
1F
100
AcDbEntity
  8
SLD-0
100
AcDbLine
 10
58.0501749999
 20
56.9495
 30
0.0
 11
54.763175
 21
56.9495
 31
0.0
  0
LINE
  5
382
330
1F
100
AcDbEntity
  8
SLD-0
100
AcDbLine
 10
54.763175
 20
56.9495
 30
0.0
 11
54.763175
 21
60.5155
 31
0.0
  0
LINE
  5
383
330
1F
100
AcDbEntity
  8
SLD-0
100
AcDbLine
 10
54.763175
 20
60.5155
 30
0.0
 11
58.0501749999
 21
60.5155
 31
0.0
  0
LINE
  5
384
330
1F
100
AcDbEntity
  8
SLD-0
100
AcDbLine
 10
58.0501749999
 20
60.5155
 30
0.0
 11
58.0501749999
 21
62.7065
 31
0.0
  0
LINE
  5
385
330
1F
100
AcDbEntity
  8
SLD-0
100
AcDbLine
 10
58.0501749999
 20
62.7065
 30
0.0
 11
60.8281749999
 21
62.7065
 31
0.0
  0
LINE
  5
386
330
1F
100
AcDbEntity
  8
SLD-0
100
AcDbLine
 10
60.8281749999
 20
62.7065
 30
0.0
 11
60.828175
 21
60.5155
 31
0.0
  0
LINE
  5
387
330
1F
100
AcDbEntity
  8
SLD-0
100
AcDbLine
 10
60.828175
 20
60.5155
 30
0.0
 11
66.828175
 21
60.5155
 31
0.0
  0
LINE
  5
388
330
1F
100
AcDbEntity
  8
SLD-0
100
AcDbLine
 10
66.828175
 20
60.5155
 30
0.0
 11
66.828175
 21
65.0875
 31
0.0
  0
LINE
  5
389
330
1F
100
AcDbEntity
  8
SLD-0
100
AcDbLine
 10
66.828175
 20
65.0875
 30
0.0
 11
70.003175
 21
65.0875
 31
0.0
  0
LINE
  5
38A
330
1F
100
AcDbEntity
  8
SLD-0
100
AcDbLine
 10
70.003175
 20
65.0875
 30
0.0
 11
70.003175
 21
77.7875
 31
0.0
  0
LINE
  5
38B
330
1F
100
AcDbEntity
  8
SLD-0
100
AcDbLine
 10
70.003175
 20
77.7875
 30
0.0
 11
66.828175
 21
77.7875
 31
0.0
  0
LINE
  5
38C
330
1F
100
AcDbEntity
  8
SLD-0
100
AcDbLine
 10
66.828175
 20
77.7875
 30
0.0
 11
66.828175
 21
82.3595
 31
0.0
  0
LINE
  5
38D
330
1F
100
AcDbEntity
  8
SLD-0
100
AcDbLine
 10
66.828175
 20
82.3595
 30
0.0
 11
60.828175
 21
82.3595
 31
0.0
  0
LINE
  5
38E
330
1F
100
AcDbEntity
  8
SLD-0
100
AcDbLine
 10
60.828175
 20
82.3595
 30
0.0
 11
60.8281749999
 21
80.1685
 31
0.0
  0
LINE
  5
38F
330
1F
100
AcDbEntity
  8
SLD-0
100
AcDbLine
 10
60.8281749999
 20
80.1685
 30
0.0
 11
58.0501749999
 21
80.1685
 31
0.0
  0
LINE
  5
390
330
1F
100
AcDbEntity
  8
SLD-0
100
AcDbLine
 10
58.0501749999
 20
80.1685
 30
0.0
 11
58.0501749999
 21
82.3495
 31
0.0
  0
LINE
  5
391
330
1F
100
AcDbEntity
  8
SLD-0
100
AcDbLine
 10
58.0501749999
 20
82.3495
 30
0.0
 11
54.763175
 21
82.3495
 31
0.0
  0
LINE
  5
392
330
1F
100
AcDbEntity
  8
SLD-0
100
AcDbLine
 10
54.763175
 20
82.3495
 30
0.0
 11
54.763175
 21
85.9155
 31
0.0
  0
LINE
  5
393
330
1F
100
AcDbEntity
  8
SLD-0
100
AcDbLine
 10
54.763175
 20
85.9155
 30
0.0
 11
58.0501749999
 21
85.9155
 31
0.0
  0
LINE
  5
394
330
1F
100
AcDbEntity
  8
SLD-0
100
AcDbLine
 10
58.0501749999
 20
85.9155
 30
0.0
 11
58.0501749999
 21
88.1065
 31
0.0
  0
LINE
  5
395
330
1F
100
AcDbEntity
  8
SLD-0
100
AcDbLine
 10
58.0501749999
 20
88.1065
 30
0.0
 11
60.8281749999
 21
88.1065
 31
0.0
  0
LINE
  5
396
330
1F
100
AcDbEntity
  8
SLD-0
100
AcDbLine
 10
60.8281749999
 20
88.1065
 30
0.0
 11
60.828175
 21
85.9155
 31
0.0
  0
LINE
  5
397
330
1F
100
AcDbEntity
  8
SLD-0
100
AcDbLine
 10
60.828175
 20
85.9155
 30
0.0
 11
66.828175
 21
85.9155
 31
0.0
  0
LINE
  5
398
330
1F
100
AcDbEntity
  8
SLD-0
100
AcDbLine
 10
66.828175
 20
85.9155
 30
0.0
 11
66.828175
 21
90.4875
 31
0.0
  0
LINE
  5
399
330
1F
100
AcDbEntity
  8
SLD-0
100
AcDbLine
 10
66.828175
 20
90.4875
 30
0.0
 11
70.003175
 21
90.4875
 31
0.0
  0
LINE
  5
39A
330
1F
100
AcDbEntity
  8
SLD-0
100
AcDbLine
 10
70.003175
 20
90.4875
 30
0.0
 11
70.003175
 21
103.1875
 31
0.0
  0
LINE
  5
39B
330
1F
100
AcDbEntity
  8
SLD-0
100
AcDbLine
 10
70.003175
 20
103.1875
 30
0.0
 11
66.828175
 21
103.1875
 31
0.0
  0
LINE
  5
39C
330
1F
100
AcDbEntity
  8
SLD-0
100
AcDbLine
 10
66.828175
 20
103.1875
 30
0.0
 11
66.828175
 21
107.7595
 31
0.0
  0
LINE
  5
39D
330
1F
100
AcDbEntity
  8
SLD-0
100
AcDbLine
 10
66.828175
 20
107.7595
 30
0.0
 11
60.828175
 21
107.7595
 31
0.0
  0
LINE
  5
39E
330
1F
100
AcDbEntity
  8
SLD-0
100
AcDbLine
 10
60.828175
 20
107.7595
 30
0.0
 11
60.8281749999
 21
105.5685
 31
0.0
  0
LINE
  5
39F
330
1F
100
AcDbEntity
  8
SLD-0
100
AcDbLine
 10
60.8281749999
 20
105.5685
 30
0.0
 11
58.0501749999
 21
105.5685
 31
0.0
  0
LINE
  5
3A0
330
1F
100
AcDbEntity
  8
SLD-0
100
AcDbLine
 10
58.0501749999
 20
105.5685
 30
0.0
 11
58.0501749999
 21
107.7495
 31
0.0
  0
LINE
  5
3A1
330
1F
100
AcDbEntity
  8
SLD-0
100
AcDbLine
 10
58.0501749999
 20
107.7495
 30
0.0
 11
54.763175
 21
107.7495
 31
0.0
  0
LINE
  5
3A2
330
1F
100
AcDbEntity
  8
SLD-0
100
AcDbLine
 10
54.763175
 20
107.7495
 30
0.0
 11
54.763175
 21
111.3155
 31
0.0
  0
LINE
  5
3A3
330
1F
100
AcDbEntity
  8
SLD-0
100
AcDbLine
 10
54.763175
 20
111.3155
 30
0.0
 11
58.0501749999
 21
111.3155
 31
0.0
  0
LINE
  5
3A4
330
1F
100
AcDbEntity
  8
SLD-0
100
AcDbLine
 10
58.0501749999
 20
111.3155
 30
0.0
 11
58.0501749999
 21
113.5065
 31
0.0
  0
LINE
  5
3A5
330
1F
100
AcDbEntity
  8
SLD-0
100
AcDbLine
 10
58.0501749999
 20
113.5065
 30
0.0
 11
60.8281749999
 21
113.5065
 31
0.0
  0
LINE
  5
3A6
330
1F
100
AcDbEntity
  8
SLD-0
100
AcDbLine
 10
60.8281749999
 20
113.5065
 30
0.0
 11
60.828175
 21
111.3155
 31
0.0
  0
LINE
  5
3A7
330
1F
100
AcDbEntity
  8
SLD-0
100
AcDbLine
 10
60.828175
 20
111.3155
 30
0.0
 11
66.828175
 21
111.3155
 31
0.0
  0
LINE
  5
3A8
330
1F
100
AcDbEntity
  8
SLD-0
100
AcDbLine
 10
66.828175
 20
111.3155
 30
0.0
 11
66.828175
 21
115.8875
 31
0.0
  0
LINE
  5
3A9
330
1F
100
AcDbEntity
  8
SLD-0
100
AcDbLine
 10
66.828175
 20
115.8875
 30
0.0
 11
70.003175
 21
115.8875
 31
0.0
  0
LINE
  5
3AA
330
1F
100
AcDbEntity
  8
SLD-0
100
AcDbLine
 10
70.003175
 20
115.8875
 30
0.0
 11
70.003175
 21
128.5875
 31
0.0
  0
LINE
  5
3AB
330
1F
100
AcDbEntity
  8
SLD-0
100
AcDbLine
 10
70.003175
 20
128.5875
 30
0.0
 11
66.828175
 21
128.5875
 31
0.0
  0
LINE
  5
3AC
330
1F
100
AcDbEntity
  8
SLD-0
100
AcDbLine
 10
66.828175
 20
128.5875
 30
0.0
 11
66.828175
 21
133.1595
 31
0.0
  0
LINE
  5
3AD
330
1F
100
AcDbEntity
  8
SLD-0
100
AcDbLine
 10
66.828175
 20
133.1595
 30
0.0
 11
60.828175
 21
133.1595
 31
0.0
  0
LINE
  5
3AE
330
1F
100
AcDbEntity
  8
SLD-0
100
AcDbLine
 10
60.828175
 20
133.1595
 30
0.0
 11
60.8281749999
 21
130.9685
 31
0.0
  0
LINE
  5
3AF
330
1F
100
AcDbEntity
  8
SLD-0
100
AcDbLine
 10
60.8281749999
 20
130.9685
 30
0.0
 11
58.0501749999
 21
130.9685
 31
0.0
  0
LINE
  5
3B0
330
1F
100
AcDbEntity
  8
SLD-0
100
AcDbLine
 10
58.0501749999
 20
130.9685
 30
0.0
 11
58.0501749999
 21
133.1495
 31
0.0
  0
LINE
  5
3B1
330
1F
100
AcDbEntity
  8
SLD-0
100
AcDbLine
 10
58.0501749999
 20
133.1495
 30
0.0
 11
54.763175
 21
133.1495
 31
0.0
  0
LINE
  5
3B2
330
1F
100
AcDbEntity
  8
SLD-0
100
AcDbLine
 10
54.763175
 20
133.1495
 30
0.0
 11
54.763175
 21
136.7155
 31
0.0
  0
LINE
  5
3B3
330
1F
100
AcDbEntity
  8
SLD-0
100
AcDbLine
 10
54.763175
 20
136.7155
 30
0.0
 11
58.0501749999
 21
136.7155
 31
0.0
  0
LINE
  5
3B4
330
1F
100
AcDbEntity
  8
SLD-0
100
AcDbLine
 10
58.0501749999
 20
136.7155
 30
0.0
 11
58.0501749999
 21
138.9065
 31
0.0
  0
LINE
  5
3B5
330
1F
100
AcDbEntity
  8
SLD-0
100
AcDbLine
 10
58.0501749999
 20
138.9065
 30
0.0
 11
60.8281749999
 21
138.9065
 31
0.0
  0
LINE
  5
3B6
330
1F
100
AcDbEntity
  8
SLD-0
100
AcDbLine
 10
60.8281749999
 20
138.9065
 30
0.0
 11
60.828175
 21
136.7155
 31
0.0
  0
LINE
  5
3B7
330
1F
100
AcDbEntity
  8
SLD-0
100
AcDbLine
 10
60.828175
 20
136.7155
 30
0.0
 11
66.828175
 21
136.7155
 31
0.0
  0
LINE
  5
3B8
330
1F
100
AcDbEntity
  8
SLD-0
100
AcDbLine
 10
66.828175
 20
136.7155
 30
0.0
 11
66.828175
 21
141.2875
 31
0.0
  0
LINE
  5
3B9
330
1F
100
AcDbEntity
  8
SLD-0
100
AcDbLine
 10
66.828175
 20
141.2875
 30
0.0
 11
70.003175
 21
141.2875
 31
0.0
  0
LINE
  5
3BA
330
1F
100
AcDbEntity
  8
SLD-0
100
AcDbLine
 10
70.003175
 20
141.2875
 30
0.0
 11
70.003175
 21
153.9875
 31
0.0
  0
LINE
  5
3BB
330
1F
100
AcDbEntity
  8
SLD-0
100
AcDbLine
 10
70.003175
 20
153.9875
 30
0.0
 11
66.828175
 21
153.9875
 31
0.0
  0
LINE
  5
3BC
330
1F
100
AcDbEntity
  8
SLD-0
100
AcDbLine
 10
66.828175
 20
153.9875
 30
0.0
 11
66.828175
 21
158.5595
 31
0.0
  0
LINE
  5
3BD
330
1F
100
AcDbEntity
  8
SLD-0
100
AcDbLine
 10
66.828175
 20
158.5595
 30
0.0
 11
60.828175
 21
158.5595
 31
0.0
  0
LINE
  5
3BE
330
1F
100
AcDbEntity
  8
SLD-0
100
AcDbLine
 10
60.828175
 20
158.5595
 30
0.0
 11
60.8281749999
 21
156.3685
 31
0.0
  0
LINE
  5
3BF
330
1F
100
AcDbEntity
  8
SLD-0
100
AcDbLine
 10
60.8281749999
 20
156.3685
 30
0.0
 11
58.0501749999
 21
156.3685
 31
0.0
  0
LINE
  5
3C0
330
1F
100
AcDbEntity
  8
SLD-0
100
AcDbLine
 10
58.0501749999
 20
156.3685
 30
0.0
 11
58.0501749999
 21
158.5495
 31
0.0
  0
LINE
  5
3C1
330
1F
100
AcDbEntity
  8
SLD-0
100
AcDbLine
 10
58.0501749999
 20
158.5495
 30
0.0
 11
54.763175
 21
158.5495
 31
0.0
  0
LINE
  5
3C2
330
1F
100
AcDbEntity
  8
SLD-0
100
AcDbLine
 10
54.763175
 20
158.5495
 30
0.0
 11
54.763175
 21
162.1155
 31
0.0
  0
LINE
  5
3C3
330
1F
100
AcDbEntity
  8
SLD-0
100
AcDbLine
 10
54.763175
 20
162.1155
 30
0.0
 11
58.0501749999
 21
162.1155
 31
0.0
  0
LINE
  5
3C4
330
1F
100
AcDbEntity
  8
SLD-0
100
AcDbLine
 10
58.0501749999
 20
162.1155
 30
0.0
 11
58.0501749999
 21
164.3065
 31
0.0
  0
LINE
  5
3C5
330
1F
100
AcDbEntity
  8
SLD-0
100
AcDbLine
 10
58.0501749999
 20
164.3065
 30
0.0
 11
60.8281749999
 21
164.3065
 31
0.0
  0
LINE
  5
3C6
330
1F
100
AcDbEntity
  8
SLD-0
100
AcDbLine
 10
60.8281749999
 20
164.3065
 30
0.0
 11
60.828175
 21
162.1155
 31
0.0
  0
LINE
  5
3C7
330
1F
100
AcDbEntity
  8
SLD-0
100
AcDbLine
 10
60.828175
 20
162.1155
 30
0.0
 11
66.828175
 21
162.1155
 31
0.0
  0
LINE
  5
3C8
330
1F
100
AcDbEntity
  8
SLD-0
100
AcDbLine
 10
66.828175
 20
162.1155
 30
0.0
 11
66.828175
 21
166.6875
 31
0.0
  0
LINE
  5
3C9
330
1F
100
AcDbEntity
  8
SLD-0
100
AcDbLine
 10
66.828175
 20
166.6875
 30
0.0
 11
70.003175
 21
166.6875
 31
0.0
  0
LINE
  5
3CA
330
1F
100
AcDbEntity
  8
SLD-0
100
AcDbLine
 10
70.003175
 20
166.6875
 30
0.0
 11
70.003175
 21
179.3875
 31
0.0
  0
LINE
  5
3CB
330
1F
100
AcDbEntity
  8
SLD-0
100
AcDbLine
 10
70.003175
 20
179.3875
 30
0.0
 11
66.828175
 21
179.3875
 31
0.0
  0
LINE
  5
3CC
330
1F
100
AcDbEntity
  8
SLD-0
100
AcDbLine
 10
66.828175
 20
179.3875
 30
0.0
 11
66.828175
 21
183.9595
 31
0.0
  0
LINE
  5
3CD
330
1F
100
AcDbEntity
  8
SLD-0
100
AcDbLine
 10
66.828175
 20
183.9595
 30
0.0
 11
60.828175
 21
183.9595
 31
0.0
  0
LINE
  5
3CE
330
1F
100
AcDbEntity
  8
SLD-0
100
AcDbLine
 10
60.828175
 20
183.9595
 30
0.0
 11
60.8281749999
 21
181.7685
 31
0.0
  0
LINE
  5
3CF
330
1F
100
AcDbEntity
  8
SLD-0
100
AcDbLine
 10
60.8281749999
 20
181.7685
 30
0.0
 11
58.0501749999
 21
181.7685
 31
0.0
  0
LINE
  5
3D0
330
1F
100
AcDbEntity
  8
SLD-0
100
AcDbLine
 10
58.0501749999
 20
181.7685
 30
0.0
 11
58.0501749999
 21
183.9495
 31
0.0
  0
LINE
  5
3D1
330
1F
100
AcDbEntity
  8
SLD-0
100
AcDbLine
 10
58.0501749999
 20
183.9495
 30
0.0
 11
54.763175
 21
183.9495
 31
0.0
  0
LINE
  5
3D2
330
1F
100
AcDbEntity
  8
SLD-0
100
AcDbLine
 10
54.763175
 20
183.9495
 30
0.0
 11
54.763175
 21
187.5155
 31
0.0
  0
LINE
  5
3D3
330
1F
100
AcDbEntity
  8
SLD-0
100
AcDbLine
 10
54.763175
 20
187.5155
 30
0.0
 11
58.0501749999
 21
187.5155
 31
0.0
  0
LINE
  5
3D4
330
1F
100
AcDbEntity
  8
SLD-0
100
AcDbLine
 10
58.0501749999
 20
187.5155
 30
0.0
 11
58.0501749999
 21
189.7065
 31
0.0
  0
LINE
  5
3D5
330
1F
100
AcDbEntity
  8
SLD-0
100
AcDbLine
 10
58.0501749999
 20
189.7065
 30
0.0
 11
60.8281749999
 21
189.7065
 31
0.0
  0
LINE
  5
3D6
330
1F
100
AcDbEntity
  8
SLD-0
100
AcDbLine
 10
60.8281749999
 20
189.7065
 30
0.0
 11
60.828175
 21
187.5155
 31
0.0
  0
LINE
  5
3D7
330
1F
100
AcDbEntity
  8
SLD-0
100
AcDbLine
 10
60.828175
 20
187.5155
 30
0.0
 11
66.828175
 21
187.5155
 31
0.0
  0
LINE
  5
3D8
330
1F
100
AcDbEntity
  8
SLD-0
100
AcDbLine
 10
66.828175
 20
187.5155
 30
0.0
 11
66.828175
 21
192.0875
 31
0.0
  0
LINE
  5
3D9
330
1F
100
AcDbEntity
  8
SLD-0
100
AcDbLine
 10
66.828175
 20
192.0875
 30
0.0
 11
70.003175
 21
192.0875
 31
0.0
  0
LINE
  5
3DA
330
1F
100
AcDbEntity
  8
SLD-0
100
AcDbLine
 10
70.003175
 20
192.0875
 30
0.0
 11
70.003175
 21
204.7875
 31
0.0
  0
LINE
  5
3DB
330
1F
100
AcDbEntity
  8
SLD-0
100
AcDbLine
 10
70.003175
 20
204.7875
 30
0.0
 11
66.828175
 21
204.7875
 31
0.0
  0
LINE
  5
3DC
330
1F
100
AcDbEntity
  8
SLD-0
100
AcDbLine
 10
66.828175
 20
204.7875
 30
0.0
 11
66.828175
 21
209.3595
 31
0.0
  0
LINE
  5
3DD
330
1F
100
AcDbEntity
  8
SLD-0
100
AcDbLine
 10
66.828175
 20
209.3595
 30
0.0
 11
60.828175
 21
209.3595
 31
0.0
  0
LINE
  5
3DE
330
1F
100
AcDbEntity
  8
SLD-0
100
AcDbLine
 10
60.828175
 20
209.3595
 30
0.0
 11
60.8281749999
 21
207.1685
 31
0.0
  0
LINE
  5
3DF
330
1F
100
AcDbEntity
  8
SLD-0
100
AcDbLine
 10
60.8281749999
 20
207.1685
 30
0.0
 11
58.0501749999
 21
207.1685
 31
0.0
  0
LINE
  5
3E0
330
1F
100
AcDbEntity
  8
SLD-0
100
AcDbLine
 10
58.0501749999
 20
207.1685
 30
0.0
 11
58.0501749999
 21
209.3495
 31
0.0
  0
LINE
  5
3E1
330
1F
100
AcDbEntity
  8
SLD-0
100
AcDbLine
 10
58.0501749999
 20
209.3495
 30
0.0
 11
54.763175
 21
209.3495
 31
0.0
  0
LINE
  5
3E2
330
1F
100
AcDbEntity
  8
SLD-0
100
AcDbLine
 10
54.763175
 20
209.3495
 30
0.0
 11
54.763175
 21
212.9155
 31
0.0
  0
LINE
  5
3E3
330
1F
100
AcDbEntity
  8
SLD-0
100
AcDbLine
 10
54.763175
 20
212.9155
 30
0.0
 11
58.0501749999
 21
212.9155
 31
0.0
  0
LINE
  5
3E4
330
1F
100
AcDbEntity
  8
SLD-0
100
AcDbLine
 10
58.0501749999
 20
212.9155
 30
0.0
 11
58.0501749999
 21
215.1065
 31
0.0
  0
LINE
  5
3E5
330
1F
100
AcDbEntity
  8
SLD-0
100
AcDbLine
 10
58.0501749999
 20
215.1065
 30
0.0
 11
60.8281749999
 21
215.1065
 31
0.0
  0
LINE
  5
3E6
330
1F
100
AcDbEntity
  8
SLD-0
100
AcDbLine
 10
60.8281749999
 20
215.1065
 30
0.0
 11
60.828175
 21
212.9155
 31
0.0
  0
LINE
  5
3E7
330
1F
100
AcDbEntity
  8
SLD-0
100
AcDbLine
 10
60.828175
 20
212.9155
 30
0.0
 11
66.828175
 21
212.9155
 31
0.0
  0
LINE
  5
3E8
330
1F
100
AcDbEntity
  8
SLD-0
100
AcDbLine
 10
66.828175
 20
212.9155
 30
0.0
 11
66.828175
 21
217.4875
 31
0.0
  0
LINE
  5
3E9
330
1F
100
AcDbEntity
  8
SLD-0
100
AcDbLine
 10
66.828175
 20
217.4875
 30
0.0
 11
70.003175
 21
217.4875
 31
0.0
  0
LINE
  5
3EA
330
1F
100
AcDbEntity
  8
SLD-0
100
AcDbLine
 10
70.003175
 20
217.4875
 30
0.0
 11
70.003175
 21
230.1875
 31
0.0
  0
LINE
  5
3EB
330
1F
100
AcDbEntity
  8
SLD-0
100
AcDbLine
 10
70.003175
 20
230.1875
 30
0.0
 11
66.828175
 21
230.1875
 31
0.0
  0
LINE
  5
3EC
330
1F
100
AcDbEntity
  8
SLD-0
100
AcDbLine
 10
66.828175
 20
230.1875
 30
0.0
 11
66.828175
 21
234.7595
 31
0.0
  0
LINE
  5
3ED
330
1F
100
AcDbEntity
  8
SLD-0
100
AcDbLine
 10
66.828175
 20
234.7595
 30
0.0
 11
60.828175
 21
234.7595
 31
0.0
  0
LINE
  5
3EE
330
1F
100
AcDbEntity
  8
SLD-0
100
AcDbLine
 10
60.828175
 20
234.7595
 30
0.0
 11
60.8281749999
 21
232.5685
 31
0.0
  0
LINE
  5
3EF
330
1F
100
AcDbEntity
  8
SLD-0
100
AcDbLine
 10
60.8281749999
 20
232.5685
 30
0.0
 11
58.0501749999
 21
232.5685
 31
0.0
  0
LINE
  5
3F0
330
1F
100
AcDbEntity
  8
SLD-0
100
AcDbLine
 10
58.0501749999
 20
232.5685
 30
0.0
 11
58.0501749999
 21
234.7495
 31
0.0
  0
LINE
  5
3F1
330
1F
100
AcDbEntity
  8
SLD-0
100
AcDbLine
 10
58.0501749999
 20
234.7495
 30
0.0
 11
54.763175
 21
234.7495
 31
0.0
  0
LINE
  5
3F2
330
1F
100
AcDbEntity
  8
SLD-0
100
AcDbLine
 10
54.763175
 20
234.7495
 30
0.0
 11
54.763175
 21
238.3155
 31
0.0
  0
LINE
  5
3F3
330
1F
100
AcDbEntity
  8
SLD-0
100
AcDbLine
 10
54.763175
 20
238.3155
 30
0.0
 11
58.0501749999
 21
238.3155
 31
0.0
  0
LINE
  5
3F4
330
1F
100
AcDbEntity
  8
SLD-0
100
AcDbLine
 10
58.0501749999
 20
238.3155
 30
0.0
 11
58.0501749999
 21
240.5065
 31
0.0
  0
LINE
  5
3F5
330
1F
100
AcDbEntity
  8
SLD-0
100
AcDbLine
 10
58.0501749999
 20
240.5065
 30
0.0
 11
60.8281749999
 21
240.5065
 31
0.0
  0
LINE
  5
3F6
330
1F
100
AcDbEntity
  8
SLD-0
100
AcDbLine
 10
60.8281749999
 20
240.5065
 30
0.0
 11
60.828175
 21
238.3155
 31
0.0
  0
LINE
  5
3F7
330
1F
100
AcDbEntity
  8
SLD-0
100
AcDbLine
 10
60.828175
 20
238.3155
 30
0.0
 11
66.828175
 21
238.3155
 31
0.0
  0
LINE
  5
3F8
330
1F
100
AcDbEntity
  8
SLD-0
100
AcDbLine
 10
66.828175
 20
238.3155
 30
0.0
 11
66.828175
 21
242.8875
 31
0.0
  0
LINE
  5
3F9
330
1F
100
AcDbEntity
  8
SLD-0
100
AcDbLine
 10
66.828175
 20
242.8875
 30
0.0
 11
70.003175
 21
242.8875
 31
0.0
  0
LINE
  5
3FA
330
1F
100
AcDbEntity
  8
SLD-0
100
AcDbLine
 10
70.003175
 20
242.8875
 30
0.0
 11
70.003175
 21
255.5875
 31
0.0
  0
LINE
  5
3FB
330
1F
100
AcDbEntity
  8
SLD-0
100
AcDbLine
 10
70.003175
 20
255.5875
 30
0.0
 11
66.828175
 21
255.5875
 31
0.0
  0
LINE
  5
3FC
330
1F
100
AcDbEntity
  8
SLD-0
100
AcDbLine
 10
66.828175
 20
255.5875
 30
0.0
 11
66.828175
 21
260.1595
 31
0.0
  0
LINE
  5
3FD
330
1F
100
AcDbEntity
  8
SLD-0
100
AcDbLine
 10
66.828175
 20
260.1595
 30
0.0
 11
60.828175
 21
260.1595
 31
0.0
  0
LINE
  5
3FE
330
1F
100
AcDbEntity
  8
SLD-0
100
AcDbLine
 10
60.828175
 20
260.1595
 30
0.0
 11
60.8281749999
 21
257.9685
 31
0.0
  0
LINE
  5
3FF
330
1F
100
AcDbEntity
  8
SLD-0
100
AcDbLine
 10
60.8281749999
 20
257.9685
 30
0.0
 11
58.0501749999
 21
257.9685
 31
0.0
  0
LINE
  5
400
330
1F
100
AcDbEntity
  8
SLD-0
100
AcDbLine
 10
58.0501749999
 20
257.9685
 30
0.0
 11
58.0501749999
 21
260.1495
 31
0.0
  0
LINE
  5
401
330
1F
100
AcDbEntity
  8
SLD-0
100
AcDbLine
 10
58.0501749999
 20
260.1495
 30
0.0
 11
54.763175
 21
260.1495
 31
0.0
  0
LINE
  5
402
330
1F
100
AcDbEntity
  8
SLD-0
100
AcDbLine
 10
54.763175
 20
260.1495
 30
0.0
 11
54.763175
 21
263.7155
 31
0.0
  0
LINE
  5
403
330
1F
100
AcDbEntity
  8
SLD-0
100
AcDbLine
 10
54.763175
 20
263.7155
 30
0.0
 11
58.0501749999
 21
263.7155
 31
0.0
  0
LINE
  5
404
330
1F
100
AcDbEntity
  8
SLD-0
100
AcDbLine
 10
58.0501749999
 20
263.7155
 30
0.0
 11
58.0501749999
 21
265.9065
 31
0.0
  0
LINE
  5
405
330
1F
100
AcDbEntity
  8
SLD-0
100
AcDbLine
 10
58.0501749999
 20
265.9065
 30
0.0
 11
60.8281749999
 21
265.9065
 31
0.0
  0
LINE
  5
406
330
1F
100
AcDbEntity
  8
SLD-0
100
AcDbLine
 10
60.8281749999
 20
265.9065
 30
0.0
 11
60.828175
 21
263.7155
 31
0.0
  0
LINE
  5
407
330
1F
100
AcDbEntity
  8
SLD-0
100
AcDbLine
 10
60.828175
 20
263.7155
 30
0.0
 11
66.828175
 21
263.7155
 31
0.0
  0
LINE
  5
408
330
1F
100
AcDbEntity
  8
SLD-0
100
AcDbLine
 10
66.828175
 20
263.7155
 30
0.0
 11
66.828175
 21
268.2875
 31
0.0
  0
LINE
  5
409
330
1F
100
AcDbEntity
  8
SLD-0
100
AcDbLine
 10
66.828175
 20
268.2875
 30
0.0
 11
70.003175
 21
268.2875
 31
0.0
  0
LINE
  5
40A
330
1F
100
AcDbEntity
  8
SLD-0
100
AcDbLine
 10
70.003175
 20
268.2875
 30
0.0
 11
70.003175
 21
280.9875
 31
0.0
  0
LINE
  5
40B
330
1F
100
AcDbEntity
  8
SLD-0
100
AcDbLine
 10
70.003175
 20
280.9875
 30
0.0
 11
66.828175
 21
280.9875
 31
0.0
  0
LINE
  5
40C
330
1F
100
AcDbEntity
  8
SLD-0
100
AcDbLine
 10
66.828175
 20
280.9875
 30
0.0
 11
66.828175
 21
285.5595
 31
0.0
  0
LINE
  5
40D
330
1F
100
AcDbEntity
  8
SLD-0
100
AcDbLine
 10
66.828175
 20
285.5595
 30
0.0
 11
60.828175
 21
285.5595
 31
0.0
  0
ARC
  5
40E
330
1F
100
AcDbEntity
  8
SLD-0
100
AcDbCircle
 10
2.3256446187
 20
-204.1659624858
 30
0.0
 40
5.066776504330636
100
AcDbArc
 50
180.0
 51
0.0
  0
ARC
  5
40F
330
1F
100
AcDbEntity
  8
SLD-0
100
AcDbCircle
 10
2.3256446187
 20
-189.1074536293
 30
0.0
 40
5.066776504330635
100
AcDbArc
 50
0.0
 51
180.0
  0
ARC
  5
410
330
1F
100
AcDbEntity
  8
SLD-0
100
AcDbCircle
 10
2.3256446187
 20
-89.414547774
 30
0.0
 40
5.219859889188082
100
AcDbArc
 50
180.0
 51
0.0
  0
ARC
  5
411
330
1F
100
AcDbEntity
  8
SLD-0
100
AcDbCircle
 10
2.3256446187
 20
-71.5674261664
 30
0.0
 40
5.219859889188083
100
AcDbArc
 50
0.0
 51
180.0
  0
ARC
  5
412
330
1F
100
AcDbEntity
  8
SLD-0
100
AcDbCircle
 10
-37.8610270016
 20
238.838690861
 30
0.0
 40
4.612897708649406
100
AcDbArc
 50
0.0
 51
180.0
  0
ARC
  5
413
330
1F
100
AcDbEntity
  8
SLD-0
100
AcDbCircle
 10
-37.8610270016
 20
199.9370744681
 30
0.0
 40
4.612897708649406
100
AcDbArc
 50
180.0
 51
0.0
  0
ARC
  5
414
330
1F
100
AcDbEntity
  8
SLD-0
100
AcDbCircle
 10
-37.8610270016
 20
163.838690861
 30
0.0
 40
4.612897708649406
100
AcDbArc
 50
0.0
 51
180.0
  0
ARC
  5
415
330
1F
100
AcDbEntity
  8
SLD-0
100
AcDbCircle
 10
-37.8610270016
 20
124.9370744681
 30
0.0
 40
4.612897708649406
100
AcDbArc
 50
180.0
 51
0.0
  0
ARC
  5
416
330
1F
100
AcDbEntity
  8
SLD-0
100
AcDbCircle
 10
-37.8610270016
 20
88.838690861
 30
0.0
 40
4.612897708649406
100
AcDbArc
 50
0.0
 51
180.0
  0
ARC
  5
417
330
1F
100
AcDbEntity
  8
SLD-0
100
AcDbCircle
 10
-37.8610270016
 20
49.9370744681
 30
0.0
 40
4.612897708649406
100
AcDbArc
 50
180.0
 51
0.0
  0
ARC
  5
418
330
1F
100
AcDbEntity
  8
SLD-0
100
AcDbCircle
 10
-37.8610270016
 20
13.838690861
 30
0.0
 40
4.612897708649406
100
AcDbArc
 50
0.0
 51
180.0
  0
ARC
  5
419
330
1F
100
AcDbEntity
  8
SLD-0
100
AcDbCircle
 10
-37.8610270016
 20
-25.0629255319
 30
0.0
 40
4.612897708649406
100
AcDbArc
 50
180.0
 51
0.0
  0
ARC
  5
41A
330
1F
100
AcDbEntity
  8
SLD-0
100
AcDbCircle
 10
-49.996825
 20
-61.3875
 30
0.0
 40
2.150000000000004
100
AcDbArc
 50
346.5522729555
 51
283.4477270445
  0
ARC
  5
41B
330
1F
100
AcDbEntity
  8
SLD-0
100
AcDbCircle
 10
-9.996825
 20
-61.3875
 30
0.0
 40
2.149999999999997
100
AcDbArc
 50
256.5522729555
 51
193.4477270445
  0
ARC
  5
41C
330
1F
100
AcDbEntity
  8
SLD-0
100
AcDbCircle
 10
-9.996825
 20
-101.3875
 30
0.0
 40
2.150000000000018
100
AcDbArc
 50
166.5522729555
 51
103.4477270445
  0
ARC
  5
41D
330
1F
100
AcDbEntity
  8
SLD-0
100
AcDbCircle
 10
-49.996825
 20
-101.3875
 30
0.0
 40
2.150000000000004
100
AcDbArc
 50
76.5522729555
 51
13.4477270445
  0
ARC
  5
41E
330
1F
100
AcDbEntity
  8
SLD-0
100
AcDbCircle
 10
-49.996825
 20
-176.3875
 30
0.0
 40
2.150000000000004
100
AcDbArc
 50
346.5522729555
 51
283.4477270445
  0
ARC
  5
41F
330
1F
100
AcDbEntity
  8
SLD-0
100
AcDbCircle
 10
-9.996825
 20
-176.3875
 30
0.0
 40
2.150000000000006
100
AcDbArc
 50
256.5522729555
 51
193.4477270445
  0
ARC
  5
420
330
1F
100
AcDbEntity
  8
SLD-0
100
AcDbCircle
 10
-9.996825
 20
-216.3875
 30
0.0
 40
2.150000000000004
100
AcDbArc
 50
166.5522729555
 51
103.4477270445
  0
ARC
  5
421
330
1F
100
AcDbEntity
  8
SLD-0
100
AcDbCircle
 10
-49.996825
 20
-216.3875
 30
0.0
 40
2.150000000000004
100
AcDbArc
 50
76.5522729555
 51
13.4477270445
  0
ARC
  5
422
330
1F
100
AcDbEntity
  8
SLD-0
100
AcDbCircle
 10
-14.996825
 20
-255.0629255319
 30
0.0
 40
4.846096483463378
100
AcDbArc
 50
114.0754982551
 51
294.0754982551
  0
ARC
  5
423
330
1F
100
AcDbEntity
  8
SLD-0
100
AcDbCircle
 10
35.003175
 20
-232.7225
 30
0.0
 40
4.846096483463403
100
AcDbArc
 50
294.0754982551
 51
114.0754982551
  0
ARC
  5
424
330
1F
100
AcDbEntity
  8
SLD-0
100
AcDbCircle
 10
-14.996825
 20
-235.0629255319
 30
0.0
 40
4.846096483463378
100
AcDbArc
 50
114.0754982551
 51
294.0754982551
  0
ARC
  5
425
330
1F
100
AcDbEntity
  8
SLD-0
100
AcDbCircle
 10
35.003175
 20
-212.7225
 30
0.0
 40
4.846096483463403
100
AcDbArc
 50
294.0754982551
 51
114.0754982551
  0
ARC
  5
426
330
1F
100
AcDbEntity
  8
SLD-0
100
AcDbCircle
 10
-14.996825
 20
-5.0629255319
 30
0.0
 40
4.846096483463375
100
AcDbArc
 50
114.0754982551
 51
294.0754982551
  0
ARC
  5
427
330
1F
100
AcDbEntity
  8
SLD-0
100
AcDbCircle
 10
35.003175
 20
17.2775
 30
0.0
 40
4.846096483463394
100
AcDbArc
 50
294.0754982551
 51
114.0754982551
  0
ARC
  5
428
330
1F
100
AcDbEntity
  8
SLD-0
100
AcDbCircle
 10
-14.996825
 20
34.9370744681
 30
0.0
 40
4.846096483463377
100
AcDbArc
 50
114.0754982551
 51
294.0754982551
  0
ARC
  5
429
330
1F
100
AcDbEntity
  8
SLD-0
100
AcDbCircle
 10
35.003175
 20
57.2775
 30
0.0
 40
4.846096483463397
100
AcDbArc
 50
294.0754982551
 51
114.0754982551
  0
ARC
  5
42A
330
1F
100
AcDbEntity
  8
SLD-0
100
AcDbCircle
 10
-14.996825
 20
74.9370744681
 30
0.0
 40
4.846096483463378
100
AcDbArc
 50
114.0754982551
 51
294.0754982551
  0
ARC
  5
42B
330
1F
100
AcDbEntity
  8
SLD-0
100
AcDbCircle
 10
35.003175
 20
97.2775
 30
0.0
 40
4.846096483463403
100
AcDbArc
 50
294.0754982551
 51
114.0754982551
  0
ARC
  5
42C
330
1F
100
AcDbEntity
  8
SLD-0
100
AcDbCircle
 10
-14.996825
 20
114.9370744681
 30
0.0
 40
4.84609648346339
100
AcDbArc
 50
114.0754982551
 51
294.0754982551
  0
ARC
  5
42D
330
1F
100
AcDbEntity
  8
SLD-0
100
AcDbCircle
 10
35.003175
 20
137.2775
 30
0.0
 40
4.846096483463403
100
AcDbArc
 50
294.0754982551
 51
114.0754982551
  0
ARC
  5
42E
330
1F
100
AcDbEntity
  8
SLD-0
100
AcDbCircle
 10
-14.996825
 20
154.9370744681
 30
0.0
 40
4.846096483463377
100
AcDbArc
 50
114.0754982551
 51
294.0754982551
  0
ARC
  5
42F
330
1F
100
AcDbEntity
  8
SLD-0
100
AcDbCircle
 10
35.003175
 20
177.2775
 30
0.0
 40
4.846096483463403
100
AcDbArc
 50
294.0754982551
 51
114.0754982551
  0
ARC
  5
430
330
1F
100
AcDbEntity
  8
SLD-0
100
AcDbCircle
 10
-14.996825
 20
194.9370744681
 30
0.0
 40
4.846096483463378
100
AcDbArc
 50
114.0754982551
 51
294.0754982551
  0
ARC
  5
431
330
1F
100
AcDbEntity
  8
SLD-0
100
AcDbCircle
 10
35.003175
 20
217.2775
 30
0.0
 40
4.846096483463429
100
AcDbArc
 50
294.0754982551
 51
114.0754982551
  0
ARC
  5
432
330
1F
100
AcDbEntity
  8
SLD-0
100
AcDbCircle
 10
-14.996825
 20
234.9370744681
 30
0.0
 40
4.846096483463402
100
AcDbArc
 50
114.0754982551
 51
294.0754982551
  0
ARC
  5
433
330
1F
100
AcDbEntity
  8
SLD-0
100
AcDbCircle
 10
35.003175
 20
257.2775
 30
0.0
 40
4.846096483463403
100
AcDbArc
 50
294.0754982551
 51
114.0754982551
  0
ENDSEC
  0
SECTION
  2
OBJECTS
  0
DICTIONARY
  5
C
330
0
100
AcDbDictionary
281
     1
  3
ACAD_GROUP
350
D
  3
ACAD_LAYOUT
350
1A
  3
ACAD_MLINESTYLE
350
17
  3
ACAD_PLOTSETTINGS
350
19
  3
ACAD_PLOTSTYLENAME
350
E
  3
ACAD_SCALELIST
350
47
  0
DICTIONARY
  5
D
102
{ACAD_REACTORS
330
C
102
}
330
C
100
AcDbDictionary
281
     1
  0
DICTIONARY
  5
1A
102
{ACAD_REACTORS
330
C
102
}
330
C
100
AcDbDictionary
281
     1
  3
Layout1
350
1E
  3
Layout2
350
26
  3
Model
350
22
  0
DICTIONARY
  5
17
102
{ACAD_REACTORS
330
C
102
}
330
C
100
AcDbDictionary
281
     1
  3
Standard
350
18
  0
DICTIONARY
  5
19
102
{ACAD_REACTORS
330
C
102
}
330
C
100
AcDbDictionary
281
     1
  0
ACDBDICTIONARYWDFLT
  5
E
102
{ACAD_REACTORS
330
C
102
}
330
C
100
AcDbDictionary
281
     1
  3
Normal
350
F
100
AcDbDictionaryWithDefault
340
F
  0
DICTIONARY
  5
47
102
{ACAD_REACTORS
330
C
102
}
330
C
100
AcDbDictionary
281
     1
  3
A0
350
48
  3
A1
350
49
  3
A2
350
4A
  3
A3
350
4B
  3
A4
350
4C
  3
A5
350
4D
  3
A6
350
4E
  3
A7
350
4F
  3
A8
350
50
  3
A9
350
51
  3
B0
350
52
  3
B1
350
53
  3
B2
350
54
  3
B3
350
55
  3
B4
350
56
  3
B5
350
57
  3
B6
350
58
  3
B7
350
59
  3
B8
350
5A
  3
B9
350
5B
  3
C0
350
5C
  3
C1
350
5D
  3
C2
350
5E
  3
C3
350
5F
  3
C4
350
60
  3
C5
350
61
  3
C6
350
62
  3
C7
350
63
  3
C8
350
64
  3
C9
350
65
  3
D0
350
66
  3
D1
350
67
  3
D2
350
68
  0
LAYOUT
  5
1E
102
{ACAD_REACTORS
330
1A
102
}
330
1A
100
AcDbPlotSettings
  1

  2
none_device
  4

  6

 40
0.0
 41
0.0
 42
0.0
 43
0.0
 44
0.0
 45
0.0
 46
0.0
 47
0.0
 48
0.0
 49
0.0
140
0.0
141
0.0
142
1.0
143
1.0
 70
   688
 72
     1
 73
     0
 74
     5
  7

 75
    16
147
1.0
148
0.0
149
0.0
100
AcDbLayout
  1
Layout1
 70
     1
 71
     1
 10
0.0
 20
0.0
 11
420.0
 21
297.0
 12
0.0
 22
0.0
 32
0.0
 14
1.0000000000E+20
 24
1.0000000000E+20
 34
1.0000000000E+20
 15
-1.0000000000E+20
 25
-1.0000000000E+20
 35
-1.0000000000E+20
146
0.0
 13
0.0
 23
0.0
 33
0.0
 16
1.0
 26
0.0
 36
0.0
 17
0.0
 27
1.0
 37
0.0
 76
     0
330
1B
  0
LAYOUT
  5
26
102
{ACAD_REACTORS
330
1A
102
}
330
1A
100
AcDbPlotSettings
  1

  2
none_device
  4

  6

 40
0.0
 41
0.0
 42
0.0
 43
0.0
 44
0.0
 45
0.0
 46
0.0
 47
0.0
 48
0.0
 49
0.0
140
0.0
141
0.0
142
1.0
143
1.0
 70
   688
 72
     1
 73
     0
 74
     5
  7

 75
    16
147
1.0
148
0.0
149
0.0
100
AcDbLayout
  1
Layout2
 70
     1
 71
     2
 10
0.0
 20
0.0
 11
0.0
 21
0.0
 12
0.0
 22
0.0
 32
0.0
 14
0.0
 24
0.0
 34
0.0
 15
0.0
 25
0.0
 35
0.0
146
0.0
 13
0.0
 23
0.0
 33
0.0
 16
1.0
 26
0.0
 36
0.0
 17
0.0
 27
1.0
 37
0.0
 76
     0
330
23
  0
LAYOUT
  5
22
102
{ACAD_REACTORS
330
1A
102
}
330
1A
100
AcDbPlotSettings
  1

  2
none_device
  4
Letter_(8.50_x_11.00_Inches)
  6

 40
6.35
 41
6.35
 42
6.35000508
 43
6.35000508
 44
215.9
 45
279.4
 46
0.0
 47
0.0
 48
0.0
 49
0.0
140
0.0
141
0.0
142
1.0
143
1.0
 70
  1712
 72
     1
 73
     0
 74
     0
  7

 75
     0
147
1.0
148
0.0
149
0.0
100
AcDbLayout
  1
Model
 70
     1
 71
     0
 10
0.0
 20
0.0
 11
1117.6
 21
863.6
 12
0.0
 22
0.0
 32
0.0
 14
0.0
 24
0.0
 34
0.0
 15
1117.6
 25
863.6
 35
0.0
146
0.0
 13
0.0
 23
0.0
 33
0.0
 16
1.0
 26
0.0
 36
0.0
 17
0.0
 27
1.0
 37
0.0
 76
     0
330
1F
331
29
  0
MLINESTYLE
  5
18
102
{ACAD_REACTORS
330
17
102
}
330
17
100
AcDbMlineStyle
  2
Standard
 70
     0
  3

 62
   256
 51
90.0
 52
90.0
 71
     2
 49
0.5
 62
   256
  6
BYLAYER
 49
-0.5
 62
   256
  6
BYLAYER
  0
ACDBPLACEHOLDER
  5
F
102
{ACAD_REACTORS
330
E
102
}
330
E
  0
SCALE
  5
48
102
{ACAD_REACTORS
330
47
102
}
330
47
100
AcDbScale
 70
     0
300
1:1
140
1.0
141
1.0
290
     1
  0
SCALE
  5
49
102
{ACAD_REACTORS
330
47
102
}
330
47
100
AcDbScale
 70
     0
300
1:2
140
1.0
141
2.0
290
     0
  0
SCALE
  5
4A
102
{ACAD_REACTORS
330
47
102
}
330
47
100
AcDbScale
 70
     0
300
1:4
140
1.0
141
4.0
290
     0
  0
SCALE
  5
4B
102
{ACAD_REACTORS
330
47
102
}
330
47
100
AcDbScale
 70
     0
300
1:5
140
1.0
141
5.0
290
     0
  0
SCALE
  5
4C
102
{ACAD_REACTORS
330
47
102
}
330
47
100
AcDbScale
 70
     0
300
1:8
140
1.0
141
8.0
290
     0
  0
SCALE
  5
4D
102
{ACAD_REACTORS
330
47
102
}
330
47
100
AcDbScale
 70
     0
300
1:10
140
1.0
141
10.0
290
     0
  0
SCALE
  5
4E
102
{ACAD_REACTORS
330
47
102
}
330
47
100
AcDbScale
 70
     0
300
1:16
140
1.0
141
16.0
290
     0
  0
SCALE
  5
4F
102
{ACAD_REACTORS
330
47
102
}
330
47
100
AcDbScale
 70
     0
300
1:20
140
1.0
141
20.0
290
     0
  0
SCALE
  5
50
102
{ACAD_REACTORS
330
47
102
}
330
47
100
AcDbScale
 70
     0
300
1:30
140
1.0
141
30.0
290
     0
  0
SCALE
  5
51
102
{ACAD_REACTORS
330
47
102
}
330
47
100
AcDbScale
 70
     0
300
1:40
140
1.0
141
40.0
290
     0
  0
SCALE
  5
52
102
{ACAD_REACTORS
330
47
102
}
330
47
100
AcDbScale
 70
     0
300
1:50
140
1.0
141
50.0
290
     0
  0
SCALE
  5
53
102
{ACAD_REACTORS
330
47
102
}
330
47
100
AcDbScale
 70
     0
300
1:100
140
1.0
141
100.0
290
     0
  0
SCALE
  5
54
102
{ACAD_REACTORS
330
47
102
}
330
47
100
AcDbScale
 70
     0
300
2:1
140
2.0
141
1.0
290
     0
  0
SCALE
  5
55
102
{ACAD_REACTORS
330
47
102
}
330
47
100
AcDbScale
 70
     0
300
4:1
140
4.0
141
1.0
290
     0
  0
SCALE
  5
56
102
{ACAD_REACTORS
330
47
102
}
330
47
100
AcDbScale
 70
     0
300
8:1
140
8.0
141
1.0
290
     0
  0
SCALE
  5
57
102
{ACAD_REACTORS
330
47
102
}
330
47
100
AcDbScale
 70
     0
300
10:1
140
10.0
141
1.0
290
     0
  0
SCALE
  5
58
102
{ACAD_REACTORS
330
47
102
}
330
47
100
AcDbScale
 70
     0
300
100:1
140
100.0
141
1.0
290
     0
  0
SCALE
  5
59
102
{ACAD_REACTORS
330
47
102
}
330
47
100
AcDbScale
 70
     0
300
1/128" = 1'-0"
140
0.0078125
141
12.0
290
     0
  0
SCALE
  5
5A
102
{ACAD_REACTORS
330
47
102
}
330
47
100
AcDbScale
 70
     0
300
1/64" = 1'-0"
140
0.015625
141
12.0
290
     0
  0
SCALE
  5
5B
102
{ACAD_REACTORS
330
47
102
}
330
47
100
AcDbScale
 70
     0
300
1/32" = 1'-0"
140
0.03125
141
12.0
290
     0
  0
SCALE
  5
5C
102
{ACAD_REACTORS
330
47
102
}
330
47
100
AcDbScale
 70
     0
300
1/16" = 1'-0"
140
0.0625
141
12.0
290
     0
  0
SCALE
  5
5D
102
{ACAD_REACTORS
330
47
102
}
330
47
100
AcDbScale
 70
     0
300
3/32" = 1'-0"
140
0.09375
141
12.0
290
     0
  0
SCALE
  5
5E
102
{ACAD_REACTORS
330
47
102
}
330
47
100
AcDbScale
 70
     0
300
1/8" = 1'-0"
140
0.125
141
12.0
290
     0
  0
SCALE
  5
5F
102
{ACAD_REACTORS
330
47
102
}
330
47
100
AcDbScale
 70
     0
300
3/16" = 1'-0"
140
0.1875
141
12.0
290
     0
  0
SCALE
  5
60
102
{ACAD_REACTORS
330
47
102
}
330
47
100
AcDbScale
 70
     0
300
1/4" = 1'-0"
140
0.25
141
12.0
290
     0
  0
SCALE
  5
61
102
{ACAD_REACTORS
330
47
102
}
330
47
100
AcDbScale
 70
     0
300
3/8" = 1'-0"
140
0.375
141
12.0
290
     0
  0
SCALE
  5
62
102
{ACAD_REACTORS
330
47
102
}
330
47
100
AcDbScale
 70
     0
300
1/2" = 1'-0"
140
0.5
141
12.0
290
     0
  0
SCALE
  5
63
102
{ACAD_REACTORS
330
47
102
}
330
47
100
AcDbScale
 70
     0
300
3/4" = 1'-0"
140
0.75
141
12.0
290
     0
  0
SCALE
  5
64
102
{ACAD_REACTORS
330
47
102
}
330
47
100
AcDbScale
 70
     0
300
1" = 1'-0"
140
1.0
141
12.0
290
     0
  0
SCALE
  5
65
102
{ACAD_REACTORS
330
47
102
}
330
47
100
AcDbScale
 70
     0
300
1-1/2" = 1'-0"
140
1.5
141
12.0
290
     0
  0
SCALE
  5
66
102
{ACAD_REACTORS
330
47
102
}
330
47
100
AcDbScale
 70
     0
300
3" = 1'-0"
140
3.0
141
12.0
290
     0
  0
SCALE
  5
67
102
{ACAD_REACTORS
330
47
102
}
330
47
100
AcDbScale
 70
     0
300
6" = 1'-0"
140
6.0
141
12.0
290
     0
  0
SCALE
  5
68
102
{ACAD_REACTORS
330
47
102
}
330
47
100
AcDbScale
 70
     0
300
1'-0" = 1'-0"
140
12.0
141
12.0
290
     0
  0
ENDSEC
  0
EOF
