  0
SECTION
  2
HEADER
  9
$ACADVER
  1
AC1015
  9
$ACADMAINTVER
 70
     6
  9
$DWGCODEPAGE
  3
ANSI_1252
  9
$INSBASE
 10
0.0
 20
0.0
 30
0.0
  9
$EXTMIN
 10
0.0
 20
0.0
 30
0.0
  9
$EXTMAX
 10
1117.6
 20
863.6
 30
0.0
  9
$LIMMIN
 10
0.0
 20
0.0
  9
$LIMMAX
 10
1117.6
 20
863.6
  9
$ORTHOMODE
 70
     0
  9
$REGENMODE
 70
     1
  9
$FILLMODE
 70
     1
  9
$QTEXTMODE
 70
     0
  9
$MIRRTEXT
 70
     1
  9
$LTSCALE
 40
1.0
  9
$ATTMODE
 70
     1
  9
$TEXTSIZE
 40
3.175
  9
$TRACEWID
 40
1.0
  9
$TEXTSTYLE
  7
Standard
  9
$CLAYER
  8
0
  9
$CELTYPE
  6
ByLayer
  9
$CECOLOR
 62
   256
  9
$CELTSCALE
 40
1.0
  9
$DISPSILH
 70
     0
  9
$DIMSCALE
 40
1.0
  9
$DIMASZ
 40
3.302
  9
$DIMEXO
 40
1.27
  9
$DIMDLI
 40
3.75
  9
$DIMRND
 40
0.0
  9
$DIMDLE
 40
0.0
  9
$DIMEXE
 40
3.175
  9
$DIMTP
 40
0.0
  9
$DIMTM
 40
0.0
  9
$DIMTXT
 40
3.175
  9
$DIMCEN
 40
2.5
  9
$DIMTSZ
 40
0.0
  9
$DIMTOL
 70
     0
  9
$DIMLIM
 70
     0
  9
$DIMTIH
 70
     1
  9
$DIMTOH
 70
     1
  9
$DIMSE1
 70
     0
  9
$DIMSE2
 70
     0
  9
$DIMTAD
 70
     0
  9
$DIMZIN
 70
     1
  9
$DIMBLK
  1

  9
$DIMASO
 70
     1
  9
$DIMSHO
 70
     1
  9
$DIMPOST
  1

  9
$DIMAPOST
  1

  9
$DIMALT
 70
     0
  9
$DIMALTD
 70
     3
  9
$DIMALTF
 40
0.0393700787
  9
$DIMLFAC
 40
1.0
  9
$DIMTOFL
 70
     1
  9
$DIMTVP
 40
0.0
  9
$DIMTIX
 70
     0
  9
$DIMSOXD
 70
     0
  9
$DIMSAH
 70
     0
  9
$DIMBLK1
  1

  9
$DIMBLK2
  1

  9
$DIMSTYLE
  2
ISO-25
  9
$DIMCLRD
 70
     0
  9
$DIMCLRE
 70
     0
  9
$DIMCLRT
 70
     0
  9
$DIMTFAC
 40
1.0
  9
$DIMGAP
 40
1.524
  9
$DIMJUST
 70
     0
  9
$DIMSD1
 70
     0
  9
$DIMSD2
 70
     0
  9
$DIMTOLJ
 70
     0
  9
$DIMTZIN
 70
     1
  9
$DIMALTZ
 70
     0
  9
$DIMALTTZ
 70
     0
  9
$DIMUPT
 70
     0
  9
$DIMDEC
 70
     4
  9
$DIMTDEC
 70
     4
  9
$DIMALTU
 70
     2
  9
$DIMALTTD
 70
     3
  9
$DIMTXSTY
  7
Standard
  9
$DIMAUNIT
 70
     0
  9
$DIMADEC
 70
     0
  9
$DIMALTRND
 40
0.0
  9
$DIMAZIN
 70
     0
  9
$DIMDSEP
 70
    44
  9
$DIMATFIT
 70
     3
  9
$DIMFRAC
 70
     0
  9
$DIMLDRBLK
  1

  9
$DIMLUNIT
 70
     2
  9
$DIMLWD
 70
    -2
  9
$DIMLWE
 70
    -2
  9
$DIMTMOVE
 70
     0
  9
$LUNITS
 70
     2
  9
$LUPREC
 70
     4
  9
$SKETCHINC
 40
1.0
  9
$FILLETRAD
 40
10.0
  9
$AUNITS
 70
     0
  9
$AUPREC
 70
     0
  9
$MENU
  1
.
  9
$ELEVATION
 40
0.0
  9
$PELEVATION
 40
0.0
  9
$THICKNESS
 40
0.0
  9
$LIMCHECK
 70
     0
  9
$CHAMFERA
 40
0.0
  9
$CHAMFERB
 40
0.0
  9
$CHAMFERC
 40
0.0
  9
$CHAMFERD
 40
0.0
  9
$SKPOLY
 70
     0
  9
$TDCREATE
 40
2458045.662461933
  9
$TDUCREATE
 40
2458045.8291286
  9
$TDUPDATE
 40
2458045.662462049
  9
$TDUUPDATE
 40
2458045.829128715
  9
$TDINDWG
 40
0.0000000116
  9
$TDUSRTIMER
 40
0.0000000116
  9
$USRTIMER
 70
     1
  9
$ANGBASE
 50
0.0
  9
$ANGDIR
 70
     0
  9
$PDMODE
 70
     0
  9
$PDSIZE
 40
-1.0
  9
$PLINEWID
 40
0.0
  9
$SPLFRAME
 70
     0
  9
$SPLINETYPE
 70
     6
  9
$SPLINESEGS
 70
     8
  9
$HANDSEED
  5
1E8
  9
$SURFTAB1
 70
     6
  9
$SURFTAB2
 70
     6
  9
$SURFTYPE
 70
     6
  9
$SURFU
 70
     6
  9
$SURFV
 70
     6
  9
$UCSBASE
  2

  9
$UCSNAME
  2

  9
$UCSORG
 10
0.0
 20
0.0
 30
0.0
  9
$UCSXDIR
 10
1.0
 20
0.0
 30
0.0
  9
$UCSYDIR
 10
0.0
 20
1.0
 30
0.0
  9
$UCSORTHOREF
  2

  9
$UCSORTHOVIEW
 70
     0
  9
$UCSORGTOP
 10
0.0
 20
0.0
 30
0.0
  9
$UCSORGBOTTOM
 10
0.0
 20
0.0
 30
0.0
  9
$UCSORGLEFT
 10
0.0
 20
0.0
 30
0.0
  9
$UCSORGRIGHT
 10
0.0
 20
0.0
 30
0.0
  9
$UCSORGFRONT
 10
0.0
 20
0.0
 30
0.0
  9
$UCSORGBACK
 10
0.0
 20
0.0
 30
0.0
  9
$PUCSBASE
  2

  9
$PUCSNAME
  2

  9
$PUCSORG
 10
0.0
 20
0.0
 30
0.0
  9
$PUCSXDIR
 10
1.0
 20
0.0
 30
0.0
  9
$PUCSYDIR
 10
0.0
 20
1.0
 30
0.0
  9
$PUCSORTHOREF
  2

  9
$PUCSORTHOVIEW
 70
     0
  9
$PUCSORGTOP
 10
0.0
 20
0.0
 30
0.0
  9
$PUCSORGBOTTOM
 10
0.0
 20
0.0
 30
0.0
  9
$PUCSORGLEFT
 10
0.0
 20
0.0
 30
0.0
  9
$PUCSORGRIGHT
 10
0.0
 20
0.0
 30
0.0
  9
$PUCSORGFRONT
 10
0.0
 20
0.0
 30
0.0
  9
$PUCSORGBACK
 10
0.0
 20
0.0
 30
0.0
  9
$USERI1
 70
     0
  9
$USERI2
 70
     0
  9
$USERI3
 70
     0
  9
$USERI4
 70
     0
  9
$USERI5
 70
     0
  9
$USERR1
 40
0.0
  9
$USERR2
 40
0.0
  9
$USERR3
 40
0.0
  9
$USERR4
 40
0.0
  9
$USERR5
 40
0.0
  9
$WORLDVIEW
 70
     1
  9
$SHADEDGE
 70
     3
  9
$SHADEDIF
 70
    70
  9
$TILEMODE
 70
     1
  9
$MAXACTVP
 70
    64
  9
$PINSBASE
 10
0.0
 20
0.0
 30
0.0
  9
$PLIMCHECK
 70
     0
  9
$PEXTMIN
 10
1.0000000000E+20
 20
1.0000000000E+20
 30
1.0000000000E+20
  9
$PEXTMAX
 10
-1.0000000000E+20
 20
-1.0000000000E+20
 30
-1.0000000000E+20
  9
$PLIMMIN
 10
0.0
 20
0.0
  9
$PLIMMAX
 10
420.0
 20
297.0
  9
$UNITMODE
 70
     0
  9
$VISRETAIN
 70
     1
  9
$PLINEGEN
 70
     0
  9
$PSLTSCALE
 70
     1
  9
$TREEDEPTH
 70
  3020
  9
$CMLSTYLE
  2
Standard
  9
$CMLJUST
 70
     0
  9
$CMLSCALE
 40
20.0
  9
$PROXYGRAPHICS
 70
     1
  9
$MEASUREMENT
 70
     1
  9
$CELWEIGHT
370
    -1
  9
$ENDCAPS
280
     0
  9
$JOINSTYLE
280
     0
  9
$LWDISPLAY
290
     1
  9
$INSUNITS
 70
     4
  9
$HYPERLINKBASE
  1

  9
$STYLESHEET
  1

  9
$XEDIT
290
     1
  9
$CEPSNTYPE
380
     0
  9
$PSTYLEMODE
290
     1
  9
$FINGERPRINTGUID
  2
{C596EE02-2EA9-4108-BF75-F99D1F0605ED}
  9
$VERSIONGUID
  2
{FAEB1C32-E019-11D5-929B-00C0DF256EC4}
  9
$EXTNAMES
290
     1
  9
$PSVPSCALE
 40
0.0
  9
$OLESTARTUP
290
     0
  0
ENDSEC
  0
SECTION
  2
CLASSES
  0
CLASS
  1
ACDBDICTIONARYWDFLT
  2
AcDbDictionaryWithDefault
  3
ObjectDBX Classes
 90
        0
280
     0
281
     0
  0
CLASS
  1
VISUALSTYLE
  2
AcDbVisualStyle
  3
ObjectDBX Classes
 90
     4095
280
     0
281
     0
  0
CLASS
  1
MATERIAL
  2
AcDbMaterial
  3
ObjectDBX Classes
 90
     1153
280
     0
281
     0
  0
CLASS
  1
SCALE
  2
AcDbScale
  3
ObjectDBX Classes
 90
     1153
280
     0
281
     0
  0
CLASS
  1
TABLESTYLE
  2
AcDbTableStyle
  3
ObjectDBX Classes
 90
     4095
280
     0
281
     0
  0
CLASS
  1
MLEADERSTYLE
  2
AcDbMLeaderStyle
  3
ACDB_MLEADERSTYLE_CLASS
 90
     4095
280
     0
281
     0
  0
CLASS
  1
SUN
  2
AcDbSun
  3
SCENEOE
 90
     1153
280
     0
281
     0
  0
CLASS
  1
ACDBPLACEHOLDER
  2
AcDbPlaceHolder
  3
ObjectDBX Classes
 90
        0
280
     0
281
     0
  0
CLASS
  1
LAYOUT
  2
AcDbLayout
  3
ObjectDBX Classes
 90
        0
280
     0
281
     0
  0
ENDSEC
  0
SECTION
  2
TABLES
  0
TABLE
  2
VPORT
  5
8
330
0
100
AcDbSymbolTable
 70
     1
  0
VPORT
  5
29
330
8
100
AcDbSymbolTableRecord
100
AcDbViewportTableRecord
  2
*Active
 70
     0
 10
0.0
 20
0.0
 11
1.0
 21
1.0
 12
558.8
 22
431.8
 13
0.0
 23
0.0
 14
10.0
 24
10.0
 15
10.0
 25
10.0
 16
0.0
 26
0.0
 36
1.0
 17
0.0
 27
0.0
 37
0.0
 40
863.6
 41
1.2941176471
 42
50.0
 43
0.0
 44
0.0
 50
0.0
 51
0.0
 71
     0
 72
  2000
 73
     1
 74
     3
 75
     0
 76
     0
 77
     0
 78
     0
281
     0
 65
     1
110
0.0
120
0.0
130
0.0
111
1.0
121
0.0
131
0.0
112
0.0
122
1.0
132
0.0
 79
     0
146
0.0
  0
ENDTAB
  0
TABLE
  2
LTYPE
  5
5
330
0
100
AcDbSymbolTable
 70
     6
  0
LTYPE
  5
14
330
5
100
AcDbSymbolTableRecord
100
AcDbLinetypeTableRecord
  2
ByBlock
 70
     0
  3

 72
    65
 73
     0
 40
0.0
  0
LTYPE
  5
15
330
5
100
AcDbSymbolTableRecord
100
AcDbLinetypeTableRecord
  2
ByLayer
 70
     0
  3

 72
    65
 73
     0
 40
0.0
  0
LTYPE
  5
16
330
5
100
AcDbSymbolTableRecord
100
AcDbLinetypeTableRecord
  2
Continuous
 70
     0
  3
Solid line
 72
    65
 73
     0
 40
0.0
  0
LTYPE
  5
6E
330
5
100
AcDbSymbolTableRecord
100
AcDbLinetypeTableRecord
  2
HIDDEN
 70
     0
  3
Hidden __ __ __ __ __ __ __ __ __ __ __ __ __ __
 72
    65
 73
     2
 40
1.905
 49
1.27
 74
     0
 49
-0.635
 74
     0
  0
LTYPE
  5
6F
330
5
100
AcDbSymbolTableRecord
100
AcDbLinetypeTableRecord
  2
PHANTOM
 70
     0
  3
Phantom ______  __  __  ______  __  __  ______
 72
    65
 73
     6
 40
12.7
 49
6.35
 74
     0
 49
-1.27
 74
     0
 49
1.27
 74
     0
 49
-1.27
 74
     0
 49
1.27
 74
     0
 49
-1.27
 74
     0
  0
LTYPE
  5
70
330
5
100
AcDbSymbolTableRecord
100
AcDbLinetypeTableRecord
  2
CENTER
 70
     0
  3
Center ____ _ ____ _ ____ _ ____ _ ____ _ ____
 72
    65
 73
     4
 40
10.16
 49
6.35
 74
     0
 49
-1.27
 74
     0
 49
1.27
 74
     0
 49
-1.27
 74
     0
  0
LTYPE
  5
71
330
5
100
AcDbSymbolTableRecord
100
AcDbLinetypeTableRecord
  2
CENTERX2
 70
     0
  3
Center (2x) ________  __  ________  __  _____
 72
    65
 73
     4
 40
20.32
 49
12.7
 74
     0
 49
-2.54
 74
     0
 49
2.54
 74
     0
 49
-2.54
 74
     0
  0
LTYPE
  5
72
330
5
100
AcDbSymbolTableRecord
100
AcDbLinetypeTableRecord
  2
DOT2
 70
     0
  3
Dot (.5x) ........................................
 72
    65
 73
     2
 40
0.635
 49
0.0
 74
     0
 49
-0.635
 74
     0
  0
ENDTAB
  0
TABLE
  2
LAYER
  5
2
330
0
100
AcDbSymbolTable
 70
     2
  0
LAYER
  5
10
330
2
100
AcDbSymbolTableRecord
100
AcDbLayerTableRecord
  2
0
 70
     0
 62
     7
  6
Continuous
370
    -3
390
F
  0
LAYER
  5
73
330
2
100
AcDbSymbolTableRecord
100
AcDbLayerTableRecord
  2
SLD-0
 70
     0
 62
   179
  6
Continuous
370
    -3
390
F
  0
ENDTAB
  0
TABLE
  2
STYLE
  5
3
330
0
100
AcDbSymbolTable
 70
     1
  0
STYLE
  5
11
330
3
100
AcDbSymbolTableRecord
100
AcDbTextStyleTableRecord
  2
Standard
 70
     0
 40
0.0
 41
1.0
 50
0.0
 71
     0
 42
3.175
  3
txt
  4

  0
ENDTAB
  0
TABLE
  2
VIEW
  5
6
330
0
100
AcDbSymbolTable
 70
     0
  0
ENDTAB
  0
TABLE
  2
UCS
  5
7
330
0
100
AcDbSymbolTable
 70
     0
  0
ENDTAB
  0
TABLE
  2
APPID
  5
9
330
0
100
AcDbSymbolTable
 70
     1
  0
APPID
  5
12
330
9
100
AcDbSymbolTableRecord
100
AcDbRegAppTableRecord
  2
ACAD
 70
     0
  0
ENDTAB
  0
TABLE
  2
DIMSTYLE
  5
A
330
0
100
AcDbSymbolTable
 70
     1
100
AcDbDimStyleTable
  0
DIMSTYLE
105
27
330
A
100
AcDbSymbolTableRecord
100
AcDbDimStyleTableRecord
  2
ISO-25
 70
     0
 41
2.5
 42
0.625
 43
3.75
 44
1.25
 73
     0
 74
     0
 77
     1
 78
     8
140
2.5
141
2.5
143
0.0393700787
147
0.625
171
     3
172
     1
178
     0
271
     2
272
     2
274
     3
278
    44
283
     0
284
     8
340
11
  0
ENDTAB
  0
TABLE
  2
BLOCK_RECORD
  5
1
330
0
100
AcDbSymbolTable
 70
     1
  0
BLOCK_RECORD
  5
1F
330
1
100
AcDbSymbolTableRecord
100
AcDbBlockTableRecord
  2
*Model_Space
340
22
  0
BLOCK_RECORD
  5
1B
330
1
100
AcDbSymbolTableRecord
100
AcDbBlockTableRecord
  2
*Paper_Space
340
1E
  0
BLOCK_RECORD
  5
23
330
1
100
AcDbSymbolTableRecord
100
AcDbBlockTableRecord
  2
*Paper_Space0
340
26
  0
ENDTAB
  0
ENDSEC
  0
SECTION
  2
BLOCKS
  0
BLOCK
  5
20
330
1F
100
AcDbEntity
  8
0
100
AcDbBlockBegin
  2
*Model_Space
 70
     0
 10
0.0
 20
0.0
 30
0.0
  3
*Model_Space
  1

  0
ENDBLK
  5
21
330
1F
100
AcDbEntity
  8
0
100
AcDbBlockEnd
  0
BLOCK
  5
1C
330
1B
100
AcDbEntity
 67
     1
  8
0
100
AcDbBlockBegin
  2
*Paper_Space
 70
     0
 10
0.0
 20
0.0
 30
0.0
  3
*Paper_Space
  1

  0
ENDBLK
  5
1D
330
1B
100
AcDbEntity
 67
     1
  8
0
100
AcDbBlockEnd
  0
BLOCK
  5
24
330
23
100
AcDbEntity
  8
0
100
AcDbBlockBegin
  2
*Paper_Space0
 70
     0
 10
0.0
 20
0.0
 30
0.0
  3
*Paper_Space0
  1

  0
ENDBLK
  5
25
330
23
100
AcDbEntity
  8
0
100
AcDbBlockEnd
  0
ENDSEC
  0
SECTION
  2
ENTITIES
  0
LINE
  5
74
330
1F
100
AcDbEntity
  8
SLD-0
100
AcDbLine
 10
-61.20445
 20
297.6443
 30
0.0
 11
-59.01395
 21
297.6443
 31
0.0
  0
LINE
  5
75
330
1F
100
AcDbEntity
  8
SLD-0
100
AcDbLine
 10
-59.01395
 20
297.6443
 30
0.0
 11
-59.01395
 21
294.8663
 31
0.0
  0
LINE
  5
76
330
1F
100
AcDbEntity
  8
SLD-0
100
AcDbLine
 10
-59.01395
 20
294.8663
 30
0.0
 11
-61.20445
 21
294.8663
 31
0.0
  0
LINE
  5
77
330
1F
100
AcDbEntity
  8
SLD-0
100
AcDbLine
 10
-61.20445
 20
294.8663
 30
0.0
 11
-61.20445
 21
291.5793
 31
0.0
  0
LINE
  5
78
330
1F
100
AcDbEntity
  8
SLD-0
100
AcDbLine
 10
-61.20445
 20
291.5793
 30
0.0
 11
-64.76045
 21
291.5793
 31
0.0
  0
LINE
  5
79
330
1F
100
AcDbEntity
  8
SLD-0
100
AcDbLine
 10
-64.76045
 20
291.5793
 30
0.0
 11
-64.76045
 21
294.8663
 31
0.0
  0
LINE
  5
7A
330
1F
100
AcDbEntity
  8
SLD-0
100
AcDbLine
 10
-64.76045
 20
294.8663
 30
0.0
 11
-66.95145
 21
294.8663
 31
0.0
  0
LINE
  5
7B
330
1F
100
AcDbEntity
  8
SLD-0
100
AcDbLine
 10
-66.95145
 20
294.8663
 30
0.0
 11
-66.95145
 21
297.6443
 31
0.0
  0
LINE
  5
7C
330
1F
100
AcDbEntity
  8
SLD-0
100
AcDbLine
 10
-66.95145
 20
297.6443
 30
0.0
 11
-64.76045
 21
297.6443
 31
0.0
  0
LINE
  5
7D
330
1F
100
AcDbEntity
  8
SLD-0
100
AcDbLine
 10
-64.76045
 20
297.6443
 30
0.0
 11
-64.76045
 21
303.6443
 31
0.0
  0
LINE
  5
7E
330
1F
100
AcDbEntity
  8
SLD-0
100
AcDbLine
 10
-64.76045
 20
303.6443
 30
0.0
 11
-69.33245
 21
303.6443
 31
0.0
  0
LINE
  5
7F
330
1F
100
AcDbEntity
  8
SLD-0
100
AcDbLine
 10
-69.33245
 20
303.6443
 30
0.0
 11
-69.33245
 21
306.8193
 31
0.0
  0
LINE
  5
80
330
1F
100
AcDbEntity
  8
SLD-0
100
AcDbLine
 10
-69.33245
 20
306.8193
 30
0.0
 11
-78.85745
 21
306.8193
 31
0.0
  0
LINE
  5
81
330
1F
100
AcDbEntity
  8
SLD-0
100
AcDbLine
 10
-78.85745
 20
306.8193
 30
0.0
 11
-78.85745
 21
268.7193
 31
0.0
  0
LINE
  5
82
330
1F
100
AcDbEntity
  8
SLD-0
100
AcDbLine
 10
-78.85745
 20
268.7193
 30
0.0
 11
-82.03245
 21
268.7193
 31
0.0
  0
LINE
  5
83
330
1F
100
AcDbEntity
  8
SLD-0
100
AcDbLine
 10
-82.03245
 20
268.7193
 30
0.0
 11
-82.03245
 21
264.1473
 31
0.0
  0
LINE
  5
84
330
1F
100
AcDbEntity
  8
SLD-0
100
AcDbLine
 10
-82.03245
 20
264.1473
 30
0.0
 11
-78.85745
 21
264.1473
 31
0.0
  0
LINE
  5
85
330
1F
100
AcDbEntity
  8
SLD-0
100
AcDbLine
 10
-78.85745
 20
264.1473
 30
0.0
 11
-78.85745
 21
260.5913
 31
0.0
  0
LINE
  5
86
330
1F
100
AcDbEntity
  8
SLD-0
100
AcDbLine
 10
-78.85745
 20
260.5913
 30
0.0
 11
-82.03245
 21
260.5913
 31
0.0
  0
LINE
  5
87
330
1F
100
AcDbEntity
  8
SLD-0
100
AcDbLine
 10
-82.03245
 20
260.5913
 30
0.0
 11
-82.03245
 21
256.0193
 31
0.0
  0
LINE
  5
88
330
1F
100
AcDbEntity
  8
SLD-0
100
AcDbLine
 10
-82.03245
 20
256.0193
 30
0.0
 11
-78.85745
 21
256.0193
 31
0.0
  0
LINE
  5
89
330
1F
100
AcDbEntity
  8
SLD-0
100
AcDbLine
 10
-78.85745
 20
256.0193
 30
0.0
 11
-78.85745
 21
243.3193
 31
0.0
  0
LINE
  5
8A
330
1F
100
AcDbEntity
  8
SLD-0
100
AcDbLine
 10
-78.85745
 20
243.3193
 30
0.0
 11
-82.03245
 21
243.3193
 31
0.0
  0
LINE
  5
8B
330
1F
100
AcDbEntity
  8
SLD-0
100
AcDbLine
 10
-82.03245
 20
243.3193
 30
0.0
 11
-82.03245
 21
238.7223
 31
0.0
  0
LINE
  5
8C
330
1F
100
AcDbEntity
  8
SLD-0
100
AcDbLine
 10
-82.03245
 20
238.7223
 30
0.0
 11
-78.85745
 21
238.7223
 31
0.0
  0
LINE
  5
8D
330
1F
100
AcDbEntity
  8
SLD-0
100
AcDbLine
 10
-78.85745
 20
238.7223
 30
0.0
 11
-78.85745
 21
235.1663
 31
0.0
  0
LINE
  5
8E
330
1F
100
AcDbEntity
  8
SLD-0
100
AcDbLine
 10
-78.85745
 20
235.1663
 30
0.0
 11
-82.03245
 21
235.1663
 31
0.0
  0
LINE
  5
8F
330
1F
100
AcDbEntity
  8
SLD-0
100
AcDbLine
 10
-82.03245
 20
235.1663
 30
0.0
 11
-82.03245
 21
230.6193
 31
0.0
  0
LINE
  5
90
330
1F
100
AcDbEntity
  8
SLD-0
100
AcDbLine
 10
-82.03245
 20
230.6193
 30
0.0
 11
-78.85745
 21
230.6193
 31
0.0
  0
LINE
  5
91
330
1F
100
AcDbEntity
  8
SLD-0
100
AcDbLine
 10
-78.85745
 20
230.6193
 30
0.0
 11
-78.85745
 21
217.9193
 31
0.0
  0
LINE
  5
92
330
1F
100
AcDbEntity
  8
SLD-0
100
AcDbLine
 10
-78.85745
 20
217.9193
 30
0.0
 11
-82.03245
 21
217.9193
 31
0.0
  0
LINE
  5
93
330
1F
100
AcDbEntity
  8
SLD-0
100
AcDbLine
 10
-82.03245
 20
217.9193
 30
0.0
 11
-82.03245
 21
213.3223
 31
0.0
  0
LINE
  5
94
330
1F
100
AcDbEntity
  8
SLD-0
100
AcDbLine
 10
-82.03245
 20
213.3223
 30
0.0
 11
-78.85745
 21
213.3223
 31
0.0
  0
LINE
  5
95
330
1F
100
AcDbEntity
  8
SLD-0
100
AcDbLine
 10
-78.85745
 20
213.3223
 30
0.0
 11
-78.85745
 21
209.7663
 31
0.0
  0
LINE
  5
96
330
1F
100
AcDbEntity
  8
SLD-0
100
AcDbLine
 10
-78.85745
 20
209.7663
 30
0.0
 11
-82.03245
 21
209.7663
 31
0.0
  0
LINE
  5
97
330
1F
100
AcDbEntity
  8
SLD-0
100
AcDbLine
 10
-82.03245
 20
209.7663
 30
0.0
 11
-82.03245
 21
205.2193
 31
0.0
  0
LINE
  5
98
330
1F
100
AcDbEntity
  8
SLD-0
100
AcDbLine
 10
-82.03245
 20
205.2193
 30
0.0
 11
-78.85745
 21
205.2193
 31
0.0
  0
LINE
  5
99
330
1F
100
AcDbEntity
  8
SLD-0
100
AcDbLine
 10
-78.85745
 20
205.2193
 30
0.0
 11
-78.85745
 21
192.5193
 31
0.0
  0
LINE
  5
9A
330
1F
100
AcDbEntity
  8
SLD-0
100
AcDbLine
 10
-78.85745
 20
192.5193
 30
0.0
 11
-82.03245
 21
192.5193
 31
0.0
  0
LINE
  5
9B
330
1F
100
AcDbEntity
  8
SLD-0
100
AcDbLine
 10
-82.03245
 20
192.5193
 30
0.0
 11
-82.03245
 21
187.9223
 31
0.0
  0
LINE
  5
9C
330
1F
100
AcDbEntity
  8
SLD-0
100
AcDbLine
 10
-82.03245
 20
187.9223
 30
0.0
 11
-78.85745
 21
187.9223
 31
0.0
  0
LINE
  5
9D
330
1F
100
AcDbEntity
  8
SLD-0
100
AcDbLine
 10
-78.85745
 20
187.9223
 30
0.0
 11
-78.85745
 21
184.3663
 31
0.0
  0
LINE
  5
9E
330
1F
100
AcDbEntity
  8
SLD-0
100
AcDbLine
 10
-78.85745
 20
184.3663
 30
0.0
 11
-82.03245
 21
184.3663
 31
0.0
  0
LINE
  5
9F
330
1F
100
AcDbEntity
  8
SLD-0
100
AcDbLine
 10
-82.03245
 20
184.3663
 30
0.0
 11
-82.03245
 21
179.8193
 31
0.0
  0
LINE
  5
A0
330
1F
100
AcDbEntity
  8
SLD-0
100
AcDbLine
 10
-82.03245
 20
179.8193
 30
0.0
 11
-78.85745
 21
179.8193
 31
0.0
  0
LINE
  5
A1
330
1F
100
AcDbEntity
  8
SLD-0
100
AcDbLine
 10
-78.85745
 20
179.8193
 30
0.0
 11
-78.85745
 21
167.1193
 31
0.0
  0
LINE
  5
A2
330
1F
100
AcDbEntity
  8
SLD-0
100
AcDbLine
 10
-78.85745
 20
167.1193
 30
0.0
 11
-82.03245
 21
167.1193
 31
0.0
  0
LINE
  5
A3
330
1F
100
AcDbEntity
  8
SLD-0
100
AcDbLine
 10
-82.03245
 20
167.1193
 30
0.0
 11
-82.03245
 21
162.5223
 31
0.0
  0
LINE
  5
A4
330
1F
100
AcDbEntity
  8
SLD-0
100
AcDbLine
 10
-82.03245
 20
162.5223
 30
0.0
 11
-78.85745
 21
162.5223
 31
0.0
  0
LINE
  5
A5
330
1F
100
AcDbEntity
  8
SLD-0
100
AcDbLine
 10
-78.85745
 20
162.5223
 30
0.0
 11
-78.85745
 21
158.9663
 31
0.0
  0
LINE
  5
A6
330
1F
100
AcDbEntity
  8
SLD-0
100
AcDbLine
 10
-78.85745
 20
158.9663
 30
0.0
 11
-82.03245
 21
158.9663
 31
0.0
  0
LINE
  5
A7
330
1F
100
AcDbEntity
  8
SLD-0
100
AcDbLine
 10
-82.03245
 20
158.9663
 30
0.0
 11
-82.03245
 21
154.4193
 31
0.0
  0
LINE
  5
A8
330
1F
100
AcDbEntity
  8
SLD-0
100
AcDbLine
 10
-82.03245
 20
154.4193
 30
0.0
 11
-78.85745
 21
154.4193
 31
0.0
  0
LINE
  5
A9
330
1F
100
AcDbEntity
  8
SLD-0
100
AcDbLine
 10
-78.85745
 20
154.4193
 30
0.0
 11
-78.85745
 21
141.7193
 31
0.0
  0
LINE
  5
AA
330
1F
100
AcDbEntity
  8
SLD-0
100
AcDbLine
 10
-78.85745
 20
141.7193
 30
0.0
 11
-82.03245
 21
141.7193
 31
0.0
  0
LINE
  5
AB
330
1F
100
AcDbEntity
  8
SLD-0
100
AcDbLine
 10
-82.03245
 20
141.7193
 30
0.0
 11
-82.03245
 21
137.1223
 31
0.0
  0
LINE
  5
AC
330
1F
100
AcDbEntity
  8
SLD-0
100
AcDbLine
 10
-82.03245
 20
137.1223
 30
0.0
 11
-78.85745
 21
137.1223
 31
0.0
  0
LINE
  5
AD
330
1F
100
AcDbEntity
  8
SLD-0
100
AcDbLine
 10
-78.85745
 20
137.1223
 30
0.0
 11
-78.85745
 21
133.5663
 31
0.0
  0
LINE
  5
AE
330
1F
100
AcDbEntity
  8
SLD-0
100
AcDbLine
 10
-78.85745
 20
133.5663
 30
0.0
 11
-82.03245
 21
133.5663
 31
0.0
  0
LINE
  5
AF
330
1F
100
AcDbEntity
  8
SLD-0
100
AcDbLine
 10
-82.03245
 20
133.5663
 30
0.0
 11
-82.03245
 21
129.0193
 31
0.0
  0
LINE
  5
B0
330
1F
100
AcDbEntity
  8
SLD-0
100
AcDbLine
 10
-82.03245
 20
129.0193
 30
0.0
 11
-78.85745
 21
129.0193
 31
0.0
  0
LINE
  5
B1
330
1F
100
AcDbEntity
  8
SLD-0
100
AcDbLine
 10
-78.85745
 20
129.0193
 30
0.0
 11
-78.85745
 21
116.3193
 31
0.0
  0
LINE
  5
B2
330
1F
100
AcDbEntity
  8
SLD-0
100
AcDbLine
 10
-78.85745
 20
116.3193
 30
0.0
 11
-82.03245
 21
116.3193
 31
0.0
  0
LINE
  5
B3
330
1F
100
AcDbEntity
  8
SLD-0
100
AcDbLine
 10
-82.03245
 20
116.3193
 30
0.0
 11
-82.03245
 21
111.7223
 31
0.0
  0
LINE
  5
B4
330
1F
100
AcDbEntity
  8
SLD-0
100
AcDbLine
 10
-82.03245
 20
111.7223
 30
0.0
 11
-78.85745
 21
111.7223
 31
0.0
  0
LINE
  5
B5
330
1F
100
AcDbEntity
  8
SLD-0
100
AcDbLine
 10
-78.85745
 20
111.7223
 30
0.0
 11
-78.85745
 21
108.1663
 31
0.0
  0
LINE
  5
B6
330
1F
100
AcDbEntity
  8
SLD-0
100
AcDbLine
 10
-78.85745
 20
108.1663
 30
0.0
 11
-82.03245
 21
108.1663
 31
0.0
  0
LINE
  5
B7
330
1F
100
AcDbEntity
  8
SLD-0
100
AcDbLine
 10
-82.03245
 20
108.1663
 30
0.0
 11
-82.03245
 21
103.6193
 31
0.0
  0
LINE
  5
B8
330
1F
100
AcDbEntity
  8
SLD-0
100
AcDbLine
 10
-82.03245
 20
103.6193
 30
0.0
 11
-78.85745
 21
103.6193
 31
0.0
  0
LINE
  5
B9
330
1F
100
AcDbEntity
  8
SLD-0
100
AcDbLine
 10
-78.85745
 20
103.6193
 30
0.0
 11
-78.85745
 21
90.9193
 31
0.0
  0
LINE
  5
BA
330
1F
100
AcDbEntity
  8
SLD-0
100
AcDbLine
 10
-78.85745
 20
90.9193
 30
0.0
 11
-82.03245
 21
90.9193
 31
0.0
  0
LINE
  5
BB
330
1F
100
AcDbEntity
  8
SLD-0
100
AcDbLine
 10
-82.03245
 20
90.9193
 30
0.0
 11
-82.03245
 21
86.3223
 31
0.0
  0
LINE
  5
BC
330
1F
100
AcDbEntity
  8
SLD-0
100
AcDbLine
 10
-82.03245
 20
86.3223
 30
0.0
 11
-78.85745
 21
86.3223
 31
0.0
  0
LINE
  5
BD
330
1F
100
AcDbEntity
  8
SLD-0
100
AcDbLine
 10
-78.85745
 20
86.3223
 30
0.0
 11
-78.85745
 21
82.7663
 31
0.0
  0
LINE
  5
BE
330
1F
100
AcDbEntity
  8
SLD-0
100
AcDbLine
 10
-78.85745
 20
82.7663
 30
0.0
 11
-82.03245
 21
82.7663
 31
0.0
  0
LINE
  5
BF
330
1F
100
AcDbEntity
  8
SLD-0
100
AcDbLine
 10
-82.03245
 20
82.7663
 30
0.0
 11
-82.03245
 21
78.2193
 31
0.0
  0
LINE
  5
C0
330
1F
100
AcDbEntity
  8
SLD-0
100
AcDbLine
 10
-82.03245
 20
78.2193
 30
0.0
 11
-78.85745
 21
78.2193
 31
0.0
  0
LINE
  5
C1
330
1F
100
AcDbEntity
  8
SLD-0
100
AcDbLine
 10
-78.85745
 20
78.2193
 30
0.0
 11
-78.85745
 21
65.5193
 31
0.0
  0
LINE
  5
C2
330
1F
100
AcDbEntity
  8
SLD-0
100
AcDbLine
 10
-78.85745
 20
65.5193
 30
0.0
 11
-82.03245
 21
65.5193
 31
0.0
  0
LINE
  5
C3
330
1F
100
AcDbEntity
  8
SLD-0
100
AcDbLine
 10
-82.03245
 20
65.5193
 30
0.0
 11
-82.03245
 21
60.9223
 31
0.0
  0
LINE
  5
C4
330
1F
100
AcDbEntity
  8
SLD-0
100
AcDbLine
 10
-82.03245
 20
60.9223
 30
0.0
 11
-78.85745
 21
60.9223
 31
0.0
  0
LINE
  5
C5
330
1F
100
AcDbEntity
  8
SLD-0
100
AcDbLine
 10
-78.85745
 20
60.9223
 30
0.0
 11
-78.85745
 21
57.3663
 31
0.0
  0
LINE
  5
C6
330
1F
100
AcDbEntity
  8
SLD-0
100
AcDbLine
 10
-78.85745
 20
57.3663
 30
0.0
 11
-82.03245
 21
57.3663
 31
0.0
  0
LINE
  5
C7
330
1F
100
AcDbEntity
  8
SLD-0
100
AcDbLine
 10
-82.03245
 20
57.3663
 30
0.0
 11
-82.03245
 21
52.8193
 31
0.0
  0
LINE
  5
C8
330
1F
100
AcDbEntity
  8
SLD-0
100
AcDbLine
 10
-82.03245
 20
52.8193
 30
0.0
 11
-78.85745
 21
52.8193
 31
0.0
  0
LINE
  5
C9
330
1F
100
AcDbEntity
  8
SLD-0
100
AcDbLine
 10
-78.85745
 20
52.8193
 30
0.0
 11
-78.85745
 21
40.1193
 31
0.0
  0
LINE
  5
CA
330
1F
100
AcDbEntity
  8
SLD-0
100
AcDbLine
 10
-78.85745
 20
40.1193
 30
0.0
 11
-82.03245
 21
40.1193
 31
0.0
  0
LINE
  5
CB
330
1F
100
AcDbEntity
  8
SLD-0
100
AcDbLine
 10
-82.03245
 20
40.1193
 30
0.0
 11
-82.03245
 21
35.5223
 31
0.0
  0
LINE
  5
CC
330
1F
100
AcDbEntity
  8
SLD-0
100
AcDbLine
 10
-82.03245
 20
35.5223
 30
0.0
 11
-78.85745
 21
35.5223
 31
0.0
  0
LINE
  5
CD
330
1F
100
AcDbEntity
  8
SLD-0
100
AcDbLine
 10
-78.85745
 20
35.5223
 30
0.0
 11
-78.85745
 21
31.9663
 31
0.0
  0
LINE
  5
CE
330
1F
100
AcDbEntity
  8
SLD-0
100
AcDbLine
 10
-78.85745
 20
31.9663
 30
0.0
 11
-82.03245
 21
31.9663
 31
0.0
  0
LINE
  5
CF
330
1F
100
AcDbEntity
  8
SLD-0
100
AcDbLine
 10
-82.03245
 20
31.9663
 30
0.0
 11
-82.03245
 21
27.4193
 31
0.0
  0
LINE
  5
D0
330
1F
100
AcDbEntity
  8
SLD-0
100
AcDbLine
 10
-82.03245
 20
27.4193
 30
0.0
 11
-78.85745
 21
27.4193
 31
0.0
  0
LINE
  5
D1
330
1F
100
AcDbEntity
  8
SLD-0
100
AcDbLine
 10
-78.85745
 20
27.4193
 30
0.0
 11
-78.85745
 21
14.7193
 31
0.0
  0
LINE
  5
D2
330
1F
100
AcDbEntity
  8
SLD-0
100
AcDbLine
 10
-78.85745
 20
14.7193
 30
0.0
 11
-82.03245
 21
14.7193
 31
0.0
  0
LINE
  5
D3
330
1F
100
AcDbEntity
  8
SLD-0
100
AcDbLine
 10
-82.03245
 20
14.7193
 30
0.0
 11
-82.03245
 21
10.1223
 31
0.0
  0
LINE
  5
D4
330
1F
100
AcDbEntity
  8
SLD-0
100
AcDbLine
 10
-82.03245
 20
10.1223
 30
0.0
 11
-78.85745
 21
10.1223
 31
0.0
  0
LINE
  5
D5
330
1F
100
AcDbEntity
  8
SLD-0
100
AcDbLine
 10
-78.85745
 20
10.1223
 30
0.0
 11
-78.85745
 21
6.5663
 31
0.0
  0
LINE
  5
D6
330
1F
100
AcDbEntity
  8
SLD-0
100
AcDbLine
 10
-78.85745
 20
6.5663
 30
0.0
 11
-82.03245
 21
6.5663
 31
0.0
  0
LINE
  5
D7
330
1F
100
AcDbEntity
  8
SLD-0
100
AcDbLine
 10
-82.03245
 20
6.5663
 30
0.0
 11
-82.03245
 21
2.0193
 31
0.0
  0
LINE
  5
D8
330
1F
100
AcDbEntity
  8
SLD-0
100
AcDbLine
 10
-82.03245
 20
2.0193
 30
0.0
 11
-78.85745
 21
2.0193
 31
0.0
  0
LINE
  5
D9
330
1F
100
AcDbEntity
  8
SLD-0
100
AcDbLine
 10
-78.85745
 20
2.0193
 30
0.0
 11
-78.85745
 21
-10.6807
 31
0.0
  0
LINE
  5
DA
330
1F
100
AcDbEntity
  8
SLD-0
100
AcDbLine
 10
-78.85745
 20
-10.6807
 30
0.0
 11
-82.03245
 21
-10.6807
 31
0.0
  0
LINE
  5
DB
330
1F
100
AcDbEntity
  8
SLD-0
100
AcDbLine
 10
-82.03245
 20
-10.6807
 30
0.0
 11
-82.03245
 21
-15.2777
 31
0.0
  0
LINE
  5
DC
330
1F
100
AcDbEntity
  8
SLD-0
100
AcDbLine
 10
-82.03245
 20
-15.2777
 30
0.0
 11
-78.85745
 21
-15.2777
 31
0.0
  0
LINE
  5
DD
330
1F
100
AcDbEntity
  8
SLD-0
100
AcDbLine
 10
-78.85745
 20
-15.2777
 30
0.0
 11
-78.85745
 21
-18.8337
 31
0.0
  0
LINE
  5
DE
330
1F
100
AcDbEntity
  8
SLD-0
100
AcDbLine
 10
-78.85745
 20
-18.8337
 30
0.0
 11
-82.03245
 21
-18.8337
 31
0.0
  0
LINE
  5
DF
330
1F
100
AcDbEntity
  8
SLD-0
100
AcDbLine
 10
-82.03245
 20
-18.8337
 30
0.0
 11
-82.03245
 21
-23.3807
 31
0.0
  0
LINE
  5
E0
330
1F
100
AcDbEntity
  8
SLD-0
100
AcDbLine
 10
-82.03245
 20
-23.3807
 30
0.0
 11
-78.85745
 21
-23.3807
 31
0.0
  0
LINE
  5
E1
330
1F
100
AcDbEntity
  8
SLD-0
100
AcDbLine
 10
-78.85745
 20
-23.3807
 30
0.0
 11
-78.85745
 21
-36.0807
 31
0.0
  0
LINE
  5
E2
330
1F
100
AcDbEntity
  8
SLD-0
100
AcDbLine
 10
-78.85745
 20
-36.0807
 30
0.0
 11
-82.03245
 21
-36.0807
 31
0.0
  0
LINE
  5
E3
330
1F
100
AcDbEntity
  8
SLD-0
100
AcDbLine
 10
-82.03245
 20
-36.0807
 30
0.0
 11
-82.03245
 21
-40.6777
 31
0.0
  0
LINE
  5
E4
330
1F
100
AcDbEntity
  8
SLD-0
100
AcDbLine
 10
-82.03245
 20
-40.6777
 30
0.0
 11
-78.85745
 21
-40.6777
 31
0.0
  0
LINE
  5
E5
330
1F
100
AcDbEntity
  8
SLD-0
100
AcDbLine
 10
-78.85745
 20
-40.6777
 30
0.0
 11
-78.85745
 21
-44.2337
 31
0.0
  0
LINE
  5
E6
330
1F
100
AcDbEntity
  8
SLD-0
100
AcDbLine
 10
-78.85745
 20
-44.2337
 30
0.0
 11
-82.03245
 21
-44.2337
 31
0.0
  0
LINE
  5
E7
330
1F
100
AcDbEntity
  8
SLD-0
100
AcDbLine
 10
-82.03245
 20
-44.2337
 30
0.0
 11
-82.03245
 21
-48.7807
 31
0.0
  0
LINE
  5
E8
330
1F
100
AcDbEntity
  8
SLD-0
100
AcDbLine
 10
-82.03245
 20
-48.7807
 30
0.0
 11
-78.85745
 21
-48.7807
 31
0.0
  0
LINE
  5
E9
330
1F
100
AcDbEntity
  8
SLD-0
100
AcDbLine
 10
-78.85745
 20
-48.7807
 30
0.0
 11
-78.85745
 21
-61.4807
 31
0.0
  0
LINE
  5
EA
330
1F
100
AcDbEntity
  8
SLD-0
100
AcDbLine
 10
-78.85745
 20
-61.4807
 30
0.0
 11
-82.03245
 21
-61.4807
 31
0.0
  0
LINE
  5
EB
330
1F
100
AcDbEntity
  8
SLD-0
100
AcDbLine
 10
-82.03245
 20
-61.4807
 30
0.0
 11
-82.03245
 21
-66.0777
 31
0.0
  0
LINE
  5
EC
330
1F
100
AcDbEntity
  8
SLD-0
100
AcDbLine
 10
-82.03245
 20
-66.0777
 30
0.0
 11
-78.85745
 21
-66.0777
 31
0.0
  0
LINE
  5
ED
330
1F
100
AcDbEntity
  8
SLD-0
100
AcDbLine
 10
-78.85745
 20
-66.0777
 30
0.0
 11
-78.85745
 21
-69.6337
 31
0.0
  0
LINE
  5
EE
330
1F
100
AcDbEntity
  8
SLD-0
100
AcDbLine
 10
-78.85745
 20
-69.6337
 30
0.0
 11
-82.03245
 21
-69.6337
 31
0.0
  0
LINE
  5
EF
330
1F
100
AcDbEntity
  8
SLD-0
100
AcDbLine
 10
-82.03245
 20
-69.6337
 30
0.0
 11
-82.03245
 21
-74.1807
 31
0.0
  0
LINE
  5
F0
330
1F
100
AcDbEntity
  8
SLD-0
100
AcDbLine
 10
-82.03245
 20
-74.1807
 30
0.0
 11
-78.85745
 21
-74.1807
 31
0.0
  0
LINE
  5
F1
330
1F
100
AcDbEntity
  8
SLD-0
100
AcDbLine
 10
-78.85745
 20
-74.1807
 30
0.0
 11
-78.85745
 21
-86.8807
 31
0.0
  0
LINE
  5
F2
330
1F
100
AcDbEntity
  8
SLD-0
100
AcDbLine
 10
-78.85745
 20
-86.8807
 30
0.0
 11
-82.03245
 21
-86.8807
 31
0.0
  0
LINE
  5
F3
330
1F
100
AcDbEntity
  8
SLD-0
100
AcDbLine
 10
-82.03245
 20
-86.8807
 30
0.0
 11
-82.03245
 21
-91.4777
 31
0.0
  0
LINE
  5
F4
330
1F
100
AcDbEntity
  8
SLD-0
100
AcDbLine
 10
-82.03245
 20
-91.4777
 30
0.0
 11
-78.85745
 21
-91.4777
 31
0.0
  0
LINE
  5
F5
330
1F
100
AcDbEntity
  8
SLD-0
100
AcDbLine
 10
-78.85745
 20
-91.4777
 30
0.0
 11
-78.85745
 21
-95.0337
 31
0.0
  0
LINE
  5
F6
330
1F
100
AcDbEntity
  8
SLD-0
100
AcDbLine
 10
-78.85745
 20
-95.0337
 30
0.0
 11
-82.03245
 21
-95.0337
 31
0.0
  0
LINE
  5
F7
330
1F
100
AcDbEntity
  8
SLD-0
100
AcDbLine
 10
-82.03245
 20
-95.0337
 30
0.0
 11
-82.03245
 21
-99.5807
 31
0.0
  0
LINE
  5
F8
330
1F
100
AcDbEntity
  8
SLD-0
100
AcDbLine
 10
-82.03245
 20
-99.5807
 30
0.0
 11
-78.85745
 21
-99.5807
 31
0.0
  0
LINE
  5
F9
330
1F
100
AcDbEntity
  8
SLD-0
100
AcDbLine
 10
-78.85745
 20
-99.5807
 30
0.0
 11
-78.85745
 21
-112.2807
 31
0.0
  0
LINE
  5
FA
330
1F
100
AcDbEntity
  8
SLD-0
100
AcDbLine
 10
-78.85745
 20
-112.2807
 30
0.0
 11
-82.03245
 21
-112.2807
 31
0.0
  0
LINE
  5
FB
330
1F
100
AcDbEntity
  8
SLD-0
100
AcDbLine
 10
-82.03245
 20
-112.2807
 30
0.0
 11
-82.03245
 21
-116.8777
 31
0.0
  0
LINE
  5
FC
330
1F
100
AcDbEntity
  8
SLD-0
100
AcDbLine
 10
-82.03245
 20
-116.8777
 30
0.0
 11
-78.85745
 21
-116.8777
 31
0.0
  0
LINE
  5
FD
330
1F
100
AcDbEntity
  8
SLD-0
100
AcDbLine
 10
-78.85745
 20
-116.8777
 30
0.0
 11
-78.85745
 21
-120.4337
 31
0.0
  0
LINE
  5
FE
330
1F
100
AcDbEntity
  8
SLD-0
100
AcDbLine
 10
-78.85745
 20
-120.4337
 30
0.0
 11
-82.03245
 21
-120.4337
 31
0.0
  0
LINE
  5
FF
330
1F
100
AcDbEntity
  8
SLD-0
100
AcDbLine
 10
-82.03245
 20
-120.4337
 30
0.0
 11
-82.03245
 21
-124.9807
 31
0.0
  0
LINE
  5
100
330
1F
100
AcDbEntity
  8
SLD-0
100
AcDbLine
 10
-82.03245
 20
-124.9807
 30
0.0
 11
-78.85745
 21
-124.9807
 31
0.0
  0
LINE
  5
101
330
1F
100
AcDbEntity
  8
SLD-0
100
AcDbLine
 10
-78.85745
 20
-124.9807
 30
0.0
 11
-78.85745
 21
-137.6807
 31
0.0
  0
LINE
  5
102
330
1F
100
AcDbEntity
  8
SLD-0
100
AcDbLine
 10
-78.85745
 20
-137.6807
 30
0.0
 11
-82.03245
 21
-137.6807
 31
0.0
  0
LINE
  5
103
330
1F
100
AcDbEntity
  8
SLD-0
100
AcDbLine
 10
-82.03245
 20
-137.6807
 30
0.0
 11
-82.03245
 21
-142.2777
 31
0.0
  0
LINE
  5
104
330
1F
100
AcDbEntity
  8
SLD-0
100
AcDbLine
 10
-82.03245
 20
-142.2777
 30
0.0
 11
-78.85745
 21
-142.2777
 31
0.0
  0
LINE
  5
105
330
1F
100
AcDbEntity
  8
SLD-0
100
AcDbLine
 10
-78.85745
 20
-142.2777
 30
0.0
 11
-78.85745
 21
-145.8337
 31
0.0
  0
LINE
  5
106
330
1F
100
AcDbEntity
  8
SLD-0
100
AcDbLine
 10
-78.85745
 20
-145.8337
 30
0.0
 11
-82.03245
 21
-145.8337
 31
0.0
  0
LINE
  5
107
330
1F
100
AcDbEntity
  8
SLD-0
100
AcDbLine
 10
-82.03245
 20
-145.8337
 30
0.0
 11
-82.03245
 21
-150.3807
 31
0.0
  0
LINE
  5
108
330
1F
100
AcDbEntity
  8
SLD-0
100
AcDbLine
 10
-82.03245
 20
-150.3807
 30
0.0
 11
-78.85745
 21
-150.3807
 31
0.0
  0
LINE
  5
109
330
1F
100
AcDbEntity
  8
SLD-0
100
AcDbLine
 10
-78.85745
 20
-150.3807
 30
0.0
 11
-78.85745
 21
-163.0807
 31
0.0
  0
LINE
  5
10A
330
1F
100
AcDbEntity
  8
SLD-0
100
AcDbLine
 10
-78.85745
 20
-163.0807
 30
0.0
 11
-82.03245
 21
-163.0807
 31
0.0
  0
LINE
  5
10B
330
1F
100
AcDbEntity
  8
SLD-0
100
AcDbLine
 10
-82.03245
 20
-163.0807
 30
0.0
 11
-82.03245
 21
-167.6777
 31
0.0
  0
LINE
  5
10C
330
1F
100
AcDbEntity
  8
SLD-0
100
AcDbLine
 10
-82.03245
 20
-167.6777
 30
0.0
 11
-78.85745
 21
-167.6777
 31
0.0
  0
LINE
  5
10D
330
1F
100
AcDbEntity
  8
SLD-0
100
AcDbLine
 10
-78.85745
 20
-167.6777
 30
0.0
 11
-78.85745
 21
-171.2337
 31
0.0
  0
LINE
  5
10E
330
1F
100
AcDbEntity
  8
SLD-0
100
AcDbLine
 10
-78.85745
 20
-171.2337
 30
0.0
 11
-82.03245
 21
-171.2337
 31
0.0
  0
LINE
  5
10F
330
1F
100
AcDbEntity
  8
SLD-0
100
AcDbLine
 10
-82.03245
 20
-171.2337
 30
0.0
 11
-82.03245
 21
-175.7807
 31
0.0
  0
LINE
  5
110
330
1F
100
AcDbEntity
  8
SLD-0
100
AcDbLine
 10
-82.03245
 20
-175.7807
 30
0.0
 11
-78.85745
 21
-175.7807
 31
0.0
  0
LINE
  5
111
330
1F
100
AcDbEntity
  8
SLD-0
100
AcDbLine
 10
-78.85745
 20
-175.7807
 30
0.0
 11
-78.85745
 21
-188.4807
 31
0.0
  0
LINE
  5
112
330
1F
100
AcDbEntity
  8
SLD-0
100
AcDbLine
 10
-78.85745
 20
-188.4807
 30
0.0
 11
-82.03245
 21
-188.4807
 31
0.0
  0
LINE
  5
113
330
1F
100
AcDbEntity
  8
SLD-0
100
AcDbLine
 10
-82.03245
 20
-188.4807
 30
0.0
 11
-82.03245
 21
-193.0777
 31
0.0
  0
LINE
  5
114
330
1F
100
AcDbEntity
  8
SLD-0
100
AcDbLine
 10
-82.03245
 20
-193.0777
 30
0.0
 11
-78.85745
 21
-193.0777
 31
0.0
  0
LINE
  5
115
330
1F
100
AcDbEntity
  8
SLD-0
100
AcDbLine
 10
-78.85745
 20
-193.0777
 30
0.0
 11
-78.85745
 21
-196.6337
 31
0.0
  0
LINE
  5
116
330
1F
100
AcDbEntity
  8
SLD-0
100
AcDbLine
 10
-78.85745
 20
-196.6337
 30
0.0
 11
-82.03245
 21
-196.6337
 31
0.0
  0
LINE
  5
117
330
1F
100
AcDbEntity
  8
SLD-0
100
AcDbLine
 10
-82.03245
 20
-196.6337
 30
0.0
 11
-82.03245
 21
-201.1807
 31
0.0
  0
LINE
  5
118
330
1F
100
AcDbEntity
  8
SLD-0
100
AcDbLine
 10
-82.03245
 20
-201.1807
 30
0.0
 11
-78.85745
 21
-201.1807
 31
0.0
  0
LINE
  5
119
330
1F
100
AcDbEntity
  8
SLD-0
100
AcDbLine
 10
-78.85745
 20
-201.1807
 30
0.0
 11
-78.85745
 21
-213.8807
 31
0.0
  0
LINE
  5
11A
330
1F
100
AcDbEntity
  8
SLD-0
100
AcDbLine
 10
-78.85745
 20
-213.8807
 30
0.0
 11
-82.03245
 21
-213.8807
 31
0.0
  0
LINE
  5
11B
330
1F
100
AcDbEntity
  8
SLD-0
100
AcDbLine
 10
-82.03245
 20
-213.8807
 30
0.0
 11
-82.03245
 21
-218.4777
 31
0.0
  0
LINE
  5
11C
330
1F
100
AcDbEntity
  8
SLD-0
100
AcDbLine
 10
-82.03245
 20
-218.4777
 30
0.0
 11
-78.85745
 21
-218.4777
 31
0.0
  0
LINE
  5
11D
330
1F
100
AcDbEntity
  8
SLD-0
100
AcDbLine
 10
-78.85745
 20
-218.4777
 30
0.0
 11
-78.85745
 21
-222.0337
 31
0.0
  0
LINE
  5
11E
330
1F
100
AcDbEntity
  8
SLD-0
100
AcDbLine
 10
-78.85745
 20
-222.0337
 30
0.0
 11
-82.03245
 21
-222.0337
 31
0.0
  0
LINE
  5
11F
330
1F
100
AcDbEntity
  8
SLD-0
100
AcDbLine
 10
-82.03245
 20
-222.0337
 30
0.0
 11
-82.03245
 21
-226.5807
 31
0.0
  0
LINE
  5
120
330
1F
100
AcDbEntity
  8
SLD-0
100
AcDbLine
 10
-82.03245
 20
-226.5807
 30
0.0
 11
-78.85745
 21
-226.5807
 31
0.0
  0
LINE
  5
121
330
1F
100
AcDbEntity
  8
SLD-0
100
AcDbLine
 10
-78.85745
 20
-226.5807
 30
0.0
 11
-78.85745
 21
-239.2807
 31
0.0
  0
LINE
  5
122
330
1F
100
AcDbEntity
  8
SLD-0
100
AcDbLine
 10
-78.85745
 20
-239.2807
 30
0.0
 11
-82.03245
 21
-239.2807
 31
0.0
  0
LINE
  5
123
330
1F
100
AcDbEntity
  8
SLD-0
100
AcDbLine
 10
-82.03245
 20
-239.2807
 30
0.0
 11
-82.03245
 21
-243.8777
 31
0.0
  0
LINE
  5
124
330
1F
100
AcDbEntity
  8
SLD-0
100
AcDbLine
 10
-82.03245
 20
-243.8777
 30
0.0
 11
-78.85745
 21
-243.8777
 31
0.0
  0
LINE
  5
125
330
1F
100
AcDbEntity
  8
SLD-0
100
AcDbLine
 10
-78.85745
 20
-243.8777
 30
0.0
 11
-78.85745
 21
-247.4337
 31
0.0
  0
LINE
  5
126
330
1F
100
AcDbEntity
  8
SLD-0
100
AcDbLine
 10
-78.85745
 20
-247.4337
 30
0.0
 11
-82.03245
 21
-247.4337
 31
0.0
  0
LINE
  5
127
330
1F
100
AcDbEntity
  8
SLD-0
100
AcDbLine
 10
-82.03245
 20
-247.4337
 30
0.0
 11
-82.03245
 21
-251.9807
 31
0.0
  0
LINE
  5
128
330
1F
100
AcDbEntity
  8
SLD-0
100
AcDbLine
 10
-82.03245
 20
-251.9807
 30
0.0
 11
-78.85745
 21
-251.9807
 31
0.0
  0
LINE
  5
129
330
1F
100
AcDbEntity
  8
SLD-0
100
AcDbLine
 10
-78.85745
 20
-251.9807
 30
0.0
 11
-78.85745
 21
-264.6807
 31
0.0
  0
LINE
  5
12A
330
1F
100
AcDbEntity
  8
SLD-0
100
AcDbLine
 10
-78.85745
 20
-264.6807
 30
0.0
 11
-82.03245
 21
-264.6807
 31
0.0
  0
LINE
  5
12B
330
1F
100
AcDbEntity
  8
SLD-0
100
AcDbLine
 10
-82.03245
 20
-264.6807
 30
0.0
 11
-82.03245
 21
-269.2777
 31
0.0
  0
LINE
  5
12C
330
1F
100
AcDbEntity
  8
SLD-0
100
AcDbLine
 10
-82.03245
 20
-269.2777
 30
0.0
 11
-78.85745
 21
-269.2777
 31
0.0
  0
LINE
  5
12D
330
1F
100
AcDbEntity
  8
SLD-0
100
AcDbLine
 10
-78.85745
 20
-269.2777
 30
0.0
 11
-78.85745
 21
-272.8337
 31
0.0
  0
LINE
  5
12E
330
1F
100
AcDbEntity
  8
SLD-0
100
AcDbLine
 10
-78.85745
 20
-272.8337
 30
0.0
 11
-82.03245
 21
-272.8337
 31
0.0
  0
LINE
  5
12F
330
1F
100
AcDbEntity
  8
SLD-0
100
AcDbLine
 10
-82.03245
 20
-272.8337
 30
0.0
 11
-82.03245
 21
-277.3557
 31
0.0
  0
LINE
  5
130
330
1F
100
AcDbEntity
  8
SLD-0
100
AcDbLine
 10
-82.03245
 20
-277.3557
 30
0.0
 11
-78.85745
 21
-277.3557
 31
0.0
  0
LINE
  5
131
330
1F
100
AcDbEntity
  8
SLD-0
100
AcDbLine
 10
-78.85745
 20
-277.3557
 30
0.0
 11
-78.85745
 21
-305.9557
 31
0.0
  0
LINE
  5
132
330
1F
100
AcDbEntity
  8
SLD-0
100
AcDbLine
 10
-78.85745
 20
-305.9557
 30
0.0
 11
-69.33245
 21
-305.9557
 31
0.0
  0
LINE
  5
133
330
1F
100
AcDbEntity
  8
SLD-0
100
AcDbLine
 10
-69.33245
 20
-305.9557
 30
0.0
 11
-69.33245
 21
-302.7807
 31
0.0
  0
LINE
  5
134
330
1F
100
AcDbEntity
  8
SLD-0
100
AcDbLine
 10
-69.33245
 20
-302.7807
 30
0.0
 11
-64.76045
 21
-302.7807
 31
0.0
  0
LINE
  5
135
330
1F
100
AcDbEntity
  8
SLD-0
100
AcDbLine
 10
-64.76045
 20
-302.7807
 30
0.0
 11
-64.76045
 21
-296.7807
 31
0.0
  0
LINE
  5
136
330
1F
100
AcDbEntity
  8
SLD-0
100
AcDbLine
 10
-64.76045
 20
-296.7807
 30
0.0
 11
-66.95145
 21
-296.7807
 31
0.0
  0
LINE
  5
137
330
1F
100
AcDbEntity
  8
SLD-0
100
AcDbLine
 10
-66.95145
 20
-296.7807
 30
0.0
 11
-66.95145
 21
-294.0027
 31
0.0
  0
LINE
  5
138
330
1F
100
AcDbEntity
  8
SLD-0
100
AcDbLine
 10
-66.95145
 20
-294.0027
 30
0.0
 11
-64.76045
 21
-294.0027
 31
0.0
  0
LINE
  5
139
330
1F
100
AcDbEntity
  8
SLD-0
100
AcDbLine
 10
-64.76045
 20
-294.0027
 30
0.0
 11
-64.76045
 21
-290.7157
 31
0.0
  0
LINE
  5
13A
330
1F
100
AcDbEntity
  8
SLD-0
100
AcDbLine
 10
-64.76045
 20
-290.7157
 30
0.0
 11
-61.20445
 21
-290.7157
 31
0.0
  0
LINE
  5
13B
330
1F
100
AcDbEntity
  8
SLD-0
100
AcDbLine
 10
-61.20445
 20
-290.7157
 30
0.0
 11
-61.20445
 21
-294.0027
 31
0.0
  0
LINE
  5
13C
330
1F
100
AcDbEntity
  8
SLD-0
100
AcDbLine
 10
-61.20445
 20
-294.0027
 30
0.0
 11
-59.01395
 21
-294.0027
 31
0.0
  0
LINE
  5
13D
330
1F
100
AcDbEntity
  8
SLD-0
100
AcDbLine
 10
-59.01395
 20
-294.0027
 30
0.0
 11
-59.01395
 21
-296.7807
 31
0.0
  0
LINE
  5
13E
330
1F
100
AcDbEntity
  8
SLD-0
100
AcDbLine
 10
-59.01395
 20
-296.7807
 30
0.0
 11
-61.20445
 21
-296.7807
 31
0.0
  0
LINE
  5
13F
330
1F
100
AcDbEntity
  8
SLD-0
100
AcDbLine
 10
-61.20445
 20
-296.7807
 30
0.0
 11
-61.20445
 21
-302.7807
 31
0.0
  0
LINE
  5
140
330
1F
100
AcDbEntity
  8
SLD-0
100
AcDbLine
 10
-61.20445
 20
-302.7807
 30
0.0
 11
-56.63245
 21
-302.7807
 31
0.0
  0
LINE
  5
141
330
1F
100
AcDbEntity
  8
SLD-0
100
AcDbLine
 10
-56.63245
 20
-302.7807
 30
0.0
 11
-56.63245
 21
-305.9557
 31
0.0
  0
LINE
  5
142
330
1F
100
AcDbEntity
  8
SLD-0
100
AcDbLine
 10
-56.63245
 20
-305.9557
 30
0.0
 11
-43.93245
 21
-305.9557
 31
0.0
  0
LINE
  5
143
330
1F
100
AcDbEntity
  8
SLD-0
100
AcDbLine
 10
-43.93245
 20
-305.9557
 30
0.0
 11
-43.93245
 21
-302.7807
 31
0.0
  0
LINE
  5
144
330
1F
100
AcDbEntity
  8
SLD-0
100
AcDbLine
 10
-43.93245
 20
-302.7807
 30
0.0
 11
-39.36045
 21
-302.7807
 31
0.0
  0
LINE
  5
145
330
1F
100
AcDbEntity
  8
SLD-0
100
AcDbLine
 10
-39.36045
 20
-302.7807
 30
0.0
 11
-39.36045
 21
-296.7807
 31
0.0
  0
LINE
  5
146
330
1F
100
AcDbEntity
  8
SLD-0
100
AcDbLine
 10
-39.36045
 20
-296.7807
 30
0.0
 11
-41.55145
 21
-296.7807
 31
0.0
  0
LINE
  5
147
330
1F
100
AcDbEntity
  8
SLD-0
100
AcDbLine
 10
-41.55145
 20
-296.7807
 30
0.0
 11
-41.55145
 21
-294.0027
 31
0.0
  0
LINE
  5
148
330
1F
100
AcDbEntity
  8
SLD-0
100
AcDbLine
 10
-41.55145
 20
-294.0027
 30
0.0
 11
-39.36045
 21
-294.0027
 31
0.0
  0
LINE
  5
149
330
1F
100
AcDbEntity
  8
SLD-0
100
AcDbLine
 10
-39.36045
 20
-294.0027
 30
0.0
 11
-39.36045
 21
-290.7157
 31
0.0
  0
LINE
  5
14A
330
1F
100
AcDbEntity
  8
SLD-0
100
AcDbLine
 10
-39.36045
 20
-290.7157
 30
0.0
 11
-35.80445
 21
-290.7157
 31
0.0
  0
LINE
  5
14B
330
1F
100
AcDbEntity
  8
SLD-0
100
AcDbLine
 10
-35.80445
 20
-290.7157
 30
0.0
 11
-35.80445
 21
-294.0027
 31
0.0
  0
LINE
  5
14C
330
1F
100
AcDbEntity
  8
SLD-0
100
AcDbLine
 10
-35.80445
 20
-294.0027
 30
0.0
 11
-33.61395
 21
-294.0027
 31
0.0
  0
LINE
  5
14D
330
1F
100
AcDbEntity
  8
SLD-0
100
AcDbLine
 10
-33.61395
 20
-294.0027
 30
0.0
 11
-33.61395
 21
-296.7807
 31
0.0
  0
LINE
  5
14E
330
1F
100
AcDbEntity
  8
SLD-0
100
AcDbLine
 10
-33.61395
 20
-296.7807
 30
0.0
 11
-35.80445
 21
-296.7807
 31
0.0
  0
LINE
  5
14F
330
1F
100
AcDbEntity
  8
SLD-0
100
AcDbLine
 10
-35.80445
 20
-296.7807
 30
0.0
 11
-35.80445
 21
-302.7807
 31
0.0
  0
LINE
  5
150
330
1F
100
AcDbEntity
  8
SLD-0
100
AcDbLine
 10
-35.80445
 20
-302.7807
 30
0.0
 11
-31.23245
 21
-302.7807
 31
0.0
  0
LINE
  5
151
330
1F
100
AcDbEntity
  8
SLD-0
100
AcDbLine
 10
-31.23245
 20
-302.7807
 30
0.0
 11
-31.23245
 21
-305.9557
 31
0.0
  0
LINE
  5
152
330
1F
100
AcDbEntity
  8
SLD-0
100
AcDbLine
 10
-31.23245
 20
-305.9557
 30
0.0
 11
-18.53245
 21
-305.9557
 31
0.0
  0
LINE
  5
153
330
1F
100
AcDbEntity
  8
SLD-0
100
AcDbLine
 10
-18.53245
 20
-305.9557
 30
0.0
 11
-18.53245
 21
-302.7807
 31
0.0
  0
LINE
  5
154
330
1F
100
AcDbEntity
  8
SLD-0
100
AcDbLine
 10
-18.53245
 20
-302.7807
 30
0.0
 11
-13.96045
 21
-302.7807
 31
0.0
  0
LINE
  5
155
330
1F
100
AcDbEntity
  8
SLD-0
100
AcDbLine
 10
-13.96045
 20
-302.7807
 30
0.0
 11
-13.96045
 21
-296.7807
 31
0.0
  0
LINE
  5
156
330
1F
100
AcDbEntity
  8
SLD-0
100
AcDbLine
 10
-13.96045
 20
-296.7807
 30
0.0
 11
-16.15145
 21
-296.7807
 31
0.0
  0
LINE
  5
157
330
1F
100
AcDbEntity
  8
SLD-0
100
AcDbLine
 10
-16.15145
 20
-296.7807
 30
0.0
 11
-16.15145
 21
-294.0027
 31
0.0
  0
LINE
  5
158
330
1F
100
AcDbEntity
  8
SLD-0
100
AcDbLine
 10
-16.15145
 20
-294.0027
 30
0.0
 11
-13.96045
 21
-294.0027
 31
0.0
  0
LINE
  5
159
330
1F
100
AcDbEntity
  8
SLD-0
100
AcDbLine
 10
-13.96045
 20
-294.0027
 30
0.0
 11
-13.96045
 21
-290.7157
 31
0.0
  0
LINE
  5
15A
330
1F
100
AcDbEntity
  8
SLD-0
100
AcDbLine
 10
-13.96045
 20
-290.7157
 30
0.0
 11
-10.40445
 21
-290.7157
 31
0.0
  0
LINE
  5
15B
330
1F
100
AcDbEntity
  8
SLD-0
100
AcDbLine
 10
-10.40445
 20
-290.7157
 30
0.0
 11
-10.40445
 21
-294.0027
 31
0.0
  0
LINE
  5
15C
330
1F
100
AcDbEntity
  8
SLD-0
100
AcDbLine
 10
-10.40445
 20
-294.0027
 30
0.0
 11
-8.21395
 21
-294.0027
 31
0.0
  0
LINE
  5
15D
330
1F
100
AcDbEntity
  8
SLD-0
100
AcDbLine
 10
-8.21395
 20
-294.0027
 30
0.0
 11
-8.21395
 21
-296.7807
 31
0.0
  0
LINE
  5
15E
330
1F
100
AcDbEntity
  8
SLD-0
100
AcDbLine
 10
-8.21395
 20
-296.7807
 30
0.0
 11
-10.40445
 21
-296.7807
 31
0.0
  0
LINE
  5
15F
330
1F
100
AcDbEntity
  8
SLD-0
100
AcDbLine
 10
-10.40445
 20
-296.7807
 30
0.0
 11
-10.40445
 21
-302.7807
 31
0.0
  0
LINE
  5
160
330
1F
100
AcDbEntity
  8
SLD-0
100
AcDbLine
 10
-10.40445
 20
-302.7807
 30
0.0
 11
-5.83245
 21
-302.7807
 31
0.0
  0
LINE
  5
161
330
1F
100
AcDbEntity
  8
SLD-0
100
AcDbLine
 10
-5.83245
 20
-302.7807
 30
0.0
 11
-5.83245
 21
-305.9557
 31
0.0
  0
LINE
  5
162
330
1F
100
AcDbEntity
  8
SLD-0
100
AcDbLine
 10
-5.83245
 20
-305.9557
 30
0.0
 11
6.86755
 21
-305.9557
 31
0.0
  0
LINE
  5
163
330
1F
100
AcDbEntity
  8
SLD-0
100
AcDbLine
 10
6.86755
 20
-305.9557
 30
0.0
 11
6.86755
 21
-302.7807
 31
0.0
  0
LINE
  5
164
330
1F
100
AcDbEntity
  8
SLD-0
100
AcDbLine
 10
6.86755
 20
-302.7807
 30
0.0
 11
11.43955
 21
-302.7807
 31
0.0
  0
LINE
  5
165
330
1F
100
AcDbEntity
  8
SLD-0
100
AcDbLine
 10
11.43955
 20
-302.7807
 30
0.0
 11
11.43955
 21
-296.7807
 31
0.0
  0
LINE
  5
166
330
1F
100
AcDbEntity
  8
SLD-0
100
AcDbLine
 10
11.43955
 20
-296.7807
 30
0.0
 11
9.24855
 21
-296.7807
 31
0.0
  0
LINE
  5
167
330
1F
100
AcDbEntity
  8
SLD-0
100
AcDbLine
 10
9.24855
 20
-296.7807
 30
0.0
 11
9.24855
 21
-294.0027
 31
0.0
  0
LINE
  5
168
330
1F
100
AcDbEntity
  8
SLD-0
100
AcDbLine
 10
9.24855
 20
-294.0027
 30
0.0
 11
11.43955
 21
-294.0027
 31
0.0
  0
LINE
  5
169
330
1F
100
AcDbEntity
  8
SLD-0
100
AcDbLine
 10
11.43955
 20
-294.0027
 30
0.0
 11
11.43955
 21
-290.7157
 31
0.0
  0
LINE
  5
16A
330
1F
100
AcDbEntity
  8
SLD-0
100
AcDbLine
 10
11.43955
 20
-290.7157
 30
0.0
 11
14.99555
 21
-290.7157
 31
0.0
  0
LINE
  5
16B
330
1F
100
AcDbEntity
  8
SLD-0
100
AcDbLine
 10
14.99555
 20
-290.7157
 30
0.0
 11
14.99555
 21
-294.0027
 31
0.0
  0
LINE
  5
16C
330
1F
100
AcDbEntity
  8
SLD-0
100
AcDbLine
 10
14.99555
 20
-294.0027
 30
0.0
 11
17.18605
 21
-294.0027
 31
0.0
  0
LINE
  5
16D
330
1F
100
AcDbEntity
  8
SLD-0
100
AcDbLine
 10
17.18605
 20
-294.0027
 30
0.0
 11
17.18605
 21
-296.7807
 31
0.0
  0
LINE
  5
16E
330
1F
100
AcDbEntity
  8
SLD-0
100
AcDbLine
 10
17.18605
 20
-296.7807
 30
0.0
 11
14.99555
 21
-296.7807
 31
0.0
  0
LINE
  5
16F
330
1F
100
AcDbEntity
  8
SLD-0
100
AcDbLine
 10
14.99555
 20
-296.7807
 30
0.0
 11
14.99555
 21
-302.7807
 31
0.0
  0
LINE
  5
170
330
1F
100
AcDbEntity
  8
SLD-0
100
AcDbLine
 10
14.99555
 20
-302.7807
 30
0.0
 11
19.56755
 21
-302.7807
 31
0.0
  0
LINE
  5
171
330
1F
100
AcDbEntity
  8
SLD-0
100
AcDbLine
 10
19.56755
 20
-302.7807
 30
0.0
 11
19.56755
 21
-305.9557
 31
0.0
  0
LINE
  5
172
330
1F
100
AcDbEntity
  8
SLD-0
100
AcDbLine
 10
19.56755
 20
-305.9557
 30
0.0
 11
32.26755
 21
-305.9557
 31
0.0
  0
LINE
  5
173
330
1F
100
AcDbEntity
  8
SLD-0
100
AcDbLine
 10
32.26755
 20
-305.9557
 30
0.0
 11
32.26755
 21
-302.7807
 31
0.0
  0
LINE
  5
174
330
1F
100
AcDbEntity
  8
SLD-0
100
AcDbLine
 10
32.26755
 20
-302.7807
 30
0.0
 11
36.83955
 21
-302.7807
 31
0.0
  0
LINE
  5
175
330
1F
100
AcDbEntity
  8
SLD-0
100
AcDbLine
 10
36.83955
 20
-302.7807
 30
0.0
 11
36.83955
 21
-296.7807
 31
0.0
  0
LINE
  5
176
330
1F
100
AcDbEntity
  8
SLD-0
100
AcDbLine
 10
36.83955
 20
-296.7807
 30
0.0
 11
34.64855
 21
-296.7807
 31
0.0
  0
LINE
  5
177
330
1F
100
AcDbEntity
  8
SLD-0
100
AcDbLine
 10
34.64855
 20
-296.7807
 30
0.0
 11
34.64855
 21
-294.0027
 31
0.0
  0
LINE
  5
178
330
1F
100
AcDbEntity
  8
SLD-0
100
AcDbLine
 10
34.64855
 20
-294.0027
 30
0.0
 11
36.83955
 21
-294.0027
 31
0.0
  0
LINE
  5
179
330
1F
100
AcDbEntity
  8
SLD-0
100
AcDbLine
 10
36.83955
 20
-294.0027
 30
0.0
 11
36.83955
 21
-290.7157
 31
0.0
  0
LINE
  5
17A
330
1F
100
AcDbEntity
  8
SLD-0
100
AcDbLine
 10
36.83955
 20
-290.7157
 30
0.0
 11
40.39555
 21
-290.7157
 31
0.0
  0
LINE
  5
17B
330
1F
100
AcDbEntity
  8
SLD-0
100
AcDbLine
 10
40.39555
 20
-290.7157
 30
0.0
 11
40.39555
 21
-294.0027
 31
0.0
  0
LINE
  5
17C
330
1F
100
AcDbEntity
  8
SLD-0
100
AcDbLine
 10
40.39555
 20
-294.0027
 30
0.0
 11
42.58605
 21
-294.0027
 31
0.0
  0
LINE
  5
17D
330
1F
100
AcDbEntity
  8
SLD-0
100
AcDbLine
 10
42.58605
 20
-294.0027
 30
0.0
 11
42.58605
 21
-296.7807
 31
0.0
  0
LINE
  5
17E
330
1F
100
AcDbEntity
  8
SLD-0
100
AcDbLine
 10
42.58605
 20
-296.7807
 30
0.0
 11
40.39555
 21
-296.7807
 31
0.0
  0
LINE
  5
17F
330
1F
100
AcDbEntity
  8
SLD-0
100
AcDbLine
 10
40.39555
 20
-296.7807
 30
0.0
 11
40.39555
 21
-302.7807
 31
0.0
  0
LINE
  5
180
330
1F
100
AcDbEntity
  8
SLD-0
100
AcDbLine
 10
40.39555
 20
-302.7807
 30
0.0
 11
44.96755
 21
-302.7807
 31
0.0
  0
LINE
  5
181
330
1F
100
AcDbEntity
  8
SLD-0
100
AcDbLine
 10
44.96755
 20
-302.7807
 30
0.0
 11
44.96755
 21
-305.9557
 31
0.0
  0
LINE
  5
182
330
1F
100
AcDbEntity
  8
SLD-0
100
AcDbLine
 10
44.96755
 20
-305.9557
 30
0.0
 11
57.66755
 21
-305.9557
 31
0.0
  0
LINE
  5
183
330
1F
100
AcDbEntity
  8
SLD-0
100
AcDbLine
 10
57.66755
 20
-305.9557
 30
0.0
 11
57.66755
 21
-302.7807
 31
0.0
  0
LINE
  5
184
330
1F
100
AcDbEntity
  8
SLD-0
100
AcDbLine
 10
57.66755
 20
-302.7807
 30
0.0
 11
62.23955
 21
-302.7807
 31
0.0
  0
LINE
  5
185
330
1F
100
AcDbEntity
  8
SLD-0
100
AcDbLine
 10
62.23955
 20
-302.7807
 30
0.0
 11
62.23955
 21
-296.7807
 31
0.0
  0
LINE
  5
186
330
1F
100
AcDbEntity
  8
SLD-0
100
AcDbLine
 10
62.23955
 20
-296.7807
 30
0.0
 11
60.04855
 21
-296.7807
 31
0.0
  0
LINE
  5
187
330
1F
100
AcDbEntity
  8
SLD-0
100
AcDbLine
 10
60.04855
 20
-296.7807
 30
0.0
 11
60.04855
 21
-294.0027
 31
0.0
  0
LINE
  5
188
330
1F
100
AcDbEntity
  8
SLD-0
100
AcDbLine
 10
60.04855
 20
-294.0027
 30
0.0
 11
62.23955
 21
-294.0027
 31
0.0
  0
LINE
  5
189
330
1F
100
AcDbEntity
  8
SLD-0
100
AcDbLine
 10
62.23955
 20
-294.0027
 30
0.0
 11
62.23955
 21
-290.7157
 31
0.0
  0
LINE
  5
18A
330
1F
100
AcDbEntity
  8
SLD-0
100
AcDbLine
 10
62.23955
 20
-290.7157
 30
0.0
 11
65.79555
 21
-290.7157
 31
0.0
  0
LINE
  5
18B
330
1F
100
AcDbEntity
  8
SLD-0
100
AcDbLine
 10
65.79555
 20
-290.7157
 30
0.0
 11
65.79555
 21
-294.0027
 31
0.0
  0
LINE
  5
18C
330
1F
100
AcDbEntity
  8
SLD-0
100
AcDbLine
 10
65.79555
 20
-294.0027
 30
0.0
 11
67.98605
 21
-294.0027
 31
0.0
  0
LINE
  5
18D
330
1F
100
AcDbEntity
  8
SLD-0
100
AcDbLine
 10
67.98605
 20
-294.0027
 30
0.0
 11
67.98605
 21
-296.7807
 31
0.0
  0
LINE
  5
18E
330
1F
100
AcDbEntity
  8
SLD-0
100
AcDbLine
 10
67.98605
 20
-296.7807
 30
0.0
 11
65.79555
 21
-296.7807
 31
0.0
  0
LINE
  5
18F
330
1F
100
AcDbEntity
  8
SLD-0
100
AcDbLine
 10
65.79555
 20
-296.7807
 30
0.0
 11
65.79555
 21
-302.7807
 31
0.0
  0
LINE
  5
190
330
1F
100
AcDbEntity
  8
SLD-0
100
AcDbLine
 10
65.79555
 20
-302.7807
 30
0.0
 11
70.36755
 21
-302.7807
 31
0.0
  0
LINE
  5
191
330
1F
100
AcDbEntity
  8
SLD-0
100
AcDbLine
 10
70.36755
 20
-302.7807
 30
0.0
 11
70.36755
 21
-305.9557
 31
0.0
  0
LINE
  5
192
330
1F
100
AcDbEntity
  8
SLD-0
100
AcDbLine
 10
70.36755
 20
-305.9557
 30
0.0
 11
83.06755
 21
-305.9557
 31
0.0
  0
LINE
  5
193
330
1F
100
AcDbEntity
  8
SLD-0
100
AcDbLine
 10
83.06755
 20
-305.9557
 30
0.0
 11
83.06755
 21
306.8193
 31
0.0
  0
LINE
  5
194
330
1F
100
AcDbEntity
  8
SLD-0
100
AcDbLine
 10
83.06755
 20
306.8193
 30
0.0
 11
70.36755
 21
306.8193
 31
0.0
  0
LINE
  5
195
330
1F
100
AcDbEntity
  8
SLD-0
100
AcDbLine
 10
70.36755
 20
306.8193
 30
0.0
 11
70.36755
 21
303.6443
 31
0.0
  0
LINE
  5
196
330
1F
100
AcDbEntity
  8
SLD-0
100
AcDbLine
 10
70.36755
 20
303.6443
 30
0.0
 11
65.79555
 21
303.6443
 31
0.0
  0
LINE
  5
197
330
1F
100
AcDbEntity
  8
SLD-0
100
AcDbLine
 10
65.79555
 20
303.6443
 30
0.0
 11
65.79555
 21
297.6443
 31
0.0
  0
LINE
  5
198
330
1F
100
AcDbEntity
  8
SLD-0
100
AcDbLine
 10
65.79555
 20
297.6443
 30
0.0
 11
67.98605
 21
297.6443
 31
0.0
  0
LINE
  5
199
330
1F
100
AcDbEntity
  8
SLD-0
100
AcDbLine
 10
67.98605
 20
297.6443
 30
0.0
 11
67.98605
 21
294.8663
 31
0.0
  0
LINE
  5
19A
330
1F
100
AcDbEntity
  8
SLD-0
100
AcDbLine
 10
67.98605
 20
294.8663
 30
0.0
 11
65.79555
 21
294.8663
 31
0.0
  0
LINE
  5
19B
330
1F
100
AcDbEntity
  8
SLD-0
100
AcDbLine
 10
65.79555
 20
294.8663
 30
0.0
 11
65.79555
 21
291.5793
 31
0.0
  0
LINE
  5
19C
330
1F
100
AcDbEntity
  8
SLD-0
100
AcDbLine
 10
65.79555
 20
291.5793
 30
0.0
 11
62.23955
 21
291.5793
 31
0.0
  0
LINE
  5
19D
330
1F
100
AcDbEntity
  8
SLD-0
100
AcDbLine
 10
62.23955
 20
291.5793
 30
0.0
 11
62.23955
 21
294.8663
 31
0.0
  0
LINE
  5
19E
330
1F
100
AcDbEntity
  8
SLD-0
100
AcDbLine
 10
62.23955
 20
294.8663
 30
0.0
 11
60.04855
 21
294.8663
 31
0.0
  0
LINE
  5
19F
330
1F
100
AcDbEntity
  8
SLD-0
100
AcDbLine
 10
60.04855
 20
294.8663
 30
0.0
 11
60.04855
 21
297.6443
 31
0.0
  0
LINE
  5
1A0
330
1F
100
AcDbEntity
  8
SLD-0
100
AcDbLine
 10
60.04855
 20
297.6443
 30
0.0
 11
62.23955
 21
297.6443
 31
0.0
  0
LINE
  5
1A1
330
1F
100
AcDbEntity
  8
SLD-0
100
AcDbLine
 10
62.23955
 20
297.6443
 30
0.0
 11
62.23955
 21
303.6443
 31
0.0
  0
LINE
  5
1A2
330
1F
100
AcDbEntity
  8
SLD-0
100
AcDbLine
 10
62.23955
 20
303.6443
 30
0.0
 11
57.66755
 21
303.6443
 31
0.0
  0
LINE
  5
1A3
330
1F
100
AcDbEntity
  8
SLD-0
100
AcDbLine
 10
57.66755
 20
303.6443
 30
0.0
 11
57.66755
 21
306.8193
 31
0.0
  0
LINE
  5
1A4
330
1F
100
AcDbEntity
  8
SLD-0
100
AcDbLine
 10
57.66755
 20
306.8193
 30
0.0
 11
44.96755
 21
306.8193
 31
0.0
  0
LINE
  5
1A5
330
1F
100
AcDbEntity
  8
SLD-0
100
AcDbLine
 10
44.96755
 20
306.8193
 30
0.0
 11
44.96755
 21
303.6443
 31
0.0
  0
LINE
  5
1A6
330
1F
100
AcDbEntity
  8
SLD-0
100
AcDbLine
 10
44.96755
 20
303.6443
 30
0.0
 11
40.39555
 21
303.6443
 31
0.0
  0
LINE
  5
1A7
330
1F
100
AcDbEntity
  8
SLD-0
100
AcDbLine
 10
40.39555
 20
303.6443
 30
0.0
 11
40.39555
 21
297.6443
 31
0.0
  0
LINE
  5
1A8
330
1F
100
AcDbEntity
  8
SLD-0
100
AcDbLine
 10
40.39555
 20
297.6443
 30
0.0
 11
42.58605
 21
297.6443
 31
0.0
  0
LINE
  5
1A9
330
1F
100
AcDbEntity
  8
SLD-0
100
AcDbLine
 10
42.58605
 20
297.6443
 30
0.0
 11
42.58605
 21
294.8663
 31
0.0
  0
LINE
  5
1AA
330
1F
100
AcDbEntity
  8
SLD-0
100
AcDbLine
 10
42.58605
 20
294.8663
 30
0.0
 11
40.39555
 21
294.8663
 31
0.0
  0
LINE
  5
1AB
330
1F
100
AcDbEntity
  8
SLD-0
100
AcDbLine
 10
40.39555
 20
294.8663
 30
0.0
 11
40.39555
 21
291.5793
 31
0.0
  0
LINE
  5
1AC
330
1F
100
AcDbEntity
  8
SLD-0
100
AcDbLine
 10
40.39555
 20
291.5793
 30
0.0
 11
36.83955
 21
291.5793
 31
0.0
  0
LINE
  5
1AD
330
1F
100
AcDbEntity
  8
SLD-0
100
AcDbLine
 10
36.83955
 20
291.5793
 30
0.0
 11
36.83955
 21
294.8663
 31
0.0
  0
LINE
  5
1AE
330
1F
100
AcDbEntity
  8
SLD-0
100
AcDbLine
 10
36.83955
 20
294.8663
 30
0.0
 11
34.64855
 21
294.8663
 31
0.0
  0
LINE
  5
1AF
330
1F
100
AcDbEntity
  8
SLD-0
100
AcDbLine
 10
34.64855
 20
294.8663
 30
0.0
 11
34.64855
 21
297.6443
 31
0.0
  0
LINE
  5
1B0
330
1F
100
AcDbEntity
  8
SLD-0
100
AcDbLine
 10
34.64855
 20
297.6443
 30
0.0
 11
36.83955
 21
297.6443
 31
0.0
  0
LINE
  5
1B1
330
1F
100
AcDbEntity
  8
SLD-0
100
AcDbLine
 10
36.83955
 20
297.6443
 30
0.0
 11
36.83955
 21
303.6443
 31
0.0
  0
LINE
  5
1B2
330
1F
100
AcDbEntity
  8
SLD-0
100
AcDbLine
 10
36.83955
 20
303.6443
 30
0.0
 11
32.26755
 21
303.6443
 31
0.0
  0
LINE
  5
1B3
330
1F
100
AcDbEntity
  8
SLD-0
100
AcDbLine
 10
32.26755
 20
303.6443
 30
0.0
 11
32.26755
 21
306.8193
 31
0.0
  0
LINE
  5
1B4
330
1F
100
AcDbEntity
  8
SLD-0
100
AcDbLine
 10
32.26755
 20
306.8193
 30
0.0
 11
19.56755
 21
306.8193
 31
0.0
  0
LINE
  5
1B5
330
1F
100
AcDbEntity
  8
SLD-0
100
AcDbLine
 10
19.56755
 20
306.8193
 30
0.0
 11
19.56755
 21
303.6443
 31
0.0
  0
LINE
  5
1B6
330
1F
100
AcDbEntity
  8
SLD-0
100
AcDbLine
 10
19.56755
 20
303.6443
 30
0.0
 11
14.99555
 21
303.6443
 31
0.0
  0
LINE
  5
1B7
330
1F
100
AcDbEntity
  8
SLD-0
100
AcDbLine
 10
14.99555
 20
303.6443
 30
0.0
 11
14.99555
 21
297.6443
 31
0.0
  0
LINE
  5
1B8
330
1F
100
AcDbEntity
  8
SLD-0
100
AcDbLine
 10
14.99555
 20
297.6443
 30
0.0
 11
17.18605
 21
297.6443
 31
0.0
  0
LINE
  5
1B9
330
1F
100
AcDbEntity
  8
SLD-0
100
AcDbLine
 10
17.18605
 20
297.6443
 30
0.0
 11
17.18605
 21
294.8663
 31
0.0
  0
LINE
  5
1BA
330
1F
100
AcDbEntity
  8
SLD-0
100
AcDbLine
 10
17.18605
 20
294.8663
 30
0.0
 11
14.99555
 21
294.8663
 31
0.0
  0
LINE
  5
1BB
330
1F
100
AcDbEntity
  8
SLD-0
100
AcDbLine
 10
14.99555
 20
294.8663
 30
0.0
 11
14.99555
 21
291.5793
 31
0.0
  0
LINE
  5
1BC
330
1F
100
AcDbEntity
  8
SLD-0
100
AcDbLine
 10
14.99555
 20
291.5793
 30
0.0
 11
11.43955
 21
291.5793
 31
0.0
  0
LINE
  5
1BD
330
1F
100
AcDbEntity
  8
SLD-0
100
AcDbLine
 10
11.43955
 20
291.5793
 30
0.0
 11
11.43955
 21
294.8663
 31
0.0
  0
LINE
  5
1BE
330
1F
100
AcDbEntity
  8
SLD-0
100
AcDbLine
 10
11.43955
 20
294.8663
 30
0.0
 11
9.24855
 21
294.8663
 31
0.0
  0
LINE
  5
1BF
330
1F
100
AcDbEntity
  8
SLD-0
100
AcDbLine
 10
9.24855
 20
294.8663
 30
0.0
 11
9.24855
 21
297.6443
 31
0.0
  0
LINE
  5
1C0
330
1F
100
AcDbEntity
  8
SLD-0
100
AcDbLine
 10
9.24855
 20
297.6443
 30
0.0
 11
11.43955
 21
297.6443
 31
0.0
  0
LINE
  5
1C1
330
1F
100
AcDbEntity
  8
SLD-0
100
AcDbLine
 10
11.43955
 20
297.6443
 30
0.0
 11
11.43955
 21
303.6443
 31
0.0
  0
LINE
  5
1C2
330
1F
100
AcDbEntity
  8
SLD-0
100
AcDbLine
 10
11.43955
 20
303.6443
 30
0.0
 11
6.86755
 21
303.6443
 31
0.0
  0
LINE
  5
1C3
330
1F
100
AcDbEntity
  8
SLD-0
100
AcDbLine
 10
6.86755
 20
303.6443
 30
0.0
 11
6.86755
 21
306.8193
 31
0.0
  0
LINE
  5
1C4
330
1F
100
AcDbEntity
  8
SLD-0
100
AcDbLine
 10
6.86755
 20
306.8193
 30
0.0
 11
-5.83245
 21
306.8193
 31
0.0
  0
LINE
  5
1C5
330
1F
100
AcDbEntity
  8
SLD-0
100
AcDbLine
 10
-5.83245
 20
306.8193
 30
0.0
 11
-5.83245
 21
303.6443
 31
0.0
  0
LINE
  5
1C6
330
1F
100
AcDbEntity
  8
SLD-0
100
AcDbLine
 10
-5.83245
 20
303.6443
 30
0.0
 11
-10.40445
 21
303.6443
 31
0.0
  0
LINE
  5
1C7
330
1F
100
AcDbEntity
  8
SLD-0
100
AcDbLine
 10
-10.40445
 20
303.6443
 30
0.0
 11
-10.40445
 21
297.6443
 31
0.0
  0
LINE
  5
1C8
330
1F
100
AcDbEntity
  8
SLD-0
100
AcDbLine
 10
-10.40445
 20
297.6443
 30
0.0
 11
-8.21395
 21
297.6443
 31
0.0
  0
LINE
  5
1C9
330
1F
100
AcDbEntity
  8
SLD-0
100
AcDbLine
 10
-8.21395
 20
297.6443
 30
0.0
 11
-8.21395
 21
294.8663
 31
0.0
  0
LINE
  5
1CA
330
1F
100
AcDbEntity
  8
SLD-0
100
AcDbLine
 10
-8.21395
 20
294.8663
 30
0.0
 11
-10.40445
 21
294.8663
 31
0.0
  0
LINE
  5
1CB
330
1F
100
AcDbEntity
  8
SLD-0
100
AcDbLine
 10
-10.40445
 20
294.8663
 30
0.0
 11
-10.40445
 21
291.5793
 31
0.0
  0
LINE
  5
1CC
330
1F
100
AcDbEntity
  8
SLD-0
100
AcDbLine
 10
-10.40445
 20
291.5793
 30
0.0
 11
-13.96045
 21
291.5793
 31
0.0
  0
LINE
  5
1CD
330
1F
100
AcDbEntity
  8
SLD-0
100
AcDbLine
 10
-13.96045
 20
291.5793
 30
0.0
 11
-13.96045
 21
294.8663
 31
0.0
  0
LINE
  5
1CE
330
1F
100
AcDbEntity
  8
SLD-0
100
AcDbLine
 10
-13.96045
 20
294.8663
 30
0.0
 11
-16.15145
 21
294.8663
 31
0.0
  0
LINE
  5
1CF
330
1F
100
AcDbEntity
  8
SLD-0
100
AcDbLine
 10
-16.15145
 20
294.8663
 30
0.0
 11
-16.15145
 21
297.6443
 31
0.0
  0
LINE
  5
1D0
330
1F
100
AcDbEntity
  8
SLD-0
100
AcDbLine
 10
-16.15145
 20
297.6443
 30
0.0
 11
-13.96045
 21
297.6443
 31
0.0
  0
LINE
  5
1D1
330
1F
100
AcDbEntity
  8
SLD-0
100
AcDbLine
 10
-13.96045
 20
297.6443
 30
0.0
 11
-13.96045
 21
303.6443
 31
0.0
  0
LINE
  5
1D2
330
1F
100
AcDbEntity
  8
SLD-0
100
AcDbLine
 10
-13.96045
 20
303.6443
 30
0.0
 11
-18.53245
 21
303.6443
 31
0.0
  0
LINE
  5
1D3
330
1F
100
AcDbEntity
  8
SLD-0
100
AcDbLine
 10
-18.53245
 20
303.6443
 30
0.0
 11
-18.53245
 21
306.8193
 31
0.0
  0
LINE
  5
1D4
330
1F
100
AcDbEntity
  8
SLD-0
100
AcDbLine
 10
-18.53245
 20
306.8193
 30
0.0
 11
-31.23245
 21
306.8193
 31
0.0
  0
LINE
  5
1D5
330
1F
100
AcDbEntity
  8
SLD-0
100
AcDbLine
 10
-31.23245
 20
306.8193
 30
0.0
 11
-31.23245
 21
303.6443
 31
0.0
  0
LINE
  5
1D6
330
1F
100
AcDbEntity
  8
SLD-0
100
AcDbLine
 10
-31.23245
 20
303.6443
 30
0.0
 11
-35.80445
 21
303.6443
 31
0.0
  0
LINE
  5
1D7
330
1F
100
AcDbEntity
  8
SLD-0
100
AcDbLine
 10
-35.80445
 20
303.6443
 30
0.0
 11
-35.80445
 21
297.6443
 31
0.0
  0
LINE
  5
1D8
330
1F
100
AcDbEntity
  8
SLD-0
100
AcDbLine
 10
-35.80445
 20
297.6443
 30
0.0
 11
-33.61395
 21
297.6443
 31
0.0
  0
LINE
  5
1D9
330
1F
100
AcDbEntity
  8
SLD-0
100
AcDbLine
 10
-33.61395
 20
297.6443
 30
0.0
 11
-33.61395
 21
294.8663
 31
0.0
  0
LINE
  5
1DA
330
1F
100
AcDbEntity
  8
SLD-0
100
AcDbLine
 10
-33.61395
 20
294.8663
 30
0.0
 11
-35.80445
 21
294.8663
 31
0.0
  0
LINE
  5
1DB
330
1F
100
AcDbEntity
  8
SLD-0
100
AcDbLine
 10
-35.80445
 20
294.8663
 30
0.0
 11
-35.80445
 21
291.5793
 31
0.0
  0
LINE
  5
1DC
330
1F
100
AcDbEntity
  8
SLD-0
100
AcDbLine
 10
-35.80445
 20
291.5793
 30
0.0
 11
-39.36045
 21
291.5793
 31
0.0
  0
LINE
  5
1DD
330
1F
100
AcDbEntity
  8
SLD-0
100
AcDbLine
 10
-39.36045
 20
291.5793
 30
0.0
 11
-39.36045
 21
294.8663
 31
0.0
  0
LINE
  5
1DE
330
1F
100
AcDbEntity
  8
SLD-0
100
AcDbLine
 10
-39.36045
 20
294.8663
 30
0.0
 11
-41.55145
 21
294.8663
 31
0.0
  0
LINE
  5
1DF
330
1F
100
AcDbEntity
  8
SLD-0
100
AcDbLine
 10
-41.55145
 20
294.8663
 30
0.0
 11
-41.55145
 21
297.6443
 31
0.0
  0
LINE
  5
1E0
330
1F
100
AcDbEntity
  8
SLD-0
100
AcDbLine
 10
-41.55145
 20
297.6443
 30
0.0
 11
-39.36045
 21
297.6443
 31
0.0
  0
LINE
  5
1E1
330
1F
100
AcDbEntity
  8
SLD-0
100
AcDbLine
 10
-39.36045
 20
297.6443
 30
0.0
 11
-39.36045
 21
303.6443
 31
0.0
  0
LINE
  5
1E2
330
1F
100
AcDbEntity
  8
SLD-0
100
AcDbLine
 10
-39.36045
 20
303.6443
 30
0.0
 11
-43.93245
 21
303.6443
 31
0.0
  0
LINE
  5
1E3
330
1F
100
AcDbEntity
  8
SLD-0
100
AcDbLine
 10
-43.93245
 20
303.6443
 30
0.0
 11
-43.93245
 21
306.8193
 31
0.0
  0
LINE
  5
1E4
330
1F
100
AcDbEntity
  8
SLD-0
100
AcDbLine
 10
-43.93245
 20
306.8193
 30
0.0
 11
-56.63245
 21
306.8193
 31
0.0
  0
LINE
  5
1E5
330
1F
100
AcDbEntity
  8
SLD-0
100
AcDbLine
 10
-56.63245
 20
306.8193
 30
0.0
 11
-56.63245
 21
303.6443
 31
0.0
  0
LINE
  5
1E6
330
1F
100
AcDbEntity
  8
SLD-0
100
AcDbLine
 10
-56.63245
 20
303.6443
 30
0.0
 11
-61.20445
 21
303.6443
 31
0.0
  0
LINE
  5
1E7
330
1F
100
AcDbEntity
  8
SLD-0
100
AcDbLine
 10
-61.20445
 20
303.6443
 30
0.0
 11
-61.20445
 21
297.6443
 31
0.0
  0
ENDSEC
  0
SECTION
  2
OBJECTS
  0
DICTIONARY
  5
C
330
0
100
AcDbDictionary
281
     1
  3
ACAD_GROUP
350
D
  3
ACAD_LAYOUT
350
1A
  3
ACAD_MLINESTYLE
350
17
  3
ACAD_PLOTSETTINGS
350
19
  3
ACAD_PLOTSTYLENAME
350
E
  3
ACAD_SCALELIST
350
47
  0
DICTIONARY
  5
D
102
{ACAD_REACTORS
330
C
102
}
330
C
100
AcDbDictionary
281
     1
  0
DICTIONARY
  5
1A
102
{ACAD_REACTORS
330
C
102
}
330
C
100
AcDbDictionary
281
     1
  3
Layout1
350
1E
  3
Layout2
350
26
  3
Model
350
22
  0
DICTIONARY
  5
17
102
{ACAD_REACTORS
330
C
102
}
330
C
100
AcDbDictionary
281
     1
  3
Standard
350
18
  0
DICTIONARY
  5
19
102
{ACAD_REACTORS
330
C
102
}
330
C
100
AcDbDictionary
281
     1
  0
ACDBDICTIONARYWDFLT
  5
E
102
{ACAD_REACTORS
330
C
102
}
330
C
100
AcDbDictionary
281
     1
  3
Normal
350
F
100
AcDbDictionaryWithDefault
340
F
  0
DICTIONARY
  5
47
102
{ACAD_REACTORS
330
C
102
}
330
C
100
AcDbDictionary
281
     1
  3
A0
350
48
  3
A1
350
49
  3
A2
350
4A
  3
A3
350
4B
  3
A4
350
4C
  3
A5
350
4D
  3
A6
350
4E
  3
A7
350
4F
  3
A8
350
50
  3
A9
350
51
  3
B0
350
52
  3
B1
350
53
  3
B2
350
54
  3
B3
350
55
  3
B4
350
56
  3
B5
350
57
  3
B6
350
58
  3
B7
350
59
  3
B8
350
5A
  3
B9
350
5B
  3
C0
350
5C
  3
C1
350
5D
  3
C2
350
5E
  3
C3
350
5F
  3
C4
350
60
  3
C5
350
61
  3
C6
350
62
  3
C7
350
63
  3
C8
350
64
  3
C9
350
65
  3
D0
350
66
  3
D1
350
67
  3
D2
350
68
  0
LAYOUT
  5
1E
102
{ACAD_REACTORS
330
1A
102
}
330
1A
100
AcDbPlotSettings
  1

  2
none_device
  4

  6

 40
0.0
 41
0.0
 42
0.0
 43
0.0
 44
0.0
 45
0.0
 46
0.0
 47
0.0
 48
0.0
 49
0.0
140
0.0
141
0.0
142
1.0
143
1.0
 70
   688
 72
     1
 73
     0
 74
     5
  7

 75
    16
147
1.0
148
0.0
149
0.0
100
AcDbLayout
  1
Layout1
 70
     1
 71
     1
 10
0.0
 20
0.0
 11
420.0
 21
297.0
 12
0.0
 22
0.0
 32
0.0
 14
1.0000000000E+20
 24
1.0000000000E+20
 34
1.0000000000E+20
 15
-1.0000000000E+20
 25
-1.0000000000E+20
 35
-1.0000000000E+20
146
0.0
 13
0.0
 23
0.0
 33
0.0
 16
1.0
 26
0.0
 36
0.0
 17
0.0
 27
1.0
 37
0.0
 76
     0
330
1B
  0
LAYOUT
  5
26
102
{ACAD_REACTORS
330
1A
102
}
330
1A
100
AcDbPlotSettings
  1

  2
none_device
  4

  6

 40
0.0
 41
0.0
 42
0.0
 43
0.0
 44
0.0
 45
0.0
 46
0.0
 47
0.0
 48
0.0
 49
0.0
140
0.0
141
0.0
142
1.0
143
1.0
 70
   688
 72
     1
 73
     0
 74
     5
  7

 75
    16
147
1.0
148
0.0
149
0.0
100
AcDbLayout
  1
Layout2
 70
     1
 71
     2
 10
0.0
 20
0.0
 11
0.0
 21
0.0
 12
0.0
 22
0.0
 32
0.0
 14
0.0
 24
0.0
 34
0.0
 15
0.0
 25
0.0
 35
0.0
146
0.0
 13
0.0
 23
0.0
 33
0.0
 16
1.0
 26
0.0
 36
0.0
 17
0.0
 27
1.0
 37
0.0
 76
     0
330
23
  0
LAYOUT
  5
22
102
{ACAD_REACTORS
330
1A
102
}
330
1A
100
AcDbPlotSettings
  1

  2
none_device
  4
Letter_(8.50_x_11.00_Inches)
  6

 40
6.35
 41
6.35
 42
6.35000508
 43
6.35000508
 44
215.9
 45
279.4
 46
0.0
 47
0.0
 48
0.0
 49
0.0
140
0.0
141
0.0
142
1.0
143
1.0
 70
  1712
 72
     1
 73
     0
 74
     0
  7

 75
     0
147
1.0
148
0.0
149
0.0
100
AcDbLayout
  1
Model
 70
     1
 71
     0
 10
0.0
 20
0.0
 11
1117.6
 21
863.6
 12
0.0
 22
0.0
 32
0.0
 14
0.0
 24
0.0
 34
0.0
 15
1117.6
 25
863.6
 35
0.0
146
0.0
 13
0.0
 23
0.0
 33
0.0
 16
1.0
 26
0.0
 36
0.0
 17
0.0
 27
1.0
 37
0.0
 76
     0
330
1F
331
29
  0
MLINESTYLE
  5
18
102
{ACAD_REACTORS
330
17
102
}
330
17
100
AcDbMlineStyle
  2
Standard
 70
     0
  3

 62
   256
 51
90.0
 52
90.0
 71
     2
 49
0.5
 62
   256
  6
BYLAYER
 49
-0.5
 62
   256
  6
BYLAYER
  0
ACDBPLACEHOLDER
  5
F
102
{ACAD_REACTORS
330
E
102
}
330
E
  0
SCALE
  5
48
102
{ACAD_REACTORS
330
47
102
}
330
47
100
AcDbScale
 70
     0
300
1:1
140
1.0
141
1.0
290
     1
  0
SCALE
  5
49
102
{ACAD_REACTORS
330
47
102
}
330
47
100
AcDbScale
 70
     0
300
1:2
140
1.0
141
2.0
290
     0
  0
SCALE
  5
4A
102
{ACAD_REACTORS
330
47
102
}
330
47
100
AcDbScale
 70
     0
300
1:4
140
1.0
141
4.0
290
     0
  0
SCALE
  5
4B
102
{ACAD_REACTORS
330
47
102
}
330
47
100
AcDbScale
 70
     0
300
1:5
140
1.0
141
5.0
290
     0
  0
SCALE
  5
4C
102
{ACAD_REACTORS
330
47
102
}
330
47
100
AcDbScale
 70
     0
300
1:8
140
1.0
141
8.0
290
     0
  0
SCALE
  5
4D
102
{ACAD_REACTORS
330
47
102
}
330
47
100
AcDbScale
 70
     0
300
1:10
140
1.0
141
10.0
290
     0
  0
SCALE
  5
4E
102
{ACAD_REACTORS
330
47
102
}
330
47
100
AcDbScale
 70
     0
300
1:16
140
1.0
141
16.0
290
     0
  0
SCALE
  5
4F
102
{ACAD_REACTORS
330
47
102
}
330
47
100
AcDbScale
 70
     0
300
1:20
140
1.0
141
20.0
290
     0
  0
SCALE
  5
50
102
{ACAD_REACTORS
330
47
102
}
330
47
100
AcDbScale
 70
     0
300
1:30
140
1.0
141
30.0
290
     0
  0
SCALE
  5
51
102
{ACAD_REACTORS
330
47
102
}
330
47
100
AcDbScale
 70
     0
300
1:40
140
1.0
141
40.0
290
     0
  0
SCALE
  5
52
102
{ACAD_REACTORS
330
47
102
}
330
47
100
AcDbScale
 70
     0
300
1:50
140
1.0
141
50.0
290
     0
  0
SCALE
  5
53
102
{ACAD_REACTORS
330
47
102
}
330
47
100
AcDbScale
 70
     0
300
1:100
140
1.0
141
100.0
290
     0
  0
SCALE
  5
54
102
{ACAD_REACTORS
330
47
102
}
330
47
100
AcDbScale
 70
     0
300
2:1
140
2.0
141
1.0
290
     0
  0
SCALE
  5
55
102
{ACAD_REACTORS
330
47
102
}
330
47
100
AcDbScale
 70
     0
300
4:1
140
4.0
141
1.0
290
     0
  0
SCALE
  5
56
102
{ACAD_REACTORS
330
47
102
}
330
47
100
AcDbScale
 70
     0
300
8:1
140
8.0
141
1.0
290
     0
  0
SCALE
  5
57
102
{ACAD_REACTORS
330
47
102
}
330
47
100
AcDbScale
 70
     0
300
10:1
140
10.0
141
1.0
290
     0
  0
SCALE
  5
58
102
{ACAD_REACTORS
330
47
102
}
330
47
100
AcDbScale
 70
     0
300
100:1
140
100.0
141
1.0
290
     0
  0
SCALE
  5
59
102
{ACAD_REACTORS
330
47
102
}
330
47
100
AcDbScale
 70
     0
300
1/128" = 1'-0"
140
0.0078125
141
12.0
290
     0
  0
SCALE
  5
5A
102
{ACAD_REACTORS
330
47
102
}
330
47
100
AcDbScale
 70
     0
300
1/64" = 1'-0"
140
0.015625
141
12.0
290
     0
  0
SCALE
  5
5B
102
{ACAD_REACTORS
330
47
102
}
330
47
100
AcDbScale
 70
     0
300
1/32" = 1'-0"
140
0.03125
141
12.0
290
     0
  0
SCALE
  5
5C
102
{ACAD_REACTORS
330
47
102
}
330
47
100
AcDbScale
 70
     0
300
1/16" = 1'-0"
140
0.0625
141
12.0
290
     0
  0
SCALE
  5
5D
102
{ACAD_REACTORS
330
47
102
}
330
47
100
AcDbScale
 70
     0
300
3/32" = 1'-0"
140
0.09375
141
12.0
290
     0
  0
SCALE
  5
5E
102
{ACAD_REACTORS
330
47
102
}
330
47
100
AcDbScale
 70
     0
300
1/8" = 1'-0"
140
0.125
141
12.0
290
     0
  0
SCALE
  5
5F
102
{ACAD_REACTORS
330
47
102
}
330
47
100
AcDbScale
 70
     0
300
3/16" = 1'-0"
140
0.1875
141
12.0
290
     0
  0
SCALE
  5
60
102
{ACAD_REACTORS
330
47
102
}
330
47
100
AcDbScale
 70
     0
300
1/4" = 1'-0"
140
0.25
141
12.0
290
     0
  0
SCALE
  5
61
102
{ACAD_REACTORS
330
47
102
}
330
47
100
AcDbScale
 70
     0
300
3/8" = 1'-0"
140
0.375
141
12.0
290
     0
  0
SCALE
  5
62
102
{ACAD_REACTORS
330
47
102
}
330
47
100
AcDbScale
 70
     0
300
1/2" = 1'-0"
140
0.5
141
12.0
290
     0
  0
SCALE
  5
63
102
{ACAD_REACTORS
330
47
102
}
330
47
100
AcDbScale
 70
     0
300
3/4" = 1'-0"
140
0.75
141
12.0
290
     0
  0
SCALE
  5
64
102
{ACAD_REACTORS
330
47
102
}
330
47
100
AcDbScale
 70
     0
300
1" = 1'-0"
140
1.0
141
12.0
290
     0
  0
SCALE
  5
65
102
{ACAD_REACTORS
330
47
102
}
330
47
100
AcDbScale
 70
     0
300
1-1/2" = 1'-0"
140
1.5
141
12.0
290
     0
  0
SCALE
  5
66
102
{ACAD_REACTORS
330
47
102
}
330
47
100
AcDbScale
 70
     0
300
3" = 1'-0"
140
3.0
141
12.0
290
     0
  0
SCALE
  5
67
102
{ACAD_REACTORS
330
47
102
}
330
47
100
AcDbScale
 70
     0
300
6" = 1'-0"
140
6.0
141
12.0
290
     0
  0
SCALE
  5
68
102
{ACAD_REACTORS
330
47
102
}
330
47
100
AcDbScale
 70
     0
300
1'-0" = 1'-0"
140
12.0
141
12.0
290
     0
  0
ENDSEC
  0
EOF
