<?xml version="1.0" encoding="utf-8" standalone="no"?>
<!DOCTYPE svg PUBLIC "-//W3C//DTD SVG 1.1//EN"
  "http://www.w3.org/Graphics/SVG/1.1/DTD/svg11.dtd">
<!-- Created with matplotlib (https://matplotlib.org/) -->
<svg height="302.4pt" version="1.1" viewBox="0 0 420.344687 302.4" width="420.344687pt" xmlns="http://www.w3.org/2000/svg" xmlns:xlink="http://www.w3.org/1999/xlink">
 <defs>
  <style type="text/css">
*{stroke-linecap:butt;stroke-linejoin:round;}
  </style>
 </defs>
 <g id="figure_1">
  <g id="patch_1">
   <path d="M 0 302.4 
L 420.344687 302.4 
L 420.344687 0 
L 0 0 
z
" style="fill:#ffffff;"/>
  </g>
  <g id="axes_1">
   <g id="patch_2">
    <path d="M 70.869688 243.041494 
L 409.644687 243.041494 
L 409.644687 59.358506 
L 70.869688 59.358506 
z
" style="fill:#ffffff;"/>
   </g>
   <g id="matplotlib.axis_1">
    <g id="xtick_1">
     <g id="line2d_1">
      <path clip-path="url(#pdf877bfba0)" d="M 70.869688 243.041494 
L 70.869688 59.358506 
" style="fill:none;stroke:#b0b0b0;stroke-linecap:square;stroke-width:0.8;"/>
     </g>
     <g id="line2d_2">
      <defs>
       <path d="M 0 0 
L 0 3.5 
" id="m6f60f7db11" style="stroke:#000000;stroke-width:0.8;"/>
      </defs>
      <g>
       <use style="stroke:#000000;stroke-width:0.8;" x="70.869688" xlink:href="#m6f60f7db11" y="243.041494"/>
      </g>
     </g>
     <g id="text_1">
      <!-- 0 -->
      <defs>
       <path d="M 4.15625 35.296875 
Q 4.15625 48 6.765625 55.734375 
Q 9.375 63.484375 14.515625 67.671875 
Q 19.671875 71.875 27.484375 71.875 
Q 33.25 71.875 37.59375 69.546875 
Q 41.9375 67.234375 44.765625 62.859375 
Q 47.609375 58.5 49.21875 52.21875 
Q 50.828125 45.953125 50.828125 35.296875 
Q 50.828125 22.703125 48.234375 14.96875 
Q 45.65625 7.234375 40.5 3 
Q 35.359375 -1.21875 27.484375 -1.21875 
Q 17.140625 -1.21875 11.234375 6.203125 
Q 4.15625 15.140625 4.15625 35.296875 
z
M 13.1875 35.296875 
Q 13.1875 17.671875 17.3125 11.828125 
Q 21.4375 6 27.484375 6 
Q 33.546875 6 37.671875 11.859375 
Q 41.796875 17.71875 41.796875 35.296875 
Q 41.796875 52.984375 37.671875 58.78125 
Q 33.546875 64.59375 27.390625 64.59375 
Q 21.34375 64.59375 17.71875 59.46875 
Q 13.1875 52.9375 13.1875 35.296875 
z
" id="ArialMT-48"/>
      </defs>
      <g transform="translate(65.864844 262.925557)scale(0.18 -0.18)">
       <use xlink:href="#ArialMT-48"/>
      </g>
     </g>
    </g>
    <g id="xtick_2">
     <g id="line2d_3">
      <path clip-path="url(#pdf877bfba0)" d="M 102.829593 243.041494 
L 102.829593 59.358506 
" style="fill:none;stroke:#b0b0b0;stroke-linecap:square;stroke-width:0.8;"/>
     </g>
     <g id="line2d_4">
      <g>
       <use style="stroke:#000000;stroke-width:0.8;" x="102.829593" xlink:href="#m6f60f7db11" y="243.041494"/>
      </g>
     </g>
     <g id="text_2">
      <!-- 10 -->
      <defs>
       <path d="M 37.25 0 
L 28.46875 0 
L 28.46875 56 
Q 25.296875 52.984375 20.140625 49.953125 
Q 14.984375 46.921875 10.890625 45.40625 
L 10.890625 53.90625 
Q 18.265625 57.375 23.78125 62.296875 
Q 29.296875 67.234375 31.59375 71.875 
L 37.25 71.875 
z
" id="ArialMT-49"/>
      </defs>
      <g transform="translate(92.819906 262.925557)scale(0.18 -0.18)">
       <use xlink:href="#ArialMT-49"/>
       <use x="55.615234" xlink:href="#ArialMT-48"/>
      </g>
     </g>
    </g>
    <g id="xtick_3">
     <g id="line2d_5">
      <path clip-path="url(#pdf877bfba0)" d="M 134.789499 243.041494 
L 134.789499 59.358506 
" style="fill:none;stroke:#b0b0b0;stroke-linecap:square;stroke-width:0.8;"/>
     </g>
     <g id="line2d_6">
      <g>
       <use style="stroke:#000000;stroke-width:0.8;" x="134.789499" xlink:href="#m6f60f7db11" y="243.041494"/>
      </g>
     </g>
     <g id="text_3">
      <!-- 20 -->
      <defs>
       <path d="M 50.34375 8.453125 
L 50.34375 0 
L 3.03125 0 
Q 2.9375 3.171875 4.046875 6.109375 
Q 5.859375 10.9375 9.828125 15.625 
Q 13.8125 20.3125 21.34375 26.46875 
Q 33.015625 36.03125 37.109375 41.625 
Q 41.21875 47.21875 41.21875 52.203125 
Q 41.21875 57.421875 37.46875 61 
Q 33.734375 64.59375 27.734375 64.59375 
Q 21.390625 64.59375 17.578125 60.78125 
Q 13.765625 56.984375 13.71875 50.25 
L 4.6875 51.171875 
Q 5.609375 61.28125 11.65625 66.578125 
Q 17.71875 71.875 27.9375 71.875 
Q 38.234375 71.875 44.234375 66.15625 
Q 50.25 60.453125 50.25 52 
Q 50.25 47.703125 48.484375 43.546875 
Q 46.734375 39.40625 42.65625 34.8125 
Q 38.578125 30.21875 29.109375 22.21875 
Q 21.1875 15.578125 18.9375 13.203125 
Q 16.703125 10.84375 15.234375 8.453125 
z
" id="ArialMT-50"/>
      </defs>
      <g transform="translate(124.779811 262.925557)scale(0.18 -0.18)">
       <use xlink:href="#ArialMT-50"/>
       <use x="55.615234" xlink:href="#ArialMT-48"/>
      </g>
     </g>
    </g>
    <g id="xtick_4">
     <g id="line2d_7">
      <path clip-path="url(#pdf877bfba0)" d="M 166.749404 243.041494 
L 166.749404 59.358506 
" style="fill:none;stroke:#b0b0b0;stroke-linecap:square;stroke-width:0.8;"/>
     </g>
     <g id="line2d_8">
      <g>
       <use style="stroke:#000000;stroke-width:0.8;" x="166.749404" xlink:href="#m6f60f7db11" y="243.041494"/>
      </g>
     </g>
     <g id="text_4">
      <!-- 30 -->
      <defs>
       <path d="M 4.203125 18.890625 
L 12.984375 20.0625 
Q 14.5 12.59375 18.140625 9.296875 
Q 21.78125 6 27 6 
Q 33.203125 6 37.46875 10.296875 
Q 41.75 14.59375 41.75 20.953125 
Q 41.75 27 37.796875 30.921875 
Q 33.84375 34.859375 27.734375 34.859375 
Q 25.25 34.859375 21.53125 33.890625 
L 22.515625 41.609375 
Q 23.390625 41.5 23.921875 41.5 
Q 29.546875 41.5 34.03125 44.421875 
Q 38.53125 47.359375 38.53125 53.46875 
Q 38.53125 58.296875 35.25 61.46875 
Q 31.984375 64.65625 26.8125 64.65625 
Q 21.6875 64.65625 18.265625 61.421875 
Q 14.84375 58.203125 13.875 51.765625 
L 5.078125 53.328125 
Q 6.6875 62.15625 12.390625 67.015625 
Q 18.109375 71.875 26.609375 71.875 
Q 32.46875 71.875 37.390625 69.359375 
Q 42.328125 66.84375 44.9375 62.5 
Q 47.5625 58.15625 47.5625 53.265625 
Q 47.5625 48.640625 45.0625 44.828125 
Q 42.578125 41.015625 37.703125 38.765625 
Q 44.046875 37.3125 47.5625 32.6875 
Q 51.078125 28.078125 51.078125 21.140625 
Q 51.078125 11.765625 44.234375 5.25 
Q 37.40625 -1.265625 26.953125 -1.265625 
Q 17.53125 -1.265625 11.296875 4.34375 
Q 5.078125 9.96875 4.203125 18.890625 
z
" id="ArialMT-51"/>
      </defs>
      <g transform="translate(156.739717 262.925557)scale(0.18 -0.18)">
       <use xlink:href="#ArialMT-51"/>
       <use x="55.615234" xlink:href="#ArialMT-48"/>
      </g>
     </g>
    </g>
    <g id="xtick_5">
     <g id="line2d_9">
      <path clip-path="url(#pdf877bfba0)" d="M 198.70931 243.041494 
L 198.70931 59.358506 
" style="fill:none;stroke:#b0b0b0;stroke-linecap:square;stroke-width:0.8;"/>
     </g>
     <g id="line2d_10">
      <g>
       <use style="stroke:#000000;stroke-width:0.8;" x="198.70931" xlink:href="#m6f60f7db11" y="243.041494"/>
      </g>
     </g>
     <g id="text_5">
      <!-- 40 -->
      <defs>
       <path d="M 32.328125 0 
L 32.328125 17.140625 
L 1.265625 17.140625 
L 1.265625 25.203125 
L 33.9375 71.578125 
L 41.109375 71.578125 
L 41.109375 25.203125 
L 50.78125 25.203125 
L 50.78125 17.140625 
L 41.109375 17.140625 
L 41.109375 0 
z
M 32.328125 25.203125 
L 32.328125 57.46875 
L 9.90625 25.203125 
z
" id="ArialMT-52"/>
      </defs>
      <g transform="translate(188.699623 262.925557)scale(0.18 -0.18)">
       <use xlink:href="#ArialMT-52"/>
       <use x="55.615234" xlink:href="#ArialMT-48"/>
      </g>
     </g>
    </g>
    <g id="xtick_6">
     <g id="line2d_11">
      <path clip-path="url(#pdf877bfba0)" d="M 230.669216 243.041494 
L 230.669216 59.358506 
" style="fill:none;stroke:#b0b0b0;stroke-linecap:square;stroke-width:0.8;"/>
     </g>
     <g id="line2d_12">
      <g>
       <use style="stroke:#000000;stroke-width:0.8;" x="230.669216" xlink:href="#m6f60f7db11" y="243.041494"/>
      </g>
     </g>
     <g id="text_6">
      <!-- 50 -->
      <defs>
       <path d="M 4.15625 18.75 
L 13.375 19.53125 
Q 14.40625 12.796875 18.140625 9.390625 
Q 21.875 6 27.15625 6 
Q 33.5 6 37.890625 10.78125 
Q 42.28125 15.578125 42.28125 23.484375 
Q 42.28125 31 38.0625 35.34375 
Q 33.84375 39.703125 27 39.703125 
Q 22.75 39.703125 19.328125 37.765625 
Q 15.921875 35.84375 13.96875 32.765625 
L 5.71875 33.84375 
L 12.640625 70.609375 
L 48.25 70.609375 
L 48.25 62.203125 
L 19.671875 62.203125 
L 15.828125 42.96875 
Q 22.265625 47.46875 29.34375 47.46875 
Q 38.71875 47.46875 45.15625 40.96875 
Q 51.609375 34.46875 51.609375 24.265625 
Q 51.609375 14.546875 45.953125 7.46875 
Q 39.0625 -1.21875 27.15625 -1.21875 
Q 17.390625 -1.21875 11.203125 4.25 
Q 5.03125 9.71875 4.15625 18.75 
z
" id="ArialMT-53"/>
      </defs>
      <g transform="translate(220.659528 262.925557)scale(0.18 -0.18)">
       <use xlink:href="#ArialMT-53"/>
       <use x="55.615234" xlink:href="#ArialMT-48"/>
      </g>
     </g>
    </g>
    <g id="xtick_7">
     <g id="line2d_13">
      <path clip-path="url(#pdf877bfba0)" d="M 262.629121 243.041494 
L 262.629121 59.358506 
" style="fill:none;stroke:#b0b0b0;stroke-linecap:square;stroke-width:0.8;"/>
     </g>
     <g id="line2d_14">
      <g>
       <use style="stroke:#000000;stroke-width:0.8;" x="262.629121" xlink:href="#m6f60f7db11" y="243.041494"/>
      </g>
     </g>
     <g id="text_7">
      <!-- 60 -->
      <defs>
       <path d="M 49.75 54.046875 
L 41.015625 53.375 
Q 39.84375 58.546875 37.703125 60.890625 
Q 34.125 64.65625 28.90625 64.65625 
Q 24.703125 64.65625 21.53125 62.3125 
Q 17.390625 59.28125 14.984375 53.46875 
Q 12.59375 47.65625 12.5 36.921875 
Q 15.671875 41.75 20.265625 44.09375 
Q 24.859375 46.4375 29.890625 46.4375 
Q 38.671875 46.4375 44.84375 39.96875 
Q 51.03125 33.5 51.03125 23.25 
Q 51.03125 16.5 48.125 10.71875 
Q 45.21875 4.9375 40.140625 1.859375 
Q 35.0625 -1.21875 28.609375 -1.21875 
Q 17.625 -1.21875 10.6875 6.859375 
Q 3.765625 14.9375 3.765625 33.5 
Q 3.765625 54.25 11.421875 63.671875 
Q 18.109375 71.875 29.4375 71.875 
Q 37.890625 71.875 43.28125 67.140625 
Q 48.6875 62.40625 49.75 54.046875 
z
M 13.875 23.1875 
Q 13.875 18.65625 15.796875 14.5 
Q 17.71875 10.359375 21.1875 8.171875 
Q 24.65625 6 28.46875 6 
Q 34.03125 6 38.03125 10.484375 
Q 42.046875 14.984375 42.046875 22.703125 
Q 42.046875 30.125 38.078125 34.390625 
Q 34.125 38.671875 28.125 38.671875 
Q 22.171875 38.671875 18.015625 34.390625 
Q 13.875 30.125 13.875 23.1875 
z
" id="ArialMT-54"/>
      </defs>
      <g transform="translate(252.619434 262.925557)scale(0.18 -0.18)">
       <use xlink:href="#ArialMT-54"/>
       <use x="55.615234" xlink:href="#ArialMT-48"/>
      </g>
     </g>
    </g>
    <g id="xtick_8">
     <g id="line2d_15">
      <path clip-path="url(#pdf877bfba0)" d="M 294.589027 243.041494 
L 294.589027 59.358506 
" style="fill:none;stroke:#b0b0b0;stroke-linecap:square;stroke-width:0.8;"/>
     </g>
     <g id="line2d_16">
      <g>
       <use style="stroke:#000000;stroke-width:0.8;" x="294.589027" xlink:href="#m6f60f7db11" y="243.041494"/>
      </g>
     </g>
     <g id="text_8">
      <!-- 70 -->
      <defs>
       <path d="M 4.734375 62.203125 
L 4.734375 70.65625 
L 51.078125 70.65625 
L 51.078125 63.8125 
Q 44.234375 56.546875 37.515625 44.484375 
Q 30.8125 32.421875 27.15625 19.671875 
Q 24.515625 10.6875 23.78125 0 
L 14.75 0 
Q 14.890625 8.453125 18.0625 20.40625 
Q 21.234375 32.375 27.171875 43.484375 
Q 33.109375 54.59375 39.796875 62.203125 
z
" id="ArialMT-55"/>
      </defs>
      <g transform="translate(284.57934 262.925557)scale(0.18 -0.18)">
       <use xlink:href="#ArialMT-55"/>
       <use x="55.615234" xlink:href="#ArialMT-48"/>
      </g>
     </g>
    </g>
    <g id="xtick_9">
     <g id="line2d_17">
      <path clip-path="url(#pdf877bfba0)" d="M 326.548933 243.041494 
L 326.548933 59.358506 
" style="fill:none;stroke:#b0b0b0;stroke-linecap:square;stroke-width:0.8;"/>
     </g>
     <g id="line2d_18">
      <g>
       <use style="stroke:#000000;stroke-width:0.8;" x="326.548933" xlink:href="#m6f60f7db11" y="243.041494"/>
      </g>
     </g>
     <g id="text_9">
      <!-- 80 -->
      <defs>
       <path d="M 17.671875 38.8125 
Q 12.203125 40.828125 9.5625 44.53125 
Q 6.9375 48.25 6.9375 53.421875 
Q 6.9375 61.234375 12.546875 66.546875 
Q 18.171875 71.875 27.484375 71.875 
Q 36.859375 71.875 42.578125 66.421875 
Q 48.296875 60.984375 48.296875 53.171875 
Q 48.296875 48.1875 45.671875 44.5 
Q 43.0625 40.828125 37.75 38.8125 
Q 44.34375 36.671875 47.78125 31.875 
Q 51.21875 27.09375 51.21875 20.453125 
Q 51.21875 11.28125 44.71875 5.03125 
Q 38.234375 -1.21875 27.640625 -1.21875 
Q 17.046875 -1.21875 10.546875 5.046875 
Q 4.046875 11.328125 4.046875 20.703125 
Q 4.046875 27.6875 7.59375 32.390625 
Q 11.140625 37.109375 17.671875 38.8125 
z
M 15.921875 53.71875 
Q 15.921875 48.640625 19.1875 45.40625 
Q 22.46875 42.1875 27.6875 42.1875 
Q 32.765625 42.1875 36.015625 45.375 
Q 39.265625 48.578125 39.265625 53.21875 
Q 39.265625 58.0625 35.90625 61.359375 
Q 32.5625 64.65625 27.59375 64.65625 
Q 22.5625 64.65625 19.234375 61.421875 
Q 15.921875 58.203125 15.921875 53.71875 
z
M 13.09375 20.65625 
Q 13.09375 16.890625 14.875 13.375 
Q 16.65625 9.859375 20.171875 7.921875 
Q 23.6875 6 27.734375 6 
Q 34.03125 6 38.125 10.046875 
Q 42.234375 14.109375 42.234375 20.359375 
Q 42.234375 26.703125 38.015625 30.859375 
Q 33.796875 35.015625 27.4375 35.015625 
Q 21.234375 35.015625 17.15625 30.90625 
Q 13.09375 26.8125 13.09375 20.65625 
z
" id="ArialMT-56"/>
      </defs>
      <g transform="translate(316.539245 262.925557)scale(0.18 -0.18)">
       <use xlink:href="#ArialMT-56"/>
       <use x="55.615234" xlink:href="#ArialMT-48"/>
      </g>
     </g>
    </g>
    <g id="xtick_10">
     <g id="line2d_19">
      <path clip-path="url(#pdf877bfba0)" d="M 358.508838 243.041494 
L 358.508838 59.358506 
" style="fill:none;stroke:#b0b0b0;stroke-linecap:square;stroke-width:0.8;"/>
     </g>
     <g id="line2d_20">
      <g>
       <use style="stroke:#000000;stroke-width:0.8;" x="358.508838" xlink:href="#m6f60f7db11" y="243.041494"/>
      </g>
     </g>
     <g id="text_10">
      <!-- 90 -->
      <defs>
       <path d="M 5.46875 16.546875 
L 13.921875 17.328125 
Q 14.984375 11.375 18.015625 8.6875 
Q 21.046875 6 25.78125 6 
Q 29.828125 6 32.875 7.859375 
Q 35.9375 9.71875 37.890625 12.8125 
Q 39.84375 15.921875 41.15625 21.1875 
Q 42.484375 26.46875 42.484375 31.9375 
Q 42.484375 32.515625 42.4375 33.6875 
Q 39.796875 29.5 35.234375 26.875 
Q 30.671875 24.265625 25.34375 24.265625 
Q 16.453125 24.265625 10.296875 30.703125 
Q 4.15625 37.15625 4.15625 47.703125 
Q 4.15625 58.59375 10.578125 65.234375 
Q 17 71.875 26.65625 71.875 
Q 33.640625 71.875 39.421875 68.109375 
Q 45.21875 64.359375 48.21875 57.390625 
Q 51.21875 50.4375 51.21875 37.25 
Q 51.21875 23.53125 48.234375 15.40625 
Q 45.265625 7.28125 39.375 3.03125 
Q 33.5 -1.21875 25.59375 -1.21875 
Q 17.1875 -1.21875 11.859375 3.4375 
Q 6.546875 8.109375 5.46875 16.546875 
z
M 41.453125 48.140625 
Q 41.453125 55.71875 37.421875 60.15625 
Q 33.40625 64.59375 27.734375 64.59375 
Q 21.875 64.59375 17.53125 59.8125 
Q 13.1875 55.03125 13.1875 47.40625 
Q 13.1875 40.578125 17.3125 36.296875 
Q 21.4375 32.03125 27.484375 32.03125 
Q 33.59375 32.03125 37.515625 36.296875 
Q 41.453125 40.578125 41.453125 48.140625 
z
" id="ArialMT-57"/>
      </defs>
      <g transform="translate(348.499151 262.925557)scale(0.18 -0.18)">
       <use xlink:href="#ArialMT-57"/>
       <use x="55.615234" xlink:href="#ArialMT-48"/>
      </g>
     </g>
    </g>
    <g id="xtick_11">
     <g id="line2d_21">
      <path clip-path="url(#pdf877bfba0)" d="M 390.468744 243.041494 
L 390.468744 59.358506 
" style="fill:none;stroke:#b0b0b0;stroke-linecap:square;stroke-width:0.8;"/>
     </g>
     <g id="line2d_22">
      <g>
       <use style="stroke:#000000;stroke-width:0.8;" x="390.468744" xlink:href="#m6f60f7db11" y="243.041494"/>
      </g>
     </g>
     <g id="text_11">
      <!-- 100 -->
      <g transform="translate(375.454213 262.925557)scale(0.18 -0.18)">
       <use xlink:href="#ArialMT-49"/>
       <use x="55.615234" xlink:href="#ArialMT-48"/>
       <use x="111.230469" xlink:href="#ArialMT-48"/>
      </g>
     </g>
    </g>
    <g id="text_12">
     <!-- Layer number, k -->
     <defs>
      <path d="M 7.328125 0 
L 7.328125 71.578125 
L 16.796875 71.578125 
L 16.796875 8.453125 
L 52.046875 8.453125 
L 52.046875 0 
z
" id="ArialMT-76"/>
      <path d="M 40.4375 6.390625 
Q 35.546875 2.25 31.03125 0.53125 
Q 26.515625 -1.171875 21.34375 -1.171875 
Q 12.796875 -1.171875 8.203125 3 
Q 3.609375 7.171875 3.609375 13.671875 
Q 3.609375 17.484375 5.34375 20.625 
Q 7.078125 23.78125 9.890625 25.6875 
Q 12.703125 27.59375 16.21875 28.5625 
Q 18.796875 29.25 24.03125 29.890625 
Q 34.671875 31.15625 39.703125 32.90625 
Q 39.75 34.71875 39.75 35.203125 
Q 39.75 40.578125 37.25 42.78125 
Q 33.890625 45.75 27.25 45.75 
Q 21.046875 45.75 18.09375 43.578125 
Q 15.140625 41.40625 13.71875 35.890625 
L 5.125 37.0625 
Q 6.296875 42.578125 8.984375 45.96875 
Q 11.671875 49.359375 16.75 51.1875 
Q 21.828125 53.03125 28.515625 53.03125 
Q 35.15625 53.03125 39.296875 51.46875 
Q 43.453125 49.90625 45.40625 47.53125 
Q 47.359375 45.171875 48.140625 41.546875 
Q 48.578125 39.3125 48.578125 33.453125 
L 48.578125 21.734375 
Q 48.578125 9.46875 49.140625 6.21875 
Q 49.703125 2.984375 51.375 0 
L 42.1875 0 
Q 40.828125 2.734375 40.4375 6.390625 
z
M 39.703125 26.03125 
Q 34.90625 24.078125 25.34375 22.703125 
Q 19.921875 21.921875 17.671875 20.9375 
Q 15.4375 19.96875 14.203125 18.09375 
Q 12.984375 16.21875 12.984375 13.921875 
Q 12.984375 10.40625 15.640625 8.0625 
Q 18.3125 5.71875 23.4375 5.71875 
Q 28.515625 5.71875 32.46875 7.9375 
Q 36.421875 10.15625 38.28125 14.015625 
Q 39.703125 17 39.703125 22.796875 
z
" id="ArialMT-97"/>
      <path d="M 6.203125 -19.96875 
L 5.21875 -11.71875 
Q 8.109375 -12.5 10.25 -12.5 
Q 13.1875 -12.5 14.9375 -11.515625 
Q 16.703125 -10.546875 17.828125 -8.796875 
Q 18.65625 -7.46875 20.515625 -2.25 
Q 20.75 -1.515625 21.296875 -0.09375 
L 1.609375 51.859375 
L 11.078125 51.859375 
L 21.875 21.828125 
Q 23.96875 16.109375 25.640625 9.8125 
Q 27.15625 15.875 29.25 21.625 
L 40.328125 51.859375 
L 49.125 51.859375 
L 29.390625 -0.875 
Q 26.21875 -9.421875 24.46875 -12.640625 
Q 22.125 -17 19.09375 -19.015625 
Q 16.0625 -21.046875 11.859375 -21.046875 
Q 9.328125 -21.046875 6.203125 -19.96875 
z
" id="ArialMT-121"/>
      <path d="M 42.09375 16.703125 
L 51.171875 15.578125 
Q 49.03125 7.625 43.21875 3.21875 
Q 37.40625 -1.171875 28.375 -1.171875 
Q 17 -1.171875 10.328125 5.828125 
Q 3.65625 12.84375 3.65625 25.484375 
Q 3.65625 38.578125 10.390625 45.796875 
Q 17.140625 53.03125 27.875 53.03125 
Q 38.28125 53.03125 44.875 45.953125 
Q 51.46875 38.875 51.46875 26.03125 
Q 51.46875 25.25 51.421875 23.6875 
L 12.75 23.6875 
Q 13.234375 15.140625 17.578125 10.59375 
Q 21.921875 6.0625 28.421875 6.0625 
Q 33.25 6.0625 36.671875 8.59375 
Q 40.09375 11.140625 42.09375 16.703125 
z
M 13.234375 30.90625 
L 42.1875 30.90625 
Q 41.609375 37.453125 38.875 40.71875 
Q 34.671875 45.796875 27.984375 45.796875 
Q 21.921875 45.796875 17.796875 41.75 
Q 13.671875 37.703125 13.234375 30.90625 
z
" id="ArialMT-101"/>
      <path d="M 6.5 0 
L 6.5 51.859375 
L 14.40625 51.859375 
L 14.40625 44 
Q 17.4375 49.515625 20 51.265625 
Q 22.5625 53.03125 25.640625 53.03125 
Q 30.078125 53.03125 34.671875 50.203125 
L 31.640625 42.046875 
Q 28.421875 43.953125 25.203125 43.953125 
Q 22.3125 43.953125 20.015625 42.21875 
Q 17.71875 40.484375 16.75 37.40625 
Q 15.28125 32.71875 15.28125 27.15625 
L 15.28125 0 
z
" id="ArialMT-114"/>
      <path id="ArialMT-32"/>
      <path d="M 6.59375 0 
L 6.59375 51.859375 
L 14.5 51.859375 
L 14.5 44.484375 
Q 20.21875 53.03125 31 53.03125 
Q 35.6875 53.03125 39.625 51.34375 
Q 43.5625 49.65625 45.515625 46.921875 
Q 47.46875 44.1875 48.25 40.4375 
Q 48.734375 37.984375 48.734375 31.890625 
L 48.734375 0 
L 39.9375 0 
L 39.9375 31.546875 
Q 39.9375 36.921875 38.90625 39.578125 
Q 37.890625 42.234375 35.28125 43.8125 
Q 32.671875 45.40625 29.15625 45.40625 
Q 23.53125 45.40625 19.453125 41.84375 
Q 15.375 38.28125 15.375 28.328125 
L 15.375 0 
z
" id="ArialMT-110"/>
      <path d="M 40.578125 0 
L 40.578125 7.625 
Q 34.515625 -1.171875 24.125 -1.171875 
Q 19.53125 -1.171875 15.546875 0.578125 
Q 11.578125 2.34375 9.640625 5 
Q 7.71875 7.671875 6.9375 11.53125 
Q 6.390625 14.109375 6.390625 19.734375 
L 6.390625 51.859375 
L 15.1875 51.859375 
L 15.1875 23.09375 
Q 15.1875 16.21875 15.71875 13.8125 
Q 16.546875 10.359375 19.234375 8.375 
Q 21.921875 6.390625 25.875 6.390625 
Q 29.828125 6.390625 33.296875 8.421875 
Q 36.765625 10.453125 38.203125 13.9375 
Q 39.65625 17.4375 39.65625 24.078125 
L 39.65625 51.859375 
L 48.4375 51.859375 
L 48.4375 0 
z
" id="ArialMT-117"/>
      <path d="M 6.59375 0 
L 6.59375 51.859375 
L 14.453125 51.859375 
L 14.453125 44.578125 
Q 16.890625 48.390625 20.9375 50.703125 
Q 25 53.03125 30.171875 53.03125 
Q 35.9375 53.03125 39.625 50.640625 
Q 43.3125 48.25 44.828125 43.953125 
Q 50.984375 53.03125 60.84375 53.03125 
Q 68.5625 53.03125 72.703125 48.75 
Q 76.859375 44.484375 76.859375 35.59375 
L 76.859375 0 
L 68.109375 0 
L 68.109375 32.671875 
Q 68.109375 37.9375 67.25 40.25 
Q 66.40625 42.578125 64.15625 43.984375 
Q 61.921875 45.40625 58.890625 45.40625 
Q 53.421875 45.40625 49.796875 41.765625 
Q 46.1875 38.140625 46.1875 30.125 
L 46.1875 0 
L 37.40625 0 
L 37.40625 33.6875 
Q 37.40625 39.546875 35.25 42.46875 
Q 33.109375 45.40625 28.21875 45.40625 
Q 24.515625 45.40625 21.359375 43.453125 
Q 18.21875 41.5 16.796875 37.734375 
Q 15.375 33.984375 15.375 26.90625 
L 15.375 0 
z
" id="ArialMT-109"/>
      <path d="M 14.703125 0 
L 6.546875 0 
L 6.546875 71.578125 
L 15.328125 71.578125 
L 15.328125 46.046875 
Q 20.90625 53.03125 29.546875 53.03125 
Q 34.328125 53.03125 38.59375 51.09375 
Q 42.875 49.171875 45.625 45.671875 
Q 48.390625 42.1875 49.953125 37.25 
Q 51.515625 32.328125 51.515625 26.703125 
Q 51.515625 13.375 44.921875 6.09375 
Q 38.328125 -1.171875 29.109375 -1.171875 
Q 19.921875 -1.171875 14.703125 6.5 
z
M 14.59375 26.3125 
Q 14.59375 17 17.140625 12.84375 
Q 21.296875 6.0625 28.375 6.0625 
Q 34.125 6.0625 38.328125 11.0625 
Q 42.53125 16.0625 42.53125 25.984375 
Q 42.53125 36.140625 38.5 40.96875 
Q 34.46875 45.796875 28.765625 45.796875 
Q 23 45.796875 18.796875 40.796875 
Q 14.59375 35.796875 14.59375 26.3125 
z
" id="ArialMT-98"/>
      <path d="M 8.890625 0 
L 8.890625 10.015625 
L 18.890625 10.015625 
L 18.890625 0 
Q 18.890625 -5.515625 16.9375 -8.90625 
Q 14.984375 -12.3125 10.75 -14.15625 
L 8.296875 -10.40625 
Q 11.078125 -9.1875 12.390625 -6.8125 
Q 13.71875 -4.4375 13.875 0 
z
" id="ArialMT-44"/>
      <path d="M 6.640625 0 
L 6.640625 71.578125 
L 15.4375 71.578125 
L 15.4375 30.765625 
L 36.234375 51.859375 
L 47.609375 51.859375 
L 27.78125 32.625 
L 49.609375 0 
L 38.765625 0 
L 21.625 26.515625 
L 15.4375 20.5625 
L 15.4375 0 
z
" id="ArialMT-107"/>
     </defs>
     <g transform="translate(175.239219 283.387119)scale(0.18 -0.18)">
      <use xlink:href="#ArialMT-76"/>
      <use x="55.615234" xlink:href="#ArialMT-97"/>
      <use x="111.230469" xlink:href="#ArialMT-121"/>
      <use x="161.230469" xlink:href="#ArialMT-101"/>
      <use x="216.845703" xlink:href="#ArialMT-114"/>
      <use x="250.146484" xlink:href="#ArialMT-32"/>
      <use x="277.929688" xlink:href="#ArialMT-110"/>
      <use x="333.544922" xlink:href="#ArialMT-117"/>
      <use x="389.160156" xlink:href="#ArialMT-109"/>
      <use x="472.460938" xlink:href="#ArialMT-98"/>
      <use x="528.076172" xlink:href="#ArialMT-101"/>
      <use x="583.691406" xlink:href="#ArialMT-114"/>
      <use x="616.914062" xlink:href="#ArialMT-44"/>
      <use x="644.697266" xlink:href="#ArialMT-32"/>
      <use x="672.480469" xlink:href="#ArialMT-107"/>
     </g>
    </g>
   </g>
   <g id="matplotlib.axis_2">
    <g id="ytick_1">
     <g id="line2d_23">
      <path clip-path="url(#pdf877bfba0)" d="M 70.869688 234.240766 
L 409.644687 234.240766 
" style="fill:none;stroke:#b0b0b0;stroke-linecap:square;stroke-width:0.8;"/>
     </g>
     <g id="line2d_24">
      <defs>
       <path d="M 0 0 
L -3.5 0 
" id="ma6635231a4" style="stroke:#000000;stroke-width:0.8;"/>
      </defs>
      <g>
       <use style="stroke:#000000;stroke-width:0.8;" x="70.869688" xlink:href="#ma6635231a4" y="234.240766"/>
      </g>
     </g>
     <g id="text_13">
      <!-- 0.70 -->
      <defs>
       <path d="M 9.078125 0 
L 9.078125 10.015625 
L 19.09375 10.015625 
L 19.09375 0 
z
" id="ArialMT-46"/>
      </defs>
      <g transform="translate(28.84 240.682797)scale(0.18 -0.18)">
       <use xlink:href="#ArialMT-48"/>
       <use x="55.615234" xlink:href="#ArialMT-46"/>
       <use x="83.398438" xlink:href="#ArialMT-55"/>
       <use x="139.013672" xlink:href="#ArialMT-48"/>
      </g>
     </g>
    </g>
    <g id="ytick_2">
     <g id="line2d_25">
      <path clip-path="url(#pdf877bfba0)" d="M 70.869688 191.288986 
L 409.644687 191.288986 
" style="fill:none;stroke:#b0b0b0;stroke-linecap:square;stroke-width:0.8;"/>
     </g>
     <g id="line2d_26">
      <g>
       <use style="stroke:#000000;stroke-width:0.8;" x="70.869688" xlink:href="#ma6635231a4" y="191.288986"/>
      </g>
     </g>
     <g id="text_14">
      <!-- 0.72 -->
      <g transform="translate(28.84 197.731017)scale(0.18 -0.18)">
       <use xlink:href="#ArialMT-48"/>
       <use x="55.615234" xlink:href="#ArialMT-46"/>
       <use x="83.398438" xlink:href="#ArialMT-55"/>
       <use x="139.013672" xlink:href="#ArialMT-50"/>
      </g>
     </g>
    </g>
    <g id="ytick_3">
     <g id="line2d_27">
      <path clip-path="url(#pdf877bfba0)" d="M 70.869688 148.337205 
L 409.644687 148.337205 
" style="fill:none;stroke:#b0b0b0;stroke-linecap:square;stroke-width:0.8;"/>
     </g>
     <g id="line2d_28">
      <g>
       <use style="stroke:#000000;stroke-width:0.8;" x="70.869688" xlink:href="#ma6635231a4" y="148.337205"/>
      </g>
     </g>
     <g id="text_15">
      <!-- 0.74 -->
      <g transform="translate(28.84 154.779236)scale(0.18 -0.18)">
       <use xlink:href="#ArialMT-48"/>
       <use x="55.615234" xlink:href="#ArialMT-46"/>
       <use x="83.398438" xlink:href="#ArialMT-55"/>
       <use x="139.013672" xlink:href="#ArialMT-52"/>
      </g>
     </g>
    </g>
    <g id="ytick_4">
     <g id="line2d_29">
      <path clip-path="url(#pdf877bfba0)" d="M 70.869688 105.385425 
L 409.644687 105.385425 
" style="fill:none;stroke:#b0b0b0;stroke-linecap:square;stroke-width:0.8;"/>
     </g>
     <g id="line2d_30">
      <g>
       <use style="stroke:#000000;stroke-width:0.8;" x="70.869688" xlink:href="#ma6635231a4" y="105.385425"/>
      </g>
     </g>
     <g id="text_16">
      <!-- 0.76 -->
      <g transform="translate(28.84 111.827456)scale(0.18 -0.18)">
       <use xlink:href="#ArialMT-48"/>
       <use x="55.615234" xlink:href="#ArialMT-46"/>
       <use x="83.398438" xlink:href="#ArialMT-55"/>
       <use x="139.013672" xlink:href="#ArialMT-54"/>
      </g>
     </g>
    </g>
    <g id="ytick_5">
     <g id="line2d_31">
      <path clip-path="url(#pdf877bfba0)" d="M 70.869688 62.433644 
L 409.644687 62.433644 
" style="fill:none;stroke:#b0b0b0;stroke-linecap:square;stroke-width:0.8;"/>
     </g>
     <g id="line2d_32">
      <g>
       <use style="stroke:#000000;stroke-width:0.8;" x="70.869688" xlink:href="#ma6635231a4" y="62.433644"/>
      </g>
     </g>
     <g id="text_17">
      <!-- 0.78 -->
      <g transform="translate(28.84 68.875676)scale(0.18 -0.18)">
       <use xlink:href="#ArialMT-48"/>
       <use x="55.615234" xlink:href="#ArialMT-46"/>
       <use x="83.398438" xlink:href="#ArialMT-55"/>
       <use x="139.013672" xlink:href="#ArialMT-56"/>
      </g>
     </g>
    </g>
    <g id="text_18">
     <!-- Incremental height offset, $d(k)$ [mm] -->
     <defs>
      <path d="M 9.328125 0 
L 9.328125 71.578125 
L 18.796875 71.578125 
L 18.796875 0 
z
" id="ArialMT-73"/>
      <path d="M 40.4375 19 
L 49.078125 17.875 
Q 47.65625 8.9375 41.8125 3.875 
Q 35.984375 -1.171875 27.484375 -1.171875 
Q 16.84375 -1.171875 10.375 5.78125 
Q 3.90625 12.75 3.90625 25.734375 
Q 3.90625 34.125 6.6875 40.421875 
Q 9.46875 46.734375 15.15625 49.875 
Q 20.84375 53.03125 27.546875 53.03125 
Q 35.984375 53.03125 41.359375 48.75 
Q 46.734375 44.484375 48.25 36.625 
L 39.703125 35.296875 
Q 38.484375 40.53125 35.375 43.15625 
Q 32.28125 45.796875 27.875 45.796875 
Q 21.234375 45.796875 17.078125 41.03125 
Q 12.9375 36.28125 12.9375 25.984375 
Q 12.9375 15.53125 16.9375 10.796875 
Q 20.953125 6.0625 27.390625 6.0625 
Q 32.5625 6.0625 36.03125 9.234375 
Q 39.5 12.40625 40.4375 19 
z
" id="ArialMT-99"/>
      <path d="M 25.78125 7.859375 
L 27.046875 0.09375 
Q 23.34375 -0.6875 20.40625 -0.6875 
Q 15.625 -0.6875 12.984375 0.828125 
Q 10.359375 2.34375 9.28125 4.8125 
Q 8.203125 7.28125 8.203125 15.1875 
L 8.203125 45.015625 
L 1.765625 45.015625 
L 1.765625 51.859375 
L 8.203125 51.859375 
L 8.203125 64.703125 
L 16.9375 69.96875 
L 16.9375 51.859375 
L 25.78125 51.859375 
L 25.78125 45.015625 
L 16.9375 45.015625 
L 16.9375 14.703125 
Q 16.9375 10.9375 17.40625 9.859375 
Q 17.875 8.796875 18.921875 8.15625 
Q 19.96875 7.515625 21.921875 7.515625 
Q 23.390625 7.515625 25.78125 7.859375 
z
" id="ArialMT-116"/>
      <path d="M 6.390625 0 
L 6.390625 71.578125 
L 15.1875 71.578125 
L 15.1875 0 
z
" id="ArialMT-108"/>
      <path d="M 6.59375 0 
L 6.59375 71.578125 
L 15.375 71.578125 
L 15.375 45.90625 
Q 21.53125 53.03125 30.90625 53.03125 
Q 36.671875 53.03125 40.921875 50.75 
Q 45.171875 48.484375 47 44.484375 
Q 48.828125 40.484375 48.828125 32.859375 
L 48.828125 0 
L 40.046875 0 
L 40.046875 32.859375 
Q 40.046875 39.453125 37.1875 42.453125 
Q 34.328125 45.453125 29.109375 45.453125 
Q 25.203125 45.453125 21.75 43.421875 
Q 18.3125 41.40625 16.84375 37.9375 
Q 15.375 34.46875 15.375 28.375 
L 15.375 0 
z
" id="ArialMT-104"/>
      <path d="M 6.640625 61.46875 
L 6.640625 71.578125 
L 15.4375 71.578125 
L 15.4375 61.46875 
z
M 6.640625 0 
L 6.640625 51.859375 
L 15.4375 51.859375 
L 15.4375 0 
z
" id="ArialMT-105"/>
      <path d="M 4.984375 -4.296875 
L 13.53125 -5.5625 
Q 14.0625 -9.515625 16.5 -11.328125 
Q 19.78125 -13.765625 25.4375 -13.765625 
Q 31.546875 -13.765625 34.859375 -11.328125 
Q 38.1875 -8.890625 39.359375 -4.5 
Q 40.046875 -1.8125 39.984375 6.78125 
Q 34.234375 0 25.640625 0 
Q 14.9375 0 9.078125 7.71875 
Q 3.21875 15.4375 3.21875 26.21875 
Q 3.21875 33.640625 5.90625 39.90625 
Q 8.59375 46.1875 13.6875 49.609375 
Q 18.796875 53.03125 25.6875 53.03125 
Q 34.859375 53.03125 40.828125 45.609375 
L 40.828125 51.859375 
L 48.921875 51.859375 
L 48.921875 7.03125 
Q 48.921875 -5.078125 46.453125 -10.125 
Q 44 -15.1875 38.640625 -18.109375 
Q 33.296875 -21.046875 25.484375 -21.046875 
Q 16.21875 -21.046875 10.5 -16.875 
Q 4.78125 -12.703125 4.984375 -4.296875 
z
M 12.25 26.859375 
Q 12.25 16.65625 16.296875 11.96875 
Q 20.359375 7.28125 26.46875 7.28125 
Q 32.515625 7.28125 36.609375 11.9375 
Q 40.71875 16.609375 40.71875 26.5625 
Q 40.71875 36.078125 36.5 40.90625 
Q 32.28125 45.75 26.3125 45.75 
Q 20.453125 45.75 16.34375 40.984375 
Q 12.25 36.234375 12.25 26.859375 
z
" id="ArialMT-103"/>
      <path d="M 3.328125 25.921875 
Q 3.328125 40.328125 11.328125 47.265625 
Q 18.015625 53.03125 27.640625 53.03125 
Q 38.328125 53.03125 45.109375 46.015625 
Q 51.90625 39.015625 51.90625 26.65625 
Q 51.90625 16.65625 48.90625 10.90625 
Q 45.90625 5.171875 40.15625 2 
Q 34.421875 -1.171875 27.640625 -1.171875 
Q 16.75 -1.171875 10.03125 5.8125 
Q 3.328125 12.796875 3.328125 25.921875 
z
M 12.359375 25.921875 
Q 12.359375 15.96875 16.703125 11.015625 
Q 21.046875 6.0625 27.640625 6.0625 
Q 34.1875 6.0625 38.53125 11.03125 
Q 42.875 16.015625 42.875 26.21875 
Q 42.875 35.84375 38.5 40.796875 
Q 34.125 45.75 27.640625 45.75 
Q 21.046875 45.75 16.703125 40.8125 
Q 12.359375 35.890625 12.359375 25.921875 
z
" id="ArialMT-111"/>
      <path d="M 8.6875 0 
L 8.6875 45.015625 
L 0.921875 45.015625 
L 0.921875 51.859375 
L 8.6875 51.859375 
L 8.6875 57.375 
Q 8.6875 62.59375 9.625 65.140625 
Q 10.890625 68.5625 14.078125 70.671875 
Q 17.28125 72.796875 23.046875 72.796875 
Q 26.765625 72.796875 31.25 71.921875 
L 29.9375 64.265625 
Q 27.203125 64.75 24.75 64.75 
Q 20.75 64.75 19.09375 63.03125 
Q 17.4375 61.328125 17.4375 56.640625 
L 17.4375 51.859375 
L 27.546875 51.859375 
L 27.546875 45.015625 
L 17.4375 45.015625 
L 17.4375 0 
z
" id="ArialMT-102"/>
      <path d="M 3.078125 15.484375 
L 11.765625 16.84375 
Q 12.5 11.625 15.84375 8.84375 
Q 19.1875 6.0625 25.203125 6.0625 
Q 31.25 6.0625 34.171875 8.515625 
Q 37.109375 10.984375 37.109375 14.3125 
Q 37.109375 17.28125 34.515625 19 
Q 32.71875 20.171875 25.53125 21.96875 
Q 15.875 24.421875 12.140625 26.203125 
Q 8.40625 27.984375 6.46875 31.125 
Q 4.546875 34.28125 4.546875 38.09375 
Q 4.546875 41.546875 6.125 44.5 
Q 7.71875 47.46875 10.453125 49.421875 
Q 12.5 50.921875 16.03125 51.96875 
Q 19.578125 53.03125 23.640625 53.03125 
Q 29.734375 53.03125 34.34375 51.265625 
Q 38.96875 49.515625 41.15625 46.5 
Q 43.359375 43.5 44.1875 38.484375 
L 35.59375 37.3125 
Q 35.015625 41.3125 32.203125 43.546875 
Q 29.390625 45.796875 24.265625 45.796875 
Q 18.21875 45.796875 15.625 43.796875 
Q 13.03125 41.796875 13.03125 39.109375 
Q 13.03125 37.40625 14.109375 36.03125 
Q 15.1875 34.625 17.484375 33.6875 
Q 18.796875 33.203125 25.25 31.453125 
Q 34.578125 28.953125 38.25 27.359375 
Q 41.9375 25.78125 44.03125 22.75 
Q 46.140625 19.734375 46.140625 15.234375 
Q 46.140625 10.84375 43.578125 6.953125 
Q 41.015625 3.078125 36.171875 0.953125 
Q 31.34375 -1.171875 25.25 -1.171875 
Q 15.140625 -1.171875 9.84375 3.03125 
Q 4.546875 7.234375 3.078125 15.484375 
z
" id="ArialMT-115"/>
      <path d="M 41.796875 8.203125 
Q 38.1875 3.46875 33.25 1.015625 
Q 28.328125 -1.421875 22.3125 -1.421875 
Q 14.109375 -1.421875 9.34375 4.171875 
Q 4.59375 9.765625 4.59375 19.484375 
Q 4.59375 27.59375 7.46875 34.9375 
Q 10.359375 42.28125 15.828125 48.09375 
Q 19.4375 51.953125 23.96875 53.96875 
Q 28.515625 56 33.5 56 
Q 38.765625 56 42.796875 53.453125 
Q 46.828125 50.921875 49.03125 46.1875 
L 54.890625 75.984375 
L 63.921875 75.984375 
L 49.125 0 
L 40.09375 0 
z
M 13.921875 21.09375 
Q 13.921875 14.015625 17.109375 10.0625 
Q 20.3125 6.109375 25.984375 6.109375 
Q 30.171875 6.109375 33.765625 8.125 
Q 37.359375 10.15625 40.09375 14.109375 
Q 42.96875 18.21875 44.625 23.578125 
Q 46.296875 28.953125 46.296875 34.1875 
Q 46.296875 40.96875 43.09375 44.765625 
Q 39.890625 48.578125 34.28125 48.578125 
Q 30.03125 48.578125 26.359375 46.578125 
Q 22.703125 44.578125 20.125 40.828125 
Q 17.28125 36.765625 15.59375 31.390625 
Q 13.921875 26.03125 13.921875 21.09375 
z
" id="DejaVuSans-Oblique-100"/>
      <path d="M 31 75.875 
Q 24.46875 64.65625 21.28125 53.65625 
Q 18.109375 42.671875 18.109375 31.390625 
Q 18.109375 20.125 21.3125 9.0625 
Q 24.515625 -2 31 -13.1875 
L 23.1875 -13.1875 
Q 15.875 -1.703125 12.234375 9.375 
Q 8.59375 20.453125 8.59375 31.390625 
Q 8.59375 42.28125 12.203125 53.3125 
Q 15.828125 64.359375 23.1875 75.875 
z
" id="DejaVuSans-40"/>
      <path d="M 18.3125 75.984375 
L 27.296875 75.984375 
L 18.703125 31.6875 
L 49.515625 54.6875 
L 61.1875 54.6875 
L 26.8125 28.515625 
L 51.90625 0 
L 41.015625 0 
L 17.671875 26.703125 
L 12.5 0 
L 3.515625 0 
z
" id="DejaVuSans-Oblique-107"/>
      <path d="M 8.015625 75.875 
L 15.828125 75.875 
Q 23.140625 64.359375 26.78125 53.3125 
Q 30.421875 42.28125 30.421875 31.390625 
Q 30.421875 20.453125 26.78125 9.375 
Q 23.140625 -1.703125 15.828125 -13.1875 
L 8.015625 -13.1875 
Q 14.5 -2 17.703125 9.0625 
Q 20.90625 20.125 20.90625 31.390625 
Q 20.90625 42.671875 17.703125 53.65625 
Q 14.5 64.65625 8.015625 75.875 
z
" id="DejaVuSans-41"/>
      <path d="M 6.78125 -19.875 
L 6.78125 71.578125 
L 26.171875 71.578125 
L 26.171875 64.3125 
L 15.578125 64.3125 
L 15.578125 -12.59375 
L 26.171875 -12.59375 
L 26.171875 -19.875 
z
" id="ArialMT-91"/>
      <path d="M 21.296875 -19.875 
L 1.90625 -19.875 
L 1.90625 -12.59375 
L 12.5 -12.59375 
L 12.5 64.3125 
L 1.90625 64.3125 
L 1.90625 71.578125 
L 21.296875 71.578125 
z
" id="ArialMT-93"/>
     </defs>
     <g transform="translate(20.88 295.2)rotate(-90)scale(0.18 -0.18)">
      <use transform="translate(0 0.015625)" xlink:href="#ArialMT-73"/>
      <use transform="translate(27.783203 0.015625)" xlink:href="#ArialMT-110"/>
      <use transform="translate(83.398438 0.015625)" xlink:href="#ArialMT-99"/>
      <use transform="translate(133.398438 0.015625)" xlink:href="#ArialMT-114"/>
      <use transform="translate(166.699219 0.015625)" xlink:href="#ArialMT-101"/>
      <use transform="translate(222.314453 0.015625)" xlink:href="#ArialMT-109"/>
      <use transform="translate(305.615234 0.015625)" xlink:href="#ArialMT-101"/>
      <use transform="translate(361.230469 0.015625)" xlink:href="#ArialMT-110"/>
      <use transform="translate(416.845703 0.015625)" xlink:href="#ArialMT-116"/>
      <use transform="translate(444.628906 0.015625)" xlink:href="#ArialMT-97"/>
      <use transform="translate(500.244141 0.015625)" xlink:href="#ArialMT-108"/>
      <use transform="translate(522.460938 0.015625)" xlink:href="#ArialMT-32"/>
      <use transform="translate(550.244141 0.015625)" xlink:href="#ArialMT-104"/>
      <use transform="translate(605.859375 0.015625)" xlink:href="#ArialMT-101"/>
      <use transform="translate(661.474609 0.015625)" xlink:href="#ArialMT-105"/>
      <use transform="translate(683.691406 0.015625)" xlink:href="#ArialMT-103"/>
      <use transform="translate(739.306641 0.015625)" xlink:href="#ArialMT-104"/>
      <use transform="translate(794.921875 0.015625)" xlink:href="#ArialMT-116"/>
      <use transform="translate(822.705078 0.015625)" xlink:href="#ArialMT-32"/>
      <use transform="translate(850.488281 0.015625)" xlink:href="#ArialMT-111"/>
      <use transform="translate(906.103516 0.015625)" xlink:href="#ArialMT-102"/>
      <use transform="translate(933.886719 0.015625)" xlink:href="#ArialMT-102"/>
      <use transform="translate(961.669922 0.015625)" xlink:href="#ArialMT-115"/>
      <use transform="translate(1011.669922 0.015625)" xlink:href="#ArialMT-101"/>
      <use transform="translate(1067.285156 0.015625)" xlink:href="#ArialMT-116"/>
      <use transform="translate(1095.068359 0.015625)" xlink:href="#ArialMT-44"/>
      <use transform="translate(1122.851562 0.015625)" xlink:href="#ArialMT-32"/>
      <use transform="translate(1150.634766 0.015625)" xlink:href="#DejaVuSans-Oblique-100"/>
      <use transform="translate(1214.111328 0.015625)" xlink:href="#DejaVuSans-40"/>
      <use transform="translate(1253.125 0.015625)" xlink:href="#DejaVuSans-Oblique-107"/>
      <use transform="translate(1311.035156 0.015625)" xlink:href="#DejaVuSans-41"/>
      <use transform="translate(1350.048828 0.015625)" xlink:href="#ArialMT-32"/>
      <use transform="translate(1377.832031 0.015625)" xlink:href="#ArialMT-91"/>
      <use transform="translate(1405.615234 0.015625)" xlink:href="#ArialMT-109"/>
      <use transform="translate(1488.916016 0.015625)" xlink:href="#ArialMT-109"/>
      <use transform="translate(1572.216797 0.015625)" xlink:href="#ArialMT-93"/>
     </g>
    </g>
   </g>
   <g id="line2d_33">
    <path clip-path="url(#pdf877bfba0)" d="M 74.065678 67.707733 
L 77.261669 67.707733 
L 80.457659 67.707733 
L 83.65365 67.707733 
L 86.84964 67.707733 
L 90.045631 67.707733 
L 93.241621 67.707733 
L 96.437612 67.707733 
L 99.633603 67.707733 
L 102.829593 67.707733 
L 106.025584 67.707733 
L 109.221574 67.707733 
L 112.417565 67.707733 
L 115.613555 67.707733 
L 118.809546 67.707733 
L 122.005537 67.707733 
L 125.201527 67.707733 
L 128.397518 67.707733 
L 131.593508 67.707733 
L 134.789499 67.707733 
L 137.985489 67.707733 
L 141.18148 67.707733 
L 144.377471 67.707733 
L 147.573461 67.707733 
L 150.769452 67.707733 
L 153.965442 67.707733 
L 157.161433 67.707733 
L 160.357423 67.707733 
L 163.553414 67.707733 
L 166.749404 67.707733 
L 169.945395 67.707733 
L 173.141386 67.707733 
L 176.337376 67.707733 
L 179.533367 67.707733 
L 182.729357 67.707733 
L 185.925348 67.707733 
L 189.121338 67.707733 
L 192.317329 67.707733 
L 195.51332 67.707733 
L 198.70931 67.707733 
L 201.905301 67.707733 
L 205.101291 67.707733 
L 208.297282 67.707733 
L 211.493272 67.707733 
L 214.689263 67.707733 
L 217.885254 67.707733 
L 221.081244 67.707733 
L 224.277235 67.707733 
L 227.473225 67.707733 
L 230.669216 67.707733 
L 233.865206 67.707733 
L 237.061197 67.707733 
L 240.257187 67.707733 
L 243.453178 67.707733 
L 246.649169 67.707733 
L 249.845159 67.707733 
L 253.04115 67.707733 
L 256.23714 67.707733 
L 259.433131 67.707733 
L 262.629121 67.707733 
L 265.825112 67.707733 
L 269.021103 67.707733 
L 272.217093 67.707733 
L 275.413084 67.707733 
L 278.609074 67.707733 
L 281.805065 67.707733 
L 285.001055 67.707733 
L 288.197046 67.707733 
L 291.393037 67.707733 
L 294.589027 67.707733 
L 297.785018 67.707733 
L 300.981008 67.707733 
L 304.176999 67.707733 
L 307.372989 67.707733 
L 310.56898 67.707733 
L 313.764971 67.707733 
L 316.960961 67.707733 
L 320.156952 67.707733 
L 323.352942 67.707733 
L 326.548933 67.707733 
L 329.744923 67.707733 
L 332.940914 67.707733 
L 336.136904 67.707733 
L 339.332895 67.707733 
L 342.528886 67.707733 
L 345.724876 67.707733 
L 348.920867 67.707733 
L 352.116857 67.707733 
L 355.312848 67.707733 
L 358.508838 67.707733 
L 361.704829 67.707733 
L 364.90082 67.707733 
L 368.09681 67.707733 
L 371.292801 67.707733 
L 374.488791 67.707733 
L 377.684782 67.707733 
L 380.880772 67.707733 
L 384.076763 67.707733 
L 387.272754 67.707733 
L 390.468744 67.707733 
L 393.664735 67.707733 
L 396.860725 67.707733 
L 400.056716 67.707733 
L 403.252706 67.707733 
L 406.448697 67.707733 
" style="fill:none;stroke:#ffa500;stroke-dasharray:5.55,2.4;stroke-dashoffset:0;stroke-width:1.5;"/>
    <defs>
     <path d="M 0 -2 
L -2 2 
L 2 2 
z
" id="m644b9c698c" style="stroke:#ffa500;stroke-linejoin:miter;"/>
    </defs>
    <g clip-path="url(#pdf877bfba0)">
     <use style="fill:#ffa500;stroke:#ffa500;stroke-linejoin:miter;" x="74.065678" xlink:href="#m644b9c698c" y="67.707733"/>
     <use style="fill:#ffa500;stroke:#ffa500;stroke-linejoin:miter;" x="77.261669" xlink:href="#m644b9c698c" y="67.707733"/>
     <use style="fill:#ffa500;stroke:#ffa500;stroke-linejoin:miter;" x="80.457659" xlink:href="#m644b9c698c" y="67.707733"/>
     <use style="fill:#ffa500;stroke:#ffa500;stroke-linejoin:miter;" x="83.65365" xlink:href="#m644b9c698c" y="67.707733"/>
     <use style="fill:#ffa500;stroke:#ffa500;stroke-linejoin:miter;" x="86.84964" xlink:href="#m644b9c698c" y="67.707733"/>
     <use style="fill:#ffa500;stroke:#ffa500;stroke-linejoin:miter;" x="90.045631" xlink:href="#m644b9c698c" y="67.707733"/>
     <use style="fill:#ffa500;stroke:#ffa500;stroke-linejoin:miter;" x="93.241621" xlink:href="#m644b9c698c" y="67.707733"/>
     <use style="fill:#ffa500;stroke:#ffa500;stroke-linejoin:miter;" x="96.437612" xlink:href="#m644b9c698c" y="67.707733"/>
     <use style="fill:#ffa500;stroke:#ffa500;stroke-linejoin:miter;" x="99.633603" xlink:href="#m644b9c698c" y="67.707733"/>
     <use style="fill:#ffa500;stroke:#ffa500;stroke-linejoin:miter;" x="102.829593" xlink:href="#m644b9c698c" y="67.707733"/>
     <use style="fill:#ffa500;stroke:#ffa500;stroke-linejoin:miter;" x="106.025584" xlink:href="#m644b9c698c" y="67.707733"/>
     <use style="fill:#ffa500;stroke:#ffa500;stroke-linejoin:miter;" x="109.221574" xlink:href="#m644b9c698c" y="67.707733"/>
     <use style="fill:#ffa500;stroke:#ffa500;stroke-linejoin:miter;" x="112.417565" xlink:href="#m644b9c698c" y="67.707733"/>
     <use style="fill:#ffa500;stroke:#ffa500;stroke-linejoin:miter;" x="115.613555" xlink:href="#m644b9c698c" y="67.707733"/>
     <use style="fill:#ffa500;stroke:#ffa500;stroke-linejoin:miter;" x="118.809546" xlink:href="#m644b9c698c" y="67.707733"/>
     <use style="fill:#ffa500;stroke:#ffa500;stroke-linejoin:miter;" x="122.005537" xlink:href="#m644b9c698c" y="67.707733"/>
     <use style="fill:#ffa500;stroke:#ffa500;stroke-linejoin:miter;" x="125.201527" xlink:href="#m644b9c698c" y="67.707733"/>
     <use style="fill:#ffa500;stroke:#ffa500;stroke-linejoin:miter;" x="128.397518" xlink:href="#m644b9c698c" y="67.707733"/>
     <use style="fill:#ffa500;stroke:#ffa500;stroke-linejoin:miter;" x="131.593508" xlink:href="#m644b9c698c" y="67.707733"/>
     <use style="fill:#ffa500;stroke:#ffa500;stroke-linejoin:miter;" x="134.789499" xlink:href="#m644b9c698c" y="67.707733"/>
     <use style="fill:#ffa500;stroke:#ffa500;stroke-linejoin:miter;" x="137.985489" xlink:href="#m644b9c698c" y="67.707733"/>
     <use style="fill:#ffa500;stroke:#ffa500;stroke-linejoin:miter;" x="141.18148" xlink:href="#m644b9c698c" y="67.707733"/>
     <use style="fill:#ffa500;stroke:#ffa500;stroke-linejoin:miter;" x="144.377471" xlink:href="#m644b9c698c" y="67.707733"/>
     <use style="fill:#ffa500;stroke:#ffa500;stroke-linejoin:miter;" x="147.573461" xlink:href="#m644b9c698c" y="67.707733"/>
     <use style="fill:#ffa500;stroke:#ffa500;stroke-linejoin:miter;" x="150.769452" xlink:href="#m644b9c698c" y="67.707733"/>
     <use style="fill:#ffa500;stroke:#ffa500;stroke-linejoin:miter;" x="153.965442" xlink:href="#m644b9c698c" y="67.707733"/>
     <use style="fill:#ffa500;stroke:#ffa500;stroke-linejoin:miter;" x="157.161433" xlink:href="#m644b9c698c" y="67.707733"/>
     <use style="fill:#ffa500;stroke:#ffa500;stroke-linejoin:miter;" x="160.357423" xlink:href="#m644b9c698c" y="67.707733"/>
     <use style="fill:#ffa500;stroke:#ffa500;stroke-linejoin:miter;" x="163.553414" xlink:href="#m644b9c698c" y="67.707733"/>
     <use style="fill:#ffa500;stroke:#ffa500;stroke-linejoin:miter;" x="166.749404" xlink:href="#m644b9c698c" y="67.707733"/>
     <use style="fill:#ffa500;stroke:#ffa500;stroke-linejoin:miter;" x="169.945395" xlink:href="#m644b9c698c" y="67.707733"/>
     <use style="fill:#ffa500;stroke:#ffa500;stroke-linejoin:miter;" x="173.141386" xlink:href="#m644b9c698c" y="67.707733"/>
     <use style="fill:#ffa500;stroke:#ffa500;stroke-linejoin:miter;" x="176.337376" xlink:href="#m644b9c698c" y="67.707733"/>
     <use style="fill:#ffa500;stroke:#ffa500;stroke-linejoin:miter;" x="179.533367" xlink:href="#m644b9c698c" y="67.707733"/>
     <use style="fill:#ffa500;stroke:#ffa500;stroke-linejoin:miter;" x="182.729357" xlink:href="#m644b9c698c" y="67.707733"/>
     <use style="fill:#ffa500;stroke:#ffa500;stroke-linejoin:miter;" x="185.925348" xlink:href="#m644b9c698c" y="67.707733"/>
     <use style="fill:#ffa500;stroke:#ffa500;stroke-linejoin:miter;" x="189.121338" xlink:href="#m644b9c698c" y="67.707733"/>
     <use style="fill:#ffa500;stroke:#ffa500;stroke-linejoin:miter;" x="192.317329" xlink:href="#m644b9c698c" y="67.707733"/>
     <use style="fill:#ffa500;stroke:#ffa500;stroke-linejoin:miter;" x="195.51332" xlink:href="#m644b9c698c" y="67.707733"/>
     <use style="fill:#ffa500;stroke:#ffa500;stroke-linejoin:miter;" x="198.70931" xlink:href="#m644b9c698c" y="67.707733"/>
     <use style="fill:#ffa500;stroke:#ffa500;stroke-linejoin:miter;" x="201.905301" xlink:href="#m644b9c698c" y="67.707733"/>
     <use style="fill:#ffa500;stroke:#ffa500;stroke-linejoin:miter;" x="205.101291" xlink:href="#m644b9c698c" y="67.707733"/>
     <use style="fill:#ffa500;stroke:#ffa500;stroke-linejoin:miter;" x="208.297282" xlink:href="#m644b9c698c" y="67.707733"/>
     <use style="fill:#ffa500;stroke:#ffa500;stroke-linejoin:miter;" x="211.493272" xlink:href="#m644b9c698c" y="67.707733"/>
     <use style="fill:#ffa500;stroke:#ffa500;stroke-linejoin:miter;" x="214.689263" xlink:href="#m644b9c698c" y="67.707733"/>
     <use style="fill:#ffa500;stroke:#ffa500;stroke-linejoin:miter;" x="217.885254" xlink:href="#m644b9c698c" y="67.707733"/>
     <use style="fill:#ffa500;stroke:#ffa500;stroke-linejoin:miter;" x="221.081244" xlink:href="#m644b9c698c" y="67.707733"/>
     <use style="fill:#ffa500;stroke:#ffa500;stroke-linejoin:miter;" x="224.277235" xlink:href="#m644b9c698c" y="67.707733"/>
     <use style="fill:#ffa500;stroke:#ffa500;stroke-linejoin:miter;" x="227.473225" xlink:href="#m644b9c698c" y="67.707733"/>
     <use style="fill:#ffa500;stroke:#ffa500;stroke-linejoin:miter;" x="230.669216" xlink:href="#m644b9c698c" y="67.707733"/>
     <use style="fill:#ffa500;stroke:#ffa500;stroke-linejoin:miter;" x="233.865206" xlink:href="#m644b9c698c" y="67.707733"/>
     <use style="fill:#ffa500;stroke:#ffa500;stroke-linejoin:miter;" x="237.061197" xlink:href="#m644b9c698c" y="67.707733"/>
     <use style="fill:#ffa500;stroke:#ffa500;stroke-linejoin:miter;" x="240.257187" xlink:href="#m644b9c698c" y="67.707733"/>
     <use style="fill:#ffa500;stroke:#ffa500;stroke-linejoin:miter;" x="243.453178" xlink:href="#m644b9c698c" y="67.707733"/>
     <use style="fill:#ffa500;stroke:#ffa500;stroke-linejoin:miter;" x="246.649169" xlink:href="#m644b9c698c" y="67.707733"/>
     <use style="fill:#ffa500;stroke:#ffa500;stroke-linejoin:miter;" x="249.845159" xlink:href="#m644b9c698c" y="67.707733"/>
     <use style="fill:#ffa500;stroke:#ffa500;stroke-linejoin:miter;" x="253.04115" xlink:href="#m644b9c698c" y="67.707733"/>
     <use style="fill:#ffa500;stroke:#ffa500;stroke-linejoin:miter;" x="256.23714" xlink:href="#m644b9c698c" y="67.707733"/>
     <use style="fill:#ffa500;stroke:#ffa500;stroke-linejoin:miter;" x="259.433131" xlink:href="#m644b9c698c" y="67.707733"/>
     <use style="fill:#ffa500;stroke:#ffa500;stroke-linejoin:miter;" x="262.629121" xlink:href="#m644b9c698c" y="67.707733"/>
     <use style="fill:#ffa500;stroke:#ffa500;stroke-linejoin:miter;" x="265.825112" xlink:href="#m644b9c698c" y="67.707733"/>
     <use style="fill:#ffa500;stroke:#ffa500;stroke-linejoin:miter;" x="269.021103" xlink:href="#m644b9c698c" y="67.707733"/>
     <use style="fill:#ffa500;stroke:#ffa500;stroke-linejoin:miter;" x="272.217093" xlink:href="#m644b9c698c" y="67.707733"/>
     <use style="fill:#ffa500;stroke:#ffa500;stroke-linejoin:miter;" x="275.413084" xlink:href="#m644b9c698c" y="67.707733"/>
     <use style="fill:#ffa500;stroke:#ffa500;stroke-linejoin:miter;" x="278.609074" xlink:href="#m644b9c698c" y="67.707733"/>
     <use style="fill:#ffa500;stroke:#ffa500;stroke-linejoin:miter;" x="281.805065" xlink:href="#m644b9c698c" y="67.707733"/>
     <use style="fill:#ffa500;stroke:#ffa500;stroke-linejoin:miter;" x="285.001055" xlink:href="#m644b9c698c" y="67.707733"/>
     <use style="fill:#ffa500;stroke:#ffa500;stroke-linejoin:miter;" x="288.197046" xlink:href="#m644b9c698c" y="67.707733"/>
     <use style="fill:#ffa500;stroke:#ffa500;stroke-linejoin:miter;" x="291.393037" xlink:href="#m644b9c698c" y="67.707733"/>
     <use style="fill:#ffa500;stroke:#ffa500;stroke-linejoin:miter;" x="294.589027" xlink:href="#m644b9c698c" y="67.707733"/>
     <use style="fill:#ffa500;stroke:#ffa500;stroke-linejoin:miter;" x="297.785018" xlink:href="#m644b9c698c" y="67.707733"/>
     <use style="fill:#ffa500;stroke:#ffa500;stroke-linejoin:miter;" x="300.981008" xlink:href="#m644b9c698c" y="67.707733"/>
     <use style="fill:#ffa500;stroke:#ffa500;stroke-linejoin:miter;" x="304.176999" xlink:href="#m644b9c698c" y="67.707733"/>
     <use style="fill:#ffa500;stroke:#ffa500;stroke-linejoin:miter;" x="307.372989" xlink:href="#m644b9c698c" y="67.707733"/>
     <use style="fill:#ffa500;stroke:#ffa500;stroke-linejoin:miter;" x="310.56898" xlink:href="#m644b9c698c" y="67.707733"/>
     <use style="fill:#ffa500;stroke:#ffa500;stroke-linejoin:miter;" x="313.764971" xlink:href="#m644b9c698c" y="67.707733"/>
     <use style="fill:#ffa500;stroke:#ffa500;stroke-linejoin:miter;" x="316.960961" xlink:href="#m644b9c698c" y="67.707733"/>
     <use style="fill:#ffa500;stroke:#ffa500;stroke-linejoin:miter;" x="320.156952" xlink:href="#m644b9c698c" y="67.707733"/>
     <use style="fill:#ffa500;stroke:#ffa500;stroke-linejoin:miter;" x="323.352942" xlink:href="#m644b9c698c" y="67.707733"/>
     <use style="fill:#ffa500;stroke:#ffa500;stroke-linejoin:miter;" x="326.548933" xlink:href="#m644b9c698c" y="67.707733"/>
     <use style="fill:#ffa500;stroke:#ffa500;stroke-linejoin:miter;" x="329.744923" xlink:href="#m644b9c698c" y="67.707733"/>
     <use style="fill:#ffa500;stroke:#ffa500;stroke-linejoin:miter;" x="332.940914" xlink:href="#m644b9c698c" y="67.707733"/>
     <use style="fill:#ffa500;stroke:#ffa500;stroke-linejoin:miter;" x="336.136904" xlink:href="#m644b9c698c" y="67.707733"/>
     <use style="fill:#ffa500;stroke:#ffa500;stroke-linejoin:miter;" x="339.332895" xlink:href="#m644b9c698c" y="67.707733"/>
     <use style="fill:#ffa500;stroke:#ffa500;stroke-linejoin:miter;" x="342.528886" xlink:href="#m644b9c698c" y="67.707733"/>
     <use style="fill:#ffa500;stroke:#ffa500;stroke-linejoin:miter;" x="345.724876" xlink:href="#m644b9c698c" y="67.707733"/>
     <use style="fill:#ffa500;stroke:#ffa500;stroke-linejoin:miter;" x="348.920867" xlink:href="#m644b9c698c" y="67.707733"/>
     <use style="fill:#ffa500;stroke:#ffa500;stroke-linejoin:miter;" x="352.116857" xlink:href="#m644b9c698c" y="67.707733"/>
     <use style="fill:#ffa500;stroke:#ffa500;stroke-linejoin:miter;" x="355.312848" xlink:href="#m644b9c698c" y="67.707733"/>
     <use style="fill:#ffa500;stroke:#ffa500;stroke-linejoin:miter;" x="358.508838" xlink:href="#m644b9c698c" y="67.707733"/>
     <use style="fill:#ffa500;stroke:#ffa500;stroke-linejoin:miter;" x="361.704829" xlink:href="#m644b9c698c" y="67.707733"/>
     <use style="fill:#ffa500;stroke:#ffa500;stroke-linejoin:miter;" x="364.90082" xlink:href="#m644b9c698c" y="67.707733"/>
     <use style="fill:#ffa500;stroke:#ffa500;stroke-linejoin:miter;" x="368.09681" xlink:href="#m644b9c698c" y="67.707733"/>
     <use style="fill:#ffa500;stroke:#ffa500;stroke-linejoin:miter;" x="371.292801" xlink:href="#m644b9c698c" y="67.707733"/>
     <use style="fill:#ffa500;stroke:#ffa500;stroke-linejoin:miter;" x="374.488791" xlink:href="#m644b9c698c" y="67.707733"/>
     <use style="fill:#ffa500;stroke:#ffa500;stroke-linejoin:miter;" x="377.684782" xlink:href="#m644b9c698c" y="67.707733"/>
     <use style="fill:#ffa500;stroke:#ffa500;stroke-linejoin:miter;" x="380.880772" xlink:href="#m644b9c698c" y="67.707733"/>
     <use style="fill:#ffa500;stroke:#ffa500;stroke-linejoin:miter;" x="384.076763" xlink:href="#m644b9c698c" y="67.707733"/>
     <use style="fill:#ffa500;stroke:#ffa500;stroke-linejoin:miter;" x="387.272754" xlink:href="#m644b9c698c" y="67.707733"/>
     <use style="fill:#ffa500;stroke:#ffa500;stroke-linejoin:miter;" x="390.468744" xlink:href="#m644b9c698c" y="67.707733"/>
     <use style="fill:#ffa500;stroke:#ffa500;stroke-linejoin:miter;" x="393.664735" xlink:href="#m644b9c698c" y="67.707733"/>
     <use style="fill:#ffa500;stroke:#ffa500;stroke-linejoin:miter;" x="396.860725" xlink:href="#m644b9c698c" y="67.707733"/>
     <use style="fill:#ffa500;stroke:#ffa500;stroke-linejoin:miter;" x="400.056716" xlink:href="#m644b9c698c" y="67.707733"/>
     <use style="fill:#ffa500;stroke:#ffa500;stroke-linejoin:miter;" x="403.252706" xlink:href="#m644b9c698c" y="67.707733"/>
     <use style="fill:#ffa500;stroke:#ffa500;stroke-linejoin:miter;" x="406.448697" xlink:href="#m644b9c698c" y="67.707733"/>
    </g>
   </g>
   <g id="line2d_34">
    <path clip-path="url(#pdf877bfba0)" d="M 74.065678 83.598412 
L 77.261669 97.976893 
L 80.457659 110.987081 
L 83.65365 122.759186 
L 86.84964 133.411027 
L 90.045631 143.049212 
L 93.241621 151.770201 
L 96.437612 159.661279 
L 99.633603 166.801422 
L 102.829593 173.26209 
L 106.025584 179.107944 
L 109.221574 184.397492 
L 112.417565 189.183673 
L 115.613555 193.514388 
L 118.809546 197.432981 
L 122.005537 200.978671 
L 125.201527 204.186944 
L 128.397518 207.089909 
L 131.593508 209.716621 
L 134.789499 212.093368 
L 137.985489 214.243938 
L 141.18148 216.189854 
L 144.377471 217.950591 
L 147.573461 219.543772 
L 150.769452 220.985342 
L 153.965442 222.289728 
L 157.161433 223.469986 
L 160.357423 224.537927 
L 163.553414 225.504241 
L 166.749404 226.378597 
L 169.945395 227.169747 
L 173.141386 227.88561 
L 176.337376 228.533349 
L 179.533367 229.119447 
L 182.729357 229.649771 
L 185.925348 230.129628 
L 189.121338 230.563821 
L 192.317329 230.956694 
L 195.51332 231.312181 
L 198.70931 231.633839 
L 201.905301 231.924887 
L 205.101291 232.188238 
L 208.297282 232.426528 
L 211.493272 232.642142 
L 214.689263 232.837237 
L 217.885254 233.013766 
L 221.081244 233.173497 
L 224.277235 233.318027 
L 227.473225 233.448803 
L 230.669216 233.567134 
L 233.865206 233.674205 
L 237.061197 233.771086 
L 240.257187 233.858748 
L 243.453178 233.938068 
L 246.649169 234.00984 
L 249.845159 234.074781 
L 253.04115 234.133543 
L 256.23714 234.186713 
L 259.433131 234.234822 
L 262.629121 234.278354 
L 265.825112 234.317743 
L 269.021103 234.353384 
L 272.217093 234.385633 
L 275.413084 234.414813 
L 278.609074 234.441216 
L 281.805065 234.465107 
L 285.001055 234.486724 
L 288.197046 234.506284 
L 291.393037 234.523983 
L 294.589027 234.539997 
L 297.785018 234.554488 
L 300.981008 234.567599 
L 304.176999 234.579463 
L 307.372989 234.590198 
L 310.56898 234.599911 
L 313.764971 234.6087 
L 316.960961 234.616652 
L 320.156952 234.623848 
L 323.352942 234.630359 
L 326.548933 234.63625 
L 329.744923 234.641581 
L 332.940914 234.646405 
L 336.136904 234.650769 
L 339.332895 234.654718 
L 342.528886 234.658291 
L 345.724876 234.661525 
L 348.920867 234.66445 
L 352.116857 234.667097 
L 355.312848 234.669493 
L 358.508838 234.67166 
L 361.704829 234.673621 
L 364.90082 234.675395 
L 368.09681 234.677001 
L 371.292801 234.678454 
L 374.488791 234.679768 
L 377.684782 234.680958 
L 380.880772 234.682034 
L 384.076763 234.683008 
L 387.272754 234.683889 
L 390.468744 234.684686 
L 393.664735 234.685408 
L 396.860725 234.686061 
L 400.056716 234.686651 
L 403.252706 234.687186 
L 406.448697 234.687669 
" style="fill:none;stroke:#000000;stroke-dasharray:5.55,2.4;stroke-dashoffset:0;stroke-width:1.5;"/>
    <defs>
     <path d="M 0 1 
C 0.265203 1 0.51958 0.894634 0.707107 0.707107 
C 0.894634 0.51958 1 0.265203 1 0 
C 1 -0.265203 0.894634 -0.51958 0.707107 -0.707107 
C 0.51958 -0.894634 0.265203 -1 0 -1 
C -0.265203 -1 -0.51958 -0.894634 -0.707107 -0.707107 
C -0.894634 -0.51958 -1 -0.265203 -1 0 
C -1 0.265203 -0.894634 0.51958 -0.707107 0.707107 
C -0.51958 0.894634 -0.265203 1 0 1 
z
" id="mf9adb26b98" style="stroke:#000000;"/>
    </defs>
    <g clip-path="url(#pdf877bfba0)">
     <use style="stroke:#000000;" x="74.065678" xlink:href="#mf9adb26b98" y="83.598412"/>
     <use style="stroke:#000000;" x="77.261669" xlink:href="#mf9adb26b98" y="97.976893"/>
     <use style="stroke:#000000;" x="80.457659" xlink:href="#mf9adb26b98" y="110.987081"/>
     <use style="stroke:#000000;" x="83.65365" xlink:href="#mf9adb26b98" y="122.759186"/>
     <use style="stroke:#000000;" x="86.84964" xlink:href="#mf9adb26b98" y="133.411027"/>
     <use style="stroke:#000000;" x="90.045631" xlink:href="#mf9adb26b98" y="143.049212"/>
     <use style="stroke:#000000;" x="93.241621" xlink:href="#mf9adb26b98" y="151.770201"/>
     <use style="stroke:#000000;" x="96.437612" xlink:href="#mf9adb26b98" y="159.661279"/>
     <use style="stroke:#000000;" x="99.633603" xlink:href="#mf9adb26b98" y="166.801422"/>
     <use style="stroke:#000000;" x="102.829593" xlink:href="#mf9adb26b98" y="173.26209"/>
     <use style="stroke:#000000;" x="106.025584" xlink:href="#mf9adb26b98" y="179.107944"/>
     <use style="stroke:#000000;" x="109.221574" xlink:href="#mf9adb26b98" y="184.397492"/>
     <use style="stroke:#000000;" x="112.417565" xlink:href="#mf9adb26b98" y="189.183673"/>
     <use style="stroke:#000000;" x="115.613555" xlink:href="#mf9adb26b98" y="193.514388"/>
     <use style="stroke:#000000;" x="118.809546" xlink:href="#mf9adb26b98" y="197.432981"/>
     <use style="stroke:#000000;" x="122.005537" xlink:href="#mf9adb26b98" y="200.978671"/>
     <use style="stroke:#000000;" x="125.201527" xlink:href="#mf9adb26b98" y="204.186944"/>
     <use style="stroke:#000000;" x="128.397518" xlink:href="#mf9adb26b98" y="207.089909"/>
     <use style="stroke:#000000;" x="131.593508" xlink:href="#mf9adb26b98" y="209.716621"/>
     <use style="stroke:#000000;" x="134.789499" xlink:href="#mf9adb26b98" y="212.093368"/>
     <use style="stroke:#000000;" x="137.985489" xlink:href="#mf9adb26b98" y="214.243938"/>
     <use style="stroke:#000000;" x="141.18148" xlink:href="#mf9adb26b98" y="216.189854"/>
     <use style="stroke:#000000;" x="144.377471" xlink:href="#mf9adb26b98" y="217.950591"/>
     <use style="stroke:#000000;" x="147.573461" xlink:href="#mf9adb26b98" y="219.543772"/>
     <use style="stroke:#000000;" x="150.769452" xlink:href="#mf9adb26b98" y="220.985342"/>
     <use style="stroke:#000000;" x="153.965442" xlink:href="#mf9adb26b98" y="222.289728"/>
     <use style="stroke:#000000;" x="157.161433" xlink:href="#mf9adb26b98" y="223.469986"/>
     <use style="stroke:#000000;" x="160.357423" xlink:href="#mf9adb26b98" y="224.537927"/>
     <use style="stroke:#000000;" x="163.553414" xlink:href="#mf9adb26b98" y="225.504241"/>
     <use style="stroke:#000000;" x="166.749404" xlink:href="#mf9adb26b98" y="226.378597"/>
     <use style="stroke:#000000;" x="169.945395" xlink:href="#mf9adb26b98" y="227.169747"/>
     <use style="stroke:#000000;" x="173.141386" xlink:href="#mf9adb26b98" y="227.88561"/>
     <use style="stroke:#000000;" x="176.337376" xlink:href="#mf9adb26b98" y="228.533349"/>
     <use style="stroke:#000000;" x="179.533367" xlink:href="#mf9adb26b98" y="229.119447"/>
     <use style="stroke:#000000;" x="182.729357" xlink:href="#mf9adb26b98" y="229.649771"/>
     <use style="stroke:#000000;" x="185.925348" xlink:href="#mf9adb26b98" y="230.129628"/>
     <use style="stroke:#000000;" x="189.121338" xlink:href="#mf9adb26b98" y="230.563821"/>
     <use style="stroke:#000000;" x="192.317329" xlink:href="#mf9adb26b98" y="230.956694"/>
     <use style="stroke:#000000;" x="195.51332" xlink:href="#mf9adb26b98" y="231.312181"/>
     <use style="stroke:#000000;" x="198.70931" xlink:href="#mf9adb26b98" y="231.633839"/>
     <use style="stroke:#000000;" x="201.905301" xlink:href="#mf9adb26b98" y="231.924887"/>
     <use style="stroke:#000000;" x="205.101291" xlink:href="#mf9adb26b98" y="232.188238"/>
     <use style="stroke:#000000;" x="208.297282" xlink:href="#mf9adb26b98" y="232.426528"/>
     <use style="stroke:#000000;" x="211.493272" xlink:href="#mf9adb26b98" y="232.642142"/>
     <use style="stroke:#000000;" x="214.689263" xlink:href="#mf9adb26b98" y="232.837237"/>
     <use style="stroke:#000000;" x="217.885254" xlink:href="#mf9adb26b98" y="233.013766"/>
     <use style="stroke:#000000;" x="221.081244" xlink:href="#mf9adb26b98" y="233.173497"/>
     <use style="stroke:#000000;" x="224.277235" xlink:href="#mf9adb26b98" y="233.318027"/>
     <use style="stroke:#000000;" x="227.473225" xlink:href="#mf9adb26b98" y="233.448803"/>
     <use style="stroke:#000000;" x="230.669216" xlink:href="#mf9adb26b98" y="233.567134"/>
     <use style="stroke:#000000;" x="233.865206" xlink:href="#mf9adb26b98" y="233.674205"/>
     <use style="stroke:#000000;" x="237.061197" xlink:href="#mf9adb26b98" y="233.771086"/>
     <use style="stroke:#000000;" x="240.257187" xlink:href="#mf9adb26b98" y="233.858748"/>
     <use style="stroke:#000000;" x="243.453178" xlink:href="#mf9adb26b98" y="233.938068"/>
     <use style="stroke:#000000;" x="246.649169" xlink:href="#mf9adb26b98" y="234.00984"/>
     <use style="stroke:#000000;" x="249.845159" xlink:href="#mf9adb26b98" y="234.074781"/>
     <use style="stroke:#000000;" x="253.04115" xlink:href="#mf9adb26b98" y="234.133543"/>
     <use style="stroke:#000000;" x="256.23714" xlink:href="#mf9adb26b98" y="234.186713"/>
     <use style="stroke:#000000;" x="259.433131" xlink:href="#mf9adb26b98" y="234.234822"/>
     <use style="stroke:#000000;" x="262.629121" xlink:href="#mf9adb26b98" y="234.278354"/>
     <use style="stroke:#000000;" x="265.825112" xlink:href="#mf9adb26b98" y="234.317743"/>
     <use style="stroke:#000000;" x="269.021103" xlink:href="#mf9adb26b98" y="234.353384"/>
     <use style="stroke:#000000;" x="272.217093" xlink:href="#mf9adb26b98" y="234.385633"/>
     <use style="stroke:#000000;" x="275.413084" xlink:href="#mf9adb26b98" y="234.414813"/>
     <use style="stroke:#000000;" x="278.609074" xlink:href="#mf9adb26b98" y="234.441216"/>
     <use style="stroke:#000000;" x="281.805065" xlink:href="#mf9adb26b98" y="234.465107"/>
     <use style="stroke:#000000;" x="285.001055" xlink:href="#mf9adb26b98" y="234.486724"/>
     <use style="stroke:#000000;" x="288.197046" xlink:href="#mf9adb26b98" y="234.506284"/>
     <use style="stroke:#000000;" x="291.393037" xlink:href="#mf9adb26b98" y="234.523983"/>
     <use style="stroke:#000000;" x="294.589027" xlink:href="#mf9adb26b98" y="234.539997"/>
     <use style="stroke:#000000;" x="297.785018" xlink:href="#mf9adb26b98" y="234.554488"/>
     <use style="stroke:#000000;" x="300.981008" xlink:href="#mf9adb26b98" y="234.567599"/>
     <use style="stroke:#000000;" x="304.176999" xlink:href="#mf9adb26b98" y="234.579463"/>
     <use style="stroke:#000000;" x="307.372989" xlink:href="#mf9adb26b98" y="234.590198"/>
     <use style="stroke:#000000;" x="310.56898" xlink:href="#mf9adb26b98" y="234.599911"/>
     <use style="stroke:#000000;" x="313.764971" xlink:href="#mf9adb26b98" y="234.6087"/>
     <use style="stroke:#000000;" x="316.960961" xlink:href="#mf9adb26b98" y="234.616652"/>
     <use style="stroke:#000000;" x="320.156952" xlink:href="#mf9adb26b98" y="234.623848"/>
     <use style="stroke:#000000;" x="323.352942" xlink:href="#mf9adb26b98" y="234.630359"/>
     <use style="stroke:#000000;" x="326.548933" xlink:href="#mf9adb26b98" y="234.63625"/>
     <use style="stroke:#000000;" x="329.744923" xlink:href="#mf9adb26b98" y="234.641581"/>
     <use style="stroke:#000000;" x="332.940914" xlink:href="#mf9adb26b98" y="234.646405"/>
     <use style="stroke:#000000;" x="336.136904" xlink:href="#mf9adb26b98" y="234.650769"/>
     <use style="stroke:#000000;" x="339.332895" xlink:href="#mf9adb26b98" y="234.654718"/>
     <use style="stroke:#000000;" x="342.528886" xlink:href="#mf9adb26b98" y="234.658291"/>
     <use style="stroke:#000000;" x="345.724876" xlink:href="#mf9adb26b98" y="234.661525"/>
     <use style="stroke:#000000;" x="348.920867" xlink:href="#mf9adb26b98" y="234.66445"/>
     <use style="stroke:#000000;" x="352.116857" xlink:href="#mf9adb26b98" y="234.667097"/>
     <use style="stroke:#000000;" x="355.312848" xlink:href="#mf9adb26b98" y="234.669493"/>
     <use style="stroke:#000000;" x="358.508838" xlink:href="#mf9adb26b98" y="234.67166"/>
     <use style="stroke:#000000;" x="361.704829" xlink:href="#mf9adb26b98" y="234.673621"/>
     <use style="stroke:#000000;" x="364.90082" xlink:href="#mf9adb26b98" y="234.675395"/>
     <use style="stroke:#000000;" x="368.09681" xlink:href="#mf9adb26b98" y="234.677001"/>
     <use style="stroke:#000000;" x="371.292801" xlink:href="#mf9adb26b98" y="234.678454"/>
     <use style="stroke:#000000;" x="374.488791" xlink:href="#mf9adb26b98" y="234.679768"/>
     <use style="stroke:#000000;" x="377.684782" xlink:href="#mf9adb26b98" y="234.680958"/>
     <use style="stroke:#000000;" x="380.880772" xlink:href="#mf9adb26b98" y="234.682034"/>
     <use style="stroke:#000000;" x="384.076763" xlink:href="#mf9adb26b98" y="234.683008"/>
     <use style="stroke:#000000;" x="387.272754" xlink:href="#mf9adb26b98" y="234.683889"/>
     <use style="stroke:#000000;" x="390.468744" xlink:href="#mf9adb26b98" y="234.684686"/>
     <use style="stroke:#000000;" x="393.664735" xlink:href="#mf9adb26b98" y="234.685408"/>
     <use style="stroke:#000000;" x="396.860725" xlink:href="#mf9adb26b98" y="234.686061"/>
     <use style="stroke:#000000;" x="400.056716" xlink:href="#mf9adb26b98" y="234.686651"/>
     <use style="stroke:#000000;" x="403.252706" xlink:href="#mf9adb26b98" y="234.687186"/>
     <use style="stroke:#000000;" x="406.448697" xlink:href="#mf9adb26b98" y="234.687669"/>
    </g>
   </g>
   <g id="line2d_35">
    <path clip-path="url(#pdf877bfba0)" d="M 74.065678 234.692267 
L 77.261669 234.692267 
L 80.457659 234.692267 
L 83.65365 234.692267 
L 86.84964 234.692267 
L 90.045631 234.692267 
L 93.241621 234.692267 
L 96.437612 234.692267 
L 99.633603 234.692267 
L 102.829593 234.692267 
L 106.025584 234.692267 
L 109.221574 234.692267 
L 112.417565 234.692267 
L 115.613555 234.692267 
L 118.809546 234.692267 
L 122.005537 234.692267 
L 125.201527 234.692267 
L 128.397518 234.692267 
L 131.593508 234.692267 
L 134.789499 234.692267 
L 137.985489 234.692267 
L 141.18148 234.692267 
L 144.377471 234.692267 
L 147.573461 234.692267 
L 150.769452 234.692267 
L 153.965442 234.692267 
L 157.161433 234.692267 
L 160.357423 234.692267 
L 163.553414 234.692267 
L 166.749404 234.692267 
L 169.945395 234.692267 
L 173.141386 234.692267 
L 176.337376 234.692267 
L 179.533367 234.692267 
L 182.729357 234.692267 
L 185.925348 234.692267 
L 189.121338 234.692267 
L 192.317329 234.692267 
L 195.51332 234.692267 
L 198.70931 234.692267 
L 201.905301 234.692267 
L 205.101291 234.692267 
L 208.297282 234.692267 
L 211.493272 234.692267 
L 214.689263 234.692267 
L 217.885254 234.692267 
L 221.081244 234.692267 
L 224.277235 234.692267 
L 227.473225 234.692267 
L 230.669216 234.692267 
L 233.865206 234.692267 
L 237.061197 234.692267 
L 240.257187 234.692267 
L 243.453178 234.692267 
L 246.649169 234.692267 
L 249.845159 234.692267 
L 253.04115 234.692267 
L 256.23714 234.692267 
L 259.433131 234.692267 
L 262.629121 234.692267 
L 265.825112 234.692267 
L 269.021103 234.692267 
L 272.217093 234.692267 
L 275.413084 234.692267 
L 278.609074 234.692267 
L 281.805065 234.692267 
L 285.001055 234.692267 
L 288.197046 234.692267 
L 291.393037 234.692267 
L 294.589027 234.692267 
L 297.785018 234.692267 
L 300.981008 234.692267 
L 304.176999 234.692267 
L 307.372989 234.692267 
L 310.56898 234.692267 
L 313.764971 234.692267 
L 316.960961 234.692267 
L 320.156952 234.692267 
L 323.352942 234.692267 
L 326.548933 234.692267 
L 329.744923 234.692267 
L 332.940914 234.692267 
L 336.136904 234.692267 
L 339.332895 234.692267 
L 342.528886 234.692267 
L 345.724876 234.692267 
L 348.920867 234.692267 
L 352.116857 234.692267 
L 355.312848 234.692267 
L 358.508838 234.692267 
L 361.704829 234.692267 
L 364.90082 234.692267 
L 368.09681 234.692267 
L 371.292801 234.692267 
L 374.488791 234.692267 
L 377.684782 234.692267 
L 380.880772 234.692267 
L 384.076763 234.692267 
L 387.272754 234.692267 
L 390.468744 234.692267 
L 393.664735 234.692267 
L 396.860725 234.692267 
L 400.056716 234.692267 
L 403.252706 234.692267 
L 406.448697 234.692267 
" style="fill:none;stroke:#bf00bf;stroke-dasharray:5.55,2.4;stroke-dashoffset:0;stroke-width:1.5;"/>
    <defs>
     <path d="M 0 -2 
L -0.449028 -0.618034 
L -1.902113 -0.618034 
L -0.726543 0.236068 
L -1.175571 1.618034 
L -0 0.763932 
L 1.175571 1.618034 
L 0.726543 0.236068 
L 1.902113 -0.618034 
L 0.449028 -0.618034 
z
" id="m21340877ea" style="stroke:#bf00bf;stroke-linejoin:bevel;"/>
    </defs>
    <g clip-path="url(#pdf877bfba0)">
     <use style="fill:#bf00bf;stroke:#bf00bf;stroke-linejoin:bevel;" x="74.065678" xlink:href="#m21340877ea" y="234.692267"/>
     <use style="fill:#bf00bf;stroke:#bf00bf;stroke-linejoin:bevel;" x="77.261669" xlink:href="#m21340877ea" y="234.692267"/>
     <use style="fill:#bf00bf;stroke:#bf00bf;stroke-linejoin:bevel;" x="80.457659" xlink:href="#m21340877ea" y="234.692267"/>
     <use style="fill:#bf00bf;stroke:#bf00bf;stroke-linejoin:bevel;" x="83.65365" xlink:href="#m21340877ea" y="234.692267"/>
     <use style="fill:#bf00bf;stroke:#bf00bf;stroke-linejoin:bevel;" x="86.84964" xlink:href="#m21340877ea" y="234.692267"/>
     <use style="fill:#bf00bf;stroke:#bf00bf;stroke-linejoin:bevel;" x="90.045631" xlink:href="#m21340877ea" y="234.692267"/>
     <use style="fill:#bf00bf;stroke:#bf00bf;stroke-linejoin:bevel;" x="93.241621" xlink:href="#m21340877ea" y="234.692267"/>
     <use style="fill:#bf00bf;stroke:#bf00bf;stroke-linejoin:bevel;" x="96.437612" xlink:href="#m21340877ea" y="234.692267"/>
     <use style="fill:#bf00bf;stroke:#bf00bf;stroke-linejoin:bevel;" x="99.633603" xlink:href="#m21340877ea" y="234.692267"/>
     <use style="fill:#bf00bf;stroke:#bf00bf;stroke-linejoin:bevel;" x="102.829593" xlink:href="#m21340877ea" y="234.692267"/>
     <use style="fill:#bf00bf;stroke:#bf00bf;stroke-linejoin:bevel;" x="106.025584" xlink:href="#m21340877ea" y="234.692267"/>
     <use style="fill:#bf00bf;stroke:#bf00bf;stroke-linejoin:bevel;" x="109.221574" xlink:href="#m21340877ea" y="234.692267"/>
     <use style="fill:#bf00bf;stroke:#bf00bf;stroke-linejoin:bevel;" x="112.417565" xlink:href="#m21340877ea" y="234.692267"/>
     <use style="fill:#bf00bf;stroke:#bf00bf;stroke-linejoin:bevel;" x="115.613555" xlink:href="#m21340877ea" y="234.692267"/>
     <use style="fill:#bf00bf;stroke:#bf00bf;stroke-linejoin:bevel;" x="118.809546" xlink:href="#m21340877ea" y="234.692267"/>
     <use style="fill:#bf00bf;stroke:#bf00bf;stroke-linejoin:bevel;" x="122.005537" xlink:href="#m21340877ea" y="234.692267"/>
     <use style="fill:#bf00bf;stroke:#bf00bf;stroke-linejoin:bevel;" x="125.201527" xlink:href="#m21340877ea" y="234.692267"/>
     <use style="fill:#bf00bf;stroke:#bf00bf;stroke-linejoin:bevel;" x="128.397518" xlink:href="#m21340877ea" y="234.692267"/>
     <use style="fill:#bf00bf;stroke:#bf00bf;stroke-linejoin:bevel;" x="131.593508" xlink:href="#m21340877ea" y="234.692267"/>
     <use style="fill:#bf00bf;stroke:#bf00bf;stroke-linejoin:bevel;" x="134.789499" xlink:href="#m21340877ea" y="234.692267"/>
     <use style="fill:#bf00bf;stroke:#bf00bf;stroke-linejoin:bevel;" x="137.985489" xlink:href="#m21340877ea" y="234.692267"/>
     <use style="fill:#bf00bf;stroke:#bf00bf;stroke-linejoin:bevel;" x="141.18148" xlink:href="#m21340877ea" y="234.692267"/>
     <use style="fill:#bf00bf;stroke:#bf00bf;stroke-linejoin:bevel;" x="144.377471" xlink:href="#m21340877ea" y="234.692267"/>
     <use style="fill:#bf00bf;stroke:#bf00bf;stroke-linejoin:bevel;" x="147.573461" xlink:href="#m21340877ea" y="234.692267"/>
     <use style="fill:#bf00bf;stroke:#bf00bf;stroke-linejoin:bevel;" x="150.769452" xlink:href="#m21340877ea" y="234.692267"/>
     <use style="fill:#bf00bf;stroke:#bf00bf;stroke-linejoin:bevel;" x="153.965442" xlink:href="#m21340877ea" y="234.692267"/>
     <use style="fill:#bf00bf;stroke:#bf00bf;stroke-linejoin:bevel;" x="157.161433" xlink:href="#m21340877ea" y="234.692267"/>
     <use style="fill:#bf00bf;stroke:#bf00bf;stroke-linejoin:bevel;" x="160.357423" xlink:href="#m21340877ea" y="234.692267"/>
     <use style="fill:#bf00bf;stroke:#bf00bf;stroke-linejoin:bevel;" x="163.553414" xlink:href="#m21340877ea" y="234.692267"/>
     <use style="fill:#bf00bf;stroke:#bf00bf;stroke-linejoin:bevel;" x="166.749404" xlink:href="#m21340877ea" y="234.692267"/>
     <use style="fill:#bf00bf;stroke:#bf00bf;stroke-linejoin:bevel;" x="169.945395" xlink:href="#m21340877ea" y="234.692267"/>
     <use style="fill:#bf00bf;stroke:#bf00bf;stroke-linejoin:bevel;" x="173.141386" xlink:href="#m21340877ea" y="234.692267"/>
     <use style="fill:#bf00bf;stroke:#bf00bf;stroke-linejoin:bevel;" x="176.337376" xlink:href="#m21340877ea" y="234.692267"/>
     <use style="fill:#bf00bf;stroke:#bf00bf;stroke-linejoin:bevel;" x="179.533367" xlink:href="#m21340877ea" y="234.692267"/>
     <use style="fill:#bf00bf;stroke:#bf00bf;stroke-linejoin:bevel;" x="182.729357" xlink:href="#m21340877ea" y="234.692267"/>
     <use style="fill:#bf00bf;stroke:#bf00bf;stroke-linejoin:bevel;" x="185.925348" xlink:href="#m21340877ea" y="234.692267"/>
     <use style="fill:#bf00bf;stroke:#bf00bf;stroke-linejoin:bevel;" x="189.121338" xlink:href="#m21340877ea" y="234.692267"/>
     <use style="fill:#bf00bf;stroke:#bf00bf;stroke-linejoin:bevel;" x="192.317329" xlink:href="#m21340877ea" y="234.692267"/>
     <use style="fill:#bf00bf;stroke:#bf00bf;stroke-linejoin:bevel;" x="195.51332" xlink:href="#m21340877ea" y="234.692267"/>
     <use style="fill:#bf00bf;stroke:#bf00bf;stroke-linejoin:bevel;" x="198.70931" xlink:href="#m21340877ea" y="234.692267"/>
     <use style="fill:#bf00bf;stroke:#bf00bf;stroke-linejoin:bevel;" x="201.905301" xlink:href="#m21340877ea" y="234.692267"/>
     <use style="fill:#bf00bf;stroke:#bf00bf;stroke-linejoin:bevel;" x="205.101291" xlink:href="#m21340877ea" y="234.692267"/>
     <use style="fill:#bf00bf;stroke:#bf00bf;stroke-linejoin:bevel;" x="208.297282" xlink:href="#m21340877ea" y="234.692267"/>
     <use style="fill:#bf00bf;stroke:#bf00bf;stroke-linejoin:bevel;" x="211.493272" xlink:href="#m21340877ea" y="234.692267"/>
     <use style="fill:#bf00bf;stroke:#bf00bf;stroke-linejoin:bevel;" x="214.689263" xlink:href="#m21340877ea" y="234.692267"/>
     <use style="fill:#bf00bf;stroke:#bf00bf;stroke-linejoin:bevel;" x="217.885254" xlink:href="#m21340877ea" y="234.692267"/>
     <use style="fill:#bf00bf;stroke:#bf00bf;stroke-linejoin:bevel;" x="221.081244" xlink:href="#m21340877ea" y="234.692267"/>
     <use style="fill:#bf00bf;stroke:#bf00bf;stroke-linejoin:bevel;" x="224.277235" xlink:href="#m21340877ea" y="234.692267"/>
     <use style="fill:#bf00bf;stroke:#bf00bf;stroke-linejoin:bevel;" x="227.473225" xlink:href="#m21340877ea" y="234.692267"/>
     <use style="fill:#bf00bf;stroke:#bf00bf;stroke-linejoin:bevel;" x="230.669216" xlink:href="#m21340877ea" y="234.692267"/>
     <use style="fill:#bf00bf;stroke:#bf00bf;stroke-linejoin:bevel;" x="233.865206" xlink:href="#m21340877ea" y="234.692267"/>
     <use style="fill:#bf00bf;stroke:#bf00bf;stroke-linejoin:bevel;" x="237.061197" xlink:href="#m21340877ea" y="234.692267"/>
     <use style="fill:#bf00bf;stroke:#bf00bf;stroke-linejoin:bevel;" x="240.257187" xlink:href="#m21340877ea" y="234.692267"/>
     <use style="fill:#bf00bf;stroke:#bf00bf;stroke-linejoin:bevel;" x="243.453178" xlink:href="#m21340877ea" y="234.692267"/>
     <use style="fill:#bf00bf;stroke:#bf00bf;stroke-linejoin:bevel;" x="246.649169" xlink:href="#m21340877ea" y="234.692267"/>
     <use style="fill:#bf00bf;stroke:#bf00bf;stroke-linejoin:bevel;" x="249.845159" xlink:href="#m21340877ea" y="234.692267"/>
     <use style="fill:#bf00bf;stroke:#bf00bf;stroke-linejoin:bevel;" x="253.04115" xlink:href="#m21340877ea" y="234.692267"/>
     <use style="fill:#bf00bf;stroke:#bf00bf;stroke-linejoin:bevel;" x="256.23714" xlink:href="#m21340877ea" y="234.692267"/>
     <use style="fill:#bf00bf;stroke:#bf00bf;stroke-linejoin:bevel;" x="259.433131" xlink:href="#m21340877ea" y="234.692267"/>
     <use style="fill:#bf00bf;stroke:#bf00bf;stroke-linejoin:bevel;" x="262.629121" xlink:href="#m21340877ea" y="234.692267"/>
     <use style="fill:#bf00bf;stroke:#bf00bf;stroke-linejoin:bevel;" x="265.825112" xlink:href="#m21340877ea" y="234.692267"/>
     <use style="fill:#bf00bf;stroke:#bf00bf;stroke-linejoin:bevel;" x="269.021103" xlink:href="#m21340877ea" y="234.692267"/>
     <use style="fill:#bf00bf;stroke:#bf00bf;stroke-linejoin:bevel;" x="272.217093" xlink:href="#m21340877ea" y="234.692267"/>
     <use style="fill:#bf00bf;stroke:#bf00bf;stroke-linejoin:bevel;" x="275.413084" xlink:href="#m21340877ea" y="234.692267"/>
     <use style="fill:#bf00bf;stroke:#bf00bf;stroke-linejoin:bevel;" x="278.609074" xlink:href="#m21340877ea" y="234.692267"/>
     <use style="fill:#bf00bf;stroke:#bf00bf;stroke-linejoin:bevel;" x="281.805065" xlink:href="#m21340877ea" y="234.692267"/>
     <use style="fill:#bf00bf;stroke:#bf00bf;stroke-linejoin:bevel;" x="285.001055" xlink:href="#m21340877ea" y="234.692267"/>
     <use style="fill:#bf00bf;stroke:#bf00bf;stroke-linejoin:bevel;" x="288.197046" xlink:href="#m21340877ea" y="234.692267"/>
     <use style="fill:#bf00bf;stroke:#bf00bf;stroke-linejoin:bevel;" x="291.393037" xlink:href="#m21340877ea" y="234.692267"/>
     <use style="fill:#bf00bf;stroke:#bf00bf;stroke-linejoin:bevel;" x="294.589027" xlink:href="#m21340877ea" y="234.692267"/>
     <use style="fill:#bf00bf;stroke:#bf00bf;stroke-linejoin:bevel;" x="297.785018" xlink:href="#m21340877ea" y="234.692267"/>
     <use style="fill:#bf00bf;stroke:#bf00bf;stroke-linejoin:bevel;" x="300.981008" xlink:href="#m21340877ea" y="234.692267"/>
     <use style="fill:#bf00bf;stroke:#bf00bf;stroke-linejoin:bevel;" x="304.176999" xlink:href="#m21340877ea" y="234.692267"/>
     <use style="fill:#bf00bf;stroke:#bf00bf;stroke-linejoin:bevel;" x="307.372989" xlink:href="#m21340877ea" y="234.692267"/>
     <use style="fill:#bf00bf;stroke:#bf00bf;stroke-linejoin:bevel;" x="310.56898" xlink:href="#m21340877ea" y="234.692267"/>
     <use style="fill:#bf00bf;stroke:#bf00bf;stroke-linejoin:bevel;" x="313.764971" xlink:href="#m21340877ea" y="234.692267"/>
     <use style="fill:#bf00bf;stroke:#bf00bf;stroke-linejoin:bevel;" x="316.960961" xlink:href="#m21340877ea" y="234.692267"/>
     <use style="fill:#bf00bf;stroke:#bf00bf;stroke-linejoin:bevel;" x="320.156952" xlink:href="#m21340877ea" y="234.692267"/>
     <use style="fill:#bf00bf;stroke:#bf00bf;stroke-linejoin:bevel;" x="323.352942" xlink:href="#m21340877ea" y="234.692267"/>
     <use style="fill:#bf00bf;stroke:#bf00bf;stroke-linejoin:bevel;" x="326.548933" xlink:href="#m21340877ea" y="234.692267"/>
     <use style="fill:#bf00bf;stroke:#bf00bf;stroke-linejoin:bevel;" x="329.744923" xlink:href="#m21340877ea" y="234.692267"/>
     <use style="fill:#bf00bf;stroke:#bf00bf;stroke-linejoin:bevel;" x="332.940914" xlink:href="#m21340877ea" y="234.692267"/>
     <use style="fill:#bf00bf;stroke:#bf00bf;stroke-linejoin:bevel;" x="336.136904" xlink:href="#m21340877ea" y="234.692267"/>
     <use style="fill:#bf00bf;stroke:#bf00bf;stroke-linejoin:bevel;" x="339.332895" xlink:href="#m21340877ea" y="234.692267"/>
     <use style="fill:#bf00bf;stroke:#bf00bf;stroke-linejoin:bevel;" x="342.528886" xlink:href="#m21340877ea" y="234.692267"/>
     <use style="fill:#bf00bf;stroke:#bf00bf;stroke-linejoin:bevel;" x="345.724876" xlink:href="#m21340877ea" y="234.692267"/>
     <use style="fill:#bf00bf;stroke:#bf00bf;stroke-linejoin:bevel;" x="348.920867" xlink:href="#m21340877ea" y="234.692267"/>
     <use style="fill:#bf00bf;stroke:#bf00bf;stroke-linejoin:bevel;" x="352.116857" xlink:href="#m21340877ea" y="234.692267"/>
     <use style="fill:#bf00bf;stroke:#bf00bf;stroke-linejoin:bevel;" x="355.312848" xlink:href="#m21340877ea" y="234.692267"/>
     <use style="fill:#bf00bf;stroke:#bf00bf;stroke-linejoin:bevel;" x="358.508838" xlink:href="#m21340877ea" y="234.692267"/>
     <use style="fill:#bf00bf;stroke:#bf00bf;stroke-linejoin:bevel;" x="361.704829" xlink:href="#m21340877ea" y="234.692267"/>
     <use style="fill:#bf00bf;stroke:#bf00bf;stroke-linejoin:bevel;" x="364.90082" xlink:href="#m21340877ea" y="234.692267"/>
     <use style="fill:#bf00bf;stroke:#bf00bf;stroke-linejoin:bevel;" x="368.09681" xlink:href="#m21340877ea" y="234.692267"/>
     <use style="fill:#bf00bf;stroke:#bf00bf;stroke-linejoin:bevel;" x="371.292801" xlink:href="#m21340877ea" y="234.692267"/>
     <use style="fill:#bf00bf;stroke:#bf00bf;stroke-linejoin:bevel;" x="374.488791" xlink:href="#m21340877ea" y="234.692267"/>
     <use style="fill:#bf00bf;stroke:#bf00bf;stroke-linejoin:bevel;" x="377.684782" xlink:href="#m21340877ea" y="234.692267"/>
     <use style="fill:#bf00bf;stroke:#bf00bf;stroke-linejoin:bevel;" x="380.880772" xlink:href="#m21340877ea" y="234.692267"/>
     <use style="fill:#bf00bf;stroke:#bf00bf;stroke-linejoin:bevel;" x="384.076763" xlink:href="#m21340877ea" y="234.692267"/>
     <use style="fill:#bf00bf;stroke:#bf00bf;stroke-linejoin:bevel;" x="387.272754" xlink:href="#m21340877ea" y="234.692267"/>
     <use style="fill:#bf00bf;stroke:#bf00bf;stroke-linejoin:bevel;" x="390.468744" xlink:href="#m21340877ea" y="234.692267"/>
     <use style="fill:#bf00bf;stroke:#bf00bf;stroke-linejoin:bevel;" x="393.664735" xlink:href="#m21340877ea" y="234.692267"/>
     <use style="fill:#bf00bf;stroke:#bf00bf;stroke-linejoin:bevel;" x="396.860725" xlink:href="#m21340877ea" y="234.692267"/>
     <use style="fill:#bf00bf;stroke:#bf00bf;stroke-linejoin:bevel;" x="400.056716" xlink:href="#m21340877ea" y="234.692267"/>
     <use style="fill:#bf00bf;stroke:#bf00bf;stroke-linejoin:bevel;" x="403.252706" xlink:href="#m21340877ea" y="234.692267"/>
     <use style="fill:#bf00bf;stroke:#bf00bf;stroke-linejoin:bevel;" x="406.448697" xlink:href="#m21340877ea" y="234.692267"/>
    </g>
   </g>
   <g id="patch_3">
    <path d="M 70.869688 243.041494 
L 70.869688 59.358506 
" style="fill:none;stroke:#000000;stroke-linecap:square;stroke-linejoin:miter;stroke-width:0.8;"/>
   </g>
   <g id="patch_4">
    <path d="M 409.644687 243.041494 
L 409.644687 59.358506 
" style="fill:none;stroke:#000000;stroke-linecap:square;stroke-linejoin:miter;stroke-width:0.8;"/>
   </g>
   <g id="patch_5">
    <path d="M 70.869688 243.041494 
L 409.644687 243.041494 
" style="fill:none;stroke:#000000;stroke-linecap:square;stroke-linejoin:miter;stroke-width:0.8;"/>
   </g>
   <g id="patch_6">
    <path d="M 70.869688 59.358506 
L 409.644687 59.358506 
" style="fill:none;stroke:#000000;stroke-linecap:square;stroke-linejoin:miter;stroke-width:0.8;"/>
   </g>
   <g id="legend_1">
    <g id="patch_7">
     <path d="M 180.324687 171.502655 
L 397.044687 171.502655 
Q 400.644687 171.502655 400.644687 167.902655 
L 400.644687 81.142655 
Q 400.644687 77.542655 397.044687 77.542655 
L 180.324687 77.542655 
Q 176.724687 77.542655 176.724687 81.142655 
L 176.724687 167.902655 
Q 176.724687 171.502655 180.324687 171.502655 
z
" style="fill:#ffffff;opacity:0.8;stroke:#cccccc;stroke-linejoin:miter;"/>
    </g>
    <g id="line2d_36">
     <path d="M 183.924687 93.562655 
L 219.924687 93.562655 
" style="fill:none;stroke:#ffa500;stroke-dasharray:5.55,2.4;stroke-dashoffset:0;stroke-width:1.5;"/>
    </g>
    <g id="line2d_37">
     <g>
      <use style="fill:#ffa500;stroke:#ffa500;stroke-linejoin:miter;" x="201.924687" xlink:href="#m644b9c698c" y="93.562655"/>
     </g>
    </g>
    <g id="text_19">
     <!-- Linear: $\frac{\pi}{4}d_0$ -->
     <defs>
      <path d="M 9.03125 41.84375 
L 9.03125 51.859375 
L 19.046875 51.859375 
L 19.046875 41.84375 
z
M 9.03125 0 
L 9.03125 10.015625 
L 19.046875 10.015625 
L 19.046875 0 
z
" id="ArialMT-58"/>
      <path d="M 9.125 54.6875 
L 61.53125 54.6875 
L 59.765625 45.703125 
L 52.875 45.703125 
L 46.34375 12.109375 
Q 45.65625 8.59375 46.578125 7.03125 
Q 47.46875 5.515625 50.140625 5.515625 
Q 50.875 5.515625 51.953125 5.671875 
Q 53.078125 5.765625 53.421875 5.8125 
L 52.15625 -0.6875 
Q 50.34375 -1.3125 48.484375 -1.609375 
Q 46.578125 -1.90625 44.78125 -1.90625 
Q 38.921875 -1.90625 37.3125 1.265625 
Q 35.6875 4.5 37.359375 13.09375 
L 43.703125 45.703125 
L 23.53125 45.703125 
L 14.65625 0 
L 5.46875 0 
L 14.359375 45.703125 
L 7.375 45.703125 
z
" id="DejaVuSans-Oblique-960"/>
      <path d="M 37.796875 64.3125 
L 12.890625 25.390625 
L 37.796875 25.390625 
z
M 35.203125 72.90625 
L 47.609375 72.90625 
L 47.609375 25.390625 
L 58.015625 25.390625 
L 58.015625 17.1875 
L 47.609375 17.1875 
L 47.609375 0 
L 37.796875 0 
L 37.796875 17.1875 
L 4.890625 17.1875 
L 4.890625 26.703125 
z
" id="DejaVuSans-52"/>
      <path d="M 31.78125 66.40625 
Q 24.171875 66.40625 20.328125 58.90625 
Q 16.5 51.421875 16.5 36.375 
Q 16.5 21.390625 20.328125 13.890625 
Q 24.171875 6.390625 31.78125 6.390625 
Q 39.453125 6.390625 43.28125 13.890625 
Q 47.125 21.390625 47.125 36.375 
Q 47.125 51.421875 43.28125 58.90625 
Q 39.453125 66.40625 31.78125 66.40625 
z
M 31.78125 74.21875 
Q 44.046875 74.21875 50.515625 64.515625 
Q 56.984375 54.828125 56.984375 36.375 
Q 56.984375 17.96875 50.515625 8.265625 
Q 44.046875 -1.421875 31.78125 -1.421875 
Q 19.53125 -1.421875 13.0625 8.265625 
Q 6.59375 17.96875 6.59375 36.375 
Q 6.59375 54.828125 13.0625 64.515625 
Q 19.53125 74.21875 31.78125 74.21875 
z
" id="DejaVuSans-48"/>
     </defs>
     <g transform="translate(234.324687 99.862655)scale(0.18 -0.18)">
      <use transform="translate(0 0.5875)" xlink:href="#ArialMT-76"/>
      <use transform="translate(55.615234 0.5875)" xlink:href="#ArialMT-105"/>
      <use transform="translate(77.832031 0.5875)" xlink:href="#ArialMT-110"/>
      <use transform="translate(133.447266 0.5875)" xlink:href="#ArialMT-101"/>
      <use transform="translate(189.0625 0.5875)" xlink:href="#ArialMT-97"/>
      <use transform="translate(244.677734 0.5875)" xlink:href="#ArialMT-114"/>
      <use transform="translate(277.978516 0.5875)" xlink:href="#ArialMT-58"/>
      <use transform="translate(305.761719 0.5875)" xlink:href="#ArialMT-32"/>
      <use transform="translate(334.544922 45.71875)scale(0.7)" xlink:href="#DejaVuSans-Oblique-960"/>
      <use transform="translate(333.544922 -37.9)scale(0.7)" xlink:href="#DejaVuSans-52"/>
      <use transform="translate(390.581055 0.5875)" xlink:href="#DejaVuSans-Oblique-100"/>
      <use transform="translate(454.057617 -15.81875)scale(0.7)" xlink:href="#DejaVuSans-48"/>
      <path d="M 333.544922 19.384375 
L 333.544922 25.634375 
L 378.081055 25.634375 
L 378.081055 19.384375 
L 333.544922 19.384375 
z
"/>
     </g>
    </g>
    <g id="line2d_38">
     <path d="M 183.924687 123.262655 
L 219.924687 123.262655 
" style="fill:none;stroke:#000000;stroke-dasharray:5.55,2.4;stroke-dashoffset:0;stroke-width:1.5;"/>
    </g>
    <g id="line2d_39">
     <g>
      <use style="stroke:#000000;" x="201.924687" xlink:href="#mf9adb26b98" y="123.262655"/>
     </g>
    </g>
    <g id="text_20">
     <!-- Exponential fit: $d(k)$ -->
     <defs>
      <path d="M 7.90625 0 
L 7.90625 71.578125 
L 59.671875 71.578125 
L 59.671875 63.140625 
L 17.390625 63.140625 
L 17.390625 41.21875 
L 56.984375 41.21875 
L 56.984375 32.8125 
L 17.390625 32.8125 
L 17.390625 8.453125 
L 61.328125 8.453125 
L 61.328125 0 
z
" id="ArialMT-69"/>
      <path d="M 0.734375 0 
L 19.671875 26.953125 
L 2.15625 51.859375 
L 13.140625 51.859375 
L 21.09375 39.703125 
Q 23.34375 36.234375 24.703125 33.890625 
Q 26.859375 37.109375 28.65625 39.59375 
L 37.40625 51.859375 
L 47.90625 51.859375 
L 29.984375 27.4375 
L 49.265625 0 
L 38.484375 0 
L 27.828125 16.109375 
L 25 20.453125 
L 11.375 0 
z
" id="ArialMT-120"/>
      <path d="M 6.59375 -19.875 
L 6.59375 51.859375 
L 14.59375 51.859375 
L 14.59375 45.125 
Q 17.4375 49.078125 21 51.046875 
Q 24.5625 53.03125 29.640625 53.03125 
Q 36.28125 53.03125 41.359375 49.609375 
Q 46.4375 46.1875 49.015625 39.953125 
Q 51.609375 33.734375 51.609375 26.3125 
Q 51.609375 18.359375 48.75 11.984375 
Q 45.90625 5.609375 40.453125 2.21875 
Q 35.015625 -1.171875 29 -1.171875 
Q 24.609375 -1.171875 21.109375 0.6875 
Q 17.625 2.546875 15.375 5.375 
L 15.375 -19.875 
z
M 14.546875 25.640625 
Q 14.546875 15.625 18.59375 10.84375 
Q 22.65625 6.0625 28.421875 6.0625 
Q 34.28125 6.0625 38.453125 11.015625 
Q 42.625 15.96875 42.625 26.375 
Q 42.625 36.28125 38.546875 41.203125 
Q 34.46875 46.140625 28.8125 46.140625 
Q 23.1875 46.140625 18.859375 40.890625 
Q 14.546875 35.640625 14.546875 25.640625 
z
" id="ArialMT-112"/>
     </defs>
     <g transform="translate(234.324687 129.562655)scale(0.18 -0.18)">
      <use transform="translate(0 0.015625)" xlink:href="#ArialMT-69"/>
      <use transform="translate(66.699219 0.015625)" xlink:href="#ArialMT-120"/>
      <use transform="translate(116.699219 0.015625)" xlink:href="#ArialMT-112"/>
      <use transform="translate(172.314453 0.015625)" xlink:href="#ArialMT-111"/>
      <use transform="translate(227.929688 0.015625)" xlink:href="#ArialMT-110"/>
      <use transform="translate(283.544922 0.015625)" xlink:href="#ArialMT-101"/>
      <use transform="translate(339.160156 0.015625)" xlink:href="#ArialMT-110"/>
      <use transform="translate(394.775391 0.015625)" xlink:href="#ArialMT-116"/>
      <use transform="translate(422.558594 0.015625)" xlink:href="#ArialMT-105"/>
      <use transform="translate(444.775391 0.015625)" xlink:href="#ArialMT-97"/>
      <use transform="translate(500.390625 0.015625)" xlink:href="#ArialMT-108"/>
      <use transform="translate(522.607422 0.015625)" xlink:href="#ArialMT-32"/>
      <use transform="translate(550.390625 0.015625)" xlink:href="#ArialMT-102"/>
      <use transform="translate(578.173828 0.015625)" xlink:href="#ArialMT-105"/>
      <use transform="translate(600.390625 0.015625)" xlink:href="#ArialMT-116"/>
      <use transform="translate(628.173828 0.015625)" xlink:href="#ArialMT-58"/>
      <use transform="translate(655.957031 0.015625)" xlink:href="#ArialMT-32"/>
      <use transform="translate(683.740234 0.015625)" xlink:href="#DejaVuSans-Oblique-100"/>
      <use transform="translate(747.216797 0.015625)" xlink:href="#DejaVuSans-40"/>
      <use transform="translate(786.230469 0.015625)" xlink:href="#DejaVuSans-Oblique-107"/>
      <use transform="translate(844.140625 0.015625)" xlink:href="#DejaVuSans-41"/>
     </g>
    </g>
    <g id="line2d_40">
     <path d="M 183.924687 150.982655 
L 219.924687 150.982655 
" style="fill:none;stroke:#bf00bf;stroke-dasharray:5.55,2.4;stroke-dashoffset:0;stroke-width:1.5;"/>
    </g>
    <g id="line2d_41">
     <g>
      <use style="fill:#bf00bf;stroke:#bf00bf;stroke-linejoin:bevel;" x="201.924687" xlink:href="#m21340877ea" y="150.982655"/>
     </g>
    </g>
    <g id="text_21">
     <!-- Linear fit: $\frac{\pi}{4}d_0a$ -->
     <defs>
      <path d="M 53.71875 31.203125 
L 47.609375 0 
L 38.625 0 
L 40.28125 8.296875 
Q 36.328125 3.421875 31.265625 1 
Q 26.21875 -1.421875 20.015625 -1.421875 
Q 13.03125 -1.421875 8.5625 2.84375 
Q 4.109375 7.125 4.109375 13.8125 
Q 4.109375 23.390625 11.75 28.953125 
Q 19.390625 34.515625 32.8125 34.515625 
L 45.3125 34.515625 
L 45.796875 36.921875 
Q 45.90625 37.3125 45.953125 37.765625 
Q 46 38.234375 46 39.203125 
Q 46 43.5625 42.453125 45.96875 
Q 38.921875 48.390625 32.515625 48.390625 
Q 28.125 48.390625 23.5 47.265625 
Q 18.890625 46.140625 14.015625 43.890625 
L 15.578125 52.203125 
Q 20.65625 54.109375 25.515625 55.046875 
Q 30.375 56 34.90625 56 
Q 44.578125 56 49.625 51.796875 
Q 54.6875 47.609375 54.6875 39.59375 
Q 54.6875 37.984375 54.4375 35.8125 
Q 54.203125 33.640625 53.71875 31.203125 
z
M 44 27.484375 
L 35.015625 27.484375 
Q 23.96875 27.484375 18.671875 24.53125 
Q 13.375 21.578125 13.375 15.375 
Q 13.375 11.078125 16.078125 8.640625 
Q 18.796875 6.203125 23.578125 6.203125 
Q 30.90625 6.203125 36.375 11.453125 
Q 41.84375 16.703125 43.609375 25.484375 
z
" id="DejaVuSans-Oblique-97"/>
     </defs>
     <g transform="translate(234.324687 157.282655)scale(0.18 -0.18)">
      <use transform="translate(0 0.5875)" xlink:href="#ArialMT-76"/>
      <use transform="translate(55.615234 0.5875)" xlink:href="#ArialMT-105"/>
      <use transform="translate(77.832031 0.5875)" xlink:href="#ArialMT-110"/>
      <use transform="translate(133.447266 0.5875)" xlink:href="#ArialMT-101"/>
      <use transform="translate(189.0625 0.5875)" xlink:href="#ArialMT-97"/>
      <use transform="translate(244.677734 0.5875)" xlink:href="#ArialMT-114"/>
      <use transform="translate(277.978516 0.5875)" xlink:href="#ArialMT-32"/>
      <use transform="translate(305.761719 0.5875)" xlink:href="#ArialMT-102"/>
      <use transform="translate(333.544922 0.5875)" xlink:href="#ArialMT-105"/>
      <use transform="translate(355.761719 0.5875)" xlink:href="#ArialMT-116"/>
      <use transform="translate(383.544922 0.5875)" xlink:href="#ArialMT-58"/>
      <use transform="translate(411.328125 0.5875)" xlink:href="#ArialMT-32"/>
      <use transform="translate(440.111328 45.71875)scale(0.7)" xlink:href="#DejaVuSans-Oblique-960"/>
      <use transform="translate(439.111328 -37.9)scale(0.7)" xlink:href="#DejaVuSans-52"/>
      <use transform="translate(496.147461 0.5875)" xlink:href="#DejaVuSans-Oblique-100"/>
      <use transform="translate(559.624023 -15.81875)scale(0.7)" xlink:href="#DejaVuSans-48"/>
      <use transform="translate(606.894531 0.5875)" xlink:href="#DejaVuSans-Oblique-97"/>
      <path d="M 439.111328 19.384375 
L 439.111328 25.634375 
L 483.647461 25.634375 
L 483.647461 19.384375 
L 439.111328 19.384375 
z
"/>
     </g>
    </g>
   </g>
  </g>
 </g>
 <defs>
  <clipPath id="pdf877bfba0">
   <rect height="183.682988" width="338.775" x="70.869688" y="59.358506"/>
  </clipPath>
 </defs>
</svg>
